<svg xmlns="http://www.w3.org/2000/svg" width="297.583" height="237.698" viewBox="0 0 297.583 237.698">
  <g id="그룹_1123" data-name="그룹 1123" transform="translate(-1454.713 -1443.234)">
    <g id="그룹_452" data-name="그룹 452" transform="translate(34.858 11.214)">
      <path id="패스_3200" data-name="패스 3200" d="M-196.255,397.33c4.63-3.088,20.669-8.331,27.084-22.837s10.209-32.3,9.28-43.5-5.942-20.346-13.051-28.124a26.872,26.872,0,0,0,.283-9.385c3.217,7.64,12.774,17.927,16.324,23.422s7.731,25.545,18.912,34.72c4.816,3.954,8.891,7.112,13.1,9.338a97.161,97.161,0,0,0-4.161,12.241c-1.173,5.182-1.894,9.138-4.465,14.7s-2.435,10.658-1.7,16.421-1.851,16.134-1.377,17.482,1.63-.87,5.927-5.5,14.2-14.23,19.984-24.833c5.164-9.459,3.045-20.8.151-26.762.437.011.877.016,1.326.013,3.133,6.763,9.944,15.266,15.253,21.877,5.883,7.327,3.727,12.049,11.457,21.219S-65.07,420.24-53.492,424.4s28.854-.387,29.09-.636-5.2-3.748-13.136-11.455c-9.885-9.745-25.35-17.493-33.46-19.073a43.913,43.913,0,0,1-21.166-10.122c-6.011-5.16-11.529-13.1-14.62-18.445.614-.028,1.235-.063,1.875-.115,14.158-1.158,26.343-1.632,25.788-2.443-2.751-2.842-7.745-.667-12.163-4.095s-15.066-12.765-21.458-15.508c-1.6-.688-4.18-1.515-7.253-2.529-1.441-1.932-3.129-4.559-1.132-3.951,9.651,4.7,13.411,1.825,24.194,8.874,11.561,7.123,31.194,3.535,39.508-1.645s15.725-15.291,14.057-14.032c-2.535,1.477-8.151.414-15.309-.076s-20.435,6.235-31.588,8.869-23.017.714-29.107-3.543-15.563-11.391-19.872-14.385c-4.16-2.891-11.712-7.631-16.987-10.846,2.946.2,5.857-.354,7.9.06,3.175.642,9.689,4.306,16.714,3.631s15.9-1.592,25.682-10.019,12.155-17.82,13.6-23.642,2.173-8.3.3-7.053c-4.886,4.456-16.645,8.026-26.285,10.958s-16.4,9.869-20.944,12.663-7.655,8.028-9.783,10.273c-2.011,2.123-7.088,1.8-12.307-.747-.647-.841-1.329-1.717-2.07-2.658-6.489-8.232-12.649-22.3-13.907-22.126-.883-.267-1.707-.2-1.387.864s6.027,14.514,2.759,19.46-9.015,2.723-16.611,12.937-11.793,25.876-13.149,38.789,1.631,24.5-.633,34.324-3.368,19.284-2.963,19.808S-200.887,400.419-196.255,397.33Zm61.994-70.91c5.185,3.426,8.768,9.146,10.458,12.284-8.8-3.028-19.659-7.412-24.011-13.912-3.5-5.23-5.838-8.779-8.206-12.164C-151.844,315.6-141.163,321.86-134.261,326.42Z" transform="matrix(-0.485, -0.875, 0.875, -0.485, 1243.204, 1618.398)" fill="#42ab6e"/>
      <path id="패스_3201" data-name="패스 3201" d="M-171.164,302.434c3.623,5.044,6.4,6.947,9.08,12.816,4.843,10.793,4.993,23.169,2.747,34.517-2.292,9.528-5.948,22.553-11.736,30.717s-15.146,12.241-23.57,17.2c-4.473,2.851-8.185,7.139-12.847,9.632.256-10.748,4.894-21.068,4.216-32.7-1.083-13.261-1.567-24.535,2.613-38.3,3.845-12.666,6.835-23.488,18.656-30.722,3.948-2.109,7.663-2.448,8.64-6.662,1.148-4.765-1.9-13.546-3.485-18.237" transform="matrix(-0.485, -0.875, 0.875, -0.485, 1249.304, 1620.07)" fill="none" stroke="#3a4a26" stroke-miterlimit="10" stroke-width="1"/>
      <path id="패스_3202" data-name="패스 3202" d="M-201.859,396.085c9.448-14.273,17.626-28.328,20.084-45.326q2.29-16.448,4.576-32.892c.85-5.028,2.225-9.775,3.1-14.495" transform="matrix(-0.485, -0.875, 0.875, -0.485, 1249.558, 1619.834)" fill="none" stroke="#3a4a26" stroke-miterlimit="10" stroke-width="1"/>
      <path id="패스_3203" data-name="패스 3203" d="M-178,321.074c4.074,9.358,14.225,14.548,15.07,25.629" transform="matrix(-0.485, -0.875, 0.875, -0.485, 1249.616, 1619.397)" fill="none" stroke="#3a4a26" stroke-miterlimit="10" stroke-width="1"/>
      <path id="패스_3204" data-name="패스 3204" d="M-171.113,330.578c2.06,2.127,4.838,3.876,7.449,6.17" transform="matrix(-0.485, -0.875, 0.875, -0.485, 1249.69, 1619.239)" fill="none" stroke="#3a4a26" stroke-miterlimit="10" stroke-width="1"/>
      <path id="패스_3206" data-name="패스 3206" d="M-176.217,314.209c2.85,4.474,8.741,6.867,11.952,11.149" transform="matrix(-0.485, -0.875, 0.875, -0.485, 1249.514, 1619.423)" fill="none" stroke="#3a4a26" stroke-miterlimit="10" stroke-width="1"/>
      <path id="패스_3207" data-name="패스 3207" d="M-171.369,292.643c5.175,9.692,12.756,17.408,18.47,26.811,3.719,6.318,3.76,12.871,6.8,19.206,3.612,7.414,10.043,12.976,16.6,18.124,16.327,13.079,32.768,4.992,51.617,5.3" transform="matrix(-0.485, -0.875, 0.875, -0.485, 1249.2, 1619.515)" fill="none" stroke="#3a4a26" stroke-miterlimit="10" stroke-width="1"/>
      <path id="패스_3208" data-name="패스 3208" d="M-161.988,302.711a106.469,106.469,0,0,1-6.277-9.419c-2.564-4.3-5.113-8.738-7.747-13.112a5.026,5.026,0,0,0-1.326.658" transform="matrix(-0.485, -0.875, 0.875, -0.485, 1249.081, 1619.682)" fill="none" stroke="#3a4a26" stroke-miterlimit="10" stroke-width="1"/>
      <path id="패스_3209" data-name="패스 3209" d="M-77.675,361.988c-.776-2.409-6.775-2.572-10.373-3.933-6.74-2.547-11.287-9.412-17.391-13.073-12.5-7.856-32.591-8.545-41.251-20.873-3.686-5.251-6.759-11.336-10.961-16.115-.037-.043-.076-.083-.111-.126" transform="matrix(-0.485, -0.875, 0.875, -0.485, 1249.299, 1619.229)" fill="none" stroke="#3a4a26" stroke-miterlimit="10" stroke-width="1"/>
      <path id="패스_3210" data-name="패스 3210" d="M-147.9,325.11c3.939,9.316,20.008,12.844,27.264,18.656a56.357,56.357,0,0,0,16.774,9.38c6.895,2.546,13.825,6.455,20.953,7.494" transform="matrix(-0.485, -0.875, 0.875, -0.485, 1249.452, 1618.977)" fill="none" stroke="#3a4a26" stroke-miterlimit="10" stroke-width="1"/>
      <path id="패스_3211" data-name="패스 3211" d="M-136.139,336.231c.181,1.634-.879,2.89-1.112,4.4-.714,3.843.416,5.316.923,8.852" transform="matrix(-0.485, -0.875, 0.875, -0.485, 1249.522, 1618.762)" fill="none" stroke="#3a4a26" stroke-miterlimit="10" stroke-width="1"/>
      <path id="패스_3212" data-name="패스 3212" d="M-127.428,340.436c-1.632,5.371,1.656,10.878.851,16.5" transform="matrix(-0.485, -0.875, 0.875, -0.485, 1249.507, 1618.607)" fill="none" stroke="#3a4a26" stroke-miterlimit="10" stroke-width="1"/>
      <path id="패스_3213" data-name="패스 3213" d="M-117.843,346.906c.7,5.853,2.876,10.573,5.753,15.957" transform="matrix(-0.485, -0.875, 0.875, -0.485, 1249.519, 1618.43)" fill="none" stroke="#3a4a26" stroke-miterlimit="10" stroke-width="1"/>
      <path id="패스_3214" data-name="패스 3214" d="M-117.3,351.735c.487,2.856-1.075,5.763-1,8.492" transform="matrix(-0.485, -0.875, 0.875, -0.485, 1249.585, 1618.401)" fill="none" stroke="#3a4a26" stroke-miterlimit="10" stroke-width="1"/>
      <path id="패스_3215" data-name="패스 3215" d="M-108.589,350.828c2.012,3.769,3.881,7.268,7.1,10.05" transform="matrix(-0.485, -0.875, 0.875, -0.485, 1249.503, 1618.282)" fill="none" stroke="#3a4a26" stroke-miterlimit="10" stroke-width="1"/>
      <path id="패스_3216" data-name="패스 3216" d="M-118.57,344.907c4.418,1.792,10,1.234,14.652,1.518" transform="matrix(-0.485, -0.875, 0.875, -0.485, 1249.498, 1618.454)" fill="none" stroke="#3a4a26" stroke-miterlimit="10" stroke-width="1"/>
      <path id="패스_3217" data-name="패스 3217" d="M-125.418,340.382c2.46.07,5.188,0,7.647.067" transform="matrix(-0.485, -0.875, 0.875, -0.485, 1249.489, 1618.575)" fill="none" stroke="#3a4a26" stroke-miterlimit="10" stroke-width="1"/>
      <path id="패스_3218" data-name="패스 3218" d="M-162.483,303.349c3.628,2.908,10.666,5.722,14.957,2.74,2.548-1.708,4.071-5.984,6.6-8.371a50.316,50.316,0,0,1,7.9-5.947c10.693-8.479,21.841-10.281,34.28-14.848,2.835-1.166,4.973-3,7.665-4.437" transform="matrix(-0.485, -0.875, 0.875, -0.485, 1248.874, 1619.545)" fill="none" stroke="#3a4a26" stroke-miterlimit="10" stroke-width="1"/>
      <path id="패스_3219" data-name="패스 3219" d="M-159.138,307.772c4.168,2.618,10.252.406,15.084,2.325,8.959,3.172,14.562,3.3,23.788,1.136,8.274-2,15.364-7.512,20.782-14.214,6.476-7.954,7.784-15.227,9.842-24.976" transform="matrix(-0.485, -0.875, 0.875, -0.485, 1248.844, 1619.505)" fill="none" stroke="#3a4a26" stroke-miterlimit="10" stroke-width="1"/>
      <path id="패스_3220" data-name="패스 3220" d="M-147.709,307.395c19.942-4.77,37.5-17.255,52.283-31.034" transform="matrix(-0.485, -0.875, 0.875, -0.485, 1248.818, 1619.325)" fill="none" stroke="#3a4a26" stroke-miterlimit="10" stroke-width="1"/>
      <path id="패스_3221" data-name="패스 3221" d="M-140.4,304.983c10.054-1.909,17.9,4.044,28.057,1.04" transform="matrix(-0.485, -0.875, 0.875, -0.485, 1249.132, 1619.027)" fill="none" stroke="#3a4a26" stroke-miterlimit="10" stroke-width="1"/>
      <path id="패스_3222" data-name="패스 3222" d="M-154.81,311.619c4.491,4.522,9.976,5.914,15.131,9.734a93.416,93.416,0,0,1,16.633,15.307" transform="matrix(-0.485, -0.875, 0.875, -0.485, 1249.327, 1619.164)" fill="none" stroke="#3a4a26" stroke-miterlimit="10" stroke-width="1"/>
      <path id="패스_3223" data-name="패스 3223" d="M-105.663,364.607c5.753,10.77,17.392,22.2,29.225,25.568,9.768,2.741,18.853,5.5,27.473,11.279,7.508,4.985,13.687,11.373,20.405,17.474,2.515,2.118,2.252,2.242,5.288,3.39" transform="matrix(-0.485, -0.875, 0.875, -0.485, 1249.661, 1618.145)" fill="none" stroke="#3a4a26" stroke-miterlimit="10" stroke-width="1"/>
      <path id="패스_3224" data-name="패스 3224" d="M-108.633,364.766c4.313,8.077,3.347,17.933-1.082,25.835-3.514,6.375-9.1,12.123-13.868,17.441-3.983,4.2-7.537,9.213-11.664,13.147-.4-4.631,1.378-9.73,1.518-14.651.285-4.649-.795-9.263-.1-13.788.949-5.349,3.82-10.342,5.038-15.837a118.086,118.086,0,0,1,4.872-16.79" transform="matrix(-0.485, -0.875, 0.875, -0.485, 1249.816, 1618.562)" fill="none" stroke="#3a4a26" stroke-miterlimit="10" stroke-width="1"/>
      <path id="패스_3225" data-name="패스 3225" d="M-105.165,368.093A91.043,91.043,0,0,0-94.654,383.24c5.767,6.262,6.093,13.353,10.64,19.921,9.81,14.482,34.251,24.613,51.214,20.744,4.075-.793,5.39-1.833,9.772-1.4" transform="matrix(-0.485, -0.875, 0.875, -0.485, 1249.703, 1618.113)" fill="none" stroke="#3a4a26" stroke-miterlimit="10" stroke-width="1"/>
      <path id="패스_3226" data-name="패스 3226" d="M-31.248,420.535c-8.851-4.269-18.226-7.566-26.686-12.391-4.992-2.87-9.732-6.566-14.868-9.7-4.437-2.476-11.046-4.483-13.757-8.915" transform="matrix(-0.485, -0.875, 0.875, -0.485, 1249.847, 1617.717)" fill="none" stroke="#3a4a26" stroke-miterlimit="10" stroke-width="1"/>
      <path id="패스_3227" data-name="패스 3227" d="M-76.314,395.3c6.174,1.2,12.6,1.575,18.779,2.773" transform="matrix(-0.485, -0.875, 0.875, -0.485, 1249.848, 1617.543)" fill="none" stroke="#3a4a26" stroke-miterlimit="10" stroke-width="1"/>
      <path id="패스_3228" data-name="패스 3228" d="M-119.64,338.8c-4.653-5.473-.98-4.173,2.131-2.616,3.811,1.906,8.358,2.6,12.344,3.587,4.253.842,5.674,2.146,9.14,4.1,12.479,7.173,27.83,4.167,39.4-2.015,7-3.737,9.619-7.9,14.105-13.761" transform="matrix(-0.485, -0.875, 0.875, -0.485, 1249.303, 1618.617)" fill="none" stroke="#3a4a26" stroke-miterlimit="10" stroke-width="1"/>
      <path id="패스_3229" data-name="패스 3229" d="M-152.874,310.04c11.78,6.51,21.985,15.248,32.831,22.6,12.662,8.81,27.077,6.646,40.343,2.33,5.96-1.8,11.595-5.5,17.859-6.078,7.361-.471,14.633,1.369,19.638-.483" transform="matrix(-0.485, -0.875, 0.875, -0.485, 1249.292, 1619.15)" fill="none" stroke="#3a4a26" stroke-miterlimit="10" stroke-width="1"/>
      <path id="패스_3230" data-name="패스 3230" d="M-97.184,339.759c8.745.176,16.931-.045,25.617-1.917,8.833-1.6,16.265-4.532,24.79-7.357" transform="matrix(-0.485, -0.875, 0.875, -0.485, 1249.157, 1618.28)" fill="none" stroke="#3a4a26" stroke-miterlimit="10" stroke-width="1"/>
      <path id="패스_3231" data-name="패스 3231" d="M-86.959,339.618c3.465,1.955,6.951,4.592,11.206,5.435" transform="matrix(-0.485, -0.875, 0.875, -0.485, 1249.202, 1618.082)" fill="none" stroke="#3a4a26" stroke-miterlimit="10" stroke-width="1"/>
      <path id="패스_3232" data-name="패스 3232" d="M-75.55,338.639a46.833,46.833,0,0,0,6.788,3.64" transform="matrix(-0.485, -0.875, 0.875, -0.485, 1249.107, 1617.94)" fill="none" stroke="#3a4a26" stroke-miterlimit="10" stroke-width="1"/>
      <path id="패스_3233" data-name="패스 3233" d="M-65.662,336.086c1.152,2.155,3.378,3.732,5.6,5.311" transform="matrix(-0.485, -0.875, 0.875, -0.485, 1249.003, 1617.831)" fill="none" stroke="#3a4a26" stroke-miterlimit="10" stroke-width="1"/>
      <path id="패스_3234" data-name="패스 3234" d="M-62.9,338.7c1.793.771,3.841.716,6.031.931" transform="matrix(-0.485, -0.875, 0.875, -0.485, 1249.017, 1617.776)" fill="none" stroke="#3a4a26" stroke-miterlimit="10" stroke-width="1"/>
      <path id="패스_3235" data-name="패스 3235" d="M-70.633,336.474c3.071-2.677,5.867-5.211,8.792-8.157" transform="matrix(-0.485, -0.875, 0.875, -0.485, 1248.938, 1617.951)" fill="none" stroke="#3a4a26" stroke-miterlimit="10" stroke-width="1"/>
    </g>
    <path id="패스_3237" data-name="패스 3237" d="M125.244,72.678c-1.3-.011-3.239-.091-5.643-.171s-5.275-.161-8.449-.173-6.645.044-10.25.236-7.333.522-11.025,1.055a81.233,81.233,0,0,0-10.349,2.182,74.056,74.056,0,0,0-8.826,3.08,63.106,63.106,0,0,0-7.19,3.579,47.019,47.019,0,0,0-5.465,3.69c-1.523,1.205-2.939,2.178-4.241,3.191a19.449,19.449,0,0,0-3.542,3.422,18.358,18.358,0,0,0-2.781,5.242,43.773,43.773,0,0,0-1.945,8.545c-.5,3.531-.814,6.942-1.026,10.118-.21,3.149-.318,6.071-.4,8.657-.082,2.568-.139,4.809-.246,6.617a17.885,17.885,0,0,1-.541,4.018,3.23,3.23,0,0,1-1.442,1.815,2.769,2.769,0,0,1-1.992.328,2.261,2.261,0,0,1-1.554-1.263,4.466,4.466,0,0,1-.12-2.98,33.154,33.154,0,0,1,1.136-3.563,22.064,22.064,0,0,0,.993-3.3,9.552,9.552,0,0,0,.023-3.633,14.822,14.822,0,0,0-1.792-4.585c-1-1.763-1.847-3.285-2.568-4.674a42.147,42.147,0,0,1-1.807-3.891,26.374,26.374,0,0,1-1.181-3.761,34.991,34.991,0,0,1-.7-4.314,14.833,14.833,0,0,0-1.551-4.931,36.282,36.282,0,0,0-3.162-5.1c-1.246-1.726-2.639-3.466-4.055-5.208s-2.867-3.5-4.209-5.25-2.581-3.413-3.648-4.974a38.62,38.62,0,0,1-2.658-4.4,13.64,13.64,0,0,1-1.34-3.8,5.53,5.53,0,0,1,.3-3.163,31.491,31.491,0,0,1,4.345,2.828,28.847,28.847,0,0,1,3.093,2.833c.931.973,1.82,1.991,2.828,3.1S24.4,76.362,25.8,77.68s2.958,2.72,4.508,4.211a57.645,57.645,0,0,1,4.437,4.692,24.882,24.882,0,0,1,3.368,5.1,12.659,12.659,0,0,1,1.332,5.442,40.188,40.188,0,0,0,.271,4.8,27.459,27.459,0,0,0,.593,3.312,16.66,16.66,0,0,0,.59,1.926,6.51,6.51,0,0,0,.268.625c.234-1.952.482-3.59.666-5.083a29.484,29.484,0,0,0,.277-4.232,19.474,19.474,0,0,0-.605-4.42,38.106,38.106,0,0,0-1.994-5.7,49.779,49.779,0,0,1-2.306-6.854c-.618-2.336-1.114-4.706-1.594-7.1-.483-2.411-.95-4.847-1.508-7.3a71.757,71.757,0,0,0-2.074-7.447c-.862-2.509-1.793-4.836-2.751-7.052s-1.955-4.343-2.934-6.415S24.391,42.068,23.472,40s-1.794-4.2-2.571-6.418-1.725-4.6-2.769-6.944-2.2-4.7-3.382-6.861a58.639,58.639,0,0,0-3.6-5.837,19.3,19.3,0,0,0-3.391-3.827A28.152,28.152,0,0,1,4.887,7.48,28.068,28.068,0,0,1,2.629,4.8,18.839,18.839,0,0,1,1.114,2.429,5.653,5.653,0,0,1,.471.724,21.06,21.06,0,0,0,4.8,3.309c1.715.829,3.631,1.666,5.533,2.624a31.823,31.823,0,0,1,5.435,3.338,14.719,14.719,0,0,1,4.04,4.7,42.3,42.3,0,0,0,2.885,4.76c.965,1.383,1.951,2.642,3,3.995s2.151,2.791,3.358,4.539,2.5,3.783,3.936,6.332a50.6,50.6,0,0,1,3.337,7.11,37.5,37.5,0,0,1,1.726,6.085,29.567,29.567,0,0,1,.534,5.063,24.8,24.8,0,0,1-.257,4.041c-.174,1.174-.354,2.657-.5,4.225s-.265,3.207-.315,4.718a28.243,28.243,0,0,0,.085,3.908c.118,1.026.339,1.711.7,1.843s.622-.327.868-1.182.476-2.115.766-3.577.644-3.143,1.137-4.827a23.042,23.042,0,0,1,1.99-4.9A33.857,33.857,0,0,0,45.5,49.023c.811-3.04,1.65-6.553,2.629-9.929a46.123,46.123,0,0,1,3.486-9.143c1.382-2.493,3.008-4.18,4.978-4.407.458.255.528,1.712.285,3.894A64.508,64.508,0,0,1,55.3,37.6a89.966,89.966,0,0,1-2.959,9.517,45.886,45.886,0,0,1-3.886,8.164c-1.4,2.209-2.642,4.184-3.707,6.028a44.881,44.881,0,0,0-2.641,5.219,23.5,23.5,0,0,0-1.492,5.022,22.382,22.382,0,0,0-.255,5.4,43.477,43.477,0,0,0,.888,6c.428,2,.958,3.953,1.5,5.655A36.036,36.036,0,0,0,44.32,92.78c.477,1.015.881,1.6,1.124,1.569a.922.922,0,0,0,.615-.548,4.1,4.1,0,0,0,.373-1.127,5.943,5.943,0,0,0,.113-1.225,1.763,1.763,0,0,0-.166-.835,10.04,10.04,0,0,1-.664-1.124,7.76,7.76,0,0,1-.726-2.2,6.4,6.4,0,0,1,.193-2.942A8.23,8.23,0,0,1,47.29,81,32.6,32.6,0,0,1,51.6,77.473c1.692-1.2,3.585-2.406,5.525-3.611s3.941-2.416,5.828-3.6,3.678-2.361,5.2-3.494a45.982,45.982,0,0,1,5.775-3.574,64.971,64.971,0,0,1,7.406-3.352,46.989,46.989,0,0,1,7.809-2.261,20.529,20.529,0,0,1,6.929-.285c2.016.332,3.971.661,5.792,1.032a41.605,41.605,0,0,1,4.976,1.284,13.738,13.738,0,0,1,3.706,1.8,5.187,5.187,0,0,1,1.985,2.578,7.625,7.625,0,0,0,1.22,2.41,5.827,5.827,0,0,0,1.622,1.422,10.775,10.775,0,0,0,1.9.864c.667.242,1.359.461,2.057.727s1.47.56,2.222.86,1.485.609,2.1.906a6.942,6.942,0,0,1,1.418.839C125.369,72.274,125.457,72.5,125.244,72.678Z" transform="translate(1454.713 1474.553)" fill="#77c691"/>
  </g>
</svg>
