<svg xmlns="http://www.w3.org/2000/svg" width="400.962" height="174.387" viewBox="0 0 400.962 174.387">
  <g id="그룹_1322" data-name="그룹 1322" transform="translate(1331.467 288.848)">
    <g id="그룹_1317" data-name="그룹 1317" transform="translate(-1331.467 -136.057)">
      <path id="패스_5148" data-name="패스 5148" d="M-951.5,808.663a35.556,35.556,0,0,1-5.3-.406,89,89,0,0,1-14.622-3.947c-2.811-.934-5.717-1.9-8.612-2.667a73.052,73.052,0,0,0-38.176.2c-1.934.535-3.886,1.161-5.773,1.768a75.176,75.176,0,0,1-11.657,3.063c-4.12.622-11.881.949-17.567-3.844a15.282,15.282,0,0,1-1.664-1.637,23.8,23.8,0,0,1-6.03,3.113,57.807,57.807,0,0,1-29.663,2.89c-3.043-.5-6.141-1.26-9.137-1.992-7.681-1.876-15.624-3.817-23.081-1.542l-.081.025-.084,0a100.5,100.5,0,0,1-11.067-.657c-5.01-.485-10.191-.986-15.268-.417-2.346.263-4.72.761-7.016,1.244a48.565,48.565,0,0,1-11.115,1.45,48.7,48.7,0,0,1-8.557-1.232,49.546,49.546,0,0,0-8.073-1.2,49.454,49.454,0,0,0-11.692,1.469,50.679,50.679,0,0,1-11.939,1.495c-5.677-.2-11.059-2.281-16.265-4.3-4.67-1.809-9.5-3.68-14.476-4.146-7.6-.71-15.164,1.851-22.482,4.328-7.858,2.66-15.984,5.41-24.25,4.18-4.521-.673-8.775-2.514-12.889-4.294-3.934-1.7-8-3.461-12.238-4.155a26.363,26.363,0,0,0-20.219,5.2.6.6,0,0,1-.842-.1.6.6,0,0,1,.1-.842,27.58,27.58,0,0,1,21.153-5.441c4.383.718,8.52,2.507,12.521,4.238,4.043,1.749,8.224,3.558,12.589,4.208,7.98,1.188,15.966-1.515,23.69-4.129,7.437-2.517,15.128-5.12,22.978-4.386,5.143.48,10.051,2.382,14.8,4.221,5.112,1.981,10.4,4.029,15.873,4.218a49.755,49.755,0,0,0,11.654-1.471A50.491,50.491,0,0,1-1184,801.67a50.491,50.491,0,0,1,8.271,1.224,47.827,47.827,0,0,0,8.345,1.208,47.6,47.6,0,0,0,10.839-1.425c2.323-.488,4.726-.993,7.129-1.262,5.2-.583,10.445-.076,15.516.415a100.23,100.23,0,0,0,10.848.653c7.747-2.332,15.823-.359,23.634,1.549,2.974.727,6.05,1.478,9.048,1.974a56.6,56.6,0,0,0,29.047-2.83,22.754,22.754,0,0,0,5.7-2.924,15.527,15.527,0,0,1-3.033-8.158c-.135-1.932.4-4.227,2.308-4.876a3.743,3.743,0,0,1,3.6.944c2.963,2.567,2.617,7.313.6,10.238a11.584,11.584,0,0,1-1.79,2.02,13.7,13.7,0,0,0,1.507,1.487c5.324,4.488,12.7,4.167,16.615,3.576a74.273,74.273,0,0,0,11.47-3.019c1.9-.61,3.863-1.241,5.82-1.782a74.251,74.251,0,0,1,38.8-.2c2.93.778,5.854,1.749,8.682,2.688a88.09,88.09,0,0,0,14.423,3.9c9.029,1.362,17.172-.86,21.78-5.946,2.507-2.768,4.289-7.4,2.276-11.022a.6.6,0,0,1,.233-.815.6.6,0,0,1,.815.233c2.3,4.14.349,9.335-2.436,12.409C-937.9,806.282-944.237,808.662-951.5,808.663Zm-103.916-20.4a1.7,1.7,0,0,0-.548.088c-1.264.43-1.6,2.239-1.5,3.658a14.511,14.511,0,0,0,2.771,7.47,10.382,10.382,0,0,0,1.553-1.762c1.727-2.5,2.067-6.518-.4-8.65A3.066,3.066,0,0,0-1055.418,788.266Z" transform="translate(1331.467 -787.067)" fill="#372b22"/>
    </g>
    <g id="그룹_1321" data-name="그룹 1321" transform="translate(-1182.733 -288.848)">
      <g id="그룹_1318" data-name="그룹 1318" transform="translate(55.684 76.266)">
        <path id="패스_5149" data-name="패스 5149" d="M109.038,341.281a.6.6,0,0,1-.6-.537,62.169,62.169,0,0,1,.489-18.469,37.171,37.171,0,0,1,7.659-16.807,6.612,6.612,0,0,1,3.071-2.339,7.266,7.266,0,0,1,1.973-.215l.191,0a29.679,29.679,0,0,0,14.541-4.125c2.318-1.371,3.356-3.215,2.711-4.811-.619-1.532-2.9-2.795-6.464-1.947-5.153,1.228-9.11,5.127-12.72,9.016a.8.8,0,0,1-1.3-.9,84.127,84.127,0,0,1,24.366-29.632,8.428,8.428,0,0,1-4.121-4.5.706.706,0,0,1,.849-.929,6.694,6.694,0,0,0,4.412-.349c-1.615-1.435-1.641-4.245-1.65-5.239-.025-2.67.26-5.922,2.706-7.382a4.934,4.934,0,0,1,2-.645,2.27,2.27,0,0,1,.19-1.346,3.636,3.636,0,0,1,2.342-1.785,4.5,4.5,0,0,1,4.643,1.683c.086.11.173.227.262.346.535.716.949,1.217,1.383,1.132a1.681,1.681,0,0,0,.359-.143c.114-.055.229-.109.347-.153,1.383-.515,2.782.357,3.8.994a1.678,1.678,0,0,1,.777,1.014c.3,1.231-.963,1.812-1.72,2.158-.1.048-.206.094-.3.141a2.56,2.56,0,0,0-1.355,1.72c-.071.327,0,.359.055.384a.541.541,0,0,0,.412-.013c.31-.12.634-.271.977-.432,1.292-.6,2.756-1.29,4.145-.543a1.623,1.623,0,0,1,.672.626,1.888,1.888,0,0,1-.182,1.823,1.953,1.953,0,0,0-.258.734,1.626,1.626,0,0,0,.385.755c.087.121.173.243.251.366a3.6,3.6,0,0,1-5.611,4.448,6.48,6.48,0,0,1-.44-.507,3.508,3.508,0,0,0-.529-.568,2.586,2.586,0,0,0-2.6.069,12.07,12.07,0,0,0-1.288.793,10.172,10.172,0,0,1-1.895,1.084,1.776,1.776,0,0,1-1.131.087,1.3,1.3,0,0,1-.97-1.465,3.581,3.581,0,0,1,2.539-3.181c.2-.057.4-.094.595-.13.736-.136,1.105-.2,1.283-1.067a2.631,2.631,0,0,0-.006-1.055c-.025-.121-.046-.246-.067-.373a2.213,2.213,0,0,0-.286-.937,2.245,2.245,0,0,0-.727-.506,2.235,2.235,0,0,1-1.4-2.821,2.265,2.265,0,0,0,.011-.988c-.145-.41-.657-.7-1.61-.9-1.477-.318-3.16-.539-4.447.229-1.923,1.148-2.144,3.992-2.122,6.342.023,2.539.563,4.055,1.649,4.634a.764.764,0,0,1,.031,1.332,7.8,7.8,0,0,1-4.974.989,7.009,7.009,0,0,0,3.614,3.193.833.833,0,0,1,.218,1.453,82.943,82.943,0,0,0-23.253,27.122c3.166-3.2,6.869-6.272,11.4-7.352,4.249-1.011,7.048.672,7.853,2.664.692,1.714.212,4.266-3.212,6.293a30.887,30.887,0,0,1-15.13,4.291l-.2,0a6.273,6.273,0,0,0-1.654.166,5.592,5.592,0,0,0-2.489,1.959,35.975,35.975,0,0,0-7.4,16.266,61,61,0,0,0-.474,18.114.6.6,0,0,1-.533.659C109.081,341.279,109.06,341.281,109.038,341.281Zm47.673-78.495a2.864,2.864,0,0,1,1.8.578,4.456,4.456,0,0,1,.725.761c.122.151.238.294.359.417a2.4,2.4,0,0,0,3.744-2.967c-.065-.1-.138-.2-.21-.306a2.55,2.55,0,0,1-.608-1.432,2.8,2.8,0,0,1,.379-1.281c.172-.352.28-.592.213-.712a.465.465,0,0,0-.193-.155c-.858-.46-1.931.041-3.069.573-.346.162-.7.33-1.053.464a1.721,1.721,0,0,1-1.342-.014,1.378,1.378,0,0,1-.728-1.731,3.735,3.735,0,0,1,2-2.543c.1-.05.214-.1.326-.152.591-.271,1.116-.534,1.055-.782a.477.477,0,0,0-.222-.268c-.88-.549-1.944-1.213-2.776-.9-.084.031-.166.071-.247.11a2.629,2.629,0,0,1-.649.239c-1.205.234-2-.821-2.571-1.592-.083-.111-.165-.221-.246-.324a3.282,3.282,0,0,0-3.361-1.271,2.5,2.5,0,0,0-1.595,1.144,1.092,1.092,0,0,0-.054.805,13.3,13.3,0,0,1,2.089.3,3.1,3.1,0,0,1,2.488,1.675,3.2,3.2,0,0,1,.046,1.556,1.127,1.127,0,0,0,.776,1.595,2.541,2.541,0,0,1,1.632,2.305c.018.111.036.221.058.327a3.789,3.789,0,0,1,.006,1.539,2.356,2.356,0,0,1-2.239,2c-.174.032-.338.063-.487.1a2.384,2.384,0,0,0-1.667,2.089.494.494,0,0,0,.016.22h0a.421.421,0,0,0,.074.027.608.608,0,0,0,.369-.045,9.137,9.137,0,0,0,1.67-.965,13.122,13.122,0,0,1,1.418-.869A4.744,4.744,0,0,1,156.712,262.786Z" transform="translate(-107.993 -248.2)" fill="#372b22"/>
      </g>
      <g id="그룹_1319" data-name="그룹 1319" transform="translate(0 47.198)">
        <path id="패스_5150" data-name="패스 5150" d="M-227.032,148.041c-.021,0-.042,0-.063,0a.6.6,0,0,1-.534-.659c.623-5.927-.535-23.435-1.727-29.566-2.371-12.188-8.466-17.807-9.891-18.225a6.289,6.289,0,0,0-1.653-.166l-.2,0a30.881,30.881,0,0,1-15.13-4.291c-3.424-2.026-3.9-4.579-3.212-6.292.805-1.992,3.607-3.676,7.853-2.664,4.556,1.086,8.25,4.158,11.4,7.348a82.992,82.992,0,0,0-23.019-26.944,1,1,0,0,1-.39-.926.98.98,0,0,1,.605-.789,7.17,7.17,0,0,0,3.383-3.1,7.823,7.823,0,0,1-4.894-.944.8.8,0,0,1-.4-.7.821.821,0,0,1,.413-.712c1.049-.6,1.57-2.106,1.593-4.6.022-2.35-.2-5.194-2.122-6.342-1.287-.768-2.97-.547-4.447-.229-.954.205-1.465.492-1.61.9a2.266,2.266,0,0,0,.011.988,2.727,2.727,0,0,1-.16,1.779,2.733,2.733,0,0,1-1.239,1.041,2.251,2.251,0,0,0-.727.506,2.22,2.22,0,0,0-.286.938c-.021.127-.042.252-.067.372a2.633,2.633,0,0,0-.006,1.055c.178.863.547.931,1.283,1.067.193.035.392.072.595.13a3.581,3.581,0,0,1,2.539,3.18,1.3,1.3,0,0,1-.97,1.465,1.774,1.774,0,0,1-1.131-.087,10.172,10.172,0,0,1-1.895-1.085,12.036,12.036,0,0,0-1.288-.793,2.585,2.585,0,0,0-2.6-.069,3.518,3.518,0,0,0-.528.568,6.552,6.552,0,0,1-.44.507,3.689,3.689,0,0,1-4.8.288,3.689,3.689,0,0,1-.815-4.735c.078-.124.164-.245.251-.367a1.626,1.626,0,0,0,.384-.755,1.957,1.957,0,0,0-.258-.734,1.889,1.889,0,0,1-.182-1.823,1.625,1.625,0,0,1,.673-.625c1.387-.746,2.851-.061,4.144.543.343.16.668.312.977.432a.543.543,0,0,0,.412.013c.056-.026.126-.058.055-.384a2.562,2.562,0,0,0-1.355-1.72c-.1-.047-.2-.093-.3-.141-.756-.347-2.022-.927-1.719-2.158a1.654,1.654,0,0,1,.751-1l.026-.016c1.021-.637,2.42-1.508,3.8-.994.119.044.233.1.347.153a1.692,1.692,0,0,0,.359.143c.435.083.848-.416,1.383-1.133.088-.119.175-.235.261-.345a4.5,4.5,0,0,1,4.643-1.683,3.859,3.859,0,0,1,2.454,1.858A2.219,2.219,0,0,1-266.3,46.8a4.875,4.875,0,0,1,1.889.631c2.446,1.46,2.731,4.712,2.706,7.382-.024,2.56-.564,4.284-1.649,5.24a6.6,6.6,0,0,0,4.4.349.713.713,0,0,1,.717.21.706.706,0,0,1,.137.728,8.381,8.381,0,0,1-4.117,4.487,84.163,84.163,0,0,1,24.293,29.483.816.816,0,0,1-.269,1.04.815.815,0,0,1-1.066-.116c-3.409-3.663-7.475-7.673-12.609-8.9-3.558-.848-5.845.415-6.464,1.947-.645,1.6.394,3.44,2.711,4.812a29.683,29.683,0,0,0,14.541,4.124l.193,0a7.274,7.274,0,0,1,1.972.214c2.186.641,8.379,7.06,10.73,19.147,1.206,6.2,2.375,23.915,1.743,29.921A.6.6,0,0,1-227.032,148.041ZM-281.4,52.817a1.569,1.569,0,0,0-.757.181.472.472,0,0,0-.194.155c-.067.12.041.36.213.712a2.8,2.8,0,0,1,.379,1.281,2.552,2.552,0,0,1-.608,1.431c-.073.1-.146.2-.21.306a2.528,2.528,0,0,0,.544,3.159,2.528,2.528,0,0,0,3.2-.192,5.5,5.5,0,0,0,.36-.417,4.462,4.462,0,0,1,.724-.76,3.7,3.7,0,0,1,3.872-.056,13.1,13.1,0,0,1,1.418.869,9.133,9.133,0,0,0,1.67.965.6.6,0,0,0,.369.045.242.242,0,0,0,.078-.032h0a.584.584,0,0,0,.013-.215A2.383,2.383,0,0,0-272,58.161c-.15-.042-.314-.072-.487-.1a2.356,2.356,0,0,1-2.24-2,3.8,3.8,0,0,1,.006-1.54c.022-.105.04-.215.058-.326a3.161,3.161,0,0,1,.513-1.466,3.184,3.184,0,0,1,1.119-.841,1.789,1.789,0,0,0,.751-.56,1.793,1.793,0,0,0,.025-1.035,3.2,3.2,0,0,1,.046-1.556,3.1,3.1,0,0,1,2.488-1.675,12.956,12.956,0,0,1,2.213-.308,1.03,1.03,0,0,0-.066-.726,2.715,2.715,0,0,0-1.707-1.218,3.283,3.283,0,0,0-3.361,1.271c-.081.1-.162.213-.245.324-.575.771-1.364,1.826-2.571,1.593a2.636,2.636,0,0,1-.65-.239c-.082-.039-.163-.079-.247-.11-.832-.31-1.895.354-2.75.887l-.026.016a.476.476,0,0,0-.222.268c-.061.248.464.511,1.055.782.112.052.222.1.326.152a3.735,3.735,0,0,1,2,2.543,1.378,1.378,0,0,1-.728,1.731,1.719,1.719,0,0,1-1.342.014c-.348-.135-.706-.3-1.053-.464A6.052,6.052,0,0,0-281.4,52.817Z" transform="translate(284.122 -43.508)" fill="#372b22"/>
      </g>
      <g id="그룹_1320" data-name="그룹 1320" transform="translate(51.019)">
        <path id="패스_5151" data-name="패스 5151" d="M80.225-160.768a.6.6,0,0,1-.6-.554c-.557-7.276-2.824-37.914-2.9-43.651-.1-7.069,1.421-12.835,4.513-17.136a27.189,27.189,0,0,1,10.009-8.077,1.364,1.364,0,0,1,1.267.011,1.367,1.367,0,0,1,.712,1.05c.626,5.551,5.9,9.819,10.849,11.586,2.437.87,4.262.676,5.006-.534a2.819,2.819,0,0,0-.539-3.349,45.166,45.166,0,0,0-12.261-8.309.793.793,0,0,1-.443-.927.789.789,0,0,1,.831-.6,45.617,45.617,0,0,0,27.613-7.17,2.64,2.64,0,0,0,1.362-2.39,2.517,2.517,0,0,0-1.866-1.943c-2.6-.968-5.521-.38-7.773.241-5.5,1.516-10.608,4.152-16.239,7.188a.685.685,0,0,1-.891-.205.685.685,0,0,1,.089-.908,27.551,27.551,0,0,0,7.011-10.542,1.219,1.219,0,0,0-.071-1.038c-.484-.809-1.837-.139-2.241.085a18.662,18.662,0,0,0-9.214,13.585,2.033,2.033,0,0,1-1.819,1.76,19.573,19.573,0,0,0-12.622,6.472.833.833,0,0,1-1.064.16.834.834,0,0,1-.335-1.024,128.868,128.868,0,0,0,5.253-15.985,1.515,1.515,0,0,0-.67-1.65,17.679,17.679,0,0,1-7.955-16.454c.246-2.235,1.225-3.151,2-3.525a3.161,3.161,0,0,1,3.065.269,6.989,6.989,0,0,1,2.634,4.178,58.172,58.172,0,0,1,2.265,10.684l5.046-11.57a.748.748,0,0,1,.816-.44.752.752,0,0,1,.621.7,3.493,3.493,0,0,0,2.173,2.753,8.08,8.08,0,0,0,3.711.4,9.229,9.229,0,0,1-2.4-7.937.729.729,0,0,1,.54-.569.735.735,0,0,1,.75.254,7.152,7.152,0,0,0,6.269,2.6,7.094,7.094,0,0,0,5.623-4.189,2.789,2.789,0,0,0,.286-1.51,4.59,4.59,0,0,0-.593-1.382,3.112,3.112,0,0,1-.539-2.839,3.363,3.363,0,0,1,.607-.863c.373-.422.5-.6.413-.906a.88.88,0,0,0-.549-.572,5.777,5.777,0,0,0-6.321,1.779,15.92,15.92,0,0,0-1.328,2.07c-1.046,1.827-2.129,3.716-4.315,3.839a6.134,6.134,0,0,1-.735-.016,2.787,2.787,0,0,0-.892.032,2.791,2.791,0,0,0-.87.534,5.146,5.146,0,0,1-.852.577c-1.57.791-3.478.123-5.52-1.933a3.43,3.43,0,0,1-1.281-3.6,3.579,3.579,0,0,1,2.149-2.21,8.636,8.636,0,0,1,4.441-.2,16.227,16.227,0,0,0,1.963.181c1.484.011,3.137-.653,3.409-1.957a4.274,4.274,0,0,0-.007-1.257c-.023-.234-.047-.476-.055-.723a5.731,5.731,0,0,1,1.941-4.338,5.478,5.478,0,0,1,4.363-1.459,1.137,1.137,0,0,0,.629-.093c.288-.138.33-.3.332-.447a2.446,2.446,0,0,0-1.3-1.735,9.205,9.205,0,0,0-6.946-.608c-.149.048-.3.1-.449.151a4.788,4.788,0,0,1-2.61.372,4.653,4.653,0,0,1-1.244-.529,6.188,6.188,0,0,0-.62-.312c-2.426-.99-5.017,1.755-6.166,3.842a.817.817,0,0,0-.071.678c.1.254.264.353,1.025.312l5.5-.3a2.679,2.679,0,0,1,2.488,1.31,1.992,1.992,0,0,1-.6,2.635,8.663,8.663,0,0,1-4.674,1.712c-.392.063-.8.128-1.181.2-1.666.327-3.648,1.3-3.749,2.96a.594.594,0,0,1-.635.562.6.6,0,0,1-.562-.635c.143-2.344,2.629-3.654,4.714-4.063.4-.079.82-.146,1.223-.21a7.682,7.682,0,0,0,4.062-1.419c.587-.528.517-.867.355-1.154a1.485,1.485,0,0,0-1.379-.7l-5.5.3a1.97,1.97,0,0,1-2.207-1.072,2,2,0,0,1,.137-1.693c1.625-2.95,4.718-5.577,7.669-4.374a7.175,7.175,0,0,1,.744.371,3.711,3.711,0,0,0,.927.41,3.8,3.8,0,0,0,1.96-.335c.159-.055.317-.109.474-.159a10.289,10.289,0,0,1,7.869.688,3.584,3.584,0,0,1,1.942,2.819,1.657,1.657,0,0,1-1.014,1.505,2.309,2.309,0,0,1-1.3.2,4.278,4.278,0,0,0-3.4,1.159,4.52,4.52,0,0,0-1.548,3.411c.007.207.028.419.05.644a5.231,5.231,0,0,1-.012,1.62c-.418,2.006-2.632,2.911-4.537,2.912H94.4a17.361,17.361,0,0,1-2.109-.191,7.612,7.612,0,0,0-3.849.133A2.386,2.386,0,0,0,87-271.9c-.314.974.212,1.6.99,2.387.937.943,2.719,2.419,4.129,1.708a4.207,4.207,0,0,0,.654-.451A3.768,3.768,0,0,1,94.058-269a3.767,3.767,0,0,1,1.293-.075,5.249,5.249,0,0,0,.592.015c1.537-.086,2.414-1.617,3.342-3.238a16.766,16.766,0,0,1,1.436-2.229,7.008,7.008,0,0,1,7.67-2.148,2.069,2.069,0,0,1,1.289,1.383,2.051,2.051,0,0,1-.671,2.013,2.4,2.4,0,0,0-.408.551c-.2.466.048.981.489,1.774a5.5,5.5,0,0,1,.729,1.775,3.92,3.92,0,0,1-.368,2.172,8.311,8.311,0,0,1-6.588,4.907,8.4,8.4,0,0,1-6.635-2.268,8,8,0,0,0,2.836,6.482.765.765,0,0,1,.251.812.759.759,0,0,1-.648.539,10.622,10.622,0,0,1-5.267-.39,4.945,4.945,0,0,1-2.567-2.457L85.78-247.79a.843.843,0,0,1-.917.5.844.844,0,0,1-.715-.766A56.98,56.98,0,0,0,81.8-259.8a6.01,6.01,0,0,0-2.131-3.522,1.974,1.974,0,0,0-1.9-.2,3.016,3.016,0,0,0-1.332,2.576,16.456,16.456,0,0,0,7.409,15.313,2.71,2.71,0,0,1,1.185,2.958,130.155,130.155,0,0,1-4.629,14.43,20.808,20.808,0,0,1,12.119-5.544.838.838,0,0,0,.749-.727,19.883,19.883,0,0,1,9.818-14.473c1.713-.954,3.152-.825,3.852.346a2.426,2.426,0,0,1,.167,2.069,28.72,28.72,0,0,1-5.109,8.7,68.754,68.754,0,0,1,13.7-5.8c2.426-.669,5.586-1.3,8.509-.209a3.687,3.687,0,0,1,2.639,2.936,3.819,3.819,0,0,1-1.9,3.527,46.838,46.838,0,0,1-26.421,7.446,46.308,46.308,0,0,1,10.856,7.689,4.016,4.016,0,0,1,.734,4.846c-.505.821-2.142,2.565-6.43,1.034-4.911-1.754-10.906-6.1-11.637-12.58a.164.164,0,0,0-.087-.129.16.16,0,0,0-.153,0,26.033,26.033,0,0,0-9.583,7.71c-2.94,4.088-4.382,9.613-4.288,16.42.079,5.706,2.344,36.308,2.9,43.577a.6.6,0,0,1-.552.643Z" transform="translate(-75.141 288.848)" fill="#372b22"/>
      </g>
    </g>
  </g>
</svg>
