<svg id="그룹_1134" data-name="그룹 1134" xmlns="http://www.w3.org/2000/svg" width="159.319" height="139.59" viewBox="0 0 159.319 139.59">
  <g id="그룹_649" data-name="그룹 649" transform="translate(0 0)">
    <g id="그룹_645" data-name="그룹 645" transform="matrix(0.995, 0.105, -0.105, 0.995, 6.387, 0)">
      <g id="그룹_643" data-name="그룹 643" transform="translate(0 0)">
        <path id="패스_4315" data-name="패스 4315" d="M5.932,18.411,44.659.834c5.041-2.284,10.951.282,13.2,5.73l9.113,22.122c2.246,5.451-.024,11.719-5.07,14.006L47.062,49.444l3.57,8.668-9.124-6.153L23.174,60.267c-5.041,2.285-10.95-.277-13.195-5.726L.866,32.416C-1.378,26.968.89,20.7,5.932,18.411Z" fill="#ffcc3b"/>
      </g>
    </g>
    <g id="그룹_604" data-name="그룹 604" transform="translate(24.047 28.231) rotate(-22)">
      <path id="패스_4252" data-name="패스 4252" d="M20.8,4.5l-.279,1.442a1.183,1.183,0,0,1-.456.784,2,2,0,0,1-1.12.246H16.69l-.857,5.345h2.778a.9.9,0,0,1,.775.315,1.448,1.448,0,0,1,.106,1.071l-.185,1.1H15.484l-.811,4.522H13a.952.952,0,0,1-.456-.114,1.061,1.061,0,0,1-.36-.309,1.182,1.182,0,0,1-.2-.447,1.226,1.226,0,0,1,0-.537l.554-3.115H6.428L5.86,18.087a1.42,1.42,0,0,1-.585.95,1.483,1.483,0,0,1-.475.216,2.075,2.075,0,0,1-.539.069h-1.6L3.473,14.8H.926a.9.9,0,0,1-.777-.315,1.453,1.453,0,0,1-.106-1.069l.187-1.1H3.82l.857-5.345H.845L1.122,5.53a1.2,1.2,0,0,1,.458-.779A1.946,1.946,0,0,1,2.7,4.5H5.013l.6-3.354A1.3,1.3,0,0,1,6.144.3,1.637,1.637,0,0,1,7.121,0H8.767L7.956,4.5h6.126L14.893,0h1.6a1.315,1.315,0,0,1,.5.093,1.1,1.1,0,0,1,.383.246A.921.921,0,0,1,17.6.7a.909.909,0,0,1,.023.464l-.6,3.331ZM13.747,6.972H7.62l-.857,5.345h6.126Z" transform="translate(0 0)" fill="#59700e"/>
    </g>
  </g>
  <g id="그룹_1058" data-name="그룹 1058" transform="translate(27.871 50.386)">
    <g id="그룹_1057" data-name="그룹 1057" transform="translate(0 0)">
      <g id="그룹_1053" data-name="그룹 1053">
        <g id="그룹_1052" data-name="그룹 1052" transform="translate(0 10.584)">
          <g id="그룹_1051" data-name="그룹 1051">
            <path id="패스_4724" data-name="패스 4724" d="M372.6,146.156c0,16.661,4.618,52.175,46.206,52.175s46.208-35.736,46.208-52.4Z" transform="translate(-372.598 -145.933)" fill="#f1ead8"/>
          </g>
        </g>
        <path id="패스_4725" data-name="패스 4725" d="M465.012,147.284c0,5.912-24.882,10.7-46.208,10.7S372.6,153.2,372.6,147.284s24.884-10.709,46.206-10.709S465.012,141.37,465.012,147.284Z" transform="translate(-372.598 -136.575)" fill="#f9f4e8"/>
        <path id="패스_4726" data-name="패스 4726" d="M461.983,147.167c0,4.828-23.667,8.743-43.494,8.743S375,152,375,147.167s23.668-8.744,43.492-8.744S461.983,142.339,461.983,147.167Z" transform="translate(-372.284 -136.333)" fill="#e0d4b8"/>
        <path id="패스_4727" data-name="패스 4727" d="M417.811,155.026c13.763,0,29.37-1.888,37.634-4.655-7.828-3.079-23.754-5.206-37.634-5.206s-29.8,2.127-37.631,5.206C388.442,153.139,404.05,155.026,417.811,155.026Z" transform="translate(-371.605 -135.45)" fill="#9bd146"/>
        <path id="패스_4728" data-name="패스 4728" d="M446.1,159.915a19.75,19.75,0,0,1,19.466-10.128c13.856,1.312,18.37,28.71-28.7,39.277l3.3-9.345s21.313-5.608,22.762-16.111-18.545,2.009-18.545,2.009" transform="translate(-364.179 -134.858)" fill="#f1ead8"/>
        <path id="패스_4729" data-name="패스 4729" d="M397.7,164.874c3.351,5.922,2.54,12.716-1.815,15.183s-10.6-.336-13.952-6.256-2.541-12.716,1.814-15.181S394.345,158.953,397.7,164.874Z" transform="translate(-371.646 -133.804)" fill="#fff" opacity="0.7"/>
      </g>
      <g id="그룹_1056" data-name="그룹 1056" transform="translate(57.301 0.035)">
        <g id="그룹_1054" data-name="그룹 1054" transform="translate(8.655 0.938)">
          <path id="패스_4730" data-name="패스 4730" d="M448.376,148.541c-4.705,4.141-10.424,5.268-14.328,3.884s-4.512-4.759.191-8.9,16.841-6.092,16.841-6.092S453.078,144.4,448.376,148.541Z" transform="translate(-430.914 -137.435)" fill="#5a6d16"/>
          <path id="패스_4731" data-name="패스 4731" d="M442.282,146.046c-3.661,3.223-6.216,4.775-6.913,4.529s.731-2.2,4.4-5.423a66.341,66.341,0,0,1,8.868-6.251A43.929,43.929,0,0,1,442.282,146.046Z" transform="translate(-430.353 -137.243)" fill="#9bd146" opacity="0.4"/>
        </g>
        <g id="그룹_1055" data-name="그룹 1055">
          <path id="패스_4732" data-name="패스 4732" d="M440,144.6c2.979,4.612,1.074,7.831-3.274,8.708a12.15,12.15,0,0,1-12.473-5.532c-2.981-4.611,1.683-11.171,1.683-11.171S437.026,139.99,440,144.6Z" transform="translate(-423.262 -136.606)" fill="#627c1c"/>
          <path id="패스_4733" data-name="패스 4733" d="M432.91,145.421c2.32,3.592,2.953,5.67,2.177,5.825s-2.665-1.667-4.984-5.258a30.707,30.707,0,0,1-3.418-7.747A44.759,44.759,0,0,1,432.91,145.421Z" transform="translate(-422.813 -136.392)" fill="#9bd146" opacity="0.4"/>
        </g>
      </g>
    </g>
  </g>
  <g id="그룹_952" data-name="그룹 952" transform="translate(87.504 81.877)">
    <g id="그룹_949" data-name="그룹 949" transform="translate(0 13.22)">
      <path id="패스_4553" data-name="패스 4553" d="M240.925,385.949c0,5.889-15.834,10.663-35.367,10.663s-35.367-4.775-35.367-10.663c0-2.152-2.167-23.906,1.468-25.581,6.316-2.911,21.5,6.863,33.9,6.863,14.649,0,29.484-9.776,34.853-5.948C242.2,362.559,240.925,384.476,240.925,385.949Z" transform="translate(-169.55 -352.121)" fill="#bf8e6d"/>
      <path id="패스_4554" data-name="패스 4554" d="M240.98,391.607c0-.538.171-3.812.3-7.806-5.357,4.37-19.3,7.487-35.658,7.487-16.551,0-30.622-3.191-35.839-7.642.189,3.942.464,7.195.464,7.96,0,5.889,15.834,10.663,35.367,10.663S240.98,397.5,240.98,391.607Z" transform="translate(-169.605 -357.778)" fill="#9f6b46"/>
      <path id="패스_4555" data-name="패스 4555" d="M241.125,360.383c0,5.89-15.834,10.663-35.367,10.663s-35.367-4.773-35.367-10.663,15.834-10.663,35.367-10.663S241.125,354.493,241.125,360.383Z" transform="translate(-169.75 -349.72)" fill="#cca183"/>
    </g>
    <g id="그룹_951" data-name="그룹 951" transform="translate(8.826)">
      <path id="패스_4556" data-name="패스 4556" d="M229.447,350.768c-.255-.262-.483-.5-.662-.681-1.06-1.31-2.5-1.745-3.754-2.949-1.155-1.09-1.347-2.619-2.31-3.931-1.059-1.31-2.5-1.31-3.562-2.729a12.856,12.856,0,0,0-2.888-2.948c-2.31-1.42-4.525-5.459-7.414-5.132h-.76c-2.889-.328-5.1,3.712-7.414,5.132a12.871,12.871,0,0,0-2.888,2.948c-1.058,1.419-2.5,1.419-3.562,2.729-.963,1.312-1.155,2.84-2.311,3.931-1.251,1.2-2.7,1.639-3.754,2.949-.138.145-.306.316-.493.508-4.079,1.367-6.547,3.144-6.547,5.086,0,4.319,12.171,7.822,27.182,7.822s27.182-3.5,27.182-7.822C235.489,353.82,233.223,352.112,229.447,350.768Z" transform="translate(-181.126 -332.381)" fill="#708c23"/>
      <path id="패스_4557" data-name="패스 4557" d="M235.489,358.386c0-1.862-2.266-3.571-6.043-4.914-.255-.261-.483-.5-.662-.681-1.06-1.31-2.5-1.745-3.754-2.948-1.155-1.09-1.347-2.619-2.31-3.931-.888-1.1-2.042-1.284-3.017-2.147.548,1.907,1.692,6.028,2.266,9.155.772,4.205.172,9.353-5.662,8.495s-9.266-1.63-12.612-.772-7.979,1.545-9.695-.343-2.059-2.059-3.347-2.23a15.185,15.185,0,0,1-4.118-1.372c-.166-.167-.973-1.4-1.733-2.233-2.332,1.153-3.676,2.492-3.676,3.922,0,4.319,12.171,7.822,27.182,7.822S235.489,362.706,235.489,358.386Z" transform="translate(-181.126 -335.085)" fill="#41444f" opacity="0.1"/>
      <g id="그룹_950" data-name="그룹 950" transform="translate(8.319 1.05)">
        <path id="패스_4558" data-name="패스 4558" d="M216.3,334.5a.743.743,0,1,1-.744-.743A.743.743,0,0,1,216.3,334.5Z" transform="translate(-197.447 -333.758)" fill="#41444f" opacity="0.2"/>
        <path id="패스_4559" data-name="패스 4559" d="M211.5,339.526a.743.743,0,1,1-.745-.743A.744.744,0,0,1,211.5,339.526Z" transform="translate(-196.307 -334.952)" fill="#41444f" opacity="0.2"/>
        <path id="패스_4560" data-name="패스 4560" d="M217.426,339.677a.743.743,0,1,1-.744-.743A.744.744,0,0,1,217.426,339.677Z" transform="translate(-197.714 -334.987)" fill="#41444f" opacity="0.2"/>
        <path id="패스_4561" data-name="패스 4561" d="M205.272,347.178a.743.743,0,1,1-.743-.743A.744.744,0,0,1,205.272,347.178Z" transform="translate(-194.828 -336.769)" fill="#41444f" opacity="0.2"/>
        <path id="패스_4562" data-name="패스 4562" d="M210.75,348.229a.743.743,0,1,1-.745-.743A.744.744,0,0,1,210.75,348.229Z" transform="translate(-196.129 -337.019)" fill="#41444f" opacity="0.2"/>
        <path id="패스_4563" data-name="패스 4563" d="M197.771,356.33a.743.743,0,1,1-.743-.743A.743.743,0,0,1,197.771,356.33Z" transform="translate(-193.046 -338.943)" fill="#41444f" opacity="0.2"/>
        <path id="패스_4564" data-name="패스 4564" d="M206.893,353.669a.372.372,0,1,1-.371-.371A.372.372,0,0,1,206.893,353.669Z" transform="translate(-195.389 -338.399)" fill="#41444f" opacity="0.2"/>
        <path id="패스_4565" data-name="패스 4565" d="M208.506,343.241a.372.372,0,1,1-.371-.371A.372.372,0,0,1,208.506,343.241Z" transform="translate(-195.772 -335.922)" fill="#41444f" opacity="0.2"/>
        <path id="패스_4566" data-name="패스 4566" d="M215.257,343.693a.372.372,0,1,1-.371-.373A.372.372,0,0,1,215.257,343.693Z" transform="translate(-197.376 -336.029)" fill="#41444f" opacity="0.2"/>
        <path id="패스_4567" data-name="패스 4567" d="M201.679,351.869a.372.372,0,1,1-.372-.371A.373.373,0,0,1,201.679,351.869Z" transform="translate(-194.15 -337.972)" fill="#41444f" opacity="0.2"/>
        <path id="패스_4568" data-name="패스 4568" d="M202.655,362.3a.372.372,0,1,1-.372-.372A.373.373,0,0,1,202.655,362.3Z" transform="translate(-194.382 -340.448)" fill="#41444f" opacity="0.2"/>
        <path id="패스_4569" data-name="패스 4569" d="M215.032,355.845a.372.372,0,1,1-.372-.372A.373.373,0,0,1,215.032,355.845Z" transform="translate(-197.322 -338.916)" fill="#41444f" opacity="0.2"/>
        <path id="패스_4570" data-name="패스 4570" d="M222.084,336.715a.372.372,0,1,1-.373-.371A.372.372,0,0,1,222.084,336.715Z" transform="translate(-198.997 -334.372)" fill="#41444f" opacity="0.2"/>
        <path id="패스_4571" data-name="패스 4571" d="M218.858,346.693a.372.372,0,1,1-.372-.371A.373.373,0,0,1,218.858,346.693Z" transform="translate(-198.231 -336.742)" fill="#41444f" opacity="0.2"/>
        <path id="패스_4572" data-name="패스 4572" d="M221.324,340.739a.522.522,0,1,1-.522-.521A.523.523,0,0,1,221.324,340.739Z" transform="translate(-198.746 -335.292)" fill="#f1ead8"/>
        <path id="패스_4573" data-name="패스 4573" d="M210.523,344.059a.522.522,0,1,1-.522-.522A.524.524,0,0,1,210.523,344.059Z" transform="translate(-196.18 -336.081)" fill="#f1ead8"/>
        <path id="패스_4574" data-name="패스 4574" d="M215.417,349.572a.522.522,0,1,1-.521-.522A.523.523,0,0,1,215.417,349.572Z" transform="translate(-197.342 -337.39)" fill="#f1ead8"/>
        <path id="패스_4575" data-name="패스 4575" d="M203.1,357.73a.522.522,0,1,1-.523-.522A.524.524,0,0,1,203.1,357.73Z" transform="translate(-194.416 -339.328)" fill="#f1ead8"/>
        <path id="패스_4576" data-name="패스 4576" d="M210.3,355.255a.522.522,0,1,1-.522-.523A.523.523,0,0,1,210.3,355.255Z" transform="translate(-196.126 -338.74)" fill="#f1ead8"/>
        <path id="패스_4577" data-name="패스 4577" d="M193.082,358.405a.522.522,0,1,1-.522-.522A.524.524,0,0,1,193.082,358.405Z" transform="translate(-192.037 -339.488)" fill="#f1ead8"/>
        <path id="패스_4578" data-name="패스 4578" d="M199.552,348.166a.522.522,0,1,1-.523-.522A.524.524,0,0,1,199.552,348.166Z" transform="translate(-193.574 -337.056)" fill="#f1ead8"/>
        <path id="패스_4579" data-name="패스 4579" d="M221.484,359.483a.372.372,0,1,1-.372-.372A.374.374,0,0,1,221.484,359.483Z" transform="translate(-198.854 -339.78)" fill="#41444f" opacity="0.2"/>
      </g>
    </g>
  </g>
  <g id="그룹_975" data-name="그룹 975" transform="translate(9.66 104.622)">
    <g id="그룹_964" data-name="그룹 964" transform="translate(27.273)">
      <path id="패스_4582" data-name="패스 4582" d="M141.271,404.452l-25.823-6.488v15.9l26.082,7.007Z" transform="translate(-115.448 -390.957)" fill="#82a82f"/>
      <path id="패스_4583" data-name="패스 4583" d="M127,389.632l-11.549,7.007,25.823,6.488,10.834-6.812Z" transform="translate(-115.448 -389.632)" fill="#abcc50"/>
      <path id="패스_4584" data-name="패스 4584" d="M156.99,397.579l-10.834,6.812.259,16.414,10.835-7.2Z" transform="translate(-120.333 -390.896)" fill="#708c23"/>
      <path id="패스_4585" data-name="패스 4585" d="M141.409,414.748c-.73-.611-2.473-.541-3.415-.637-2.044-.193-3.7-1.263-5.45-2.14-2.822-1.46-4.379-1.46-7.4-1.167a10.064,10.064,0,0,1-6.521-1.556,14.459,14.459,0,0,0-3.179-1.33v7.524l26.082,7.007Z" transform="translate(-115.448 -392.541)" fill="#708c23"/>
      <path id="패스_4586" data-name="패스 4586" d="M146.441,422.83l10.835-7.2-.086-5.321c-.438.352-.855.706-1.244.974a10.569,10.569,0,0,1-5.354,1.461,7.154,7.154,0,0,0-4.272,2.4Z" transform="translate(-120.359 -392.921)" fill="#657a1a"/>
      <g id="그룹_955" data-name="그룹 955" transform="translate(10.648 1.742)">
        <path id="패스_4587" data-name="패스 4587" d="M128.934,392.319c.461-.468,1.55-.934,2.07-.323a1.268,1.268,0,0,1,.292.919,1.233,1.233,0,0,1-.4.868c-.207.151-.428.051-.633-.039-.278-.124-.574-.194-.856-.31-.244-.1-.73-.311-.708-.645A.737.737,0,0,1,128.934,392.319Z" transform="translate(-128.204 -391.704)" fill="#f1ead8"/>
        <path id="패스_4588" data-name="패스 4588" d="M129.239,393.032a3.3,3.3,0,0,0-1.129.05c.006.131.02.257.032.386a3.593,3.593,0,0,0,1.15,1.077,4.49,4.49,0,0,0,.557-.07,13.858,13.858,0,0,0,1.491-.343c.064-.176.131-.356.2-.533l.01-.017c.017-.207.027-.413.032-.621A9.866,9.866,0,0,1,129.239,393.032Z" transform="translate(-128.11 -391.904)" fill="#abcc50"/>
      </g>
      <g id="그룹_956" data-name="그룹 956" transform="translate(17.622 2.976)">
        <path id="패스_4589" data-name="패스 4589" d="M137.228,393.786c.461-.468,1.55-.933,2.071-.323a1.271,1.271,0,0,1,.292.918,1.24,1.24,0,0,1-.4.869c-.206.15-.429.05-.633-.041-.278-.124-.574-.192-.855-.309-.245-.1-.73-.311-.71-.644A.74.74,0,0,1,137.228,393.786Z" transform="translate(-136.497 -393.171)" fill="#f1ead8"/>
        <path id="패스_4590" data-name="패스 4590" d="M137.534,394.5a3.284,3.284,0,0,0-1.131.049c.006.13.022.256.033.386a3.591,3.591,0,0,0,1.15,1.076,4.327,4.327,0,0,0,.556-.068,13.778,13.778,0,0,0,1.492-.345c.064-.175.13-.354.2-.532a.1.1,0,0,1,.008-.017c.018-.206.029-.413.033-.621A9.767,9.767,0,0,1,137.534,394.5Z" transform="translate(-136.403 -393.371)" fill="#abcc50"/>
      </g>
      <g id="그룹_957" data-name="그룹 957" transform="translate(14.671 6.915)">
        <path id="패스_4591" data-name="패스 4591" d="M134.106,400.048c-.327-.572-.481-1.745.247-2.083a1.279,1.279,0,0,1,.964-.031,1.234,1.234,0,0,1,.728.619c.089.239-.067.426-.21.6-.194.232-.34.5-.531.738-.165.208-.5.621-.81.508A.727.727,0,0,1,134.106,400.048Z" transform="translate(-133.043 -397.855)" fill="#f1ead8"/>
        <path id="패스_4592" data-name="패스 4592" d="M134.023,399.089a3.278,3.278,0,0,0-1.129.05c.005.13.019.256.033.385a3.56,3.56,0,0,0,1.149,1.076c.18-.012.336.425.531.387.747-.145,1.15-.687,1.516-.8.064-.177.13-.356.2-.535,0-.005.007-.009.008-.017.018-.2.028-.411.031-.619A9.838,9.838,0,0,1,134.023,399.089Z" transform="translate(-132.894 -398.04)" fill="#abcc50"/>
      </g>
      <g id="그룹_958" data-name="그룹 958" transform="translate(23.234 5.473)">
        <path id="패스_4593" data-name="패스 4593" d="M143.9,396.756c.462-.468,1.55-.933,2.072-.324a1.272,1.272,0,0,1,.292.918,1.23,1.23,0,0,1-.4.867c-.205.152-.429.052-.632-.038-.277-.124-.574-.192-.855-.311-.245-.1-.73-.31-.71-.642A.739.739,0,0,1,143.9,396.756Z" transform="translate(-143.171 -396.141)" fill="#f1ead8"/>
        <path id="패스_4594" data-name="패스 4594" d="M144.208,397.468a3.3,3.3,0,0,0-1.131.051c.006.13.02.257.033.385a3.592,3.592,0,0,0,1.149,1.077,4.52,4.52,0,0,0,.557-.07,13.75,13.75,0,0,0,1.492-.343c.065-.177.131-.355.2-.534,0-.006.007-.009.009-.016.018-.205.028-.412.032-.621A9.9,9.9,0,0,1,144.208,397.468Z" transform="translate(-143.077 -396.341)" fill="#abcc50"/>
      </g>
      <g id="그룹_959" data-name="그룹 959" transform="translate(19.017 6.53)">
        <path id="패스_4595" data-name="패스 4595" d="M138.547,398.635c.063-.525.527-1.356,1.159-1.224a1.021,1.021,0,0,1,.637.442,1,1,0,0,1,.172.748c-.057.2-.248.241-.422.285-.239.056-.458.159-.7.223-.208.053-.617.161-.768-.063A.583.583,0,0,1,138.547,398.635Z" transform="translate(-138.139 -397.397)" fill="#f1ead8"/>
        <path id="패스_4596" data-name="패스 4596" d="M138.971,398.306a2.731,2.731,0,0,0-.908.041c.005.1.017.205.028.31a2.868,2.868,0,0,0,.922.865,3.753,3.753,0,0,0,.447-.056,11.151,11.151,0,0,0,1.2-.277c.051-.142.1-.285.162-.429a.07.07,0,0,1,.008-.012c.013-.167.02-.333.024-.5A7.867,7.867,0,0,1,138.971,398.306Z" transform="translate(-138.063 -397.533)" fill="#abcc50"/>
      </g>
      <g id="그룹_960" data-name="그룹 960" transform="translate(7.757 4.99)">
        <path id="패스_4597" data-name="패스 4597" d="M124.887,396.117c.027-.234.234-.6.515-.545a.458.458,0,0,1,.284.2.447.447,0,0,1,.077.332c-.027.088-.111.108-.188.127-.105.026-.2.072-.311.1-.091.024-.273.073-.341-.027A.262.262,0,0,1,124.887,396.117Z" transform="translate(-124.706 -395.566)" fill="#f1ead8"/>
        <path id="패스_4598" data-name="패스 4598" d="M125.076,395.97a1.161,1.161,0,0,0-.4.018c0,.047.007.092.011.138a1.288,1.288,0,0,0,.411.385,1.529,1.529,0,0,0,.2-.024,5.068,5.068,0,0,0,.534-.124c.023-.064.046-.127.072-.189l0-.007c.007-.075.009-.148.012-.223A3.446,3.446,0,0,1,125.076,395.97Z" transform="translate(-124.672 -395.626)" fill="#abcc50"/>
      </g>
      <g id="그룹_961" data-name="그룹 961" transform="translate(23.067 9.599)">
        <path id="패스_4599" data-name="패스 4599" d="M143.093,401.6c.028-.234.235-.6.516-.544a.475.475,0,0,1,.362.529c-.026.087-.112.106-.189.126-.106.024-.2.071-.309.1s-.276.072-.341-.028A.254.254,0,0,1,143.093,401.6Z" transform="translate(-142.913 -401.047)" fill="#f1ead8"/>
        <path id="패스_4600" data-name="패스 4600" d="M143.283,401.45a1.171,1.171,0,0,0-.4.018c0,.046.007.091.011.138a1.3,1.3,0,0,0,.411.385,1.345,1.345,0,0,0,.2-.026,4.334,4.334,0,0,0,.534-.123c.023-.062.047-.126.072-.189l0-.006c.008-.074.009-.148.012-.224A3.442,3.442,0,0,1,143.283,401.45Z" transform="translate(-142.879 -401.107)" fill="#abcc50"/>
      </g>
      <g id="그룹_962" data-name="그룹 962" transform="translate(30.073 6.825)">
        <path id="패스_4601" data-name="패스 4601" d="M151.426,398.3c.028-.233.235-.6.515-.544a.451.451,0,0,1,.283.2.438.438,0,0,1,.077.334c-.025.087-.11.107-.188.126-.107.025-.205.072-.31.1s-.275.072-.341-.027A.262.262,0,0,1,151.426,398.3Z" transform="translate(-151.244 -397.747)" fill="#f1ead8"/>
        <path id="패스_4602" data-name="패스 4602" d="M151.615,398.151a1.227,1.227,0,0,0-.4.018c0,.047.008.093.012.139a1.286,1.286,0,0,0,.412.386,1.751,1.751,0,0,0,.2-.025,4.975,4.975,0,0,0,.533-.124c.023-.061.048-.126.073-.19l0-.006c.007-.074.01-.148.011-.223A3.489,3.489,0,0,1,151.615,398.151Z" transform="translate(-151.21 -397.808)" fill="#abcc50"/>
      </g>
      <g id="그룹_963" data-name="그룹 963" transform="translate(12.204 4.755)">
        <path id="패스_4603" data-name="패스 4603" d="M132.989,396.008c-.127.644-.78,1.632-1.551,1.409a1.263,1.263,0,0,1-.748-.606,1.229,1.229,0,0,1-.144-.944c.087-.241.329-.278.549-.315.3-.05.585-.156.885-.211.261-.048.78-.141.946.147A.747.747,0,0,1,132.989,396.008Z" transform="translate(-130.047 -395.287)" fill="#f1ead8"/>
        <path id="패스_4604" data-name="패스 4604" d="M131.091,396.427a3.3,3.3,0,0,0-1.13.05c.008.13.02.257.033.385a3.574,3.574,0,0,0,1.15,1.077,4.14,4.14,0,0,0,.555-.069,14.475,14.475,0,0,0,1.493-.343q.1-.266.2-.534c0-.008.008-.011.009-.017q.024-.309.031-.621A9.76,9.76,0,0,1,131.091,396.427Z" transform="translate(-129.961 -395.457)" fill="#abcc50"/>
      </g>
    </g>
    <g id="그룹_974" data-name="그룹 974" transform="translate(0 4.624)">
      <path id="패스_4605" data-name="패스 4605" d="M110.419,409.95,84.6,403.463v15.9l26.081,7.007Z" transform="translate(-84.597 -396.456)" fill="#82a82f"/>
      <path id="패스_4606" data-name="패스 4606" d="M96.145,395.131,84.6,402.138l25.822,6.488,10.834-6.81Z" transform="translate(-84.597 -395.131)" fill="#abcc50"/>
      <path id="패스_4607" data-name="패스 4607" d="M126.138,403.079l-10.834,6.81.259,16.415,10.835-7.2Z" transform="translate(-89.481 -396.395)" fill="#708c23"/>
      <path id="패스_4608" data-name="패스 4608" d="M110.557,420.247c-.731-.612-2.474-.542-3.416-.636-2.043-.195-3.7-1.265-5.449-2.141-2.823-1.459-4.379-1.459-7.4-1.167a10.067,10.067,0,0,1-6.52-1.557,14.609,14.609,0,0,0-3.178-1.328v7.524l26.08,7.007Z" transform="translate(-84.597 -398.04)" fill="#708c23"/>
      <path id="패스_4609" data-name="패스 4609" d="M115.588,428.329l10.835-7.2-.086-5.32c-.438.352-.854.7-1.244.974a10.548,10.548,0,0,1-5.353,1.459,7.165,7.165,0,0,0-4.272,2.4Z" transform="translate(-89.508 -398.42)" fill="#657a1a"/>
      <g id="그룹_965" data-name="그룹 965" transform="translate(10.647 1.742)">
        <path id="패스_4610" data-name="패스 4610" d="M98.082,397.818c.461-.469,1.55-.935,2.07-.325a1.27,1.27,0,0,1,.292.92,1.229,1.229,0,0,1-.4.867c-.207.151-.43.051-.634-.039-.278-.124-.574-.193-.856-.31-.244-.1-.73-.31-.707-.644A.725.725,0,0,1,98.082,397.818Z" transform="translate(-97.352 -397.202)" fill="#f1ead8"/>
        <path id="패스_4611" data-name="패스 4611" d="M98.387,398.53a3.3,3.3,0,0,0-1.129.05c.006.13.019.256.032.384a3.575,3.575,0,0,0,1.15,1.078,4.344,4.344,0,0,0,.556-.07,13.771,13.771,0,0,0,1.492-.342c.064-.177.131-.356.2-.533,0-.007.008-.012.01-.018.017-.206.027-.412.032-.621A9.783,9.783,0,0,1,98.387,398.53Z" transform="translate(-97.258 -397.402)" fill="#abcc50"/>
      </g>
      <g id="그룹_966" data-name="그룹 966" transform="translate(17.621 2.976)">
        <path id="패스_4612" data-name="패스 4612" d="M106.376,399.285c.461-.468,1.55-.933,2.071-.324a1.266,1.266,0,0,1,.291.917,1.237,1.237,0,0,1-.4.869c-.206.15-.43.05-.633-.04-.278-.125-.575-.192-.856-.309-.245-.1-.73-.311-.709-.644A.74.74,0,0,1,106.376,399.285Z" transform="translate(-105.645 -398.67)" fill="#f1ead8"/>
        <path id="패스_4613" data-name="패스 4613" d="M106.681,400a3.262,3.262,0,0,0-1.13.05c.006.13.021.256.034.385a3.6,3.6,0,0,0,1.149,1.078,4.305,4.305,0,0,0,.556-.07,13.813,13.813,0,0,0,1.492-.344c.065-.176.131-.354.2-.534,0-.006.006-.009.008-.016.018-.205.029-.413.033-.621A9.733,9.733,0,0,1,106.681,400Z" transform="translate(-105.551 -398.869)" fill="#abcc50"/>
      </g>
      <g id="그룹_967" data-name="그룹 967" transform="translate(14.668 6.915)">
        <path id="패스_4614" data-name="패스 4614" d="M103.254,405.546c-.327-.571-.482-1.744.246-2.082a1.284,1.284,0,0,1,.964-.032,1.231,1.231,0,0,1,.728.62c.09.238-.067.426-.21.6-.193.234-.34.5-.531.739-.165.209-.494.62-.809.508A.722.722,0,0,1,103.254,405.546Z" transform="translate(-102.19 -403.354)" fill="#f1ead8"/>
        <path id="패스_4615" data-name="패스 4615" d="M103.171,404.587a3.287,3.287,0,0,0-1.131.051c.007.13.02.257.034.385a3.571,3.571,0,0,0,1.149,1.077c.18-.011.337.425.532.386.746-.145,1.15-.687,1.516-.8.064-.176.13-.355.2-.534,0-.007.007-.011.008-.017.018-.2.028-.412.032-.619A9.9,9.9,0,0,1,103.171,404.587Z" transform="translate(-102.04 -403.539)" fill="#abcc50"/>
      </g>
      <g id="그룹_968" data-name="그룹 968" transform="translate(23.233 5.473)">
        <path id="패스_4616" data-name="패스 4616" d="M113.048,402.255c.463-.469,1.55-.934,2.073-.324a1.273,1.273,0,0,1,.291.919,1.231,1.231,0,0,1-.4.866c-.206.153-.429.052-.632-.039-.278-.124-.575-.192-.856-.31-.245-.1-.73-.311-.71-.643A.74.74,0,0,1,113.048,402.255Z" transform="translate(-112.319 -401.639)" fill="#f1ead8"/>
        <path id="패스_4617" data-name="패스 4617" d="M113.355,402.966a3.32,3.32,0,0,0-1.13.05c.005.129.02.258.034.386a3.547,3.547,0,0,0,1.148,1.076,4.33,4.33,0,0,0,.557-.068,13.327,13.327,0,0,0,1.491-.344c.066-.176.132-.355.2-.533,0-.006.006-.01.008-.016.019-.206.029-.413.032-.622A9.8,9.8,0,0,1,113.355,402.966Z" transform="translate(-112.225 -401.839)" fill="#abcc50"/>
      </g>
      <g id="그룹_969" data-name="그룹 969" transform="translate(19.017 6.53)">
        <path id="패스_4618" data-name="패스 4618" d="M107.694,404.133c.063-.525.526-1.356,1.159-1.223a1.017,1.017,0,0,1,.637.442.994.994,0,0,1,.172.747c-.056.2-.248.242-.422.285-.239.057-.458.159-.7.224-.207.053-.616.16-.767-.063A.586.586,0,0,1,107.694,404.133Z" transform="translate(-107.287 -402.896)" fill="#f1ead8"/>
        <path id="패스_4619" data-name="패스 4619" d="M108.118,403.8a2.7,2.7,0,0,0-.907.04c.005.105.016.205.027.31a2.848,2.848,0,0,0,.923.865,3.279,3.279,0,0,0,.447-.055,10.594,10.594,0,0,0,1.2-.277q.076-.213.161-.429l.008-.013c.013-.165.02-.332.024-.5A7.813,7.813,0,0,1,108.118,403.8Z" transform="translate(-107.211 -403.032)" fill="#abcc50"/>
      </g>
      <g id="그룹_970" data-name="그룹 970" transform="translate(7.754 4.99)">
        <path id="패스_4620" data-name="패스 4620" d="M94.034,401.615c.027-.234.234-.6.515-.544a.457.457,0,0,1,.285.2.441.441,0,0,1,.077.333c-.026.089-.111.107-.188.128-.105.025-.2.072-.311.1-.09.024-.272.072-.341-.027A.265.265,0,0,1,94.034,401.615Z" transform="translate(-93.852 -401.065)" fill="#f1ead8"/>
        <path id="패스_4621" data-name="패스 4621" d="M94.224,401.468a1.186,1.186,0,0,0-.406.018c0,.047.008.091.013.137a1.279,1.279,0,0,0,.41.386,1.9,1.9,0,0,0,.2-.024c.267-.053.4-.084.533-.124.024-.064.046-.127.071-.19l0-.008c.007-.074.01-.147.013-.221A3.456,3.456,0,0,1,94.224,401.468Z" transform="translate(-93.818 -401.125)" fill="#abcc50"/>
      </g>
      <g id="그룹_971" data-name="그룹 971" transform="translate(23.066 9.599)">
        <path id="패스_4622" data-name="패스 4622" d="M112.24,407.1c.028-.234.235-.6.515-.544a.476.476,0,0,1,.362.529c-.025.087-.112.108-.188.126-.106.025-.2.071-.31.1s-.276.072-.341-.028A.256.256,0,0,1,112.24,407.1Z" transform="translate(-112.06 -406.545)" fill="#f1ead8"/>
        <path id="패스_4623" data-name="패스 4623" d="M112.43,406.949a1.156,1.156,0,0,0-.4.018c0,.046.007.092.011.138a1.3,1.3,0,0,0,.411.385,1.315,1.315,0,0,0,.2-.025,4.633,4.633,0,0,0,.533-.123c.024-.062.047-.126.072-.19l0-.006c.008-.074.01-.148.013-.222A3.492,3.492,0,0,1,112.43,406.949Z" transform="translate(-112.026 -406.606)" fill="#abcc50"/>
      </g>
      <g id="그룹_972" data-name="그룹 972" transform="translate(30.072 6.824)">
        <path id="패스_4624" data-name="패스 4624" d="M120.573,403.8c.028-.233.235-.6.516-.543a.443.443,0,0,1,.283.2.427.427,0,0,1,.077.333c-.024.088-.109.108-.186.126-.107.027-.206.072-.311.1s-.275.071-.341-.028A.261.261,0,0,1,120.573,403.8Z" transform="translate(-120.392 -403.246)" fill="#f1ead8"/>
        <path id="패스_4625" data-name="패스 4625" d="M120.762,403.65a1.226,1.226,0,0,0-.4.018c0,.047.007.093.011.139a1.29,1.29,0,0,0,.412.385,1.927,1.927,0,0,0,.2-.025,5.047,5.047,0,0,0,.532-.123c.024-.062.048-.126.073-.19l0-.006c.007-.074.011-.149.012-.224A3.447,3.447,0,0,1,120.762,403.65Z" transform="translate(-120.358 -403.306)" fill="#abcc50"/>
      </g>
      <g id="그룹_973" data-name="그룹 973" transform="translate(12.203 4.754)">
        <path id="패스_4626" data-name="패스 4626" d="M102.136,401.506c-.127.644-.78,1.632-1.551,1.409a1.269,1.269,0,0,1-.749-.608,1.227,1.227,0,0,1-.144-.943c.088-.24.33-.279.549-.315.3-.05.586-.156.885-.211.262-.049.78-.142.945.146A.74.74,0,0,1,102.136,401.506Z" transform="translate(-99.194 -400.785)" fill="#f1ead8"/>
        <path id="패스_4627" data-name="패스 4627" d="M100.238,401.926a3.245,3.245,0,0,0-1.13.049c.008.13.021.256.033.384a3.579,3.579,0,0,0,1.15,1.078,4.446,4.446,0,0,0,.555-.069,14.165,14.165,0,0,0,1.492-.344c.064-.177.132-.355.2-.534,0-.007.008-.01.009-.016.017-.205.026-.412.031-.621A9.845,9.845,0,0,1,100.238,401.926Z" transform="translate(-99.108 -400.955)" fill="#abcc50"/>
      </g>
    </g>
  </g>
</svg>
