<svg xmlns="http://www.w3.org/2000/svg" width="141.388" height="145.459" viewBox="0 0 141.388 145.459">
  <g id="그룹_1425" data-name="그룹 1425" transform="translate(-22.634 -119.75)">
    <g id="그룹_1412" data-name="그룹 1412" transform="translate(22.634 119.75)">
      <g id="그룹_1397" data-name="그룹 1397" transform="translate(54.447 122.354)">
        <path id="패스_5238" data-name="패스 5238" d="M160.676,436.561c0-1.823-8.862-3.3-19.795-3.3s-19.795,1.478-19.795,3.3v2.2c0,1.823,8.862,3.3,19.795,3.3s19.795-1.478,19.795-3.3Z" transform="translate(-121.087 -433.261)" fill="#fff"/>
        <path id="패스_5239" data-name="패스 5239" d="M142.123,441.768c-10.754,0-16.93-1.343-18.259-2.168v-1.394c1.329-.825,7.5-2.168,18.259-2.168s16.93,1.343,18.259,2.168V439.6C159.053,440.426,152.877,441.768,142.123,441.768Z" transform="translate(-122.328 -434.502)" fill="#e2faf2" style="mix-blend-mode: multiply;isolation: isolate"/>
        <path id="패스_5240" data-name="패스 5240" d="M141.042,433.261c-9.985,0-18.24,1.233-19.6,2.836a53.436,53.436,0,0,0,39.182-.014C159.241,434.488,151,433.261,141.042,433.261Z" transform="translate(-121.248 -433.261)" fill="#e2faf2" style="mix-blend-mode: multiply;isolation: isolate"/>
      </g>
      <g id="그룹_1398" data-name="그룹 1398" transform="translate(3.052 73.137)">
        <path id="패스_5241" data-name="패스 5241" d="M53.848,383.4c-11.3,0-18.931-5.653-22.72-12.162-4.478-7.691-3.845-16.82,1.5-21.7a18.533,18.533,0,0,1,12.7-5.272,18.239,18.239,0,0,1,10.9,3.651,2.3,2.3,0,0,1-2.851,3.617,14.17,14.17,0,0,0-8.073-2.658,13.971,13.971,0,0,0-9.57,4.063c-3.759,3.433-4.024,10.157-.631,15.987,4.179,7.178,11.372,9.789,18.778,9.789a37.959,37.959,0,0,0,11.576-1.922,2.3,2.3,0,0,1,1.425,4.382A42.218,42.218,0,0,1,53.848,383.4Z" transform="translate(-28.152 -344.265)" fill="#fff"/>
        <path id="패스_5242" data-name="패스 5242" d="M55.083,383.11c-13.32,0-19.4-7.971-21.393-11.4-4.117-7.071-3.607-15.4,1.213-19.8a17.034,17.034,0,0,1,11.662-4.871,16.715,16.715,0,0,1,9.951,3.319.768.768,0,0,1-.95,1.207,15.657,15.657,0,0,0-9.022-2.987,15.527,15.527,0,0,0-10.606,4.466c-4.289,3.917-4.678,11.441-.922,17.892,5.076,8.72,13.734,10.552,20.1,10.552a39.589,39.589,0,0,0,12.051-2,.768.768,0,1,1,.475,1.461,40.878,40.878,0,0,1-12.565,2.156Z" transform="translate(-29.387 -345.506)" fill="#e2faf2" style="mix-blend-mode: multiply;isolation: isolate"/>
        <path id="패스_5243" data-name="패스 5243" d="M91.946,404.468a2.306,2.306,0,0,0-2.9-1.478,39.445,39.445,0,0,1-8.136,1.734,44.269,44.269,0,0,0,3.117,4.27,47.788,47.788,0,0,0,6.444-1.623A2.3,2.3,0,0,0,91.946,404.468Z" transform="translate(-51.732 -370.463)" fill="#e2faf2" style="mix-blend-mode: multiply;isolation: isolate"/>
        <path id="패스_5244" data-name="패스 5244" d="M68.608,351.6a2.3,2.3,0,0,0,2.851-3.617,18.176,18.176,0,0,0-9.245-3.569q.225,2.344.556,4.728A14.305,14.305,0,0,1,68.608,351.6Z" transform="translate(-43.377 -344.331)" fill="#e2faf2" style="mix-blend-mode: multiply;isolation: isolate"/>
      </g>
      <g id="그룹_1399" data-name="그룹 1399" transform="translate(23.66 62.207)">
        <path id="패스_5245" data-name="패스 5245" d="M65.417,324.5c0,12.328,2.026,27.571,8.038,40.117C81.443,381.289,97.42,390.147,116,390.147s34.556-8.857,42.545-25.528c6.012-12.547,8.037-27.789,8.037-40.117Z" transform="translate(-65.417 -324.501)" fill="#fff"/>
        <path id="패스_5246" data-name="패스 5246" d="M117.88,389.7c-18.342,0-33.092-8.829-40.467-24.22-6.227-13-7.6-27.864-7.787-36.819h96.508c-.186,8.955-1.56,23.823-7.787,36.819C150.972,380.876,136.222,389.7,117.88,389.7Z" transform="translate(-67.298 -326.363)" fill="#ffcd5f"/>
        <path id="패스_5247" data-name="패스 5247" d="M84.864,352.827c-4.2-8.765-6.451-18.842-7.428-28.326H65.417c0,12.328,2.026,27.571,8.038,40.117C81.443,381.289,97.42,390.147,116,390.147c16.46,0,30.872-6.957,39.5-20.135-7.876,5.5-17.566,8.344-28.092,8.344C108.83,378.355,92.852,369.5,84.864,352.827Z" transform="translate(-65.417 -324.501)" fill="#e2faf2" style="mix-blend-mode: multiply;isolation: isolate"/>
        <path id="패스_5248" data-name="패스 5248" d="M196.278,378.176c0,3.342-5.5,6.051-12.293,6.051s-12.292-2.708-12.292-6.051,5.5-6.051,12.292-6.051S196.278,374.834,196.278,378.176Z" transform="translate(-112.919 -345.788)" fill="#e2faf2" opacity="0.5" style="mix-blend-mode: overlay;isolation: isolate"/>
        <path id="패스_5249" data-name="패스 5249" d="M180.055,397.319c0,1.83-2.852,3.313-6.37,3.313s-6.369-1.483-6.369-3.313,2.853-3.312,6.369-3.312S180.055,395.489,180.055,397.319Z" transform="translate(-110.963 -355.568)" fill="#e2faf2" opacity="0.5" style="mix-blend-mode: overlay;isolation: isolate"/>
      </g>
      <path id="패스_5250" data-name="패스 5250" d="M166.58,311.3c0,9.02-22.646,16.331-50.582,16.331S65.417,320.322,65.417,311.3,88.064,294.971,116,294.971,166.58,302.282,166.58,311.3Z" transform="translate(-41.757 -249.095)" fill="#fff"/>
      <path id="패스_5251" data-name="패스 5251" d="M166.138,313.186c0,7.732-21.613,14-48.274,14s-48.274-6.267-48.274-14,21.613-14,48.274-14S166.138,305.454,166.138,313.186Z" transform="translate(-43.622 -250.98)" fill="#e2faf2" style="mix-blend-mode: multiply;isolation: isolate"/>
      <path id="패스_5252" data-name="패스 5252" d="M95.57,302.049c-15.436,2.335-25.981,7.017-25.981,12.417,0,3.975,5.723,7.56,14.9,10.109a64.281,64.281,0,0,1,6.042-14.424C92.061,307.46,93.735,304.717,95.57,302.049Z" transform="translate(-43.622 -252.259)" fill="#e2faf2" style="mix-blend-mode: multiply;isolation: isolate"/>
      <g id="그룹_1411" data-name="그룹 1411" transform="translate(0 0)">
        <g id="그룹_1403" data-name="그룹 1403">
          <path id="패스_5253" data-name="패스 5253" d="M22.634,290.913c9.273-.65,16.1,7.558,24.288,10.024a27.057,27.057,0,0,0,16.456-1.125A18.276,18.276,0,0,0,45.9,285.02C39.243,284.778,24.679,290.524,22.634,290.913Z" transform="translate(-22.634 -244.644)" fill="#2b895a"/>
          <path id="패스_5254" data-name="패스 5254" d="M67.252,271.028c.066-2.587-2.411-6.478-4.1-8.281a26.481,26.481,0,0,0-7.866-4.878c-4.124-1.674-12.2-2.091-13.622-7.19A16.583,16.583,0,0,0,51.531,263.4C56.643,265.555,64.217,265.677,67.252,271.028Z" transform="translate(-31.141 -229.298)" fill="#0cd893"/>
          <path id="패스_5255" data-name="패스 5255" d="M99.27,262.283c8.686-7.252,9.765-20.66,6.082-30.586-2.608-7.222-6.117-15.056-12.37-19.681,2.846,7.288-.011,15.777-1.2,23.051C90.3,244.3,92.955,254.985,99.27,262.283Z" transform="translate(-53.363 -212.017)" fill="#31a26c"/>
          <g id="그룹_1400" data-name="그룹 1400" transform="translate(5.667 44.688)" opacity="0.6">
            <path id="패스_5256" data-name="패스 5256" d="M33,294.294c2.569-.653,5.2-.032,7.692.664,2.671.745,5.274,1.691,7.871,2.654,2.7,1,5.383,2.019,8.08,3.011a33.006,33.006,0,0,0,8.787,1.455.55.55,0,0,0,.456-.9,20.984,20.984,0,0,0-7.5-5.476,41.281,41.281,0,0,0-9.594-2.314,86.225,86.225,0,0,0-8.772-.556,14.5,14.5,0,0,0-7.087,1.269c-.1.053-.051.226.066.2Z" transform="translate(-32.882 -292.823)" fill="#c1e29b"/>
          </g>
          <g id="그룹_1401" data-name="그룹 1401" transform="translate(12.617 25.356)">
            <path id="패스_5257" data-name="패스 5257" d="M45.481,258.275c1.605,3.147,4.745,4.608,7.938,5.714,1.922.668,3.875,1.2,5.769,1.953a29.311,29.311,0,0,1,5.761,3.164c.253.171.652-.125.475-.411a16.424,16.424,0,0,0-8.363-6.951c-3.59-1.2-8.412-.779-11.108-3.784a.287.287,0,0,0-.472.315Z" transform="translate(-45.449 -257.867)" fill="#c1e29b"/>
          </g>
          <g id="그룹_1402" data-name="그룹 1402" transform="translate(41.076 4.62)" opacity="0.6">
            <path id="패스_5258" data-name="패스 5258" d="M96.936,220.641a26.239,26.239,0,0,1,3.417,10.291c.489,3.851,1.05,7.683,1.417,11.549a55.4,55.4,0,0,1-.361,11.559c-.356,3.017-1.224,6.026-.6,9.058a.837.837,0,0,0,1.6.122c1.2-2.879,2.783-5.581,3.668-8.6a36.254,36.254,0,0,0,.946-13.144,33.8,33.8,0,0,0-9.765-21.053c-.149-.143-.441.013-.322.215Z" transform="translate(-96.908 -220.371)" fill="#c1e29b"/>
          </g>
          <path id="패스_5259" data-name="패스 5259" d="M70.554,221.934a25.114,25.114,0,0,1,1.487,3.192c.1.275.216.546.31.825l.274.836c.2.554.327,1.128.492,1.691.149.567.271,1.143.408,1.713.108.578.23,1.152.327,1.731.191,1.158.354,2.321.47,3.489.059.583.117,1.167.155,1.753s.085,1.171.111,1.758c.064,1.172.092,2.346.105,3.521,0,.165,0,.332,0,.5-.976-.708-1.625-2.37-2.213-3.366a51.793,51.793,0,0,1-3.013-6.24c-.014-.031-.059-.008-.047.023a38.911,38.911,0,0,0,3.3,7.126c.525.848,1.078,2.221,1.973,2.764q0,1.361-.025,2.719-.041,1.76-.125,3.522c-.026.568-.064,1.135-.1,1.7-3.153-2.694-4.663-6.793-6.548-10.383a.013.013,0,0,0-.023.012c1.826,3.782,3.234,7.958,6.551,10.728q-.144,2.489-.326,4.982c-.086,1.224-.18,2.449-.266,3.674a22.438,22.438,0,0,1-6.065-9.543c-.019-.062-.119-.045-.1.019a20.622,20.622,0,0,0,6.147,9.832c-.069,1.025-.132,2.051-.174,3.08a30.937,30.937,0,0,0,.026,3.58l.262,3.528.259,3.53c.014.211.032.421.049.632l-1.723-2.982c-.528-.917-1.063-1.828-1.576-2.757l-1.553-2.773L66.278,260.8l-1.552-2.775a27.49,27.49,0,0,0-1.678-2.745,21.755,21.755,0,0,0-2.03-2.508,21.236,21.236,0,0,0-2.4-2.156c-.562-.413-1.139-.809-1.732-1.174a10.314,10.314,0,0,0-2.71-3.5c-.018-.018-.046.008-.028.023a10.415,10.415,0,0,1,2.4,3.268c-.212-.122-.424-.242-.639-.354a23.175,23.175,0,0,0-2.927-1.319c-.471-.183-.948-.344-1.429-.5a9.7,9.7,0,0,0-3.553-2.715c-.027-.014-.048.032-.023.045a15.489,15.489,0,0,1,3.153,2.541c-.4-.118-.8-.234-1.2-.347l-1.515-.448c-.252-.078-.508-.144-.757-.232l-.741-.272c-.493-.186-1-.348-1.471-.576s-.972-.409-1.428-.67l-.7-.369c-.227-.131-.446-.277-.67-.415a8.273,8.273,0,0,1-1.245-.943l0,0a.115.115,0,0,0-.163,0,.117.117,0,0,0,0,.166,8.615,8.615,0,0,0,1.264,1c.224.144.445.3.674.436l.7.388c.46.276.954.475,1.433.71s.982.414,1.478.612l.744.291c.25.094.505.166.759.248l1.523.484c.431.132.861.263,1.286.4-1.384,1.184-3.67,1.23-5.382,1.117a.053.053,0,0,0-.008.105c1.838.229,4.309.346,5.683-1.127.474.159.946.327,1.408.519a22.446,22.446,0,0,1,2.836,1.348c.294.16.578.331.859.509a11.327,11.327,0,0,1-5.2,1.173c-.042,0-.039.076,0,.077,1.768.014,4.055.144,5.5-1.049.491.325.968.67,1.434,1.026a20.717,20.717,0,0,1,2.283,2.132,21.251,21.251,0,0,1,1.915,2.466,26.612,26.612,0,0,1,1.581,2.708l1.5,2.8,2.992,5.608,1.5,2.8c.493.937,1.014,1.862,1.524,2.792l.849,1.539-1.621-1.6-.87-.856-.434-.425-.476-.446a11.4,11.4,0,0,0-1-.848c-.335-.282-.7-.522-1.062-.77a27,27,0,0,0-4.642-2.449c-.269-.114-.537-.216-.807-.323-1.409-3.881-5.428-7.346-9.113-8.809-.047-.019-.071.053-.027.074,3.359,1.6,7.192,4.918,8.677,8.552a55.463,55.463,0,0,0-7.663-2.232c-2.207-2.915-5.494-4.426-8.952-5.364-.015-.005-.025.019-.008.024,3.208,1.076,6.411,2.577,8.565,5.254-.145-.034-.291-.067-.436-.1-2.221-.472-4.349-.82-6.309-1.091a13.8,13.8,0,0,0-5.245-2.911c-.064-.016-.1.079-.034.1a14.4,14.4,0,0,1,4.918,2.762q-1.071-.145-2.067-.262c-2.57-.3-4.721-.462-6.225-.555s-2.368-.111-2.368-.111a.025.025,0,0,0-.025.024.026.026,0,0,0,.024.027s.859.054,2.359.2,3.637.394,6.186.788c1.748.274,3.7.618,5.752,1.058a13.339,13.339,0,0,1-8.248,2.129.027.027,0,0,0,0,.053,12,12,0,0,0,8.522-2.125c.853.186,1.722.388,2.606.611,1.594.4,3.234.863,4.867,1.411a39.38,39.38,0,0,1-9.748,2.784c-.017,0-.012.027.006.025,3.369-.32,7.234-.722,10.127-2.676a44,44,0,0,1,4.228,1.684c.36.167.712.343,1.065.521-.274.2-.541.42-.818.637a10.78,10.78,0,0,1-3.53,1.522,17.057,17.057,0,0,1-6.484.857.013.013,0,0,0,0,.025,14.642,14.642,0,0,0,11.2-2.848,23.27,23.27,0,0,1,2.916,1.792c.327.246.662.48.958.752a10.092,10.092,0,0,1,.881.807l.415.42.432.457c.28.3.56.594.836.888l1.63,1.732c.545.559,1.1,1.1,1.628,1.624s1.04,1.052,1.56,1.525,1.011.938,1.49,1.384.943.858,1.395,1.247.876.76,1.276,1.108c.828.67,1.532,1.27,2.147,1.733s1.09.832,1.434,1.073c.166.122.3.216.4.28l.142.1.033.022a1.077,1.077,0,1,0,1.149-1.823l-.029-.019-.122-.077c-.077-.046-.2-.128-.366-.238-.327-.21-.8-.539-1.4-.97s-1.317-.98-2.147-1.6l-1.288-1.035c-.456-.362-.933-.747-1.413-1.17l-1.515-1.3s0,0-.006,0c-.122-.954-.256-1.9-.333-2.872l-.335-3.507-.333-3.509a29.657,29.657,0,0,1-.1-3.479c.036-1.915.142-3.84.244-5.767a25.332,25.332,0,0,0,4.934-4.112c.011-.012-.006-.033-.017-.02a27.766,27.766,0,0,1-4.906,3.887c.018-.341.035-.685.053-1.028q.145-2.807.246-5.621a17.293,17.293,0,0,0,5.969-7.77c.006-.016-.018-.023-.025-.009a20.892,20.892,0,0,1-5.932,7.429c.012-.366.029-.73.039-1.1.029-1.18.049-2.359.05-3.539,0-1.14-.013-2.278-.048-3.417a18.049,18.049,0,0,0,1.95-3.016,10.029,10.029,0,0,0,1.54-3.949c0-.013-.02-.019-.026,0a22.186,22.186,0,0,1-3.476,6.606c-.037-1.1-.087-2.2-.169-3.294-.04-.59-.088-1.178-.149-1.765s-.121-1.175-.193-1.761c-.141-1.171-.331-2.338-.546-3.5-.11-.58-.245-1.155-.366-1.733-.149-.57-.284-1.146-.446-1.713s-.322-1.136-.53-1.689l-.293-.835c-.1-.279-.22-.548-.33-.821a24.884,24.884,0,0,0-1.561-3.173.027.027,0,0,0-.035-.009A.025.025,0,0,0,70.554,221.934Z" transform="translate(-28.231 -216.432)" fill="#003f35"/>
        </g>
        <path id="패스_5260" data-name="패스 5260" d="M119.606,333.89c21.68,0,40.022-4.144,46.119-9.851-6.1-5.706-24.438-9.852-46.119-9.852s-40.022,4.145-46.119,9.852C79.584,329.746,97.925,333.89,119.606,333.89Z" transform="translate(-45.364 -257.685)" fill="#fef6b7"/>
        <path id="패스_5261" data-name="패스 5261" d="M96.179,322.484c0-2.939,4.763-5.62,12.585-7.649-16.782,1.117-30.23,4.769-35.277,9.494,6.1,5.706,24.438,9.851,46.119,9.851,4.794,0,9.423-.2,13.794-.579C112.013,332.348,96.179,327.846,96.179,322.484Z" transform="translate(-45.364 -257.974)" fill="#fef6b7" style="mix-blend-mode: multiply;isolation: isolate"/>
        <path id="패스_5262" data-name="패스 5262" d="M186.016,328.064c0,1.935-10.138,3.5-22.644,3.5s-22.644-1.568-22.644-3.5,10.138-3.5,22.644-3.5S186.016,326.129,186.016,328.064Z" transform="translate(-75.419 -262.321)" fill="#fffad2"/>
        <g id="그룹_1410" data-name="그룹 1410" transform="translate(35.789 34.479)">
          <g id="그룹_1407" data-name="그룹 1407">
            <path id="패스_5263" data-name="패스 5263" d="M140.883,294.058a48.642,48.642,0,0,0-1.137-5.336c-2.911-8.606-14.54-14.828-27.737-14.331-14.625.55-25.635,9.144-24.593,19.2a46.9,46.9,0,0,0,1.223,5.587c3.05,8.474,14.583,14.571,27.652,14.08C130.915,312.7,141.925,304.11,140.883,294.058Z" transform="translate(-87.348 -274.364)" fill="#f79740"/>
            <path id="패스_5264" data-name="패스 5264" d="M115.785,310.79c-14.625.551-27.327-7.152-28.369-17.2s9.968-18.646,24.593-19.2,27.325,7.152,28.367,17.2S130.409,310.241,115.785,310.79Z" transform="translate(-87.348 -274.364)" fill="#ff8636" opacity="0.5" style="mix-blend-mode: multiply;isolation: isolate"/>
            <path id="패스_5265" data-name="패스 5265" d="M91.009,298.227A12.362,12.362,0,0,1,90,294.477c-.974-9.39,9.472-17.453,23.287-17.973,11.6-.436,22.453,4.753,25.81,12.339a12.435,12.435,0,0,1,1.009,3.751c.469,4.511-1.664,8.86-6,12.247-4.406,3.44-10.545,5.473-17.283,5.728C105.223,311,94.367,305.814,91.009,298.227Z" transform="translate(-88.506 -275.309)" fill="#feedd3"/>
            <g id="그룹_1404" data-name="그룹 1404" transform="translate(3.858 2.065)">
              <path id="패스_5266" data-name="패스 5266" d="M137.424,305.441c-.951.748,3.188,8.876,4.551,11.955s6.949,3.579,9.583.961c0,0,8.568-4.051,7.21-7.748S138.63,304.493,137.424,305.441Z" transform="translate(-113.526 -290.227)" fill="#ff8636"/>
              <path id="패스_5267" data-name="패스 5267" d="M136.856,292.918c-.071,1.043,12.769,2.1,15.722,2.918s6.079,1.821,6.269.162a11.853,11.853,0,0,0-4.181-9.451c-3.7-2.918-4.565-3.835-6.338-2.824S136.928,291.825,136.856,292.918Z" transform="translate(-113.335 -280.435)" fill="#f79740"/>
              <path id="패스_5268" data-name="패스 5268" d="M127.765,290.277c.731-.455,8.788-7.019,10.01-8.649s.142-2.183-2.349-2.588-9.3-1.574-11.6-.5-1.779,2.879.288,6.293S126.6,291.006,127.765,290.277Z" transform="translate(-106.838 -278.098)" fill="#f79740"/>
              <path id="패스_5269" data-name="패스 5269" d="M114.463,291.43c-.812-.033-14.706-2.5-15.256-3.121s.773-3.27,3.221-4.843,6.137-4.32,6.944-3.54S115.575,291.475,114.463,291.43Z" transform="translate(-96.452 -278.854)" fill="#ff8636"/>
              <path id="패스_5270" data-name="패스 5270" d="M112.252,301.1c-.156-1.19-13.549-2.81-15.2-2.983s-3.05,4.188-2.666,6.726,3.718,7.773,5.2,7.146S112.368,301.984,112.252,301.1Z" transform="translate(-94.325 -287.042)" fill="#f79740"/>
              <path id="패스_5271" data-name="패스 5271" d="M120.685,305.405c-.818.481-4.383,3.795-7.108,6.209s-4.571,4.515-4.476,5.561,8.517,4.616,12.55,4.533,5.244-.713,5.588-1.494-2.066-8.1-3.021-10.68S121.787,304.757,120.685,305.405Z" transform="translate(-100.928 -290.252)" fill="#f79740"/>
            </g>
            <g id="그룹_1405" data-name="그룹 1405" transform="translate(5.488 3.483)">
              <path id="패스_5272" data-name="패스 5272" d="M120.027,314.613c1.111-1.322,2.423-2.525,3.587-3.813.267-.3-.281-.687-.551-.39-1.282,1.42-2.7,2.752-3.918,4.206a20.744,20.744,0,0,0-2.553,4.544c-.169.344.479.612.648.264A21.964,21.964,0,0,1,120.027,314.613Z" transform="translate(-105.895 -293.911)" fill="#ffcd5f"/>
              <path id="패스_5273" data-name="패스 5273" d="M122.759,323.847c.331-2.239.243-4.738,1.822-6.654.251-.3-.3-.7-.551-.39-1.666,2.022-1.625,4.549-1.974,6.919C122,324.093,122.7,324.22,122.759,323.847Z" transform="translate(-108.348 -296.766)" fill="#ffcd5f"/>
              <path id="패스_5274" data-name="패스 5274" d="M133.563,322.6c-.2-1.622-.834-3.2-1.192-4.8-.374-1.686-.392-3.393-.853-5.074-.1-.368-.773-.185-.671.179.445,1.626.514,3.282.811,4.92.294,1.616.992,3.174,1.191,4.8C132.895,323,133.609,322.975,133.563,322.6Z" transform="translate(-112.275 -294.902)" fill="#ffcd5f"/>
              <path id="패스_5275" data-name="패스 5275" d="M130.94,326.1a9.415,9.415,0,0,1-.959-3.184c-.046-.377-.759-.351-.714.025a9.829,9.829,0,0,0,1,3.338C130.448,326.629,131.121,326.452,130.94,326.1Z" transform="translate(-111.572 -299.427)" fill="#ffcd5f"/>
              <path id="패스_5276" data-name="패스 5276" d="M149.56,320.168c-1.634-.962-2.3-2.79-3.363-4.138a19.28,19.28,0,0,1-3.543-5.729c-.117-.369-.789-.186-.671.179a19.717,19.717,0,0,0,3.632,5.87c1.1,1.4,1.782,3.247,3.49,4.252C149.482,320.825,149.942,320.392,149.56,320.168Z" transform="translate(-117.25 -293.819)" fill="#ffcd5f"/>
              <path id="패스_5277" data-name="패스 5277" d="M147.4,313.1c-.22-.336-.8-.014-.584.321a14.936,14.936,0,0,0,3.337,3.288c1.205.97,2.064,2.15,3.384,3.03.363.243.822-.193.456-.436a37.588,37.588,0,0,1-2.935-2.662A16.84,16.84,0,0,1,147.4,313.1Z" transform="translate(-119.396 -295.095)" fill="#ffcd5f"/>
              <path id="패스_5278" data-name="패스 5278" d="M147,311.021c2.015.681,4.152.931,6.149,1.679,2.321.87,4.449,2.071,6.741,2.991.42.17.722-.35.3-.519-2.106-.847-4.091-1.88-6.174-2.765-2.165-.919-4.493-1.156-6.715-1.907C146.876,310.355,146.573,310.875,147,311.021Z" transform="translate(-119.408 -293.987)" fill="#ffcd5f"/>
              <path id="패스_5279" data-name="패스 5279" d="M147.474,309.034c2.008.072,3.923.68,5.924.836.456.035.585-.535.126-.571-2.062-.16-4.034-.776-6.109-.849C146.954,308.433,147.016,309.018,147.474,309.034Z" transform="translate(-119.543 -293.082)" fill="#ffcd5f"/>
              <path id="패스_5280" data-name="패스 5280" d="M142.621,293.474c-.336.241.077.734.415.488,1.469-1.061,3.217-1.848,4.64-2.943a27.2,27.2,0,0,1,5.116-3.647c.395-.182-.023-.672-.415-.49a20.343,20.343,0,0,0-4.426,3.1C146.34,291.314,144.335,292.237,142.621,293.474Z" transform="translate(-117.486 -283.425)" fill="#ffcd5f"/>
              <path id="패스_5281" data-name="패스 5281" d="M148.752,296.168c-.444.092-.195.648.246.556,3.162-.663,6.108-1.811,9.3-2.41.446-.082.2-.638-.246-.555C154.86,294.358,151.915,295.507,148.752,296.168Z" transform="translate(-120.178 -286.513)" fill="#ffcd5f"/>
              <path id="패스_5282" data-name="패스 5282" d="M158.775,301.3c2.937-.1,5.9.68,8.805.25.444-.066.39-.651-.059-.585-2.906.429-5.869-.348-8.806-.249C158.255,300.729,158.315,301.314,158.775,301.3Z" transform="translate(-124.594 -289.62)" fill="#ffcd5f"/>
              <path id="패스_5283" data-name="패스 5283" d="M132.794,289.677c-.244.305.3.7.551.389a38.839,38.839,0,0,1,5.806-6.53c.324-.258-.231-.647-.551-.39A38.7,38.7,0,0,0,132.794,289.677Z" transform="translate(-113.122 -281.734)" fill="#ffcd5f"/>
              <path id="패스_5284" data-name="패스 5284" d="M132.223,281.831c.336,1.55-.255,3.067-.083,4.618.043.377.755.351.714-.026-.172-1.551.42-3.064.083-4.617C132.856,281.436,132.142,281.459,132.223,281.831Z" transform="translate(-112.842 -281.054)" fill="#ffcd5f"/>
              <path id="패스_5285" data-name="패스 5285" d="M125.985,283.049a10.328,10.328,0,0,1,1.087,3.684c.017.377.73.351.714-.025a10.782,10.782,0,0,0-1.129-3.839C126.5,282.51,125.826,282.689,125.985,283.049Z" transform="translate(-110.095 -281.561)" fill="#ffcd5f"/>
              <path id="패스_5286" data-name="패스 5286" d="M117.834,291.442a6.179,6.179,0,0,0-1.807-1.983,23.264,23.264,0,0,1-3.235-3.108c-.276-.309-.859.01-.583.321a24.861,24.861,0,0,0,1.954,2.114c1.052.94,2.361,1.632,3,2.836C117.347,291.97,118.021,291.793,117.834,291.442Z" transform="translate(-103.916 -283.149)" fill="#ffcd5f"/>
              <path id="패스_5287" data-name="패스 5287" d="M116.068,295.437a15.274,15.274,0,0,1-6.156-2.3c-.352-.255-.807.18-.456.434a16.09,16.09,0,0,0,6.488,2.437C116.4,296.1,116.521,295.526,116.068,295.437Z" transform="translate(-102.662 -286.203)" fill="#ffcd5f"/>
              <path id="패스_5288" data-name="패스 5288" d="M130.427,292.522c-.155-.359-.827-.179-.672.18a5.364,5.364,0,0,1,.466,1.86c.02.378.734.35.714-.025A5.867,5.867,0,0,0,130.427,292.522Z" transform="translate(-111.781 -285.876)" fill="#ffcd5f"/>
              <path id="패스_5289" data-name="패스 5289" d="M137.248,280.885c-.064.5.013,1.115-.393,1.525-.283.288.267.679.552.39a2.718,2.718,0,0,0,.546-1.789C138,280.64,137.3,280.514,137.248,280.885Z" transform="translate(-114.93 -280.662)" fill="#ffcd5f"/>
              <path id="패스_5290" data-name="패스 5290" d="M118.1,287.151a16.143,16.143,0,0,1-1.8-1.128c-.339-.267-.794.169-.456.435a15.913,15.913,0,0,0,1.794,1.128C118.023,287.807,118.483,287.375,118.1,287.151Z" transform="translate(-105.523 -283.021)" fill="#ffcd5f"/>
              <path id="패스_5291" data-name="패스 5291" d="M109.306,289.419c-.494-.264-.963-.561-1.431-.856-.371-.233-.831.2-.456.434.52.327,1.039.649,1.586.942A.3.3,0,1,0,109.306,289.419Z" transform="translate(-101.745 -284.164)" fill="#ffcd5f"/>
              <path id="패스_5292" data-name="패스 5292" d="M111.129,301.911c-3.108.509-6.3-.006-9.457-.065-.463-.008-.4.576.059.585,3.232.061,6.46.556,9.643.036C111.825,302.394,111.573,301.839,111.129,301.911Z" transform="translate(-99.097 -290.13)" fill="#ffcd5f"/>
              <path id="패스_5293" data-name="패스 5293" d="M105.813,305.054a31.09,31.09,0,0,0-8.328,1.681c-.411.152-.169.707.244.556a30.352,30.352,0,0,1,8.142-1.652C106.327,305.6,106.269,305.017,105.813,305.054Z" transform="translate(-97.272 -291.563)" fill="#ffcd5f"/>
              <path id="패스_5294" data-name="패스 5294" d="M105.511,307.205c1.843-1.208,3.77-2.313,5.475-3.656.326-.255-.228-.644-.551-.39-1.659,1.306-3.528,2.4-5.34,3.558s-3.515,2.422-5.416,3.5c-.371.212.044.7.416.49C101.995,309.629,103.712,308.386,105.511,307.205Z" transform="translate(-98.283 -290.681)" fill="#ffcd5f"/>
              <path id="패스_5295" data-name="패스 5295" d="M109.394,312.046c.31-.269-.242-.659-.551-.39a41.716,41.716,0,0,1-4.152,3.376c-.347.233.066.725.416.489A43.087,43.087,0,0,0,109.394,312.046Z" transform="translate(-100.53 -294.475)" fill="#ffcd5f"/>
            </g>
            <g id="그룹_1406" data-name="그룹 1406" transform="translate(11.162 8.317)" opacity="0.3" style="mix-blend-mode: color-dodge;isolation: isolate">
              <path id="패스_5296" data-name="패스 5296" d="M111.534,290.838c0,.792-.9,1.435-2,1.435s-2-.642-2-1.435.9-1.435,2-1.435S111.534,290.046,111.534,290.838Z" transform="translate(-107.531 -289.403)" fill="#fef6b7"/>
              <path id="패스_5297" data-name="패스 5297" d="M166.334,316.613c0,.929-1.4,1.684-3.128,1.684s-3.13-.755-3.13-1.684,1.4-1.685,3.13-1.685S166.334,315.682,166.334,316.613Z" transform="translate(-131.017 -300.812)" fill="#fef6b7"/>
              <path id="패스_5298" data-name="패스 5298" d="M154.713,316.606c0,.427-.792.773-1.767.773s-1.768-.346-1.768-.773.791-.774,1.768-.774S154.713,316.179,154.713,316.606Z" transform="translate(-127.04 -301.216)" fill="#fef6b7"/>
              <path id="패스_5299" data-name="패스 5299" d="M129.322,324.824c0,.808-1.1,1.463-2.463,1.463s-2.464-.655-2.464-1.463,1.1-1.461,2.464-1.461S129.322,324.018,129.322,324.824Z" transform="translate(-115.069 -304.582)" fill="#fef6b7"/>
              <path id="패스_5300" data-name="패스 5300" d="M132.884,291.073c0,.609-.811,1.1-1.812,1.1s-1.811-.5-1.811-1.1.811-1.1,1.811-1.1S132.884,290.463,132.884,291.073Z" transform="translate(-117.244 -289.656)" fill="#fef6b7"/>
            </g>
          </g>
          <path id="패스_5301" data-name="패스 5301" d="M118.657,332.593c12.517-.471,22.378-6.837,24.309-14.963-4.006,1.386-12.17,3.714-17.526,3.714-14.173,0-25.034-3.934-32.8.383C97.124,328.477,107.31,333.02,118.657,332.593Z" transform="translate(-89.714 -293.702)" fill="#fef6b7" opacity="0.5"/>
          <g id="그룹_1408" data-name="그룹 1408" transform="translate(3.543 30.579)" opacity="0.5">
            <path id="패스_5302" data-name="패스 5302" d="M94.168,334.1c8.871.037,17.555,2.629,26.394,2.286a63.2,63.2,0,0,0,12.621-1.965c3-.74,5.941-1.664,8.028-4.042a.429.429,0,0,0-.606-.607c-6.316,5.248-16.307,4.294-23.809,3.421-7.369-.859-15.586-2.814-22.742.065a.43.43,0,0,0,.114.841Z" transform="translate(-93.756 -329.658)" fill="#fffad2"/>
          </g>
          <g id="그룹_1409" data-name="그룹 1409" transform="translate(37.307 35.22)">
            <path id="패스_5303" data-name="패스 5303" d="M155.006,341.666c9.051-.423,17.514,2.044,25.609-3.193a.228.228,0,0,0-.174-.415c-8.38,2.426-16.989,1.7-25.489,3.212-.225.04-.171.407.054.4Z" transform="translate(-154.808 -338.049)" fill="#fffad2"/>
          </g>
        </g>
      </g>
    </g>
    <g id="그룹_1424" data-name="그룹 1424" transform="translate(80.16 217.533)">
      <g id="그룹_1416" data-name="그룹 1416" transform="translate(0 0)">
        <path id="패스_5304" data-name="패스 5304" d="M247.292,358.968c.2,7.859,7.654,12.946,10.386,19.643a22.877,22.877,0,0,1,.375,13.943A15.455,15.455,0,0,1,244.2,379.028C243.461,373.442,247.127,360.722,247.292,358.968Z" transform="translate(-211.522 -358.968)" fill="#2b895a"/>
        <path id="패스_5305" data-name="패스 5305" d="M228.977,400.9c-2.172.264-5.646-1.507-7.3-2.783a22.4,22.4,0,0,1-4.738-6.231c-1.74-3.336-2.74-10.1-7.146-10.891a14.026,14.026,0,0,1,11.5,7.285C223.518,392.405,224.228,398.772,228.977,400.9Z" transform="translate(-194.129 -370.133)" fill="#0cd893"/>
        <path id="패스_5306" data-name="패스 5306" d="M220.842,431.56c-5.407,7.895-16.606,9.878-25.258,7.575-6.29-1.615-13.166-3.94-17.561-8.832,6.364,1.809,13.281-1.277,19.31-2.859A29.228,29.228,0,0,1,220.842,431.56Z" transform="translate(-178.023 -393.236)" fill="#31a26c"/>
        <g id="그룹_1413" data-name="그룹 1413" transform="translate(35.322 4.788)" opacity="0.6">
          <path id="패스_5307" data-name="패스 5307" d="M250.484,368.774a12.659,12.659,0,0,0,1.176,6.422c.842,2.19,1.848,4.3,2.867,6.412,1.059,2.189,2.131,4.37,3.182,6.561a27.837,27.837,0,0,1,1.931,7.28.465.465,0,0,1-.723.456,17.733,17.733,0,0,1-5.211-5.873,34.853,34.853,0,0,1-2.718-7.891,73.086,73.086,0,0,1-1.172-7.339,12.275,12.275,0,0,1,.5-6.067c.037-.089.184-.063.169.039Z" transform="translate(-249.665 -368.68)" fill="#c1e29b"/>
        </g>
        <g id="그룹_1414" data-name="그룹 1414" transform="translate(19.2 12.278)">
          <path id="패스_5308" data-name="패스 5308" d="M217.289,383.889c2.779,1.1,4.26,3.624,5.449,6.222.715,1.564,1.316,3.166,2.106,4.7a24.915,24.915,0,0,0,3.126,4.6c.165.2-.053.559-.309.431a13.89,13.89,0,0,1-6.521-6.481c-1.295-2.927-1.331-7.019-4.077-9.047a.242.242,0,0,1,.226-.422Z" transform="translate(-216.966 -383.871)" fill="#c1e29b"/>
        </g>
        <g id="그룹_1415" data-name="그룹 1415" transform="translate(4.022 37.726)" opacity="0.6">
          <path id="패스_5309" data-name="패스 5309" d="M186.394,435.685a22.175,22.175,0,0,0,8.937,2.049c3.281.1,6.553.268,9.837.266a46.8,46.8,0,0,0,9.7-1.232c2.511-.542,4.974-1.512,7.577-1.231a.708.708,0,0,1,.23,1.337,73.189,73.189,0,0,1-6.943,3.779,30.687,30.687,0,0,1-10.987,1.85,28.578,28.578,0,0,1-18.507-6.529c-.133-.114-.025-.374.155-.289Z" transform="translate(-186.18 -435.487)" fill="#c1e29b"/>
        </g>
        <path id="패스_5310" data-name="패스 5310" d="M187.825,403.955a21.123,21.123,0,0,0,2.808,1c.238.064.476.138.717.194l.726.164c.482.119.976.184,1.463.279s.983.136,1.474.2c.495.045.988.1,1.483.136.991.07,1.983.112,2.974.116.5,0,.994.006,1.489-.01s.993-.024,1.488-.049c.993-.039,1.983-.111,2.973-.194l.419-.039c-.675-.765-2.125-1.178-3.01-1.594a44.262,44.262,0,0,0-5.5-2.035c-.027-.008-.011-.049.015-.04a32.971,32.971,0,0,1,6.264,2.206,6.883,6.883,0,0,1,2.485,1.439q1.145-.106,2.286-.239,1.479-.176,2.956-.388c.475-.068.95-.145,1.425-.219-2.521-2.439-6.094-3.38-9.267-4.678-.012-.006-.006-.026.008-.021,3.33,1.234,6.959,2.084,9.557,4.654q2.084-.322,4.168-.674c1.023-.172,2.046-.349,3.073-.521a18.993,18.993,0,0,0-8.521-4.338c-.053-.011-.048-.1.009-.088a17.454,17.454,0,0,1,8.77,4.385c.856-.141,1.713-.275,2.578-.394a26.557,26.557,0,0,1,3.014-.266l2.992-.063,2.993-.063c.178-.006.356-.009.534-.01l-2.648-1.211c-.814-.372-1.623-.75-2.447-1.106L225.12,399.4l-4.92-2.169-2.46-1.084a23.026,23.026,0,0,1-2.445-1.192,18.41,18.41,0,0,1-2.275-1.508,17.827,17.827,0,0,1-2.008-1.849c-.393-.44-.773-.894-1.127-1.364a8.692,8.692,0,0,1-3.163-2c-.015-.013,0-.039.019-.026a8.815,8.815,0,0,0,2.942,1.756c-.119-.169-.237-.338-.348-.51a19.5,19.5,0,0,1-1.346-2.357c-.193-.382-.367-.771-.532-1.164a8.207,8.207,0,0,1-2.571-2.772c-.013-.021.022-.043.037-.024a12.993,12.993,0,0,0,2.392,2.451q-.2-.49-.389-.981l-.5-1.24c-.086-.206-.161-.415-.254-.617l-.29-.6c-.2-.4-.373-.811-.6-1.192s-.422-.786-.677-1.149l-.368-.555c-.13-.182-.268-.354-.4-.532a7.125,7.125,0,0,0-.893-.972l0,0a.1.1,0,0,1-.011-.137.1.1,0,0,1,.141-.013,7.249,7.249,0,0,1,.942.985c.14.177.286.352.421.532l.384.557c.27.365.475.767.71,1.151s.428.793.636,1.193l.3.6c.1.2.179.413.27.619l.529,1.244c.145.351.291.7.442,1.051.886-1.263.742-3.19.51-4.622a.044.044,0,0,1,.086-.014c.342,1.527.637,3.6-.492,4.873.173.388.353.771.55,1.144a19.092,19.092,0,0,0,1.362,2.28c.158.235.326.461.5.681a9.577,9.577,0,0,0,.571-4.467c0-.037.061-.039.065,0,.154,1.487.446,3.4-.44,4.717.312.388.64.762.979,1.125A17.276,17.276,0,0,0,213.368,393a17.779,17.779,0,0,0,2.23,1.415A22.784,22.784,0,0,0,218,395.527l2.482,1.035,4.96,2.069,2.482,1.036c.829.34,1.647.7,2.473,1.059l1.363.59q-.723-.607-1.474-1.235c-.259-.22-.525-.441-.79-.665l-.392-.331-.415-.364a9.486,9.486,0,0,1-.795-.771c-.265-.259-.494-.55-.733-.832a23.064,23.064,0,0,1-2.436-3.712c-.114-.216-.223-.434-.335-.653-3.379-.874-6.62-3.98-8.147-6.965-.02-.039.038-.063.06-.028,1.615,2.7,4.717,5.659,7.9,6.617a46.852,46.852,0,0,1-2.494-6.27c-2.63-1.625-4.167-4.271-5.235-7.106,0-.013.015-.022.02-.009,1.165,2.614,2.684,5.19,5.111,6.788-.038-.121-.08-.239-.115-.358-.575-1.832-1.039-3.6-1.425-5.224a11.689,11.689,0,0,1-2.872-4.182c-.018-.053.06-.091.08-.037a12.191,12.191,0,0,0,2.721,3.918c-.139-.593-.268-1.167-.388-1.718-.456-2.141-.767-3.937-.965-5.2s-.284-1.982-.284-1.982a.022.022,0,0,1,.018-.025.021.021,0,0,1,.025.018s.115.719.359,1.969.624,3.03,1.16,5.144c.372,1.45.816,3.063,1.353,4.757a11.282,11.282,0,0,0,1.131-7.114.022.022,0,0,1,.043-.007,10.138,10.138,0,0,1-1.1,7.344q.338,1.053.723,2.145c.464,1.31.986,2.653,1.579,3.984a33.275,33.275,0,0,0,1.56-8.431c0-.013.021-.011.023,0,0,2.862-.028,6.148-1.441,8.741a37.265,37.265,0,0,0,1.758,3.425c.17.287.344.57.524.853.15-.248.311-.49.471-.742a9.111,9.111,0,0,0,1-3.093,14.42,14.42,0,0,0,.2-5.526.011.011,0,0,1,.021-.005,12.383,12.383,0,0,1-1.5,9.655A20.14,20.14,0,0,0,228,396.4c.232.255.458.519.71.747a8.94,8.94,0,0,0,.751.675l.387.315.416.326c.275.212.548.425.817.634l1.589,1.232c.514.414,1.01.838,1.5,1.241s.968.791,1.409,1.19.872.776,1.283,1.145.8.725,1.163,1.074l1.036.984c.63.643,1.191,1.186,1.629,1.668s.791.852,1.021,1.122c.116.129.205.235.268.309s.094.112.094.112.013.019.02.027a.911.911,0,0,1-1.443,1.113l-.019-.023-.074-.1c-.046-.061-.124-.159-.23-.288-.2-.257-.518-.633-.929-1.1s-.932-1.032-1.522-1.679c-.3-.315-.631-.65-.973-1s-.7-.726-1.1-1.1-.8-.768-1.218-1.171l0,0c-.813-.027-1.623-.063-2.445-.051h-5.959a24.984,24.984,0,0,0-2.937.2c-1.609.184-3.221.427-4.836.667a21.342,21.342,0,0,1-3.065,4.485c-.009.01-.028,0-.018-.013a23.463,23.463,0,0,0,2.878-4.44l-.86.127c-1.569.23-3.139.452-4.713.656a14.6,14.6,0,0,1-6.061,5.649.011.011,0,1,1-.008-.019,17.714,17.714,0,0,0,5.776-5.591c-.307.039-.613.083-.919.121-.99.119-1.982.229-2.975.324-.959.092-1.918.173-2.879.235a15.228,15.228,0,0,1-2.382,1.884,8.5,8.5,0,0,1-3.2,1.613c-.013,0-.018-.017-.007-.021a18.77,18.77,0,0,0,5.281-3.457c-.927.057-1.857.1-2.787.122-.5.013-1,.021-1.5.016s-1-.007-1.5-.021c-1-.025-2-.09-2.989-.179-.5-.047-.992-.115-1.488-.17-.492-.079-.989-.145-1.478-.237s-.983-.18-1.465-.311l-.727-.18c-.241-.062-.478-.141-.718-.211a21.267,21.267,0,0,1-2.8-1.06.022.022,0,0,1-.011-.03A.022.022,0,0,1,187.825,403.955Z" transform="translate(-182.976 -365.054)" fill="#003f35"/>
      </g>
      <g id="그룹_1423" data-name="그룹 1423" transform="translate(34.804 3.668)">
        <path id="패스_5318" data-name="패스 5318" d="M282.7,366.96c7.9,1.344,14.871,6.471,18.714,16.256s2.561,12.178,4.941,14.909,2.157,6.7-2.731,6.95-8.957,3.573-16.958,5.076-14.906-.383-18.012-2.314Z" transform="translate(-258.775 -366.688)" fill="#ffcd5f"/>
        <path id="패스_5319" data-name="패스 5319" d="M303.691,433.852c-3.177.517-6.217,1.773-9.466,2.283a24.3,24.3,0,0,1-14.313-2.391,31.521,31.521,0,0,1-7.672-5.028l-3.584,10.43c3.106,1.931,10.014,3.817,18.012,2.314s12.07-4.824,16.958-5.076c2.416-.126,3.691-1.16,4.075-2.5A12.924,12.924,0,0,0,303.691,433.852Z" transform="translate(-258.775 -397.996)" fill="#ffcd5f" opacity="0.5" style="mix-blend-mode: multiply;isolation: isolate"/>
        <path id="패스_5320" data-name="패스 5320" d="M284.348,394.441c-4.425,11.166-15.607,17.207-24.978,13.494s-13.379-15.776-8.954-26.94,15.608-17.206,24.977-13.493S288.773,383.277,284.348,394.441Z" transform="translate(-248.615 -366.408)" fill="#fceb97"/>
        <path id="패스_5321" data-name="패스 5321" d="M264.712,408.974a14.348,14.348,0,0,1-3.7-.924c-8.754-3.468-12.475-14.871-8.3-25.419,3.509-8.855,11.816-14.64,19.753-13.758a14.472,14.472,0,0,1,3.7.922,15.64,15.64,0,0,1,8.969,9.955,22.688,22.688,0,0,1-.672,15.465C280.957,404.07,272.65,409.856,264.712,408.974Z" transform="translate(-249.822 -367.613)" fill="#fffbe1"/>
        <g id="그룹_1421" data-name="그룹 1421" transform="translate(1.577 2.329)" style="mix-blend-mode: multiply;isolation: isolate">
          <path id="패스_5322" data-name="패스 5322" d="M285.76,392.91c.35,1.044,9.035,1.587,12.26,1.946s5.549-3.59,4.084-6.727c0,0-.754-8.207-4.526-8.844S285.315,391.586,285.76,392.91Z" transform="translate(-269.015 -375.254)" fill="#fef6b7"/>
          <path id="패스_5323" data-name="패스 5323" d="M275.98,387.849c.914.52,6.181-8.595,7.908-10.434s3.678-3.725,2.253-4.609-6.026-2.556-9.886-1.1-4.977,1.694-4.665,3.47S275.026,387.308,275.98,387.849Z" transform="translate(-261.815 -371.132)" fill="#fef6b7"/>
          <path id="패스_5324" data-name="패스 5324" d="M266.029,396.021c-.164-.747-3.345-9.7-4.4-11.337s-1.91-1.083-3.113.6-4.538,6.24-4.348,8.438,1.985,2.614,5.745,2.6S266.29,397.219,266.029,396.021Z" transform="translate(-253.006 -377.504)" fill="#fef6b7"/>
          <path id="패스_5325" data-name="패스 5325" d="M264.212,412.039c-.3.591-7.19,9.861-7.93,10s-2.673-2.038-3.262-4.569-1.815-6.512-.843-6.766S264.626,411.229,264.212,412.039Z" transform="translate(-251.814 -391.167)" fill="#fef6b7"/>
          <path id="패스_5326" data-name="패스 5326" d="M271.489,414.922c-1.119-.416-7.079,8.859-7.787,10.013s2.733,4.148,5.138,5,8.227.7,8.162-.687S272.325,415.232,271.489,414.922Z" transform="translate(-257.793 -393.325)" fill="#fef6b7"/>
          <path id="패스_5327" data-name="패스 5327" d="M282.829,412.1c.157.826,1.932,4.968,3.182,8.083s2.514,5.428,3.484,5.826,7.007-4.3,8.288-7.345,1.124-4.234.539-4.839-7.966-2.081-10.6-2.518S282.618,410.986,282.829,412.1Z" transform="translate(-267.531 -391.378)" fill="#fef6b7"/>
        </g>
        <g id="그룹_1422" data-name="그룹 1422" transform="translate(4.076 3.277)">
          <path id="패스_5328" data-name="패스 5328" d="M289.934,420.852c-.814-1.419-1.451-2.937-2.216-4.382-.175-.332-.711-.1-.534.237.841,1.591,1.562,3.241,2.455,4.8a23.317,23.317,0,0,0,3.217,3.937c.252.28.711-.085.458-.366A24.66,24.66,0,0,1,289.934,420.852Z" transform="translate(-272.227 -394.983)" fill="#fef6b7"/>
          <path id="패스_5329" data-name="패스 5329" d="M298.5,426.268c-1.9-1.247-4.171-2.3-5.358-4.333-.188-.323-.727-.089-.535.237,1.253,2.148,3.536,3.247,5.545,4.567C298.462,426.945,298.812,426.475,298.5,426.268Z" transform="translate(-274.971 -397.756)" fill="#fef6b7"/>
          <path id="패스_5330" data-name="패스 5330" d="M300.274,418.048c-1.523-.575-3.147-.805-4.709-1.256-1.64-.473-3.177-1.224-4.84-1.63-.366-.089-.425.494-.066.583,1.61.393,3.116,1.081,4.688,1.593,1.549.5,3.184.677,4.708,1.255A.293.293,0,0,0,300.274,418.048Z" transform="translate(-273.884 -394.396)" fill="#fef6b7"/>
          <path id="패스_5331" data-name="패스 5331" d="M303.555,422.257a10.722,10.722,0,0,1-3.179-.708.293.293,0,0,0-.217.544,11.322,11.322,0,0,0,3.331.746C303.867,422.862,303.933,422.28,303.555,422.257Z" transform="translate(-278.731 -397.629)" fill="#fef6b7"/>
          <path id="패스_5332" data-name="패스 5332" d="M303.66,403.074c-1.413.79-3.277.472-4.844.661a19.459,19.459,0,0,1-6.332.085c-.369-.076-.431.507-.064.582a19.9,19.9,0,0,0,6.489-.087c1.622-.2,3.514.12,4.99-.706C304.224,403.426,303.991,402.89,303.66,403.074Z" transform="translate(-274.774 -388.254)" fill="#fef6b7"/>
          <path id="패스_5333" data-name="패스 5333" d="M297.1,399.823c-.377.015-.281.593.091.579a13.115,13.115,0,0,0,4.074-1.021c1.275-.466,2.623-.581,3.856-1.173.34-.164.1-.7-.238-.535a32.255,32.255,0,0,1-3.375,1A14.7,14.7,0,0,1,297.1,399.823Z" transform="translate(-277.149 -385.519)" fill="#fef6b7"/>
          <path id="패스_5334" data-name="패스 5334" d="M294.829,393.518c1.288-1.2,2.232-2.683,3.575-3.84,1.56-1.345,3.354-2.4,4.952-3.7a.293.293,0,0,0-.367-.457c-1.467,1.2-3.062,2.216-4.556,3.376-1.553,1.206-2.549,2.838-3.969,4.162C294.188,393.317,294.551,393.776,294.829,393.518Z" transform="translate(-275.885 -379.342)" fill="#fef6b7"/>
          <path id="패스_5335" data-name="패스 5335" d="M292.972,395.664c.738-1.468,1.931-2.626,2.742-4.05.184-.324-.284-.677-.47-.35-.837,1.467-2.054,2.666-2.817,4.181C292.257,395.784,292.8,396,292.972,395.664Z" transform="translate(-274.886 -382.22)" fill="#fef6b7"/>
          <path id="패스_5336" data-name="패스 5336" d="M278.2,388.346c.1.358.684.271.579-.092-.459-1.571-.577-3.227-1.082-4.779a24.44,24.44,0,0,1-1.553-5.451c-.031-.376-.61-.282-.578.092a18.175,18.175,0,0,0,1.29,4.689C277.518,384.6,277.67,386.514,278.2,388.346Z" transform="translate(-266.357 -375.452)" fill="#fef6b7"/>
          <path id="패스_5337" data-name="패스 5337" d="M282.539,385.144c-.066.373.517.435.582.065.469-2.656.429-5.369.965-8.016.074-.369-.509-.431-.582-.065C282.968,379.776,283.008,382.487,282.539,385.144Z" transform="translate(-269.887 -374.995)" fill="#fef6b7"/>
          <path id="패스_5338" data-name="패스 5338" d="M289.465,379.922c.9-2.238,2.592-4.1,3.185-6.464.089-.361-.452-.583-.546-.216-.591,2.361-2.284,4.225-3.184,6.462A.293.293,0,0,0,289.465,379.922Z" transform="translate(-273.113 -373.053)" fill="#fef6b7"/>
          <path id="패스_5339" data-name="패스 5339" d="M269.315,397.685c.192.321.73.087.535-.237a39.569,39.569,0,0,1-3.907-7.253c-.124-.356-.658-.116-.535.237A39.515,39.515,0,0,0,269.315,397.685Z" transform="translate(-261.195 -381.655)" fill="#fef6b7"/>
          <path id="패스_5340" data-name="패스 5340" d="M259.921,398.942c1.5.44,2.666,1.56,4.114,2.125a.293.293,0,0,0,.218-.543c-1.45-.565-2.609-1.683-4.115-2.126C259.779,398.293,259.559,398.836,259.921,398.942Z" transform="translate(-258.329 -385.895)" fill="#fef6b7"/>
          <path id="패스_5341" data-name="패스 5341" d="M258.765,404.846a11.877,11.877,0,0,1,3.674.834c.344.158.559-.388.216-.544a12.354,12.354,0,0,0-3.826-.872A.293.293,0,0,0,258.765,404.846Z" transform="translate(-257.71 -388.875)" fill="#fef6b7"/>
          <path id="패스_5342" data-name="패스 5342" d="M263.384,414.6a5.616,5.616,0,0,0-2.387.461,19.93,19.93,0,0,1-3.879,1.028.293.293,0,0,0,.093.579,22.2,22.2,0,0,0,2.553-.514c1.2-.365,2.259-1.034,3.554-.971C263.694,415.2,263.762,414.615,263.384,414.6Z" transform="translate(-256.883 -394.112)" fill="#fef6b7"/>
          <path id="패스_5343" data-name="패스 5343" d="M267,416.11a10.706,10.706,0,0,1-4.134,3.567.293.293,0,0,0,.236.535,11.324,11.324,0,0,0,4.369-3.754C267.706,416.16,267.234,415.812,267,416.11Z" transform="translate(-259.831 -394.824)" fill="#fef6b7"/>
          <path id="패스_5344" data-name="패스 5344" d="M269.971,405.946a.293.293,0,0,0-.066.581,6.342,6.342,0,0,1,1.827.483c.346.154.561-.39.217-.544A6.852,6.852,0,0,0,269.971,405.946Z" transform="translate(-263.357 -389.727)" fill="#fef6b7"/>
          <path id="패스_5345" data-name="패스 5345" d="M260.982,394.031c.429.273,1,.49,1.237.974.16.341.7.1.534-.238a3.263,3.263,0,0,0-1.422-1.206C261.014,393.359,260.663,393.828,260.982,394.031Z" transform="translate(-258.897 -383.425)" fill="#fef6b7"/>
          <path id="패스_5346" data-name="패스 5346" d="M259.734,412.818a12.214,12.214,0,0,1-1.615.833c-.354.135-.115.67.237.536a11.931,11.931,0,0,0,1.617-.835C260.3,413.169,260.065,412.632,259.734,412.818Z" transform="translate(-257.422 -393.193)" fill="#fef6b7"/>
          <path id="패스_5347" data-name="패스 5347" d="M258.751,421.426c-.4.25-.828.465-1.249.685-.335.173-.1.71.235.534.468-.241.932-.484,1.38-.763C259.437,421.684,259.068,421.228,258.751,421.426Z" transform="translate(-257.114 -397.552)" fill="#fef6b7"/>
          <path id="패스_5348" data-name="패스 5348" d="M271.767,420.367c-.589,2.548-2.125,4.7-3.239,7.032-.164.341.382.554.544.216,1.142-2.385,2.674-4.574,3.276-7.183C272.433,420.066,271.85,420,271.767,420.367Z" transform="translate(-262.771 -396.916)" fill="#fef6b7"/>
          <path id="패스_5349" data-name="패스 5349" d="M274.526,427.267a22.117,22.117,0,0,0-1.294,6.97c0,.374.581.441.582.065a21.57,21.57,0,0,1,1.256-6.818C275.191,427.125,274.647,426.909,274.526,427.267Z" transform="translate(-265.171 -400.445)" fill="#fef6b7"/>
          <path id="패스_5350" data-name="패스 5350" d="M278.438,426.129c-.466-1.917-.81-3.851-1.441-5.724-.12-.357-.654-.117-.535.239.615,1.822.966,3.707,1.4,5.577s.991,3.705,1.319,5.607a.293.293,0,0,0,.578-.092C279.428,429.836,278.89,428,278.438,426.129Z" transform="translate(-266.8 -396.97)" fill="#fef6b7"/>
          <path id="패스_5351" data-name="패스 5351" d="M282.933,430.485c-.138-.353-.674-.113-.536.238a38.7,38.7,0,0,1,1.634,4.608c.092.362.673.274.578-.092A39.924,39.924,0,0,0,282.933,430.485Z" transform="translate(-269.806 -402.081)" fill="#fef6b7"/>
        </g>
      </g>
    </g>
  </g>
</svg>
