<svg xmlns="http://www.w3.org/2000/svg" width="127.819" height="167.943" viewBox="0 0 127.819 167.943">
  <g id="그룹_1502" data-name="그룹 1502" transform="translate(-652.316 -159.356)">
    <g id="그룹_1496" data-name="그룹 1496" transform="translate(667.208 251.245)">
      <path id="패스_5379" data-name="패스 5379" d="M684.616,332.736V341.9c0,6.347,8.935,11.492,19.957,11.492h0c11.022,0,19.957-5.145,19.957-11.492v-9.167Z" transform="translate(-671.225 -277.34)" fill="#3d3733"/>
      <path id="패스_5380" data-name="패스 5380" d="M735.7,280.14v26.6a33.347,33.347,0,1,1-66.695,0v-26.6c0-6.611,14.93-11.974,33.348-11.974a89.361,89.361,0,0,1,10.174.566C725.973,270.279,735.7,274.8,735.7,280.14Z" transform="translate(-669.007 -268.165)" fill="#4c4540"/>
      <ellipse id="타원_169" data-name="타원 169" cx="33.347" cy="11.975" rx="33.347" ry="11.975" transform="translate(0.001)" fill="#fff" opacity="0.04"/>
      <path id="패스_5381" data-name="패스 5381" d="M732.079,280.609c0,1.377-.977,2.68-2.72,3.853a20.387,20.387,0,0,1-4.422,2.126,54.9,54.9,0,0,1-12.1,2.606,88.638,88.638,0,0,1-10.044.554c-11.761,0-21.91-2.167-26.561-5.286-1.751-1.173-2.729-2.476-2.729-3.853,0-5.042,13.114-9.138,29.29-9.138a85.757,85.757,0,0,1,12.764.912,48.889,48.889,0,0,1,9.88,2.436C729.578,276.39,732.079,278.411,732.079,280.609Z" transform="translate(-669.645 -268.635)" fill="#3d3636"/>
      <path id="패스_5382" data-name="패스 5382" d="M742.91,280.234v26.6A33.369,33.369,0,0,1,721,338.174V269.052l-1.264-.226C733.181,270.373,742.91,274.9,742.91,280.234Z" transform="translate(-676.215 -268.259)" fill="#fff" opacity="0.04"/>
      <path id="패스_5383" data-name="패스 5383" d="M725.937,332.409a33.351,33.351,0,0,1-56.93-23.583V282.812l.045.025c.566,4.044,6.712,7.551,15.724,9.563v.005C684.776,315.194,699.9,333.556,725.937,332.409Z" transform="translate(-669.007 -270.246)" fill="#3d3636" opacity="0.4"/>
      <g id="그룹_1494" data-name="그룹 1494" transform="translate(0 29.704)">
        <path id="패스_5384" data-name="패스 5384" d="M735.7,303.568V310.2c-7.222,2.977-17.881,5.741-32.6,5.741-15.82,0-26.919-3.194-34.1-6.414v-6.742c.92.48,1.946.975,3.078,1.466,5.919,2.568,16.1,5.625,31.018,5.625s25.144-3.063,31.093-5.63C734.722,304.023,735.222,303.8,735.7,303.568Z" transform="translate(-669.007 -302.789)" fill="#fff"/>
      </g>
    </g>
    <g id="그룹_1497" data-name="그룹 1497" transform="translate(714.912 197.196)">
      <path id="패스_5386" data-name="패스 5386" d="M787.9,209.216a61.677,61.677,0,0,1,2.344,15.412c.274,10.219-2.009,23.319-13.189,32.1l-.023.018c-.1.085-.215.17-.325.254l0,0-.013,0-.007.011,0,0c-21.245,16.2-49.047-1.777-49.047-1.777Z" transform="translate(-725.042 -204.967)" fill="#4c4540"/>
      <path id="패스_5387" data-name="패스 5387" d="M792.356,209.216a61.677,61.677,0,0,1,2.344,15.412c-8.554,10.887-21.448,22.25-35.683,25.866l19.052-30.367Z" transform="translate(-729.501 -204.967)" fill="#fff" opacity="0.04"/>
      <path id="패스_5388" data-name="패스 5388" d="M795.354,209.218s9.917,31.2-10.845,47.513c10.241-8.4,1.356-26.448-4.4-35.87Z" transform="translate(-732.498 -204.967)" fill="#fff" opacity="0.04"/>
      <path id="패스_5389" data-name="패스 5389" d="M786.7,207.176c2.352,3.08,1.549,8.13-1.669,13.945-.159.292-.326.585-.5.879-3.356,5.723-8.966,12.109-16.154,18.044q-1.408,1.163-2.9,2.3t-2.98,2.187c-7.617,5.373-15.257,9.108-21.662,10.839-.359.1-.715.188-1.064.271-6.415,1.552-11.467.986-13.808-2.08-4.745-6.214,3.354-20.49,18.27-32.818q1.435-1.19,2.952-2.349a89.571,89.571,0,0,1,14-8.843C772.875,203.686,783.065,202.416,786.7,207.176Z" transform="translate(-724.612 -204.263)" fill="#4c4540"/>
      <path id="패스_5390" data-name="패스 5390" d="M784.786,209.424c1.317,1.724,1.4,4.23.445,7.212a26.04,26.04,0,0,1-2.342,5.061c-.152.259-.307.521-.471.785-3.161,5.112-8.352,10.874-14.94,16.283q-1.295,1.062-2.653,2.1t-2.723,2c-6.952,4.933-13.88,8.427-19.648,10.134-.324.1-.644.183-.957.265a25.546,25.546,0,0,1-5.422.909c-3.128.135-5.521-.606-6.838-2.329-4.054-5.308,3.588-18.055,17.259-29.294q1.315-1.086,2.7-2.146a87.27,87.27,0,0,1,12.752-8.157C772.55,206.767,781.679,205.357,784.786,209.424Z" transform="translate(-725.115 -204.663)" fill="#2a2525" opacity="0.6"/>
    </g>
    <path id="패스_5391" data-name="패스 5391" d="M760.854,248.8a143.725,143.725,0,0,1-16.755,9.856,46.657,46.657,0,0,1-5.506,2.248,7.85,7.85,0,0,0-4.707,3.779s-.025.041-.065.114a19.373,19.373,0,0,0-1.874,6.8,81.909,81.909,0,0,0-.5,11.77,48.41,48.41,0,0,1-8.463,2.1c-1.164.2-2.386.359-3.64.505.04-.692.105-1.555.187-2.557a77.355,77.355,0,0,1,2.533-14.254c1.295-4.423,3.176-8.65,5.921-11.387,2.436-2.427,6.288-4.2,10.507-5.5a.558.558,0,0,0,.106-.033c.423-.13.823-.253,1.2-.351a99.343,99.343,0,0,1,19.044-3C760.113,248.823,760.854,248.8,760.854,248.8Z" transform="translate(-8.952 -13.661)" fill="#b99f60"/>
    <path id="패스_5392" data-name="패스 5392" d="M758.843,248.913v.008c-1.906,2.264-14.279,7.681-22.921,10.466-7.884,2.541-12.242,22.644-12.935,26.1-1.164.2-2.386.359-3.64.505a80.454,80.454,0,0,1,2.72-16.812c1.295-4.423,3.176-8.65,5.921-11.387C734.822,250.99,752.8,249.3,758.843,248.913Z" transform="translate(-8.952 -13.678)" fill="#fffeff" opacity="0.1"/>
    <path id="패스_5393" data-name="패스 5393" d="M731.947,274.246a81.909,81.909,0,0,0-.5,11.77,48.41,48.41,0,0,1-8.463,2.1c-1.164.2-2.386.359-3.64.505.04-.692.105-1.555.187-2.557l.147-.074c4.252-1.034,13.3-17.048,14.14-18.546A19.373,19.373,0,0,0,731.947,274.246Z" transform="translate(-8.952 -16.361)" fill="#8c9b31" opacity="0.3"/>
    <path id="패스_5394" data-name="패스 5394" d="M741.666,252.848a.559.559,0,0,0,.106-.033c-.033.016-.074.024-.114.04Z" transform="translate(-12.123 -14.09)" fill="#8c9b31" opacity="0.3"/>
    <path id="패스_5395" data-name="패스 5395" d="M747.487,258.655c1.955-4.235,2.6-8.585-4.3-6.761a99.343,99.343,0,0,1,19.044-3c1.271-.074,2.012-.1,2.012-.1A143.725,143.725,0,0,1,747.487,258.655Z" transform="translate(-12.34 -13.532)" fill="#8c9b31" opacity="0.3"/>
    <g id="그룹_1501" data-name="그룹 1501" transform="matrix(0.485, -0.875, 0.875, 0.485, 640.805, 215.576)">
      <path id="패스_5396" data-name="패스 5396" d="M9.289,0,.2,20.187a2.143,2.143,0,0,0,3.188,2.632l18.1-12.744Z" transform="translate(25.537 21.219)" fill="#ddd4bc"/>
      <g id="그룹_1499" data-name="그룹 1499" transform="translate(0 13.162)">
        <g id="그룹_1498" data-name="그룹 1498" transform="translate(0 0)">
          <path id="패스_5397" data-name="패스 5397" d="M.268,30.847l-.01-.029a4.766,4.766,0,0,1,.973-4.749C6.164,20.665,14.2,17.6,20.393,14.82,30.93,10.09,41.459,5.654,51.626,0h0c-9.784,5.885-19.964,10.645-30.1,15.757C14.083,19.516,5.257,23.642.268,30.847Z" fill="#fff"/>
          <path id="패스_5398" data-name="패스 5398" d="M.1,34.683l-.01-.022a1.08,1.08,0,0,1,.094-1.037C10.856,18.014,35.009,10.054,49.972,0h0C35.015,10.853,13.442,19.536,1.949,34.891A1.074,1.074,0,0,1,.1,34.683Z" transform="translate(1.654 0)" fill="#fff"/>
          <path id="패스_5399" data-name="패스 5399" d="M.178,39.956l-.011-.019A1.112,1.112,0,0,1,.249,38.65C13.28,22.784,31.534,12.688,47.286,0h0C32.063,13.244,15.014,24.444,1.971,40.075A1.106,1.106,0,0,1,.178,39.956Z" transform="translate(4.34 0)" fill="#fff"/>
          <path id="패스_5400" data-name="패스 5400" d="M.283,44.475l-.014-.015a1.111,1.111,0,0,1-.016-1.43C13.366,27.144,29.324,14.25,44.068,0h0C29.944,14.759,15.026,28.694,1.971,44.457A1.1,1.1,0,0,1,.283,44.475Z" transform="translate(7.559 0)" fill="#fff"/>
          <path id="패스_5401" data-name="패스 5401" d="M.417,48.3.4,48.288A1.108,1.108,0,0,1,.253,46.73C13.319,30.913,26.918,15.557,40.287,0h0C27.541,16.072,15.036,32.33,1.976,48.153A1.108,1.108,0,0,1,.417,48.3Z" transform="translate(11.339 0)" fill="#fff"/>
          <path id="패스_5402" data-name="패스 5402" d="M.573,51.42l-.018-.01a1.105,1.105,0,0,1-.3-1.663C13.263,33.946,24.122,16.663,35.943,0h0C24.739,17.176,15.1,35.281,1.981,51.165A1.113,1.113,0,0,1,.573,51.42Z" transform="translate(15.683 0)" fill="#fff"/>
          <path id="패스_5403" data-name="패스 5403" d="M.731,53.824.71,53.817a1.107,1.107,0,0,1-.456-1.739C13.14,36.309,20.9,17.46,31.032,0h0C21.548,17.878,15.1,37.694,1.98,53.5A1.114,1.114,0,0,1,.731,53.824Z" transform="translate(20.594 0)" fill="#fff"/>
          <path id="패스_5404" data-name="패스 5404" d="M.87,55.533l-.024-.005a1.081,1.081,0,0,1-.573-1.772C13.124,39.2,17.529,17.021,25.487,0h0C18.286,16.974,15.15,41.269,1.9,55.226A1.088,1.088,0,0,1,.87,55.533Z" transform="translate(26.139 0)" fill="#fff"/>
          <path id="패스_5405" data-name="패스 5405" d="M.031,56.271l-.031,0c6.341-5.867,8.566-15.9,10.794-23.732C13.9,21.611,16.643,10.731,20.573,0h0c-3.632,11.065-5.99,22.222-8.643,33.473-1.508,6.4-2.825,15.2-7.226,20.888A5.034,5.034,0,0,1,.031,56.271Z" transform="translate(31.053 0)" fill="#fff"/>
        </g>
      </g>
      <path id="패스_5406" data-name="패스 5406" d="M12.465,10.532c-.668.809-2.468.506-4.6-.615a19.573,19.573,0,0,1-3.31-2.232A20.977,20.977,0,0,1,2.3,5.527C.4,3.394-.482,1.361.264.457S3.174.036,5.627,1.5A20.288,20.288,0,0,1,8.172,3.3a19.332,19.332,0,0,1,3.106,3.191C12.573,8.229,13.091,9.773,12.465,10.532Z" transform="translate(34.562 20.761)" fill="#4c4540"/>
      <path id="패스_5407" data-name="패스 5407" d="M28.995,16.587,12.2,28.893,0,18.819,8.906,0Z" transform="translate(34.826 2.4)" fill="#4c4540"/>
      <path id="패스_5408" data-name="패스 5408" d="M21.394,1.425,4.6,13.731c-.668.809-2.468.506-4.6-.615l1.742-1.744,1.67-1.678L13.062,0l8.216,1.33Z" transform="translate(42.427 17.562)" fill="#fff" opacity="0.09"/>
      <path id="패스_5409" data-name="패스 5409" d="M16.814,6.312,2.3,23.888C.4,21.756-.482,19.722.264,18.819L9.17,0Z" transform="translate(34.562 2.4)" fill="#3d3733" opacity="0.7"/>
      <path id="패스_5410" data-name="패스 5410" d="M20.524,17.34c-1.645,1.992-7.476-.106-13.023-4.687S-1.21,2.745.435.753,7.91.859,13.457,5.439,22.168,15.348,20.524,17.34Z" transform="translate(43.299 1.647)" fill="#3d3733"/>
      <path id="패스_5411" data-name="패스 5411" d="M13.137,12.164a7.394,7.394,0,0,1-3.553,2.373,22.841,22.841,0,0,1-5.492-3.444A23.551,23.551,0,0,1,0,6.82,7.379,7.379,0,0,1,1.675,2.7a7.433,7.433,0,0,1,12.036,8.669A7.288,7.288,0,0,1,13.137,12.164Z" transform="translate(49.442 0)" fill="#b99f60"/>
    </g>
  </g>
</svg>
