<svg xmlns="http://www.w3.org/2000/svg" width="139.477" height="175.738" viewBox="0 0 139.477 175.738">
  <g id="그룹_1524" data-name="그룹 1524" transform="translate(-42.992 -263.938)">
    <g id="그룹_1515" data-name="그룹 1515" transform="translate(42.992 263.938)">
      <g id="그룹_1508" data-name="그룹 1508" transform="translate(40.281 25.687)">
        <g id="그룹_1507" data-name="그룹 1507" transform="translate(25.288 14.865)">
          <path id="패스_5412" data-name="패스 5412" d="M123.482,331.546c8.01-2.619,15.884-10.413,15.884-10.413,4.872-3.935,3.291-8.31-2.069-7.283,0,0-12.72,3.476-19.185,7.591C112.706,325.764,117.212,333.221,123.482,331.546Z" transform="translate(-115.699 -309.375)" fill="#e2988f"/>
          <path id="패스_5413" data-name="패스 5413" d="M136.814,320.74s10.753.36,12.781-1.986,4.118-7.307,1.636-9.452-13.583,5.066-13.583,5.066Z" transform="translate(-117.772 -308.904)" fill="#e2988f"/>
        </g>
        <path id="패스_5414" data-name="패스 5414" d="M115.15,328.775c-6.957-4.487-19.628-15.117-23.946-22.08-4.924-6.865,2.192-15.575,9.641-9.936,6.441,4.889,17.739,16.886,22.231,23.85C127.149,326.071,121.83,332.743,115.15,328.775Z" transform="translate(-87.847 -292.669)" fill="#e2988f"/>
        <path id="패스_5415" data-name="패스 5415" d="M97.749,293.093c7.9,3.139,14.372,11.8,14.372,11.8L98.838,318.583s-9.644-8.624-10.91-14.345S89.845,289.954,97.749,293.093Z" transform="translate(-87.659 -292.421)" fill="#fff"/>
        <rect id="사각형_216" data-name="사각형 216" width="4.986" height="0.45" transform="translate(31.714 29.17) rotate(-80.202)" fill="#c46966"/>
        <rect id="사각형_217" data-name="사각형 217" width="0.451" height="1.733" transform="translate(48.68 24.897) rotate(-1.601)" fill="#c46966"/>
      </g>
      <g id="그룹_1509" data-name="그룹 1509" transform="translate(0 75.002)">
        <path id="패스_5416" data-name="패스 5416" d="M86.24,439.329l.638,10.4,8.171-4.467L95.4,437.7Z" transform="translate(-47.238 -355.998)" fill="#e2988f"/>
        <path id="패스_5417" data-name="패스 5417" d="M49.5,434.7l-3.394,9.5,8.809-.7,3.885-7.89Z" transform="translate(-43.297 -355.703)" fill="#e2988f"/>
        <path id="패스_5418" data-name="패스 5418" d="M94.989,446.086s-4.173,3.1-8.328,2.127a22.681,22.681,0,0,0-.95,8.889h26.317s.752-3.246-4.323-5.374S94.989,446.086,94.989,446.086Z" transform="translate(-47.177 -356.821)" fill="#4c224b"/>
        <path id="패스_5419" data-name="패스 5419" d="M55.1,443.274s-4.9,1.733-8.585-.418a22.673,22.673,0,0,0-3.524,8.216l20.028,6.169s1.969-2.559-1.7-6.148A44.371,44.371,0,0,1,55.1,443.274Z" transform="translate(-42.992 -356.504)" fill="#4c224b"/>
        <path id="패스_5420" data-name="패스 5420" d="M62.69,347.1c-6.7,19.031-5.746,42.145-5.746,42.145S45,427.228,46.353,428.393c2.39,2.06,10.554,4.509,12.46,3.382,1.062-.629,14.869-22.181,17.352-41.548,1.968-15.346,3.584-29.013,3.584-29.013s-1.019,69.778.605,71.05,11.025,1.232,12.488-.043,8.346-73.966,3.139-85.117Z" transform="translate(-43.312 -347.104)" fill="#4c224b"/>
        <rect id="사각형_218" data-name="사각형 218" width="10.757" height="0.451" transform="matrix(0.873, -0.488, 0.488, 0.873, 36.329, 13.915)" fill="#7f447f"/>
      </g>
      <g id="그룹_1510" data-name="그룹 1510" transform="translate(26.621)">
        <path id="패스_5421" data-name="패스 5421" d="M73.509,277.826s-.306,3.313,1.713,5.346S79.8,279.3,79.8,279.3Z" transform="translate(-72.608 -265.301)" fill="#4c224b"/>
        <path id="패스_5422" data-name="패스 5422" d="M90.613,276.973a30.652,30.652,0,0,0,1.166-6.682c-.045-2.454-2.433-4.4-2.433-4.4l-.9,6.609Z" transform="translate(-74.075 -264.129)" fill="#4c224b"/>
        <path id="패스_5423" data-name="패스 5423" d="M75.837,280.889l-.314,11.463,10.517-.135-1.059-6.528Z" transform="translate(-72.807 -265.602)" fill="#e2988f"/>
        <path id="패스_5424" data-name="패스 5424" d="M74.851,273.648c-3.265-.564-3.184,5.035.69,5.772,0,0,2.35,7.17,8.558,7.09,8.141-.1,4.5-18.307,4.5-18.307C84.194,263.368,74.358,266.7,74.851,273.648Z" transform="translate(-72.511 -264.132)" fill="#e2988f"/>
        <path id="패스_5425" data-name="패스 5425" d="M84.538,288.6A8.259,8.259,0,0,1,78,285.188l.353-.281a7.726,7.726,0,0,0,6.178,3.241h.1a3.44,3.44,0,0,0,.867-.119l.12.434a3.813,3.813,0,0,1-.981.136Z" transform="translate(-73.05 -265.996)" fill="#c46966"/>
        <path id="패스_5426" data-name="패스 5426" d="M72.945,274.119c-.464-1.744-.673-4.294,1.226-5.555,1.039-6.121,16.942-6.681,14.639,1.438-1.426,2.021-4.478,2.7-11.016.028a7.42,7.42,0,0,1-1.2,5.351A2.3,2.3,0,0,0,72.945,274.119Z" transform="translate(-72.523 -263.938)" fill="#4c224b"/>
        <path id="패스_5427" data-name="패스 5427" d="M76.065,281.027a1.416,1.416,0,0,1-.242-.019l.087-.443-.043.222.042-.222a1.389,1.389,0,0,0,1.381-.723l.382.24A1.86,1.86,0,0,1,76.065,281.027Z" transform="translate(-72.836 -265.499)" fill="#c46966"/>
        <path id="패스_5428" data-name="패스 5428" d="M74.212,278.794a2.348,2.348,0,0,1-.611-1.953,1.224,1.224,0,0,1,.643-.937l.2.406a.818.818,0,0,0-.395.611,1.873,1.873,0,0,0,.492,1.56Z" transform="translate(-72.615 -265.112)" fill="#c46966"/>
        <path id="패스_5429" data-name="패스 5429" d="M75.545,278.7a1.359,1.359,0,0,0-.739-.825,1.17,1.17,0,0,0-.846.061l-.212-.4a1.617,1.617,0,0,1,1.2-.091,1.788,1.788,0,0,1,1.008,1.078Z" transform="translate(-72.633 -265.256)" fill="#c46966"/>
      </g>
      <path id="패스_5430" data-name="패스 5430" d="M100.563,296.413c-5.524-5.667-16.722-5.29-16.722-5.29a7.742,7.742,0,0,1-4.91,1.8,7.976,7.976,0,0,1-5.2-1.673s-16,1.536-16.928,7.065,6.176,46.426,6.176,46.426c1.149.919,9.305,1.468,17.478,1.483,8.17-.225,16.309-.984,17.434-1.933C97.894,344.293,101.629,301.916,100.563,296.413Z" transform="translate(-44.34 -266.606)" fill="#fff"/>
      <rect id="사각형_219" data-name="사각형 219" width="5.747" height="0.451" transform="translate(55.927 42.508) rotate(-87.755)" fill="#eabfb9"/>
      <g id="그룹_1514" data-name="그룹 1514" transform="translate(10.956 28.177)">
        <g id="그룹_1513" data-name="그룹 1513" transform="translate(25.879 5.265)">
          <g id="그룹_1512" data-name="그룹 1512">
            <path id="패스_5431" data-name="패스 5431" d="M92.464,333.119c7.082-4.568,16.663-16.275,16.663-16.275,3.711-5.044,2.481-9.783-2.441-7.428,0,0-16.879,8.235-21.353,14.955C81.2,329.926,86.294,336.586,92.464,333.119Z" transform="translate(-83.837 -301.783)" fill="#e2988f"/>
            <g id="그룹_1511" data-name="그룹 1511" transform="translate(19.207)">
              <path id="패스_5432" data-name="패스 5432" d="M110.935,317.053a44.939,44.939,0,0,0,8.707-3.2c2.817-1.4,4.45-2.978,3.266-3.867,1.668-.668,1.891-2.483.277-2.675a1.428,1.428,0,0,0-.265-2.582c.4-.7-.3-1.767-2.1-1.258a35.682,35.682,0,0,0-8.233,2.5c-.986.436,2.61-4.419,1.046-4.928s-5.865,6.876-6.528,7.241C103.28,311.738,105.273,318.24,110.935,317.053Z" transform="translate(-105.134 -301.02)" fill="#e2988f"/>
              <path id="패스_5433" data-name="패스 5433" d="M115.845,308.287l-.156-.423c3.193-1.182,8.142-2.951,8.191-2.969l.151.425C123.982,305.338,119.037,307.105,115.845,308.287Z" transform="translate(-106.171 -301.401)" fill="#c46966"/>
              <rect id="사각형_220" data-name="사각형 220" width="8.367" height="0.451" transform="translate(10.114 8.95) rotate(-20.098)" fill="#c46966"/>
              <path id="패스_5434" data-name="패스 5434" d="M116.883,313.971l-.166-.42,7.424-2.913.166.42Z" transform="translate(-106.272 -301.964)" fill="#c46966"/>
            </g>
            <path id="패스_5435" data-name="패스 5435" d="M106.682,323.136l-.338-.3,3.933-4.442.064-.018c.064-.018,6.415-1.78,8.833-3.118l.219.394c-2.363,1.306-8.152,2.94-8.869,3.14Z" transform="translate(-86.046 -302.418)" fill="#c46966"/>
            <path id="패스_5436" data-name="패스 5436" d="M110.586,319.052a2.72,2.72,0,0,1-2.183-1.193l.392-.223a2.272,2.272,0,0,0,1.824.966Z" transform="translate(-86.248 -302.651)" fill="#c46966"/>
          </g>
        </g>
        <path id="패스_5437" data-name="패스 5437" d="M82.632,331.537C75.674,327.049,63,316.42,58.685,309.456c-4.924-6.864,2.192-15.575,9.641-9.935,6.44,4.889,17.738,16.886,22.23,23.85C94.63,328.833,89.312,335.5,82.632,331.537Z" transform="translate(-55.328 -295.43)" fill="#e2988f"/>
        <path id="패스_5438" data-name="패스 5438" d="M65.231,295.854c7.9,3.14,14.372,11.8,14.372,11.8L66.319,321.345S56.675,312.721,55.41,307,57.327,292.715,65.231,295.854Z" transform="translate(-55.14 -295.182)" fill="#fff"/>
        <rect id="사각형_221" data-name="사각형 221" width="5.277" height="0.451" transform="matrix(0.248, -0.969, 0.969, 0.248, 30.24, 28.258)" fill="#c46966"/>
        <path id="패스_5439" data-name="패스 5439" d="M66.931,323.8a.229.229,0,0,1-.161-.068l-5.4-5.5.323-.317,5.26,5.36,1.66-1.263.273.358-1.819,1.384A.223.223,0,0,1,66.931,323.8Z" transform="translate(-55.752 -297.414)" fill="#eabfb9"/>
      </g>
    </g>
    <g id="그룹_1523" data-name="그룹 1523" transform="translate(121.695 268.817)">
      <path id="패스_5440" data-name="패스 5440" d="M168.018,290.563s6.042,2.893,4.877,15.655-10.824-15.655-10.824-15.655Z" transform="translate(-133.385 -271.431)" fill="#4c224b"/>
      <path id="패스_5441" data-name="패스 5441" d="M160.022,290.563s-6.042,2.893-4.877,15.655,10.824-15.655,10.824-15.655Z" transform="translate(-132.69 -271.431)" fill="#4c224b"/>
      <path id="패스_5442" data-name="패스 5442" d="M169.2,308.372c.609-6.261,5.8-9.045,9.988-7.081s15.18,20.427,15.636,25.813-4.1,6.9-7.785,5.512S168.594,314.633,169.2,308.372Z" transform="translate(-134.083 -272.423)" fill="#4c224b"/>
      <path id="패스_5443" data-name="패스 5443" d="M143.916,301.745c5.867-2.271,10.686,1.113,10.815,5.738s-11.425,22.741-16.031,25.57-8.009-.56-8.422-4.477S138.048,304.016,143.916,301.745Z" transform="translate(-130.262 -272.457)" fill="#4c224b"/>
      <g id="그룹_1516" data-name="그룹 1516" transform="translate(6.546 59.77)">
        <path id="패스_5444" data-name="패스 5444" d="M179.74,397.828c.608,11.555-3.182,46.774-3.182,46.774-2.048,3.845-7.212,5.565-8.433,1.337L166.11,396.51Z" transform="translate(-140.327 -341.602)" fill="#e2988f"/>
        <path id="패스_5445" data-name="패스 5445" d="M176.689,449.815a12.6,12.6,0,0,0-8.433,1.337,11.74,11.74,0,0,0-.646,6.3h19.642C187.746,452.478,180.022,451.792,176.689,449.815Z" transform="translate(-140.458 -346.815)" fill="#fff"/>
        <path id="패스_5446" data-name="패스 5446" d="M147.43,394.838a256.668,256.668,0,0,0,4.819,49.6c2.049,3.845,7.213,5.565,8.434,1.337l.816-48.749Z" transform="translate(-138.494 -341.438)" fill="#e2988f"/>
        <path id="패스_5447" data-name="패스 5447" d="M151.622,449.8c2.9-1.383,8.434,1.337,8.434,1.337a11.745,11.745,0,0,1,.645,6.3H141.059C140.564,452.458,148.289,451.772,151.622,449.8Z" transform="translate(-137.866 -346.795)" fill="#fff"/>
        <path id="패스_5448" data-name="패스 5448" d="M184.591,393.882c3.718-2.286-2.427-44.6-9.742-58.257H145.875c-7.444,16.3-9.818,56.715-7.5,58.257S180.872,396.169,184.591,393.882Z" transform="translate(-137.521 -335.625)" fill="#6b88f3"/>
      </g>
      <path id="패스_5449" data-name="패스 5449" d="M155.874,270.656c8.675-4.494,16.639,3.38,15.874,11.682-.356,3.857-2.775,7.691-6.586,8.84-2.736.824-6.316.993-8.735-.825C150.769,287.63,147.833,274.953,155.874,270.656Z" transform="translate(-132.292 -269.348)" fill="#4c224b"/>
      <path id="패스_5450" data-name="패스 5450" d="M166.776,297.93l-1.229-10.066h-6.4L158,297.93l6.225,3.966Z" transform="translate(-132.986 -271.166)" fill="#e2988f"/>
      <path id="패스_5451" data-name="패스 5451" d="M145.043,302.039c2.549-3.041,11.7-3.789,11.7-3.789a8.426,8.426,0,0,0,8.527,0c3.249.28,9.637.665,12.186,3.706,3.569,4.256-2.384,30-2.384,30-2.275,2.011-24.156,2.4-28.164,0C146.906,331.956,141.475,306.293,145.043,302.039Z" transform="translate(-131.594 -272.185)" fill="#e2988f"/>
      <g id="그룹_1518" data-name="그룹 1518" transform="translate(20.474 1.676)">
        <path id="패스_5452" data-name="패스 5452" d="M156.132,273.332a7.222,7.222,0,0,1,8.989,0c1.631,1.256,3.082,4.492,3.082,7.9v3.082c-.129,2.943-3.116,8.828-7.576,8.828-2.235,0-4.094-1.506-5.355-3.23a12.257,12.257,0,0,1-2.306-7.3c.026-2.546.274-5.394,1.724-7.569A5.731,5.731,0,0,1,156.132,273.332Z" transform="translate(-152.965 -271.261)" fill="#e2988f"/>
        <g id="그룹_1517" data-name="그룹 1517" transform="translate(13.585 10.454)">
          <path id="패스_5453" data-name="패스 5453" d="M168.689,283.061s2.423-1.089,2.772,1.157c.284,3.265-2.088,4.1-3.026,3.265C167.85,287.366,167.865,284.609,168.689,283.061Z" transform="translate(-168.029 -282.798)" fill="#e2988f"/>
        </g>
        <path id="패스_5454" data-name="패스 5454" d="M160.939,295.314a6.664,6.664,0,0,1-2.535-.514l.171-.418a6.062,6.062,0,0,0,5.368-.321l.218.395A6.689,6.689,0,0,1,160.939,295.314Z" transform="translate(-153.499 -273.45)" fill="#c46966"/>
        <path id="패스_5455" data-name="패스 5455" d="M168.222,281.678c-5.039,1.5-10.7-6.83-10.7-6.83s-3.851,1.468-4.4,5.165l.083-5.935,5.164-2.369,2.888-.5,3.811,1.111a41.644,41.644,0,0,1,3.169,2.963c.01.216,1.029,3.21,1.029,3.3S168.222,281.678,168.222,281.678Z" transform="translate(-152.981 -271.206)" fill="#4c224b"/>
        <path id="패스_5456" data-name="패스 5456" d="M169.031,288.44c-.045-.013-1.1-.333-1.18-1.116l.449-.042c.038.4.633.658.859.726Z" transform="translate(-154.427 -272.784)" fill="#c46966"/>
      </g>
      <path id="패스_5457" data-name="패스 5457" d="M155.973,298.193c2.744,3.031,6.594,3.1,9.923,0,6.477,0,11,2.791,11.972,3.908,3.671,4.235-2.453,29.858-2.453,29.858-2.34,2-24.852,2.393-28.975,0,0,0-5.587-25.541-1.916-29.776C145.482,301.076,151.379,298.978,155.973,298.193Z" transform="translate(-131.54 -272.18)" fill="#f4ba5d"/>
      <path id="패스_5458" data-name="패스 5458" d="M153.583,298.629c-4.368.837-8.208,2.378-9.131,3.447-3.67,4.255-.9,37.969-.9,37.969,1.245,1.339,5.5,2.593,11.352,3.188C159.22,329.322,157.435,313.74,153.583,298.629Z" transform="translate(-131.468 -272.223)" fill="#4c224b"/>
      <path id="패스_5459" data-name="패스 5459" d="M180.149,301.938c-.955-1.107-4.621-3.8-10.951-3.868-3.8,17.935-3.37,33.014.117,44.534,4.237-.251,11-1.723,11.842-2.443C181.158,340.161,183.821,306.194,180.149,301.938Z" transform="translate(-133.822 -272.168)" fill="#4c224b"/>
      <path id="패스_5460" data-name="패스 5460" d="M178.752,332.857c-1.644,4.89-6.628,6.831-11.474,6.27a28.821,28.821,0,0,1-8.55-2.746c-6.359-2.911-14.134-7.041-16.781-13.973-1.7-4.448-.031-10.835,4.735-12.628,3.559-1.339,7.656.381,10.762,2.143,2.537,1.439,4.909,3.17,7.54,4.443a85.4,85.4,0,0,1,7.873,4.3c2.951,1.835,6.005,4.395,6.382,8.085A9.921,9.921,0,0,1,178.752,332.857Z" transform="translate(-131.346 -273.27)" fill="#fff"/>
      <g id="그룹_1520" data-name="그룹 1520" transform="translate(21.562 49.531)">
        <g id="그룹_1519" data-name="그룹 1519" transform="translate(0 10.304)">
          <path id="패스_5461" data-name="패스 5461" d="M166.109,342.908a52.679,52.679,0,0,1-7.11-.566c-1.455-.257-3.891-1.214-3.827-2.158-.852-.306-1.266-1.419-.794-1.623-.4-.266-.169-1.269.225-1.309-.095-.474.077-.694.525-.694,2.68.734,5.956-.017,10.41-.861C168.938,336.115,169.41,343.108,166.109,342.908Z" transform="translate(-154.171 -335.696)" fill="#e2988f"/>
        </g>
        <path id="패스_5462" data-name="패스 5462" d="M194.343,330.35c.335,2.56-1.212,4.828-3.949,5.783-1.8.69-15.512,5.191-21.9,6.71-3.073.125-5.28-9.058-3.39-10.568,6.2-2.83,20.942-8.207,23.649-7.767C192.208,324.766,194.047,328.093,194.343,330.35Z" transform="translate(-155.176 -324.291)" fill="#4c224b"/>
        <path id="패스_5463" data-name="패스 5463" d="M181.891,326.755l-.157-.423c.24-.089,5.908-2.186,7.775-2.055l-.032.45C187.725,324.587,181.95,326.733,181.891,326.755Z" transform="translate(-156.877 -324.271)" fill="#7f447f"/>
        <path id="패스_5464" data-name="패스 5464" d="M168.992,344.635l-.107-.438c4.769-1.162,8.964-2.369,12.826-3.691l.147.427C177.983,342.259,173.775,343.47,168.992,344.635Z" transform="translate(-155.616 -325.864)" fill="#7f447f"/>
        <path id="패스_5465" data-name="패스 5465" d="M158.166,338.427a7.875,7.875,0,0,1-3.674-.789l.224-.391a8.161,8.161,0,0,0,4.616.662l.051.448A10.6,10.6,0,0,1,158.166,338.427Z" transform="translate(-154.203 -325.544)" fill="#c46966"/>
        <path id="패스_5466" data-name="패스 5466" d="M157.681,339.885a5.628,5.628,0,0,1-3.465-1.065l.289-.346a5.668,5.668,0,0,0,4.491.832l.084.443A7.458,7.458,0,0,1,157.681,339.885Z" transform="translate(-154.176 -325.665)" fill="#c46966"/>
        <path id="패스_5467" data-name="패스 5467" d="M157.984,341.525a5.22,5.22,0,0,1-3.006-.859l.271-.36a5.137,5.137,0,0,0,3.659.7l.069.446A6.634,6.634,0,0,1,157.984,341.525Z" transform="translate(-154.251 -325.845)" fill="#c46966"/>
      </g>
      <g id="그룹_1522" data-name="그룹 1522" transform="translate(0.45 45.898)">
        <g id="그룹_1521" data-name="그룹 1521" transform="translate(23.771)">
          <path id="패스_5468" data-name="패스 5468" d="M161.726,332.363a35.739,35.739,0,0,0,6.915-2.542c2.237-1.111,3.534-2.366,2.594-3.072,1.325-.531,1.5-1.972.22-2.125a1.135,1.135,0,0,0-.21-2.052c.317-.552-.235-1.4-1.667-1a28.359,28.359,0,0,0-6.54,1.989c-.782.347,2.786-2.894,1.544-3.3s-5.37,4.846-5.9,5.135C155.646,328.141,157.229,333.306,161.726,332.363Z" transform="translate(-157.119 -320.242)" fill="#e2988f"/>
          <path id="패스_5469" data-name="패스 5469" d="M165.64,325.372l-.157-.423c2.538-.94,6.468-2.344,6.508-2.358l.152.425C172.1,323.029,168.175,324.434,165.64,325.372Z" transform="translate(-157.941 -320.473)" fill="#c46966"/>
          <rect id="사각형_222" data-name="사각형 222" width="6.646" height="0.451" transform="translate(8.017 6.451) rotate(-20.102)" fill="#c46966"/>
          <path id="패스_5470" data-name="패스 5470" d="M166.466,329.887l-.166-.42,5.9-2.314.165.42Z" transform="translate(-158.021 -320.921)" fill="#c46966"/>
        </g>
        <path id="패스_5471" data-name="패스 5471" d="M131,332.5c.689,2.488,3,3.974,5.892,3.787,1.922-.065,14.145-1.268,20.616-2.357,2.88-1.082,2.457-9.749.128-10.4-6.81-.191-21.447-.043-23.769,1.416C130.793,326.525,130.395,330.306,131,332.5Z" transform="translate(-130.761 -320.558)" fill="#4c224b"/>
        <path id="패스_5472" data-name="패스 5472" d="M135.291,324.762l-.2-.4c1.672-.853,5.959-1.068,6.142-1.076l.021.45C141.206,323.737,136.877,323.953,135.291,324.762Z" transform="translate(-131.186 -320.541)" fill="#7f447f"/>
        <rect id="사각형_223" data-name="사각형 223" width="10.098" height="0.451" transform="matrix(0.995, -0.102, 0.102, 0.995, 11.262, 15.087)" fill="#7f447f"/>
      </g>
      <rect id="사각형_224" data-name="사각형 224" width="12.126" height="0.45" transform="translate(46.692 51.469) rotate(-86.404)" fill="#7f447f"/>
      <ellipse id="타원_170" data-name="타원 170" cx="3.87" cy="5.844" rx="3.87" ry="5.844" transform="translate(13.161 43.835) rotate(-70.479)" fill="#e2988f"/>
    </g>
  </g>
</svg>
