<svg xmlns="http://www.w3.org/2000/svg" width="576.243" height="189" viewBox="0 0 576.243 189">
  <g id="합치기_4" data-name="합치기 4" fill="#3f6536">
    <path d="M 574.195068359375 188.5 L 460.7865295410156 188.5 L 94.50002288818359 188.5 C 88.12187957763672 188.5 81.74794769287109 187.8574981689453 75.55516052246094 186.5902862548828 C 69.52009582519531 185.3552856445312 63.58373641967773 183.5125732421875 57.91109085083008 181.1132202148438 C 52.34130859375 178.7574310302734 46.96923446655273 175.8415679931641 41.94401931762695 172.4465789794922 C 36.96644973754883 169.0837860107422 32.28573608398438 165.2218627929688 28.03194999694824 160.9680786132812 C 23.77816390991211 156.7142791748047 19.91623497009277 152.0335693359375 16.5534496307373 147.0559997558594 C 13.15844917297363 142.0307922363281 10.24259281158447 136.6587066650391 7.886806488037109 131.0889282226562 C 5.487449645996094 125.4162826538086 3.644735336303711 119.4799270629883 2.409735202789307 113.4448547363281 C 1.142521023750305 107.2520751953125 0.5000209808349609 100.8781433105469 0.5000209808349609 94.5 C 0.5000209808349609 88.12185668945312 1.142521023750305 81.7479248046875 2.409735202789307 75.55514526367188 C 3.644735336303711 69.52007293701172 5.487449645996094 63.58371353149414 7.886806488037109 57.91107177734375 C 10.24259281158447 52.34128570556641 13.15844917297363 46.96921539306641 16.5534496307373 41.94400024414062 C 19.91623497009277 36.96642684936523 23.77816390991211 32.28571319580078 28.03194999694824 28.03192901611328 C 32.28573608398438 23.77814292907715 36.96644973754883 19.91621398925781 41.94401931762695 16.55342864990234 C 46.96923446655273 13.15842819213867 52.34130859375 10.24257183074951 57.91109085083008 7.886785507202148 C 63.58373641967773 5.487428665161133 69.52009582519531 3.64471435546875 75.55516052246094 2.409714221954346 C 81.74794769287109 1.142500042915344 88.12187957763672 0.5 94.50002288818359 0.5 L 477.5832214355469 0.5 C 483.9612426757812 0.5 490.3350830078125 1.142500042915344 496.5277404785156 2.409714221954346 C 502.5628051757812 3.64471435546875 508.4990234375 5.487428665161133 514.1716918945312 7.886785507202148 C 519.7413940429688 10.24257183074951 525.1134033203125 13.15842819213867 530.1385498046875 16.55342864990234 C 535.1160888671875 19.91621398925781 539.7967529296875 23.77814292907715 544.050537109375 28.03192901611328 C 548.3043212890625 32.28571319580078 552.166259765625 36.96642684936523 555.5289916992188 41.94400024414062 C 558.9239501953125 46.96921539306641 561.8397827148438 52.34128570556641 564.1956176757812 57.91107177734375 C 566.594970703125 63.58371353149414 568.4376831054688 69.52007293701172 569.672607421875 75.55514526367188 C 570.9398803710938 81.7479248046875 571.5823974609375 88.12185668945312 571.5823974609375 94.5 C 571.5823974609375 101.799430847168 570.7428588867188 109.0695037841797 569.0872802734375 116.108283996582 C 567.477783203125 122.9510726928711 565.0869750976562 129.6222076416016 561.9810791015625 135.936279296875 C 558.930908203125 142.1374969482422 555.1795654296875 148.0190734863281 550.8316040039062 153.4177093505859 C 546.5101928710938 158.7832183837891 541.5897216796875 163.6839294433594 536.2068481445312 167.9837188720703 L 535.60595703125 168.4637145996094 L 536.2885131835938 168.8180694580078 L 574.195068359375 188.5 Z" stroke="none"/>
    <path d="M 572.14697265625 188 L 534.6929931640625 168.5530700683594 L 535.8948364257812 167.5930023193359 C 541.2492065429688 163.3159942626953 546.1436767578125 158.4412078857422 550.442138671875 153.1040649414062 C 554.7671508789062 147.7341461181641 558.4984741210938 141.8837890625 561.532470703125 135.7156372070312 C 564.6216430664062 129.4352874755859 566.9996337890625 122.7999267578125 568.6005859375 115.993782043457 C 570.2473754882812 108.9925003051758 571.0823974609375 101.7609252929688 571.0823974609375 94.5 C 571.0823974609375 88.15550231933594 570.4432373046875 81.81521606445312 569.1828002929688 75.65542602539062 C 567.9544677734375 69.65264129638672 566.12158203125 63.74806976318359 563.735107421875 58.10585784912109 C 561.3919067382812 52.5657844543457 558.4915161132812 47.22235870361328 555.1146850585938 42.22393035888672 C 551.7697143554688 37.27271270751953 547.92822265625 32.61678695678711 543.6969604492188 28.38549995422363 C 539.4656372070312 24.15414237976074 534.809814453125 20.31264305114746 529.858642578125 16.96771430969238 C 524.8602294921875 13.59085750579834 519.5169067382812 10.69050025939941 513.9768676757812 8.347285270690918 C 508.3346557617188 5.960785865783691 502.4302368164062 4.127928733825684 496.4275207519531 2.899571418762207 C 490.2677917480469 1.639142870903015 483.9276733398438 1 477.5832214355469 1 L 94.50002288818359 1 C 88.155517578125 1 81.81523895263672 1.639142870903015 75.65544891357422 2.899571418762207 C 69.65266418457031 4.127928733825684 63.74809265136719 5.960785865783691 58.10587692260742 8.347285270690918 C 52.5658073425293 10.69050025939941 47.22237777709961 13.59085750579834 42.22394943237305 16.96771430969238 C 37.27273559570312 20.31264305114746 32.61680603027344 24.15414237976074 28.38552093505859 28.38549995422363 C 24.1541633605957 32.61678695678711 20.31266403198242 37.27271270751953 16.96773529052734 42.22393035888672 C 13.5908784866333 47.22235870361328 10.69052124023438 52.5657844543457 8.347306251525879 58.10585784912109 C 5.960806846618652 63.74806976318359 4.127949714660645 69.65264129638672 2.899592399597168 75.65542602539062 C 1.639163851737976 81.81521606445312 1.000020980834961 88.15550231933594 1.000020980834961 94.5 C 1.000020980834961 100.8444976806641 1.639163851737976 107.1847839355469 2.899592399597168 113.3445739746094 C 4.127949714660645 119.3473587036133 5.960806846618652 125.2519302368164 8.347306251525879 130.8941497802734 C 10.69052124023438 136.4342193603516 13.5908784866333 141.7776489257812 16.96773529052734 146.7760772705078 C 20.31266403198242 151.7272796630859 24.1541633605957 156.3832092285156 28.38552093505859 160.614501953125 C 32.61680603027344 164.8458557128906 37.27273559570312 168.6873626708984 42.22394943237305 172.0322875976562 C 47.22237777709961 175.4091491699219 52.5658073425293 178.3094940185547 58.10587692260742 180.6527099609375 C 63.74809265136719 183.0392150878906 69.65266418457031 184.8720703125 75.65544891357422 186.1004333496094 C 81.81523895263672 187.3608551025391 88.155517578125 188 94.50002288818359 188 L 572.14697265625 188 M 576.2430419921875 189 L 94.50002288818359 189 C 42.30902099609375 189 2.099609446304385e-05 146.6909942626953 2.099609446304385e-05 94.5 C 2.099609446304385e-05 42.30899810791016 42.30902099609375 1.4210854715202e-14 94.50002288818359 1.4210854715202e-14 L 477.5832214355469 1.4210854715202e-14 C 529.7733154296875 1.4210854715202e-14 572.0823974609375 42.30899810791016 572.0823974609375 94.5 C 572.0823974609375 124.4021453857422 558.1965942382812 151.0584259033203 536.5189208984375 168.3743591308594 L 576.2430419921875 189 Z" stroke="none" fill="#707070"/>
  </g>
</svg>
