<svg xmlns="http://www.w3.org/2000/svg" width="153.883" height="114.405" viewBox="0 0 153.883 114.405">
  <g id="그룹_1100" data-name="그룹 1100" transform="translate(0 0)">
    <g id="그룹_759" data-name="그룹 759" transform="translate(2.721 28.565)" opacity="0.6" style="mix-blend-mode: multiply;isolation: isolate">
      <g id="그룹_758" data-name="그룹 758">
        <path id="패스_4465" data-name="패스 4465" d="M329.607,309.3c3.414-3.106,6.828-6.212,10.348-9.45a.7.7,0,0,0,.2-.668.64.64,0,0,0-.461-.488c-23.424-5.794-50.83-2.511-77.165,9.245-26.074,11.638-47.921,14.058-66.79,7.4a.868.868,0,0,0-1.026.366,1.023,1.023,0,0,0,.037,1.165c2.377,3.178,4.8,6.688,7.148,10.083,2.57,3.718,5.227,7.564,7.837,11a.5.5,0,0,1-.056.643c-3.44,3.164-6.781,6.2-10.122,9.243-3.408,3.1-6.815,6.2-10.329,9.434a.7.7,0,0,0-.2.669.638.638,0,0,0,.46.487,98.875,98.875,0,0,0,23.745,2.794c17.252,0,35.583-4.076,53.422-12.04,26.074-11.638,47.921-14.058,66.789-7.395a.868.868,0,0,0,1.027-.367,1.023,1.023,0,0,0-.037-1.164c-2.378-3.179-4.805-6.691-7.151-10.087-2.569-3.717-5.226-7.561-7.834-10.992a.5.5,0,0,1,.055-.642C322.938,315.365,326.273,312.331,329.607,309.3Z" transform="translate(-189.01 -295.896)" fill="#ace7eb"/>
      </g>
    </g>
    <g id="그룹_761" data-name="그룹 761" transform="translate(0 24.468)">
      <g id="그룹_760" data-name="그룹 760">
        <path id="패스_4466" data-name="패스 4466" d="M326.5,304.622c3.414-3.106,6.828-6.212,10.347-9.45a.693.693,0,0,0,.2-.668.638.638,0,0,0-.461-.488c-23.425-5.794-50.829-2.511-77.165,9.245-26.075,11.638-47.921,14.058-66.789,7.4a.866.866,0,0,0-1.026.366,1.021,1.021,0,0,0,.036,1.165c2.378,3.178,4.8,6.687,7.148,10.082,2.57,3.719,5.227,7.565,7.837,11a.5.5,0,0,1-.056.643c-3.44,3.164-6.78,6.2-10.122,9.243-3.407,3.1-6.815,6.2-10.329,9.435a.7.7,0,0,0-.2.669.639.639,0,0,0,.461.486,98.86,98.86,0,0,0,23.745,2.795c17.251,0,35.582-4.076,53.422-12.04,26.074-11.638,47.921-14.058,66.789-7.395a.867.867,0,0,0,1.026-.367,1.022,1.022,0,0,0-.036-1.164c-2.379-3.179-4.805-6.691-7.152-10.087-2.569-3.718-5.225-7.562-7.833-10.993a.494.494,0,0,1,.055-.642C319.835,310.691,323.17,307.657,326.5,304.622Z" transform="translate(-185.906 -291.222)" fill="#ffd866"/>
      </g>
    </g>
    <g id="그룹_921" data-name="그룹 921" transform="translate(16.39 0)">
      <g id="그룹_764" data-name="그룹 764" transform="translate(68.053 99.628)">
        <g id="그룹_763" data-name="그룹 763">
          <g id="그룹_762" data-name="그룹 762">
            <path id="패스_4467" data-name="패스 4467" d="M285.585,390.854c-.982-4.574-1.837-9.186-2.93-13.735-.064-.268-.467-.154-.411.114.955,4.576,2.141,9.108,3.161,13.67.026.118.205.068.18-.049Z" transform="translate(-282.239 -376.966)" fill="#333"/>
          </g>
        </g>
      </g>
      <g id="그룹_767" data-name="그룹 767" transform="translate(62.779 76.608)">
        <g id="그룹_766" data-name="그룹 766">
          <g id="그룹_765" data-name="그룹 765">
            <path id="패스_4468" data-name="패스 4468" d="M281.052,370.489c-1.122-6.519-2.68-12.953-3.915-19.452-.11-.582-1.06-.338-.9.247,1.774,6.378,3.037,12.836,4.541,19.279.042.179.3.1.271-.075Z" transform="translate(-276.222 -350.704)" fill="#333"/>
          </g>
        </g>
      </g>
      <g id="그룹_770" data-name="그룹 770" transform="translate(58.808 111.169)">
        <g id="그룹_769" data-name="그룹 769">
          <g id="그룹_768" data-name="그룹 768">
            <path id="패스_4469" data-name="패스 4469" d="M272.061,393.226c.006-.96.1-1.927.07-2.886a.217.217,0,0,0-.433,0c-.03.959.064,1.926.07,2.886a.146.146,0,0,0,.293,0Z" transform="translate(-271.692 -390.132)" fill="#333"/>
          </g>
        </g>
      </g>
      <g id="그룹_773" data-name="그룹 773" transform="translate(58.693 96.034)">
        <g id="그룹_772" data-name="그룹 772">
          <g id="그룹_771" data-name="그룹 771">
            <path id="패스_4470" data-name="패스 4470" d="M271.9,384.668c.08-3.885.12-7.788,0-11.673a.135.135,0,0,0-.269,0c-.117,3.885-.077,7.788,0,11.673a.132.132,0,0,0,.263,0Z" transform="translate(-271.561 -372.865)" fill="#333"/>
          </g>
        </g>
      </g>
      <g id="그룹_776" data-name="그룹 776" transform="translate(58.794 90.605)">
        <g id="그룹_775" data-name="그룹 775">
          <g id="그룹_774" data-name="그룹 774">
            <path id="패스_4471" data-name="패스 4471" d="M271.969,371.065a20.821,20.821,0,0,0,.131-4.213.187.187,0,0,0-.374,0,20.83,20.83,0,0,0,.131,4.213.058.058,0,0,0,.112,0Z" transform="translate(-271.676 -366.672)" fill="#333"/>
          </g>
        </g>
      </g>
      <g id="그룹_779" data-name="그룹 779" transform="translate(58.727 78.146)">
        <g id="그룹_778" data-name="그룹 778">
          <g id="그룹_777" data-name="그룹 777">
            <path id="패스_4472" data-name="패스 4472" d="M272.065,362.213c.169-3.146.062-6.3.214-9.446.019-.409-.637-.412-.638,0-.007,3.148-.143,6.3.126,9.446a.149.149,0,0,0,.3,0Z" transform="translate(-271.6 -352.459)" fill="#333"/>
          </g>
        </g>
      </g>
      <g id="그룹_782" data-name="그룹 782" transform="translate(99.066 66.73)">
        <g id="그룹_781" data-name="그룹 781">
          <g id="그룹_780" data-name="그룹 780">
            <path id="패스_4473" data-name="패스 4473" d="M335.252,343.847c-5.691-1.631-11.465-3.076-17.235-4.4-.4-.092-.571.53-.17.615,5.8,1.233,11.516,2.865,17.325,4.075a.15.15,0,0,0,.08-.288Z" transform="translate(-317.618 -339.435)" fill="#333"/>
          </g>
        </g>
      </g>
      <g id="그룹_785" data-name="그룹 785" transform="translate(46.789 106.469)">
        <g id="그룹_784" data-name="그룹 784">
          <g id="그룹_783" data-name="그룹 783">
            <path id="패스_4474" data-name="패스 4474" d="M258.2,389.705c.467-1.547.92-3.118,1.239-4.7a.187.187,0,0,0-.361-.1c-.457,1.552-.79,3.155-1.1,4.742a.114.114,0,0,0,.22.06Z" transform="translate(-257.981 -384.769)" fill="#333"/>
          </g>
        </g>
      </g>
      <g id="그룹_788" data-name="그룹 788" transform="translate(48.721 80.196)">
        <g id="그룹_787" data-name="그룹 787">
          <g id="그룹_786" data-name="그룹 786">
            <path id="패스_4475" data-name="패스 4475" d="M260.328,378.535c1.761-7.747,3.426-15.631,5.525-23.292.124-.449-.609-.636-.688-.189-1.383,7.831-3.253,15.678-4.978,23.443-.02.091.12.131.141.039Z" transform="translate(-260.185 -354.798)" fill="#333"/>
          </g>
        </g>
      </g>
      <g id="그룹_791" data-name="그룹 791" transform="translate(35.081 103.95)">
        <g id="그룹_790" data-name="그룹 790">
          <g id="그룹_789" data-name="그룹 789">
            <path id="패스_4476" data-name="패스 4476" d="M244.841,387.417c.792-1.762,1.664-3.482,2.395-5.271.085-.207-.268-.357-.364-.153-.815,1.74-1.484,3.536-2.238,5.3-.06.139.143.263.207.121Z" transform="translate(-244.624 -381.896)" fill="#333"/>
          </g>
        </g>
      </g>
      <g id="그룹_794" data-name="그룹 794" transform="translate(37.808 81.947)">
        <g id="그룹_793" data-name="그룹 793">
          <g id="그룹_792" data-name="그룹 792">
            <path id="패스_4477" data-name="패스 4477" d="M248,378.173c3.244-7,6.672-13.952,10.159-20.84.207-.408-.416-.767-.611-.358-3.32,7-6.549,14.023-9.8,21.053-.076.167.17.312.248.145Z" transform="translate(-247.735 -356.795)" fill="#333"/>
          </g>
        </g>
      </g>
      <g id="그룹_797" data-name="그룹 797" transform="translate(21.683 98.851)">
        <g id="그룹_796" data-name="그룹 796">
          <g id="그룹_795" data-name="그룹 795">
            <path id="패스_4478" data-name="패스 4478" d="M229.581,381.267a36.384,36.384,0,0,0,3.924-4.9c.147-.222-.195-.4-.349-.2-1.26,1.632-2.516,3.269-3.782,4.9-.112.144.073.347.207.207Z" transform="translate(-229.34 -376.079)" fill="#333"/>
          </g>
        </g>
      </g>
      <g id="그룹_800" data-name="그룹 800" transform="translate(26.177 97.605)">
        <g id="그룹_799" data-name="그룹 799">
          <g id="그룹_798" data-name="그룹 798">
            <path id="패스_4479" data-name="패스 4479" d="M234.792,375.413c.133-.173.259-.348.38-.529.094-.139-.123-.309-.234-.181-.153.175-.3.353-.439.539s.162.342.293.171Z" transform="translate(-234.466 -374.657)" fill="#333"/>
          </g>
        </g>
      </g>
      <g id="그룹_803" data-name="그룹 803" transform="translate(27.009 96.864)">
        <g id="그룹_802" data-name="그룹 802">
          <g id="그룹_801" data-name="그룹 801">
            <path id="패스_4480" data-name="패스 4480" d="M235.607,374.24l.244-.279a.088.088,0,0,0-.124-.124l-.277.245c-.108.1.062.266.157.158Z" transform="translate(-235.416 -373.812)" fill="#333"/>
          </g>
        </g>
      </g>
      <g id="그룹_806" data-name="그룹 806" transform="translate(27.55 96.591)">
        <g id="그룹_805" data-name="그룹 805">
          <g id="그룹_804" data-name="그룹 804">
            <path id="패스_4481" data-name="패스 4481" d="M236.126,373.695a.1.1,0,0,0,0-.194.1.1,0,0,0,0,.194Z" transform="translate(-236.033 -373.501)" fill="#333"/>
          </g>
        </g>
      </g>
      <g id="그룹_809" data-name="그룹 809" transform="translate(29.942 85.105)">
        <g id="그룹_808" data-name="그룹 808">
          <g id="그룹_807" data-name="그룹 807">
            <path id="패스_4482" data-name="패스 4482" d="M239.042,369.332c2.475-2.809,4.99-5.481,7.212-8.507.23-.313-.286-.6-.515-.3-2.23,2.894-4.492,5.854-6.933,8.573-.144.16.094.4.236.236Z" transform="translate(-238.761 -360.398)" fill="#333"/>
          </g>
        </g>
      </g>
      <g id="그룹_812" data-name="그룹 812" transform="translate(13.764 87.58)">
        <g id="그룹_811" data-name="그룹 811">
          <g id="그룹_810" data-name="그룹 810">
            <path id="패스_4483" data-name="패스 4483" d="M220.522,372c3.522-2.717,6.951-5.544,10.512-8.2a.306.306,0,1,0-.372-.483c-3.371,2.9-6.911,5.593-10.313,8.462-.123.1.045.325.174.225Z" transform="translate(-220.305 -363.221)" fill="#333"/>
          </g>
        </g>
      </g>
      <g id="그룹_815" data-name="그룹 815" transform="translate(79.888 100.215)">
        <g id="그룹_814" data-name="그룹 814">
          <g id="그룹_813" data-name="그룹 813">
            <path id="패스_4484" data-name="패스 4484" d="M300.436,387.042a57.81,57.81,0,0,0-4.357-9.323c-.1-.17-.4-.056-.326.138a57.8,57.8,0,0,0,4.47,9.276c.067.109.259.039.214-.09Z" transform="translate(-295.741 -377.635)" fill="#333"/>
          </g>
        </g>
      </g>
      <g id="그룹_818" data-name="그룹 818" transform="translate(67.353 74.658)">
        <g id="그룹_817" data-name="그룹 817">
          <g id="그룹_816" data-name="그룹 816">
            <path id="패스_4485" data-name="패스 4485" d="M293.053,371.777c-3.171-7.851-7.752-15.121-10.812-23.021-.214-.551-1.032-.188-.738.311,4.293,7.306,7.148,15.431,11.336,22.8.064.111.265.035.214-.09Z" transform="translate(-281.44 -348.48)" fill="#333"/>
          </g>
        </g>
      </g>
      <g id="그룹_821" data-name="그룹 821" transform="translate(71.468 73.191)">
        <g id="그룹_820" data-name="그룹 820">
          <g id="그룹_819" data-name="그룹 819">
            <path id="패스_4486" data-name="패스 4486" d="M294.427,357.418c-2.564-3.462-5.159-6.9-7.615-10.441a.364.364,0,1,0-.574.443c2.842,3.249,5.088,6.945,7.826,10.278.165.2.519-.069.363-.281Z" transform="translate(-286.135 -346.806)" fill="#333"/>
          </g>
        </g>
      </g>
      <g id="그룹_824" data-name="그룹 824" transform="translate(102.962 94.967)">
        <g id="그룹_823" data-name="그룹 823">
          <g id="그룹_822" data-name="그룹 822">
            <path id="패스_4487" data-name="패스 4487" d="M324.626,373.824a9.335,9.335,0,0,0-2.2-2.13c-.267-.185-.5.242-.252.43a19.943,19.943,0,0,1,2.184,1.91c.134.134.391-.046.272-.209Z" transform="translate(-322.063 -371.648)" fill="#333"/>
          </g>
        </g>
      </g>
      <g id="그룹_827" data-name="그룹 827" transform="translate(100.024 92.227)">
        <g id="그룹_826" data-name="그룹 826">
          <g id="그룹_825" data-name="그룹 825">
            <path id="패스_4488" data-name="패스 4488" d="M320.443,370.093c-.491-.51-.978-1.026-1.479-1.528-.133-.134-.347.082-.207.207.532.472,1.076.929,1.615,1.392a.05.05,0,0,0,.07-.071Z" transform="translate(-318.712 -368.523)" fill="#333"/>
          </g>
        </g>
      </g>
      <g id="그룹_830" data-name="그룹 830" transform="translate(93.056 86.626)">
        <g id="그룹_829" data-name="그룹 829">
          <g id="그룹_828" data-name="그룹 828">
            <path id="패스_4489" data-name="패스 4489" d="M316.7,366.632c-1.957-1.386-3.711-3-5.606-4.457-.209-.161-.441.174-.273.353a32.63,32.63,0,0,0,5.669,4.463c.224.15.425-.206.209-.358Z" transform="translate(-310.762 -362.132)" fill="#333"/>
          </g>
        </g>
      </g>
      <g id="그룹_833" data-name="그룹 833" transform="translate(91.33 85.143)">
        <g id="그룹_832" data-name="그룹 832">
          <g id="그룹_831" data-name="그룹 831">
            <path id="패스_4490" data-name="패스 4490" d="M308.793,360.446v0Z" transform="translate(-308.793 -360.44)" fill="#333"/>
          </g>
        </g>
      </g>
      <g id="그룹_836" data-name="그룹 836" transform="translate(75.966 71.638)">
        <g id="그룹_835" data-name="그룹 835">
          <g id="그룹_834" data-name="그룹 834">
            <path id="패스_4491" data-name="패스 4491" d="M305.428,357.525c-4.269-4.379-8.941-8.434-13.589-12.408-.32-.274-.787.2-.463.464,4.761,3.91,9.229,8.076,13.788,12.209a.187.187,0,0,0,.265-.265Z" transform="translate(-291.266 -345.035)" fill="#333"/>
          </g>
        </g>
      </g>
      <g id="그룹_839" data-name="그룹 839" transform="translate(111.642 88.287)">
        <g id="그룹_838" data-name="그룹 838">
          <g id="그룹_837" data-name="그룹 837">
            <path id="패스_4492" data-name="패스 4492" d="M331.97,364.04v-.012c-.007,0-.007.012,0,.012Z" transform="translate(-331.965 -364.028)" fill="#333"/>
          </g>
        </g>
      </g>
      <g id="그룹_842" data-name="그룹 842" transform="translate(81.784 70.305)">
        <g id="그룹_841" data-name="그룹 841">
          <g id="그룹_840" data-name="그룹 840">
            <path id="패스_4493" data-name="패스 4493" d="M311.506,351.755c-4.462-2.613-8.818-5.4-13.169-8.193-.323-.207-.613.3-.3.51a121.177,121.177,0,0,0,13.39,7.815c.087.043.162-.082.077-.131Z" transform="translate(-297.904 -343.514)" fill="#333"/>
          </g>
        </g>
      </g>
      <g id="그룹_845" data-name="그룹 845" transform="translate(111.337 77.588)">
        <g id="그룹_844" data-name="그룹 844">
          <g id="그룹_843" data-name="그룹 843">
            <path id="패스_4494" data-name="패스 4494" d="M339.34,354.546c-2.469-1.033-5.037-1.842-7.566-2.716-.158-.055-.222.19-.068.248,2.506.939,5,1.956,7.562,2.733.174.054.231-.2.073-.265Z" transform="translate(-331.617 -351.822)" fill="#333"/>
          </g>
        </g>
      </g>
      <g id="그룹_848" data-name="그룹 848" transform="translate(88.462 68.332)">
        <g id="그룹_847" data-name="그룹 847">
          <g id="그룹_846" data-name="그룹 846">
            <path id="패스_4495" data-name="패스 4495" d="M325.533,349.182c-6.412-2.858-13.054-5.4-19.615-7.9-.393-.15-.569.487-.174.632,6.6,2.412,13.1,5.057,19.665,7.56.169.064.291-.22.124-.295Z" transform="translate(-305.522 -341.262)" fill="#333"/>
          </g>
        </g>
      </g>
      <g id="그룹_851" data-name="그룹 851" transform="translate(82.344 87.396)">
        <g id="그룹_850" data-name="그룹 850">
          <g id="그룹_849" data-name="그룹 849">
            <path id="패스_4496" data-name="패스 4496" d="M310.984,379c-3.718-5.526-8.064-10.667-12.139-15.931-.121-.156-.39.05-.275.213,3.817,5.451,7.991,10.725,12.162,15.912.114.142.354-.044.252-.195Z" transform="translate(-298.542 -363.011)" fill="#333"/>
          </g>
        </g>
      </g>
      <g id="그룹_854" data-name="그룹 854" transform="translate(97.454 79.939)">
        <g id="그룹_853" data-name="그룹 853">
          <g id="그룹_852" data-name="그룹 852">
            <path id="패스_4497" data-name="패스 4497" d="M328.277,361.562c-4.093-2.368-8.183-4.721-12.3-7.04a.131.131,0,0,0-.132.227,108.554,108.554,0,0,0,12.371,6.923c.074.036.138-.068.065-.11Z" transform="translate(-315.779 -354.504)" fill="#333"/>
          </g>
        </g>
      </g>
      <g id="그룹_857" data-name="그룹 857" transform="translate(46.896 1.503)">
        <g id="그룹_856" data-name="그룹 856">
          <g id="그룹_855" data-name="그룹 855">
            <path id="패스_4498" data-name="패스 4498" d="M258.1,265.139c.75,6.688,2.587,13.249,3.887,19.842.068.345.619.2.53-.146-1.652-6.52-2.515-13.217-4.181-19.727-.032-.127-.252-.105-.236.032Z" transform="translate(-258.102 -265.023)" fill="#333"/>
          </g>
        </g>
      </g>
      <g id="그룹_860" data-name="그룹 860" transform="translate(52.22 25.485)">
        <g id="그룹_859" data-name="그룹 859">
          <g id="그룹_858" data-name="그룹 858">
            <path id="패스_4499" data-name="패스 4499" d="M264.179,292.514c.711,3.961,1.5,7.912,2.266,11.863.108.554.975.323.851-.235-.867-3.917-1.811-7.828-2.915-11.685a.105.105,0,0,0-.2.056Z" transform="translate(-264.177 -292.382)" fill="#333"/>
          </g>
        </g>
      </g>
      <g id="그룹_863" data-name="그룹 863" transform="translate(58.894)">
        <g id="그룹_862" data-name="그룹 862">
          <g id="그룹_861" data-name="그룹 861">
            <path id="패스_4500" data-name="패스 4500" d="M271.95,263.439a50.138,50.138,0,0,0-.12,6.328.255.255,0,0,0,.509,0,50.138,50.138,0,0,0-.12-6.328.135.135,0,0,0-.269,0Z" transform="translate(-271.79 -263.309)" fill="#333"/>
          </g>
        </g>
      </g>
      <g id="그룹_866" data-name="그룹 866" transform="translate(58.661 9.495)">
        <g id="그룹_865" data-name="그룹 865">
          <g id="그룹_864" data-name="그룹 864">
            <path id="패스_4501" data-name="패스 4501" d="M271.974,274.267c-.5,8.624.154,17.3-.449,25.915-.036.51.824.514.8,0-.482-8.625.294-17.287-.084-25.915a.132.132,0,0,0-.263,0Z" transform="translate(-271.524 -274.141)" fill="#333"/>
          </g>
        </g>
      </g>
      <g id="그룹_869" data-name="그룹 869" transform="translate(68.089 2.564)">
        <g id="그룹_868" data-name="그룹 868">
          <g id="그룹_867" data-name="그룹 867">
            <path id="패스_4502" data-name="패스 4502" d="M285.234,266.329c-1.2,4.192-2.027,8.412-2.951,12.665-.03.136.181.194.209.058.878-4.242,2.023-8.429,3-12.652a.135.135,0,0,0-.26-.072Z" transform="translate(-282.28 -266.234)" fill="#333"/>
          </g>
        </g>
      </g>
      <g id="그룹_872" data-name="그룹 872" transform="translate(67.635 17.225)">
        <g id="그룹_871" data-name="그룹 871">
          <g id="그룹_870" data-name="그룹 870">
            <path id="패스_4503" data-name="패스 4503" d="M281.914,283.018l-.149.6a.082.082,0,0,0,.158.043l.149-.6c.025-.1-.132-.146-.158-.044Z" transform="translate(-281.762 -282.959)" fill="#333"/>
          </g>
        </g>
      </g>
      <g id="그룹_875" data-name="그룹 875" transform="translate(63.722 18.903)">
        <g id="그룹_874" data-name="그룹 874">
          <g id="그룹_873" data-name="그룹 873">
            <path id="패스_4504" data-name="패스 4504" d="M281,284.932c-1.327,4.921-2.617,9.863-3.695,14.846-.094.432.559.618.665.184,1.217-4.958,2.222-9.974,3.187-14.986a.082.082,0,0,0-.158-.044Z" transform="translate(-277.298 -284.873)" fill="#333"/>
          </g>
        </g>
      </g>
      <g id="그룹_878" data-name="그룹 878" transform="translate(76.85 6.839)">
        <g id="그룹_877" data-name="그룹 877">
          <g id="그룹_876" data-name="그룹 876">
            <path id="패스_4505" data-name="패스 4505" d="M298.2,271.152c-2.077,4.009-4.017,8.064-5.914,12.158-.083.181.187.337.268.157,1.835-4.116,3.795-8.19,5.787-12.233.046-.094-.093-.176-.141-.082Z" transform="translate(-292.274 -271.111)" fill="#333"/>
          </g>
        </g>
      </g>
      <g id="그룹_881" data-name="그룹 881" transform="translate(0 43.065)">
        <g id="그룹_880" data-name="그룹 880">
          <g id="그룹_879" data-name="그룹 879">
            <path id="패스_4506" data-name="패스 4506" d="M204.663,312.6c7.066,1.421,14.084,3.094,21.209,4.215.2.031.28-.267.082-.3-7.122-1.125-14.162-2.743-21.248-4.074-.1-.019-.147.137-.043.158Z" transform="translate(-204.603 -312.438)" fill="#333"/>
          </g>
        </g>
      </g>
      <g id="그룹_884" data-name="그룹 884" transform="translate(70.724 21.499)">
        <g id="그룹_883" data-name="그룹 883">
          <g id="그룹_882" data-name="그룹 882">
            <path id="패스_4507" data-name="패스 4507" d="M290.194,287.917c-1.687,3.212-3.235,6.5-4.86,9.74-.239.477.48.9.717.419a105.129,105.129,0,0,0,4.458-10.025c.068-.183-.225-.3-.316-.133Z" transform="translate(-285.286 -287.835)" fill="#333"/>
          </g>
        </g>
      </g>
      <g id="그룹_887" data-name="그룹 887" transform="translate(80.461 11.537)">
        <g id="그룹_886" data-name="그룹 886">
          <g id="그룹_885" data-name="그룹 885">
            <path id="패스_4508" data-name="패스 4508" d="M309.939,276.506c-4.444,5.7-8.691,11.537-13.438,17-.355.408.261,1,.587.587,4.483-5.7,9.07-11.366,13.021-17.455.066-.1-.094-.229-.17-.131Z" transform="translate(-296.394 -276.471)" fill="#333"/>
          </g>
        </g>
      </g>
      <g id="그룹_890" data-name="그룹 890" transform="translate(91.986 18.03)">
        <g id="그룹_889" data-name="그룹 889">
          <g id="그룹_888" data-name="그룹 888">
            <path id="패스_4509" data-name="패스 4509" d="M321.233,283.9c-3.91,2.663-7.688,5.489-11.525,8.249a.352.352,0,1,0,.429.556c3.718-2.91,7.613-5.584,11.291-8.551.142-.115-.044-.356-.195-.253Z" transform="translate(-309.541 -283.878)" fill="#333"/>
          </g>
        </g>
      </g>
      <g id="그룹_893" data-name="그룹 893" transform="translate(35.354 4.672)">
        <g id="그룹_892" data-name="그룹 892">
          <g id="그룹_891" data-name="그룹 891">
            <path id="패스_4510" data-name="패스 4510" d="M244.944,268.827c1.532,4.141,3.348,8.2,5.108,12.247.1.234.515.063.416-.176-1.687-4.08-3.341-8.206-5.252-12.187-.073-.15-.332-.044-.273.116Z" transform="translate(-244.935 -268.639)" fill="#333"/>
          </g>
        </g>
      </g>
      <g id="그룹_896" data-name="그룹 896" transform="translate(41.503 19.082)">
        <g id="그룹_895" data-name="그룹 895">
          <g id="그룹_894" data-name="그룹 894">
            <path id="패스_4511" data-name="패스 4511" d="M251.958,285.251c2.547,6.768,5.523,13.362,8.013,20.151a.428.428,0,1,0,.785-.331c-3.029-6.565-5.574-13.334-8.547-19.925-.063-.141-.306-.04-.252.105Z" transform="translate(-251.95 -285.078)" fill="#333"/>
          </g>
        </g>
      </g>
      <g id="그룹_899" data-name="그룹 899" transform="translate(23.001 10.18)">
        <g id="그룹_898" data-name="그룹 898">
          <g id="그룹_897" data-name="그룹 897">
            <path id="패스_4512" data-name="패스 4512" d="M230.867,275.176a39.158,39.158,0,0,0,2.231,3.266c.231.307.756.015.525-.307a39.967,39.967,0,0,0-2.495-3.162c-.125-.143-.359.042-.261.2Z" transform="translate(-230.843 -274.923)" fill="#333"/>
          </g>
        </g>
      </g>
      <g id="그룹_902" data-name="그룹 902" transform="translate(27.211 15.502)">
        <g id="그룹_901" data-name="그룹 901">
          <g id="그룹_900" data-name="그룹 900">
            <path id="패스_4513" data-name="패스 4513" d="M235.666,281.19c5.9,8.554,12.346,16.753,18.5,25.127.285.387.937,0,.647-.378-6.317-8.289-12.382-16.807-18.942-24.905-.092-.113-.285.036-.2.156Z" transform="translate(-235.646 -280.994)" fill="#333"/>
          </g>
        </g>
      </g>
      <g id="그룹_905" data-name="그룹 905" transform="translate(13.877 18.374)">
        <g id="그룹_904" data-name="그룹 904">
          <g id="그룹_903" data-name="그룹 903">
            <path id="패스_4514" data-name="패스 4514" d="M220.479,284.493c2.746,2.411,5.678,4.619,8.376,7.077a.178.178,0,1,0,.217-.28c-2.882-2.22-5.559-4.712-8.4-6.986-.132-.106-.323.075-.19.19Z" transform="translate(-220.434 -284.27)" fill="#333"/>
          </g>
        </g>
      </g>
      <g id="그룹_908" data-name="그룹 908" transform="translate(24.34 27.001)">
        <g id="그룹_907" data-name="그룹 907">
          <g id="그룹_906" data-name="그룹 906">
            <path id="패스_4515" data-name="패스 4515" d="M232.405,294.321c5.607,5.164,12.2,9.6,17.216,15.361.342.391.927-.251.461-.6-6.158-4.577-11.317-10.4-17.531-14.952-.11-.081-.245.1-.145.188Z" transform="translate(-232.371 -294.112)" fill="#333"/>
          </g>
        </g>
      </g>
      <g id="그룹_911" data-name="그룹 911" transform="translate(5.984 25.762)">
        <g id="그룹_910" data-name="그룹 910">
          <g id="그룹_909" data-name="그룹 909">
            <path id="패스_4516" data-name="패스 4516" d="M211.481,292.908q2.585,1.692,5.306,3.156c.217.117.41-.219.192-.328q-2.765-1.385-5.386-3.02c-.122-.076-.231.114-.112.192Z" transform="translate(-211.429 -292.699)" fill="#333"/>
          </g>
        </g>
      </g>
      <g id="그룹_914" data-name="그룹 914" transform="translate(14.783 30.7)">
        <g id="그룹_913" data-name="그룹 913">
          <g id="그룹_912" data-name="그룹 912">
            <path id="패스_4517" data-name="패스 4517" d="M221.536,298.592c7.221,4.614,14.858,8.549,22.15,13.049.4.244.77-.4.363-.621-7.541-4.069-14.766-8.719-22.372-12.67a.141.141,0,0,0-.141.243Z" transform="translate(-221.468 -298.332)" fill="#333"/>
          </g>
        </g>
      </g>
      <g id="그룹_917" data-name="그룹 917" transform="translate(0.838 33.748)">
        <g id="그룹_916" data-name="그룹 916">
          <g id="그룹_915" data-name="그룹 915">
            <path id="패스_4518" data-name="패스 4518" d="M205.655,302.225a6.614,6.614,0,0,0,2.249,1.054c.325.084.465-.425.139-.5a6.916,6.916,0,0,1-2.166-.93c-.241-.156-.445.216-.222.379Z" transform="translate(-205.559 -301.809)" fill="#333"/>
          </g>
        </g>
      </g>
      <g id="그룹_920" data-name="그룹 920" transform="translate(7.292 36.624)">
        <g id="그룹_919" data-name="그룹 919">
          <g id="그룹_918" data-name="그룹 918">
            <path id="패스_4519" data-name="패스 4519" d="M212.969,305.229c7.735,3.022,15.455,6.4,23.4,8.831.355.109.474-.408.149-.542-7.689-3.148-15.693-5.622-23.514-8.424-.086-.032-.12.1-.038.135Z" transform="translate(-212.922 -305.09)" fill="#333"/>
          </g>
        </g>
      </g>
    </g>
    <g id="그룹_923" data-name="그룹 923" transform="translate(0 24.468)">
      <g id="그룹_922" data-name="그룹 922">
        <path id="패스_4520" data-name="패스 4520" d="M326.5,304.622c3.414-3.106,6.828-6.212,10.347-9.45a.693.693,0,0,0,.2-.668.638.638,0,0,0-.461-.488c-23.425-5.794-50.829-2.511-77.165,9.245-26.075,11.638-47.921,14.058-66.789,7.4a.866.866,0,0,0-1.026.366,1.021,1.021,0,0,0,.036,1.165c2.378,3.178,4.8,6.687,7.148,10.082,2.57,3.719,5.227,7.565,7.837,11a.5.5,0,0,1-.056.643c-3.44,3.164-6.78,6.2-10.122,9.243-3.407,3.1-6.815,6.2-10.329,9.435a.7.7,0,0,0-.2.669.639.639,0,0,0,.461.486,98.86,98.86,0,0,0,23.745,2.795c17.251,0,35.582-4.076,53.422-12.04,26.074-11.638,47.921-14.058,66.789-7.395a.867.867,0,0,0,1.026-.367,1.022,1.022,0,0,0-.036-1.164c-2.379-3.179-4.805-6.691-7.152-10.087-2.569-3.718-5.225-7.562-7.833-10.993a.494.494,0,0,1,.055-.642C319.835,310.691,323.17,307.657,326.5,304.622ZM315.758,315c2.6,3.417,5.248,7.254,7.812,10.963,2.35,3.4,4.782,6.92,7.169,10.111a.163.163,0,0,1,.006.195.133.133,0,0,1-.166.061c-19.049-6.728-41.07-4.3-67.319,7.416-26.092,11.647-53.227,14.935-76.441,9.268,3.441-3.164,6.783-6.205,10.124-9.246s6.684-6.081,10.124-9.245a1.345,1.345,0,0,0,.15-1.77c-2.6-3.417-5.25-7.255-7.815-10.967-2.349-3.4-4.78-6.917-7.166-10.108a.162.162,0,0,1-.006-.195.127.127,0,0,1,.165-.06c19.051,6.727,41.071,4.3,67.32-7.417,26.095-11.648,53.228-14.935,76.441-9.268-3.448,3.171-6.8,6.217-10.143,9.263s-6.673,6.07-10.107,9.229A1.345,1.345,0,0,0,315.758,315Z" transform="translate(-185.906 -291.222)" fill="#333"/>
      </g>
    </g>
    <g id="그룹_928" data-name="그룹 928" transform="translate(45.275 41.997)">
      <g id="그룹_924" data-name="그룹 924" transform="translate(0 16.131)">
        <path id="패스_4521" data-name="패스 4521" d="M252.124,340.84a7.863,7.863,0,0,1-10.265,3.185,7.531,7.531,0,0,1-3.136-10.11,7.862,7.862,0,0,1,10.264-3.184,7.525,7.525,0,0,1,3.137,10.108Zm-4.354-8.044a5.028,5.028,0,0,0-6.876,2.133,5.354,5.354,0,0,0,2.184,7.033,5.026,5.026,0,0,0,6.875-2.133,5.354,5.354,0,0,0-2.183-7.033Z" transform="translate(-237.592 -329.657)" fill="#333"/>
        <path id="패스_4522" data-name="패스 4522" d="M245.162,345.064a7.508,7.508,0,0,1-3.455-.847,7.786,7.786,0,0,1-3.245-10.459,8.118,8.118,0,0,1,10.606-3.291,7.783,7.783,0,0,1,3.246,10.458h0a7.675,7.675,0,0,1-4.653,3.742A8.4,8.4,0,0,1,245.162,345.064Zm.45-14.93a7.9,7.9,0,0,0-2.346.371,7.178,7.178,0,0,0-4.353,3.5,7.274,7.274,0,0,0,3.028,9.759,7.607,7.607,0,0,0,9.923-3.079h0a7.27,7.27,0,0,0-3.029-9.759A6.99,6.99,0,0,0,245.612,330.135Zm6.477,10.67h0Zm-6.694,2a5.1,5.1,0,0,1-2.476-.656,5.61,5.61,0,0,1-2.288-7.374,5.283,5.283,0,0,1,7.226-2.241,5.61,5.61,0,0,1,2.289,7.372A5.081,5.081,0,0,1,247,342.554,5.426,5.426,0,0,1,245.4,342.806Zm-.018-10.414a4.89,4.89,0,0,0-1.454.229,4.583,4.583,0,0,0-2.836,2.387,5.1,5.1,0,0,0,2.077,6.693,4.769,4.769,0,0,0,6.523-2.024,5.1,5.1,0,0,0-2.077-6.693h0A4.588,4.588,0,0,0,245.378,332.393Z" transform="translate(-237.556 -329.621)" fill="#333"/>
      </g>
      <g id="그룹_925" data-name="그룹 925" transform="translate(15.866 10.967)">
        <path id="패스_4523" data-name="패스 4523" d="M265.469,324.264a4.745,4.745,0,0,1,2.731,3.107,4.573,4.573,0,0,1-.124,4.108,7.5,7.5,0,0,1-3.986,2.747l-2.388.873,1.445,3.949-2.273.832-4.927-13.465,4.623-1.691A7.37,7.37,0,0,1,265.469,324.264Zm.425,6.146a3.161,3.161,0,0,0-.091-2.368,2.34,2.34,0,0,0-1.589-1.658,5.322,5.322,0,0,0-2.927.416l-2.312.846,1.973,5.393,2.639-.965A3.741,3.741,0,0,0,265.895,330.409Z" transform="translate(-255.692 -323.765)" fill="#333"/>
        <path id="패스_4524" data-name="패스 4524" d="M260.839,340.1a.256.256,0,0,1-.241-.168l-4.926-13.464a.258.258,0,0,1,.008-.2.255.255,0,0,1,.145-.132l4.623-1.691a7.642,7.642,0,0,1,5.073-.461h0a5.007,5.007,0,0,1,2.886,3.26,4.836,4.836,0,0,1-.146,4.33,7.769,7.769,0,0,1-4.115,2.853l-2.148.785,1.357,3.709a.255.255,0,0,1-.153.328l-2.273.832A.256.256,0,0,1,260.839,340.1Zm-4.6-13.568,4.751,12.984,1.792-.656-1.357-3.708a.257.257,0,0,1,.153-.329l2.389-.873a7.3,7.3,0,0,0,3.855-2.641,4.353,4.353,0,0,0,.1-3.886,4.524,4.524,0,0,0-2.578-2.954,7.178,7.178,0,0,0-4.723.459Zm4.672,6.727a.257.257,0,0,1-.108-.024.253.253,0,0,1-.132-.145L258.7,327.7a.255.255,0,0,1,.152-.328l2.312-.846a5.494,5.494,0,0,1,3.074-.424,2.587,2.587,0,0,1,1.77,1.818,3.415,3.415,0,0,1,.086,2.559,3.924,3.924,0,0,1-2.453,1.8l-2.639.965A.251.251,0,0,1,260.913,333.258Zm-1.645-5.5,1.8,4.912,2.4-.877a3.543,3.543,0,0,0,2.16-1.523h0a2.932,2.932,0,0,0-.1-2.179,2.083,2.083,0,0,0-1.409-1.5,5.119,5.119,0,0,0-2.778.407Z" transform="translate(-255.656 -323.73)" fill="#333"/>
      </g>
      <g id="그룹_926" data-name="그룹 926" transform="translate(29.951 4.867)">
        <path id="패스_4525" data-name="패스 4525" d="M281.525,317.063l.749,2.15-7.224,2.517,1.248,3.584,6.488-2.262.708,2.034-6.487,2.261,1.262,3.622,7.456-2.6.749,2.15-9.741,3.395-4.719-13.539Z" transform="translate(-271.76 -316.807)" fill="#333"/>
        <path id="패스_4526" data-name="패스 4526" d="M276.7,334.137a.251.251,0,0,1-.111-.026.258.258,0,0,1-.131-.146l-4.719-13.539a.256.256,0,0,1,.158-.326l9.509-3.314a.255.255,0,0,1,.326.158l.749,2.149a.263.263,0,0,1-.011.2.257.257,0,0,1-.146.13l-6.982,2.433,1.08,3.1,6.246-2.177a.259.259,0,0,1,.327.158l.708,2.034a.256.256,0,0,1-.158.326l-6.246,2.177,1.094,3.139,7.214-2.515a.263.263,0,0,1,.2.011.257.257,0,0,1,.13.146l.75,2.15a.257.257,0,0,1-.158.326l-9.741,3.395A.255.255,0,0,1,276.7,334.137ZM272.306,320.5l4.55,13.056,9.257-3.227-.58-1.666-7.215,2.515a.256.256,0,0,1-.326-.158L276.73,327.4a.254.254,0,0,1,.157-.326l6.246-2.177-.54-1.55-6.246,2.177a.256.256,0,0,1-.326-.158l-1.248-3.583a.256.256,0,0,1,.157-.326l6.983-2.433-.581-1.666Z" transform="translate(-271.724 -316.771)" fill="#333"/>
      </g>
      <g id="그룹_927" data-name="그룹 927" transform="translate(44.309)">
        <path id="패스_4527" data-name="패스 4527" d="M298.812,312.106l2.346-.6,3.526,13.9-2.544.645-10.445-8.142,2.572,10.139-2.345.6-3.526-13.9,2.346-.6,10.7,8.331Z" transform="translate(-288.14 -311.255)" fill="#333"/>
        <path id="패스_4528" data-name="패스 4528" d="M291.885,328.866a.25.25,0,0,1-.131-.037.247.247,0,0,1-.117-.156l-3.526-13.9a.255.255,0,0,1,.185-.311l2.346-.6a.254.254,0,0,1,.22.046l10.114,7.872-2.448-9.655a.256.256,0,0,1,.185-.311l2.346-.6a.256.256,0,0,1,.311.186l3.526,13.9a.256.256,0,0,1-.185.311l-2.544.646a.258.258,0,0,1-.221-.046l-9.855-7.683,2.388,9.414a.255.255,0,0,1-.185.311l-2.345.6A.224.224,0,0,1,291.885,328.866ZM288.671,314.9l3.4,13.4,1.849-.469-2.509-9.891a.256.256,0,0,1,.406-.265l10.346,8.065,2.174-.551-3.4-13.4-1.85.469,2.569,10.131a.256.256,0,0,1-.405.265l-10.6-8.255Z" transform="translate(-288.104 -311.219)" fill="#333"/>
      </g>
    </g>
    <g id="그룹_939" data-name="그룹 939" transform="translate(37.164 45.963)">
      <g id="그룹_933" data-name="그룹 933" transform="translate(73.494)">
        <g id="그룹_930" data-name="그룹 930" transform="translate(0.257 0.256)">
          <g id="그룹_929" data-name="그룹 929">
            <circle id="타원_90" data-name="타원 90" cx="1.283" cy="1.283" r="1.283" fill="#333"/>
          </g>
        </g>
        <g id="그룹_932" data-name="그룹 932">
          <g id="그룹_931" data-name="그룹 931">
            <path id="패스_4529" data-name="패스 4529" d="M313.686,318.822a1.539,1.539,0,1,1,1.539-1.539A1.541,1.541,0,0,1,313.686,318.822Zm0-2.567a1.027,1.027,0,1,0,1.026,1.027A1.028,1.028,0,0,0,313.686,316.256Z" transform="translate(-312.146 -315.744)" fill="#333"/>
          </g>
        </g>
      </g>
      <g id="그룹_938" data-name="그룹 938" transform="translate(0 21.338)">
        <g id="그룹_935" data-name="그룹 935" transform="translate(0.256 0.257)">
          <g id="그룹_934" data-name="그룹 934">
            <path id="패스_4530" data-name="패스 4530" d="M228.6,341.663a1.283,1.283,0,1,0,1.283-1.283A1.283,1.283,0,0,0,228.6,341.663Z" transform="translate(-228.595 -340.38)" fill="#333"/>
          </g>
        </g>
        <g id="그룹_937" data-name="그룹 937">
          <g id="그룹_936" data-name="그룹 936">
            <path id="패스_4531" data-name="패스 4531" d="M229.842,343.166a1.54,1.54,0,1,1,1.539-1.539A1.541,1.541,0,0,1,229.842,343.166Zm0-2.566a1.027,1.027,0,1,0,1.027,1.027A1.029,1.029,0,0,0,229.842,340.6Z" transform="translate(-228.303 -340.087)" fill="#333"/>
          </g>
        </g>
      </g>
    </g>
  </g>
</svg>
