<svg id="그룹_1297" data-name="그룹 1297" xmlns="http://www.w3.org/2000/svg" width="171.174" height="127.26" viewBox="0 0 171.174 127.26">
  <g id="그룹_759" data-name="그룹 759" transform="translate(3.027 31.774)" opacity="0.6" style="mix-blend-mode: multiply;isolation: isolate">
    <g id="그룹_758" data-name="그룹 758">
      <path id="패스_4465" data-name="패스 4465" d="M345.406,310.8c3.8-3.455,7.6-6.91,11.511-10.512a.773.773,0,0,0,.22-.743.712.712,0,0,0-.513-.543c-26.057-6.445-56.541-2.794-85.836,10.284-29,12.946-53.306,15.637-74.3,8.227a.965.965,0,0,0-1.141.407,1.138,1.138,0,0,0,.041,1.3c2.644,3.536,5.342,7.44,7.952,11.216,2.859,4.136,5.814,8.414,8.717,12.231a.552.552,0,0,1-.062.715c-3.826,3.519-7.543,6.9-11.259,10.282-3.791,3.449-7.581,6.9-11.49,10.494a.774.774,0,0,0-.219.744.71.71,0,0,0,.512.541,109.989,109.989,0,0,0,26.413,3.108c19.19,0,39.581-4.534,59.424-13.393,29-12.946,53.306-15.637,74.294-8.226a.965.965,0,0,0,1.142-.409,1.138,1.138,0,0,0-.041-1.295c-2.645-3.537-5.345-7.443-7.955-11.22-2.858-4.135-5.813-8.411-8.714-12.227a.552.552,0,0,1,.061-.715C337.987,317.552,341.7,314.178,345.406,310.8Z" transform="translate(-189.01 -295.896)" fill="#ace7eb"/>
    </g>
  </g>
  <g id="그룹_761" data-name="그룹 761" transform="translate(0 27.217)">
    <g id="그룹_760" data-name="그룹 760">
      <path id="패스_4466" data-name="패스 4466" d="M342.3,306.128c3.8-3.455,7.595-6.91,11.51-10.512a.771.771,0,0,0,.22-.743.71.71,0,0,0-.513-.543c-26.057-6.445-56.54-2.794-85.836,10.284-29,12.946-53.306,15.637-74.294,8.227a.964.964,0,0,0-1.141.408,1.136,1.136,0,0,0,.04,1.3c2.645,3.536,5.343,7.439,7.952,11.215,2.859,4.137,5.814,8.415,8.717,12.232a.551.551,0,0,1-.062.715c-3.826,3.519-7.542,6.9-11.259,10.281-3.79,3.45-7.581,6.9-11.489,10.495a.774.774,0,0,0-.22.744.711.711,0,0,0,.513.541,109.965,109.965,0,0,0,26.413,3.109c19.189,0,39.58-4.534,59.425-13.393,29-12.946,53.306-15.637,74.294-8.226a.965.965,0,0,0,1.141-.408,1.136,1.136,0,0,0-.04-1.295c-2.646-3.537-5.345-7.443-7.956-11.22-2.858-4.135-5.812-8.412-8.713-12.228a.549.549,0,0,1,.061-.714C334.884,312.878,338.594,309.5,342.3,306.128Z" transform="translate(-185.906 -291.222)" fill="#ffd866"/>
    </g>
  </g>
  <g id="그룹_921" data-name="그룹 921" transform="translate(18.231 0)">
    <g id="그룹_764" data-name="그룹 764" transform="translate(75.7 110.823)">
      <g id="그룹_763" data-name="그룹 763">
        <g id="그룹_762" data-name="그룹 762">
          <path id="패스_4467" data-name="패스 4467" d="M285.961,392.414c-1.092-5.088-2.044-10.219-3.259-15.278-.071-.3-.52-.172-.457.127,1.063,5.09,2.381,10.131,3.516,15.206.029.132.228.076.2-.055Z" transform="translate(-282.239 -376.966)" fill="#333"/>
        </g>
      </g>
    </g>
    <g id="그룹_767" data-name="그룹 767" transform="translate(69.833 85.216)">
      <g id="그룹_766" data-name="그룹 766">
        <g id="그룹_765" data-name="그룹 765">
          <path id="패스_4468" data-name="패스 4468" d="M281.595,372.712c-1.248-7.252-2.981-14.409-4.355-21.638-.123-.648-1.179-.375-1,.275,1.974,7.095,3.379,14.278,5.051,21.446.047.2.334.112.3-.083Z" transform="translate(-276.222 -350.704)" fill="#333"/>
        </g>
      </g>
    </g>
    <g id="그룹_770" data-name="그룹 770" transform="translate(65.416 123.661)">
      <g id="그룹_769" data-name="그룹 769">
        <g id="그룹_768" data-name="그룹 768">
          <path id="패스_4469" data-name="패스 4469" d="M272.1,393.574c.007-1.068.11-2.143.078-3.21a.241.241,0,0,0-.482,0c-.033,1.067.071,2.142.078,3.21a.163.163,0,0,0,.326,0Z" transform="translate(-271.692 -390.132)" fill="#333"/>
        </g>
      </g>
    </g>
    <g id="그룹_773" data-name="그룹 773" transform="translate(65.288 106.824)">
      <g id="그룹_772" data-name="그룹 772">
        <g id="그룹_771" data-name="그룹 771">
          <path id="패스_4470" data-name="패스 4470" d="M271.937,385.994c.089-4.321.134-8.663,0-12.985a.15.15,0,0,0-.3,0c-.13,4.322-.086,8.663,0,12.985a.146.146,0,0,0,.293,0Z" transform="translate(-271.561 -372.865)" fill="#333"/>
        </g>
      </g>
    </g>
    <g id="그룹_776" data-name="그룹 776" transform="translate(65.4 100.786)">
      <g id="그룹_775" data-name="그룹 775">
        <g id="그룹_774" data-name="그룹 774">
          <path id="패스_4471" data-name="패스 4471" d="M272,371.559a23.161,23.161,0,0,0,.145-4.686.208.208,0,0,0-.416,0,23.166,23.166,0,0,0,.146,4.686.065.065,0,0,0,.125,0Z" transform="translate(-271.676 -366.672)" fill="#333"/>
        </g>
      </g>
    </g>
    <g id="그룹_779" data-name="그룹 779" transform="translate(65.326 86.927)">
      <g id="그룹_778" data-name="그룹 778">
        <g id="그룹_777" data-name="그룹 777">
          <path id="패스_4472" data-name="패스 4472" d="M272.117,363.309c.188-3.5.069-7.007.238-10.507.022-.454-.709-.458-.71,0-.008,3.5-.159,7.013.14,10.507a.166.166,0,0,0,.332,0Z" transform="translate(-271.6 -352.459)" fill="#333"/>
        </g>
      </g>
    </g>
    <g id="그룹_782" data-name="그룹 782" transform="translate(110.197 74.229)">
      <g id="그룹_781" data-name="그룹 781">
        <g id="그룹_780" data-name="그룹 780">
          <path id="패스_4473" data-name="패스 4473" d="M337.233,344.343c-6.33-1.815-12.753-3.421-19.172-4.9-.446-.1-.635.59-.189.684,6.457,1.372,12.809,3.187,19.272,4.533a.167.167,0,0,0,.089-.321Z" transform="translate(-317.618 -339.436)" fill="#333"/>
        </g>
      </g>
    </g>
    <g id="그룹_785" data-name="그룹 785" transform="translate(52.047 118.432)">
      <g id="그룹_784" data-name="그룹 784">
        <g id="그룹_783" data-name="그룹 783">
          <path id="패스_4474" data-name="패스 4474" d="M258.229,390.26c.52-1.721,1.023-3.468,1.379-5.231a.209.209,0,0,0-.4-.111c-.508,1.727-.879,3.509-1.222,5.275a.127.127,0,0,0,.245.067Z" transform="translate(-257.981 -384.769)" fill="#333"/>
        </g>
      </g>
    </g>
    <g id="그룹_788" data-name="그룹 788" transform="translate(54.196 89.208)">
      <g id="그룹_787" data-name="그룹 787">
        <g id="그룹_786" data-name="그룹 786">
          <path id="패스_4475" data-name="패스 4475" d="M260.344,381.2c1.959-8.618,3.811-17.387,6.146-25.909.137-.5-.678-.707-.766-.211-1.539,8.711-3.618,17.44-5.537,26.077-.022.1.133.145.157.043Z" transform="translate(-260.185 -354.798)" fill="#333"/>
        </g>
      </g>
    </g>
    <g id="그룹_791" data-name="그룹 791" transform="translate(39.023 115.63)">
      <g id="그룹_790" data-name="그룹 790">
        <g id="그룹_789" data-name="그룹 789">
          <path id="패스_4476" data-name="패스 4476" d="M244.866,388.037c.881-1.96,1.851-3.873,2.664-5.863.095-.23-.3-.4-.4-.171-.907,1.936-1.651,3.933-2.489,5.9-.066.155.159.293.23.135Z" transform="translate(-244.624 -381.896)" fill="#333"/>
        </g>
      </g>
    </g>
    <g id="그룹_794" data-name="그룹 794" transform="translate(42.056 91.155)">
      <g id="그룹_793" data-name="그룹 793">
        <g id="그룹_792" data-name="그룹 792">
          <path id="패스_4477" data-name="패스 4477" d="M248.026,380.575c3.609-7.79,7.422-15.52,11.3-23.181.23-.453-.463-.853-.68-.4-3.693,7.784-7.285,15.6-10.9,23.418-.085.185.189.347.276.161Z" transform="translate(-247.735 -356.795)" fill="#333"/>
        </g>
      </g>
    </g>
    <g id="그룹_797" data-name="그룹 797" transform="translate(24.12 109.958)">
      <g id="그룹_796" data-name="그룹 796">
        <g id="그룹_795" data-name="그룹 795">
          <path id="패스_4478" data-name="패스 4478" d="M229.608,381.85a40.471,40.471,0,0,0,4.365-5.45c.164-.247-.216-.449-.388-.226-1.4,1.816-2.8,3.636-4.207,5.446-.125.16.081.386.23.23Z" transform="translate(-229.34 -376.079)" fill="#333"/>
        </g>
      </g>
    </g>
    <g id="그룹_800" data-name="그룹 800" transform="translate(29.118 108.572)">
      <g id="그룹_799" data-name="그룹 799">
        <g id="그룹_798" data-name="그룹 798">
          <path id="패스_4479" data-name="패스 4479" d="M234.829,375.5c.148-.193.288-.387.423-.589.1-.155-.136-.343-.26-.2-.171.195-.331.393-.489.6s.18.38.326.19Z" transform="translate(-234.466 -374.657)" fill="#333"/>
        </g>
      </g>
    </g>
    <g id="그룹_803" data-name="그룹 803" transform="translate(30.044 107.748)">
      <g id="그룹_802" data-name="그룹 802">
        <g id="그룹_801" data-name="그룹 801">
          <path id="패스_4480" data-name="패스 4480" d="M235.629,374.288l.271-.31a.1.1,0,0,0-.138-.139l-.308.273c-.12.106.069.3.174.175Z" transform="translate(-235.416 -373.812)" fill="#333"/>
        </g>
      </g>
    </g>
    <g id="그룹_806" data-name="그룹 806" transform="translate(30.646 107.445)">
      <g id="그룹_805" data-name="그룹 805">
        <g id="그룹_804" data-name="그룹 804">
          <path id="패스_4481" data-name="패스 4481" d="M236.136,373.716a.108.108,0,0,0,0-.215.108.108,0,0,0,0,.215Z" transform="translate(-236.033 -373.501)" fill="#333"/>
        </g>
      </g>
    </g>
    <g id="그룹_809" data-name="그룹 809" transform="translate(33.306 94.668)">
      <g id="그룹_808" data-name="그룹 808">
        <g id="그룹_807" data-name="그룹 807">
          <path id="패스_4482" data-name="패스 4482" d="M239.073,370.336c2.754-3.124,5.551-6.1,8.023-9.463.255-.348-.318-.667-.573-.335-2.481,3.219-5,6.511-7.712,9.536-.16.177.1.442.262.262Z" transform="translate(-238.761 -360.398)" fill="#333"/>
        </g>
      </g>
    </g>
    <g id="그룹_812" data-name="그룹 812" transform="translate(15.311 97.421)">
      <g id="그룹_811" data-name="그룹 811">
        <g id="그룹_810" data-name="그룹 810">
          <path id="패스_4483" data-name="패스 4483" d="M220.546,372.981c3.918-3.023,7.732-6.167,11.693-9.127a.34.34,0,1,0-.414-.537c-3.75,3.226-7.687,6.221-11.472,9.413-.137.116.05.362.193.251Z" transform="translate(-220.305 -363.221)" fill="#333"/>
        </g>
      </g>
    </g>
    <g id="그룹_815" data-name="그룹 815" transform="translate(88.865 111.476)">
      <g id="그룹_814" data-name="그룹 814">
        <g id="그룹_813" data-name="그룹 813">
          <path id="패스_4484" data-name="패스 4484" d="M300.963,388.1a64.3,64.3,0,0,0-4.847-10.371c-.109-.189-.446-.062-.363.153a64.293,64.293,0,0,0,4.972,10.318c.074.121.289.043.238-.1Z" transform="translate(-295.741 -377.635)" fill="#333"/>
        </g>
      </g>
    </g>
    <g id="그룹_818" data-name="그룹 818" transform="translate(74.921 83.047)">
      <g id="그룹_817" data-name="그룹 817">
        <g id="그룹_816" data-name="그룹 816">
          <path id="패스_4485" data-name="패스 4485" d="M294.358,374.4c-3.528-8.734-8.623-16.82-12.026-25.608-.238-.613-1.148-.21-.821.346,4.776,8.127,7.951,17.165,12.61,25.363.071.124.294.039.238-.1Z" transform="translate(-281.44 -348.48)" fill="#333"/>
        </g>
      </g>
    </g>
    <g id="그룹_821" data-name="그룹 821" transform="translate(79.499 81.415)">
      <g id="그룹_820" data-name="그룹 820">
        <g id="그룹_819" data-name="그룹 819">
          <path id="패스_4486" data-name="패스 4486" d="M295.359,358.61c-2.852-3.851-5.738-7.676-8.47-11.614a.405.405,0,1,0-.639.493c3.161,3.614,5.659,7.725,8.705,11.433.183.222.577-.077.4-.312Z" transform="translate(-286.135 -346.806)" fill="#333"/>
        </g>
      </g>
    </g>
    <g id="그룹_824" data-name="그룹 824" transform="translate(114.531 105.638)">
      <g id="그룹_823" data-name="그룹 823">
        <g id="그룹_822" data-name="그룹 822">
          <path id="패스_4487" data-name="패스 4487" d="M324.914,374.068a10.385,10.385,0,0,0-2.452-2.369c-.3-.206-.559.269-.28.478a22.188,22.188,0,0,1,2.43,2.125c.149.149.435-.052.3-.233Z" transform="translate(-322.063 -371.648)" fill="#333"/>
        </g>
      </g>
    </g>
    <g id="그룹_827" data-name="그룹 827" transform="translate(111.264 102.591)">
      <g id="그룹_826" data-name="그룹 826">
        <g id="그룹_825" data-name="그룹 825">
          <path id="패스_4488" data-name="패스 4488" d="M320.638,370.269c-.546-.567-1.088-1.141-1.645-1.7-.148-.149-.386.092-.23.23.592.525,1.2,1.034,1.8,1.548a.056.056,0,0,0,.078-.079Z" transform="translate(-318.712 -368.523)" fill="#333"/>
        </g>
      </g>
    </g>
    <g id="그룹_830" data-name="그룹 830" transform="translate(103.512 96.36)">
      <g id="그룹_829" data-name="그룹 829">
        <g id="그룹_828" data-name="그룹 828">
          <path id="패스_4489" data-name="패스 4489" d="M317.365,367.138c-2.177-1.542-4.128-3.335-6.236-4.958-.232-.179-.49.194-.3.393a36.3,36.3,0,0,0,6.306,4.964c.25.167.473-.229.233-.4Z" transform="translate(-310.762 -362.132)" fill="#333"/>
        </g>
      </g>
    </g>
    <g id="그룹_833" data-name="그룹 833" transform="translate(101.592 94.71)">
      <g id="그룹_832" data-name="그룹 832">
        <g id="그룹_831" data-name="그룹 831">
          <path id="패스_4490" data-name="패스 4490" d="M308.793,360.447v0Z" transform="translate(-308.793 -360.44)" fill="#333"/>
        </g>
      </g>
    </g>
    <g id="그룹_836" data-name="그룹 836" transform="translate(84.502 79.688)">
      <g id="그룹_835" data-name="그룹 835">
        <g id="그룹_834" data-name="그룹 834">
          <path id="패스_4491" data-name="패스 4491" d="M307.019,358.929c-4.749-4.871-9.946-9.382-15.117-13.8-.356-.3-.876.219-.515.516,5.3,4.35,10.266,8.983,15.337,13.581a.208.208,0,0,0,.294-.294Z" transform="translate(-291.266 -345.035)" fill="#333"/>
        </g>
      </g>
    </g>
    <g id="그룹_839" data-name="그룹 839" transform="translate(124.186 98.208)">
      <g id="그룹_838" data-name="그룹 838">
        <g id="그룹_837" data-name="그룹 837">
          <path id="패스_4492" data-name="패스 4492" d="M331.971,364.042v-.014c-.008,0-.008.014,0,.014Z" transform="translate(-331.965 -364.028)" fill="#333"/>
        </g>
      </g>
    </g>
    <g id="그룹_842" data-name="그룹 842" transform="translate(90.974 78.205)">
      <g id="그룹_841" data-name="그룹 841">
        <g id="그룹_840" data-name="그룹 840">
          <path id="패스_4493" data-name="패스 4493" d="M313.034,352.682c-4.963-2.907-9.809-6.008-14.648-9.114-.359-.23-.682.334-.332.567a134.792,134.792,0,0,0,14.894,8.693c.1.048.18-.091.086-.146Z" transform="translate(-297.904 -343.514)" fill="#333"/>
        </g>
      </g>
    </g>
    <g id="그룹_845" data-name="그룹 845" transform="translate(123.847 86.306)">
      <g id="그룹_844" data-name="그룹 844">
        <g id="그룹_843" data-name="그룹 843">
          <path id="패스_4494" data-name="패스 4494" d="M340.207,354.852c-2.747-1.15-5.6-2.049-8.417-3.022-.176-.061-.247.212-.076.276,2.788,1.044,5.562,2.175,8.412,3.04.194.06.256-.221.081-.295Z" transform="translate(-331.617 -351.822)" fill="#333"/>
        </g>
      </g>
    </g>
    <g id="그룹_848" data-name="그룹 848" transform="translate(98.402 76.01)">
      <g id="그룹_847" data-name="그룹 847">
        <g id="그룹_846" data-name="그룹 846">
          <path id="패스_4495" data-name="패스 4495" d="M327.782,350.072c-7.133-3.179-14.521-6-21.819-8.784-.437-.167-.633.542-.194.7,7.345,2.683,14.57,5.625,21.875,8.409.188.071.324-.245.138-.328Z" transform="translate(-305.522 -341.262)" fill="#333"/>
        </g>
      </g>
    </g>
    <g id="그룹_851" data-name="그룹 851" transform="translate(91.597 97.216)">
      <g id="그룹_850" data-name="그룹 850">
        <g id="그룹_849" data-name="그룹 849">
          <path id="패스_4496" data-name="패스 4496" d="M312.382,380.793c-4.136-6.147-8.971-11.866-13.5-17.721-.135-.174-.434.056-.306.237,4.246,6.064,8.889,11.93,13.528,17.7.127.158.394-.049.281-.216Z" transform="translate(-298.542 -363.011)" fill="#333"/>
        </g>
      </g>
    </g>
    <g id="그룹_854" data-name="그룹 854" transform="translate(108.404 88.921)">
      <g id="그룹_853" data-name="그룹 853">
        <g id="그룹_852" data-name="그룹 852">
          <path id="패스_4497" data-name="패스 4497" d="M329.681,362.355c-4.553-2.635-9.1-5.252-13.686-7.831a.146.146,0,0,0-.147.253,120.753,120.753,0,0,0,13.761,7.7c.082.04.153-.076.072-.123Z" transform="translate(-315.779 -354.504)" fill="#333"/>
        </g>
      </g>
    </g>
    <g id="그룹_857" data-name="그룹 857" transform="translate(52.165 1.671)">
      <g id="그룹_856" data-name="그룹 856">
        <g id="그룹_855" data-name="그룹 855">
          <path id="패스_4498" data-name="패스 4498" d="M258.1,265.152c.835,7.44,2.877,14.738,4.323,22.072.076.383.688.223.59-.163-1.838-7.253-2.8-14.7-4.651-21.944-.036-.141-.28-.117-.262.035Z" transform="translate(-258.102 -265.023)" fill="#333"/>
        </g>
      </g>
    </g>
    <g id="그룹_860" data-name="그룹 860" transform="translate(58.088 28.348)">
      <g id="그룹_859" data-name="그룹 859">
        <g id="그룹_858" data-name="그룹 858">
          <path id="패스_4499" data-name="패스 4499" d="M264.179,292.528c.791,4.406,1.665,8.8,2.52,13.2.12.616,1.084.359.947-.261-.964-4.357-2.015-8.707-3.242-13a.117.117,0,0,0-.225.062Z" transform="translate(-264.177 -292.382)" fill="#333"/>
        </g>
      </g>
    </g>
    <g id="그룹_863" data-name="그룹 863" transform="translate(65.512)">
      <g id="그룹_862" data-name="그룹 862">
        <g id="그룹_861" data-name="그룹 861">
          <path id="패스_4500" data-name="패스 4500" d="M271.968,263.453a55.771,55.771,0,0,0-.134,7.039.283.283,0,0,0,.567,0,55.783,55.783,0,0,0-.134-7.039.15.15,0,0,0-.3,0Z" transform="translate(-271.79 -263.309)" fill="#333"/>
        </g>
      </g>
    </g>
    <g id="그룹_866" data-name="그룹 866" transform="translate(65.252 10.562)">
      <g id="그룹_865" data-name="그룹 865">
        <g id="그룹_864" data-name="그룹 864">
          <path id="패스_4501" data-name="패스 4501" d="M272.024,274.281c-.555,9.593.172,19.239-.5,28.827-.04.568.917.571.885,0-.536-9.595.327-19.229-.094-28.827a.146.146,0,0,0-.293,0Z" transform="translate(-271.524 -274.141)" fill="#333"/>
        </g>
      </g>
    </g>
    <g id="그룹_869" data-name="그룹 869" transform="translate(75.74 2.852)">
      <g id="그룹_868" data-name="그룹 868">
        <g id="그룹_867" data-name="그룹 867">
          <path id="패스_4502" data-name="패스 4502" d="M285.566,266.339c-1.331,4.663-2.255,9.357-3.283,14.089-.033.151.2.216.232.064.976-4.718,2.251-9.376,3.34-14.073a.15.15,0,0,0-.289-.08Z" transform="translate(-282.28 -266.234)" fill="#333"/>
        </g>
      </g>
    </g>
    <g id="그룹_872" data-name="그룹 872" transform="translate(75.235 19.161)">
      <g id="그룹_871" data-name="그룹 871">
        <g id="그룹_870" data-name="그룹 870">
          <path id="패스_4503" data-name="패스 4503" d="M281.931,283.024l-.166.671a.091.091,0,0,0,.175.048l.166-.67c.028-.114-.147-.163-.175-.049Z" transform="translate(-281.762 -282.959)" fill="#333"/>
        </g>
      </g>
    </g>
    <g id="그룹_875" data-name="그룹 875" transform="translate(70.882 21.027)">
      <g id="그룹_874" data-name="그룹 874">
        <g id="그룹_873" data-name="그룹 873">
          <path id="패스_4504" data-name="패스 4504" d="M281.418,284.938c-1.476,5.474-2.912,10.971-4.11,16.514-.1.481.622.687.74.2,1.353-5.515,2.472-11.1,3.545-16.67a.091.091,0,0,0-.176-.049Z" transform="translate(-277.297 -284.873)" fill="#333"/>
        </g>
      </g>
    </g>
    <g id="그룹_878" data-name="그룹 878" transform="translate(85.485 7.607)">
      <g id="그룹_877" data-name="그룹 877">
        <g id="그룹_876" data-name="그룹 876">
          <path id="패스_4505" data-name="패스 4505" d="M298.87,271.157c-2.31,4.459-4.468,8.97-6.579,13.524-.093.2.208.375.3.174,2.041-4.579,4.221-9.11,6.437-13.607.052-.1-.1-.2-.157-.092Z" transform="translate(-292.274 -271.111)" fill="#333"/>
        </g>
      </g>
    </g>
    <g id="그룹_881" data-name="그룹 881" transform="translate(0 47.904)">
      <g id="그룹_880" data-name="그룹 880">
        <g id="그룹_879" data-name="그룹 879">
          <path id="패스_4506" data-name="패스 4506" d="M204.669,312.616c7.86,1.58,15.666,3.442,23.592,4.689.217.034.311-.3.092-.333-7.922-1.251-15.753-3.051-23.636-4.532-.114-.022-.164.152-.048.176Z" transform="translate(-204.603 -312.438)" fill="#333"/>
        </g>
      </g>
    </g>
    <g id="그룹_884" data-name="그룹 884" transform="translate(78.671 23.914)">
      <g id="그룹_883" data-name="그룹 883">
        <g id="그룹_882" data-name="그룹 882">
          <path id="패스_4507" data-name="패스 4507" d="M290.745,287.927c-1.877,3.573-3.6,7.225-5.406,10.834-.266.53.534,1,.8.466a116.941,116.941,0,0,0,4.959-11.152c.076-.2-.251-.339-.351-.148Z" transform="translate(-285.286 -287.835)" fill="#333"/>
        </g>
      </g>
    </g>
    <g id="그룹_887" data-name="그룹 887" transform="translate(89.502 12.834)">
      <g id="그룹_886" data-name="그룹 886">
        <g id="그룹_885" data-name="그룹 885">
          <path id="패스_4508" data-name="패스 4508" d="M311.461,276.51c-4.944,6.343-9.668,12.833-14.948,18.908-.395.453.291,1.114.653.653,4.986-6.34,10.089-12.643,14.484-19.417.073-.112-.1-.254-.189-.145Z" transform="translate(-296.394 -276.471)" fill="#333"/>
        </g>
      </g>
    </g>
    <g id="그룹_890" data-name="그룹 890" transform="translate(102.322 20.056)">
      <g id="그룹_889" data-name="그룹 889">
        <g id="그룹_888" data-name="그룹 888">
          <path id="패스_4509" data-name="패스 4509" d="M322.546,283.905c-4.349,2.962-8.551,6.106-12.82,9.175a.392.392,0,1,0,.477.618c4.136-3.237,8.469-6.211,12.56-9.512.158-.128-.049-.4-.216-.282Z" transform="translate(-309.541 -283.878)" fill="#333"/>
        </g>
      </g>
    </g>
    <g id="그룹_893" data-name="그룹 893" transform="translate(39.326 5.197)">
      <g id="그룹_892" data-name="그룹 892">
        <g id="그룹_891" data-name="그룹 891">
          <path id="패스_4510" data-name="패스 4510" d="M244.945,268.848c1.7,4.606,3.724,9.12,5.682,13.624.113.26.573.07.463-.2-1.876-4.539-3.716-9.128-5.842-13.556-.081-.167-.37-.049-.3.129Z" transform="translate(-244.935 -268.639)" fill="#333"/>
        </g>
      </g>
    </g>
    <g id="그룹_896" data-name="그룹 896" transform="translate(46.166 21.226)">
      <g id="그룹_895" data-name="그룹 895">
        <g id="그룹_894" data-name="그룹 894">
          <path id="패스_4511" data-name="패스 4511" d="M251.959,285.27c2.834,7.529,6.144,14.863,8.913,22.416a.476.476,0,1,0,.874-.369c-3.369-7.3-6.2-14.833-9.507-22.164-.07-.157-.34-.045-.28.117Z" transform="translate(-251.95 -285.078)" fill="#333"/>
        </g>
      </g>
    </g>
    <g id="그룹_899" data-name="그룹 899" transform="translate(25.586 11.324)">
      <g id="그룹_898" data-name="그룹 898">
        <g id="그룹_897" data-name="그룹 897">
          <path id="패스_4512" data-name="패스 4512" d="M230.869,275.2a43.566,43.566,0,0,0,2.482,3.633c.256.341.84.017.584-.341a44.463,44.463,0,0,0-2.775-3.517c-.139-.159-.4.047-.291.225Z" transform="translate(-230.843 -274.923)" fill="#333"/>
        </g>
      </g>
    </g>
    <g id="그룹_902" data-name="그룹 902" transform="translate(30.269 17.244)">
      <g id="그룹_901" data-name="그룹 901">
        <g id="그룹_900" data-name="그룹 900">
          <path id="패스_4513" data-name="패스 4513" d="M235.668,281.212c6.563,9.516,13.733,18.635,20.576,27.95.317.43,1.042,0,.72-.42-7.026-9.22-13.774-18.7-21.07-27.7-.1-.126-.317.04-.225.174Z" transform="translate(-235.646 -280.994)" fill="#333"/>
        </g>
      </g>
    </g>
    <g id="그룹_905" data-name="그룹 905" transform="translate(15.436 20.439)">
      <g id="그룹_904" data-name="그룹 904">
        <g id="그룹_903" data-name="그룹 903">
          <path id="패스_4514" data-name="패스 4514" d="M220.484,284.518c3.055,2.681,6.315,5.138,9.318,7.872a.2.2,0,1,0,.241-.312c-3.206-2.47-6.184-5.241-9.347-7.771-.147-.118-.359.083-.212.212Z" transform="translate(-220.434 -284.27)" fill="#333"/>
        </g>
      </g>
    </g>
    <g id="그룹_908" data-name="그룹 908" transform="translate(27.075 30.035)">
      <g id="그룹_907" data-name="그룹 907">
        <g id="그룹_906" data-name="그룹 906">
          <path id="패스_4515" data-name="패스 4515" d="M232.409,294.344c6.236,5.744,13.57,10.684,19.15,17.087.38.435,1.032-.279.513-.665-6.85-5.091-12.589-11.568-19.5-16.632-.123-.09-.272.108-.162.21Z" transform="translate(-232.371 -294.112)" fill="#333"/>
        </g>
      </g>
    </g>
    <g id="그룹_911" data-name="그룹 911" transform="translate(6.656 28.657)">
      <g id="그룹_910" data-name="그룹 910">
        <g id="그룹_909" data-name="그룹 909">
          <path id="패스_4516" data-name="패스 4516" d="M211.487,292.932q2.875,1.882,5.9,3.51c.241.13.456-.244.214-.365q-3.076-1.54-5.991-3.359c-.136-.085-.257.127-.125.214Z" transform="translate(-211.429 -292.699)" fill="#333"/>
        </g>
      </g>
    </g>
    <g id="그룹_914" data-name="그룹 914" transform="translate(16.444 34.149)">
      <g id="그룹_913" data-name="그룹 913">
        <g id="그룹_912" data-name="그룹 912">
          <path id="패스_4517" data-name="패스 4517" d="M221.543,298.622c8.033,5.133,16.527,9.51,24.639,14.515.44.271.857-.447.4-.691-8.388-4.526-16.425-9.7-24.886-14.094a.156.156,0,0,0-.157.27Z" transform="translate(-221.468 -298.332)" fill="#333"/>
        </g>
      </g>
    </g>
    <g id="그룹_917" data-name="그룹 917" transform="translate(0.932 37.54)">
      <g id="그룹_916" data-name="그룹 916">
        <g id="그룹_915" data-name="그룹 915">
          <path id="패스_4518" data-name="패스 4518" d="M205.666,302.272a7.357,7.357,0,0,0,2.5,1.172c.362.094.517-.473.154-.559a7.693,7.693,0,0,1-2.409-1.035c-.268-.174-.5.24-.247.421Z" transform="translate(-205.559 -301.809)" fill="#333"/>
        </g>
      </g>
    </g>
    <g id="그룹_920" data-name="그룹 920" transform="translate(8.112 40.739)">
      <g id="그룹_919" data-name="그룹 919">
        <g id="그룹_918" data-name="그룹 918">
          <path id="패스_4519" data-name="패스 4519" d="M212.975,305.245c8.6,3.362,17.191,7.122,26.032,9.823.395.121.527-.454.166-.6-8.553-3.5-17.457-6.254-26.156-9.37-.1-.035-.134.114-.042.15Z" transform="translate(-212.922 -305.09)" fill="#333"/>
        </g>
      </g>
    </g>
  </g>
  <g id="그룹_923" data-name="그룹 923" transform="translate(0 27.217)">
    <g id="그룹_922" data-name="그룹 922">
      <path id="패스_4520" data-name="패스 4520" d="M342.3,306.128c3.8-3.455,7.595-6.91,11.51-10.512a.771.771,0,0,0,.22-.743.71.71,0,0,0-.513-.543c-26.057-6.445-56.54-2.794-85.836,10.284-29,12.946-53.306,15.637-74.294,8.227a.964.964,0,0,0-1.141.408,1.136,1.136,0,0,0,.04,1.3c2.645,3.536,5.343,7.439,7.952,11.215,2.859,4.137,5.814,8.415,8.717,12.232a.551.551,0,0,1-.062.715c-3.826,3.519-7.542,6.9-11.259,10.281-3.79,3.45-7.581,6.9-11.489,10.495a.774.774,0,0,0-.22.744.711.711,0,0,0,.513.541,109.965,109.965,0,0,0,26.413,3.109c19.189,0,39.58-4.534,59.425-13.393,29-12.946,53.306-15.637,74.294-8.226a.965.965,0,0,0,1.141-.408,1.136,1.136,0,0,0-.04-1.295c-2.646-3.537-5.345-7.443-7.956-11.22-2.858-4.135-5.812-8.412-8.713-12.228a.549.549,0,0,1,.061-.714C334.884,312.878,338.594,309.5,342.3,306.128Zm-11.954,11.547c2.888,3.8,5.838,8.069,8.69,12.2,2.614,3.784,5.319,7.7,7.974,11.247a.181.181,0,0,1,.007.216.148.148,0,0,1-.184.067c-21.189-7.484-45.685-4.784-74.883,8.249-29.024,12.956-59.208,16.613-85.031,10.309,3.827-3.52,7.545-6.9,11.262-10.285s7.435-6.764,11.262-10.284a1.5,1.5,0,0,0,.167-1.969c-2.889-3.8-5.84-8.071-8.693-12.2-2.613-3.782-5.317-7.694-7.971-11.243a.18.18,0,0,1-.007-.217.142.142,0,0,1,.183-.066c21.192,7.483,45.686,4.784,74.884-8.25,29.027-12.957,59.209-16.613,85.031-10.309-3.835,3.527-7.559,6.915-11.283,10.3s-7.422,6.752-11.243,10.266A1.5,1.5,0,0,0,330.349,317.675Z" transform="translate(-185.906 -291.222)" fill="#333"/>
    </g>
  </g>
  <g id="그룹_928" data-name="그룹 928" transform="translate(50.362 46.716)">
    <g id="그룹_924" data-name="그룹 924" transform="translate(0 17.944)">
      <path id="패스_4521" data-name="패스 4521" d="M253.729,342.068a8.746,8.746,0,0,1-11.418,3.543,8.377,8.377,0,0,1-3.489-11.246,8.745,8.745,0,0,1,11.417-3.541,8.371,8.371,0,0,1,3.49,11.243Zm-4.843-8.948a5.593,5.593,0,0,0-7.648,2.372,5.955,5.955,0,0,0,2.429,7.823,5.59,5.59,0,0,0,7.648-2.372,5.956,5.956,0,0,0-2.428-7.823Z" transform="translate(-237.563 -329.629)" fill="#333"/>
      <path id="패스_4522" data-name="패스 4522" d="M246.017,346.8a8.352,8.352,0,0,1-3.843-.942,8.661,8.661,0,0,1-3.61-11.635,9.03,9.03,0,0,1,11.8-3.66,8.657,8.657,0,0,1,3.611,11.633h0a8.537,8.537,0,0,1-5.176,4.163A9.34,9.34,0,0,1,246.017,346.8Zm.5-16.607a8.791,8.791,0,0,0-2.609.412,7.985,7.985,0,0,0-4.842,3.891,8.091,8.091,0,0,0,3.368,10.855,8.462,8.462,0,0,0,11.038-3.425h0a8.087,8.087,0,0,0-3.369-10.855A7.774,7.774,0,0,0,246.517,330.192Zm7.2,11.868h0Zm-7.446,2.227a5.671,5.671,0,0,1-2.755-.729,6.24,6.24,0,0,1-2.545-8.2,5.876,5.876,0,0,1,8.038-2.493,6.24,6.24,0,0,1,2.546,8.2,5.652,5.652,0,0,1-3.495,2.944A6.036,6.036,0,0,1,246.276,344.288Zm-.02-11.584a5.44,5.44,0,0,0-1.618.255,5.1,5.1,0,0,0-3.154,2.655,5.671,5.671,0,0,0,2.311,7.445,5.305,5.305,0,0,0,7.256-2.251,5.67,5.67,0,0,0-2.311-7.445h0A5.1,5.1,0,0,0,246.257,332.7Z" transform="translate(-237.556 -329.621)" fill="#333"/>
    </g>
    <g id="그룹_925" data-name="그룹 925" transform="translate(17.649 12.199)">
      <path id="패스_4523" data-name="패스 4523" d="M266.539,324.291a5.278,5.278,0,0,1,3.038,3.457,5.087,5.087,0,0,1-.138,4.569,8.339,8.339,0,0,1-4.434,3.056l-2.656.971,1.607,4.393-2.528.925-5.481-14.978,5.143-1.881Q264.5,323.557,266.539,324.291Zm.473,6.836a3.516,3.516,0,0,0-.1-2.635,2.6,2.6,0,0,0-1.768-1.844,5.92,5.92,0,0,0-3.256.462l-2.571.941,2.195,6,2.936-1.074A4.161,4.161,0,0,0,267.012,331.127Z" transform="translate(-255.663 -323.737)" fill="#333"/>
      <path id="패스_4524" data-name="패스 4524" d="M261.422,341.939a.285.285,0,0,1-.268-.187l-5.48-14.977a.287.287,0,0,1,.009-.218.284.284,0,0,1,.161-.147l5.142-1.881c2.324-.85,4.222-1.023,5.643-.513h0a5.57,5.57,0,0,1,3.21,3.626,5.379,5.379,0,0,1-.163,4.817,8.642,8.642,0,0,1-4.578,3.174l-2.39.874,1.509,4.126a.283.283,0,0,1-.17.365l-2.528.925A.283.283,0,0,1,261.422,341.939Zm-5.115-15.093,5.285,14.443,1.993-.729-1.509-4.124a.286.286,0,0,1,.17-.366l2.657-.971a8.115,8.115,0,0,0,4.288-2.938,4.842,4.842,0,0,0,.113-4.322,5.032,5.032,0,0,0-2.868-3.286c-1.292-.463-3.06-.292-5.254.511Zm5.2,7.483a.286.286,0,0,1-.12-.026.281.281,0,0,1-.147-.161l-2.195-6a.284.284,0,0,1,.169-.365l2.572-.941a6.111,6.111,0,0,1,3.42-.472,2.877,2.877,0,0,1,1.969,2.022,3.8,3.8,0,0,1,.1,2.846,4.364,4.364,0,0,1-2.729,2l-2.936,1.074A.28.28,0,0,1,261.5,334.329Zm-1.83-6.115,2,5.464,2.668-.976a3.941,3.941,0,0,0,2.4-1.695h0a3.262,3.262,0,0,0-.108-2.424,2.317,2.317,0,0,0-1.567-1.664,5.694,5.694,0,0,0-3.09.452Z" transform="translate(-255.656 -323.73)" fill="#333"/>
    </g>
    <g id="그룹_926" data-name="그룹 926" transform="translate(33.316 5.413)">
      <path id="패스_4525" data-name="패스 4525" d="M282.594,317.063l.834,2.392-8.035,2.8,1.388,3.987L284,323.726l.788,2.262-7.216,2.516,1.4,4.029,8.294-2.891.834,2.392-10.836,3.776-5.249-15.06Z" transform="translate(-271.731 -316.778)" fill="#333"/>
      <path id="패스_4526" data-name="패스 4526" d="M277.258,336.088a.279.279,0,0,1-.124-.029.287.287,0,0,1-.145-.163l-5.249-15.06a.284.284,0,0,1,.176-.363l10.578-3.687a.284.284,0,0,1,.363.175l.834,2.391a.292.292,0,0,1-.013.218.285.285,0,0,1-.163.144l-7.766,2.707,1.2,3.449,6.947-2.422a.288.288,0,0,1,.364.175l.788,2.262a.285.285,0,0,1-.175.363l-6.947,2.421,1.217,3.492,8.025-2.8a.293.293,0,0,1,.219.013.286.286,0,0,1,.144.163l.834,2.392a.286.286,0,0,1-.176.363l-10.836,3.776A.283.283,0,0,1,277.258,336.088Zm-4.886-15.171,5.062,14.523,10.3-3.589L287.085,330l-8.026,2.8a.285.285,0,0,1-.363-.175l-1.4-4.029a.283.283,0,0,1,.175-.363l6.948-2.422-.6-1.724-6.948,2.422a.285.285,0,0,1-.363-.176l-1.388-3.986a.285.285,0,0,1,.175-.363l7.767-2.707-.646-1.854Z" transform="translate(-271.724 -316.771)" fill="#333"/>
    </g>
    <g id="그룹_927" data-name="그룹 927" transform="translate(49.288)">
      <path id="패스_4527" data-name="패스 4527" d="M299.983,312.173l2.609-.662,3.922,15.459-2.83.718-11.619-9.057,2.861,11.279-2.608.662L288.4,315.112l2.609-.662,11.906,9.267Z" transform="translate(-288.111 -311.226)" fill="#333"/>
      <path id="패스_4528" data-name="패스 4528" d="M292.31,330.849a.278.278,0,0,1-.146-.041.275.275,0,0,1-.13-.173l-3.922-15.46a.284.284,0,0,1,.206-.346l2.609-.662a.283.283,0,0,1,.245.052l11.25,8.757-2.723-10.74a.285.285,0,0,1,.206-.346l2.609-.662a.285.285,0,0,1,.346.207l3.922,15.459a.285.285,0,0,1-.206.346l-2.83.719a.287.287,0,0,1-.246-.052l-10.963-8.546,2.656,10.472a.283.283,0,0,1-.206.346l-2.608.662A.248.248,0,0,1,292.31,330.849Zm-3.576-15.539,3.781,14.907,2.056-.522-2.791-11a.284.284,0,0,1,.451-.294l11.509,8.972,2.418-.613-3.781-14.907-2.057.522,2.858,11.269a.284.284,0,0,1-.451.294l-11.8-9.182Z" transform="translate(-288.104 -311.219)" fill="#333"/>
    </g>
  </g>
  <g id="그룹_939" data-name="그룹 939" transform="translate(41.34 51.128)">
    <g id="그룹_933" data-name="그룹 933" transform="translate(81.753)">
      <g id="그룹_930" data-name="그룹 930" transform="translate(0.285 0.285)">
        <g id="그룹_929" data-name="그룹 929">
          <ellipse id="타원_90" data-name="타원 90" cx="1.427" cy="1.427" rx="1.427" ry="1.427" fill="#333"/>
        </g>
      </g>
      <g id="그룹_932" data-name="그룹 932">
        <g id="그룹_931" data-name="그룹 931">
          <path id="패스_4529" data-name="패스 4529" d="M313.859,319.168a1.712,1.712,0,1,1,1.712-1.712A1.715,1.715,0,0,1,313.859,319.168Zm0-2.855A1.143,1.143,0,1,0,315,317.456,1.144,1.144,0,0,0,313.859,316.313Z" transform="translate(-312.146 -315.744)" fill="#333"/>
        </g>
      </g>
    </g>
    <g id="그룹_938" data-name="그룹 938" transform="translate(0 23.736)">
      <g id="그룹_935" data-name="그룹 935" transform="translate(0.285 0.286)">
        <g id="그룹_934" data-name="그룹 934">
          <path id="패스_4530" data-name="패스 4530" d="M228.6,341.808a1.428,1.428,0,1,0,1.427-1.428A1.427,1.427,0,0,0,228.6,341.808Z" transform="translate(-228.595 -340.38)" fill="#333"/>
        </g>
      </g>
      <g id="그룹_937" data-name="그룹 937">
        <g id="그룹_936" data-name="그룹 936">
          <path id="패스_4531" data-name="패스 4531" d="M230.015,343.512a1.713,1.713,0,1,1,1.712-1.712A1.714,1.714,0,0,1,230.015,343.512Zm0-2.855a1.142,1.142,0,1,0,1.143,1.143A1.144,1.144,0,0,0,230.015,340.658Z" transform="translate(-228.303 -340.087)" fill="#333"/>
        </g>
      </g>
    </g>
  </g>
</svg>
