<svg xmlns="http://www.w3.org/2000/svg" width="300.587" height="120.336" viewBox="0 0 300.587 120.336">
  <path id="패스_4807" data-name="패스 4807" d="M300.207,105.422a3.783,3.783,0,0,0-2.17-2.17c-16.185-12.4-101.081-23.379-103.252-23.813a2.046,2.046,0,0,1-1.674-1.674V76.09h0L188.893,19.6A20.34,20.34,0,0,0,169.049,0H122.043a20.278,20.278,0,0,0-19.658,19.348L98.106,75.78c-.62,3.6-5.4,4.651-5.4,4.651C.932,97.485,0,105.422,0,108.151a2.853,2.853,0,0,0,1.488,2.6c10.232,10.976,143.374,9.55,149.266,9.488,57.92-.744,110.879-3.845,134.754-8,3.473-.434,6.2-.806,8.248-1.24,4.651-.992,6.2-2.108,6.7-3.411a2.6,2.6,0,0,0-.248-2.17Z" transform="translate(0)"/>
</svg>
