<svg xmlns="http://www.w3.org/2000/svg" width="521.5" height="242.433" viewBox="0 0 521.5 242.433">
  <g id="그룹_1290" data-name="그룹 1290" transform="translate(-699.25 -2259)">
    <g id="그룹_1124" data-name="그룹 1124" transform="translate(2)">
      <path id="패스_4802" data-name="패스 4802" d="M107.993,190.862a84.152,84.152,0,0,1-65.362-27.472C-.778,115.268,8.524,19.272,8.586,18.28h3.1c0,.992-9.24,95.624,33.239,142.63a81.237,81.237,0,0,0,63.067,26.48,79.687,79.687,0,0,0,63.253-26.666c39.378-45.456,27.038-134.568,26.914-135.437l3.1-.5c0,.93,12.4,91.407-27.658,137.979C157.666,181.561,135.589,190.862,107.993,190.862Z" transform="translate(850.802 2264.952)" fill="#1d1d1b"/>
      <ellipse id="타원_106" data-name="타원 106" cx="4.217" cy="8.372" rx="4.217" ry="8.372" transform="translate(855.483 2288.863) rotate(-1.02)" fill="#009640"/>
      <path id="패스_4803" data-name="패스 4803" d="M12.83,38.776c-3.225,0-5.767-4.155-5.829-9.8S9.3,18.994,12.582,18.932a3.783,3.783,0,0,1,2.977,1.3,12.4,12.4,0,0,1,2.915,8.558,12.4,12.4,0,0,1-2.6,8.62,4.155,4.155,0,0,1-2.977,1.364Zm0-16.744h0c-1.054,0-2.6,2.791-2.543,6.883s1.674,6.759,2.729,6.759h0a1.054,1.054,0,0,0,.806-.434,9.488,9.488,0,0,0,1.736-6.2h0a9.488,9.488,0,0,0-1.984-6.2,1.3,1.3,0,0,0-.93-.806Z" transform="translate(847.117 2268.331)" fill="#1d1d1b"/>
      <ellipse id="타원_107" data-name="타원 107" cx="4.217" cy="8.372" rx="4.217" ry="8.372" transform="translate(855.779 2305.537) rotate(-1.02)" fill="#063"/>
      <path id="패스_4804" data-name="패스 4804" d="M12.921,41.516c-3.225,0-5.767-4.217-5.829-9.86a12.4,12.4,0,0,1,2.6-8.62,4.217,4.217,0,0,1,2.915-1.426h.31a4.465,4.465,0,0,1,2.977,1.3,12.4,12.4,0,0,1,2.6,8.558h0c0,5.643-2.294,9.984-5.581,10.046Zm0-16.806h0a1.116,1.116,0,0,0-.744.5,9.488,9.488,0,0,0-1.736,6.2c0,4.093,1.674,6.821,2.729,6.821h-.248c1.054,0,2.6-2.791,2.543-6.883h0a9.86,9.86,0,0,0-1.984-6.2,1.3,1.3,0,0,0-.558-.434Z" transform="translate(847.398 2282.272)" fill="#1d1d1b"/>
      <ellipse id="타원_108" data-name="타원 108" cx="4.217" cy="8.372" rx="4.217" ry="8.372" transform="translate(1047.617 2286.013) rotate(-0.66)" fill="#009640"/>
      <path id="패스_4805" data-name="패스 4805" d="M43.747,38.376c-3.225,0-5.705-4.279-5.767-9.86h0c0-5.705,2.357-9.984,5.643-10.046h0c3.287,0,5.767,4.279,5.829,9.86a12.775,12.775,0,0,1-2.667,8.682,4.527,4.527,0,0,1-2.977,1.364Zm-2.667-9.922c0,4.093,1.674,6.821,2.729,6.821h0a1.3,1.3,0,0,0,.744-.434,9.736,9.736,0,0,0,1.8-6.2c0-4.093-1.674-6.821-2.729-6.821h0c-1.054,0-2.6,2.791-2.543,6.883Z" transform="translate(1008.254 2265.94)" fill="#1d1d1b"/>
      <ellipse id="타원_109" data-name="타원 109" cx="4.217" cy="8.372" rx="4.217" ry="8.372" transform="translate(1047.804 2302.257) rotate(-0.66)" fill="#063"/>
      <path id="패스_4806" data-name="패스 4806" d="M43.9,40.934c-3.287,0-5.767-4.217-5.829-9.86h0a14.759,14.759,0,0,1,1.3-6.635,5.271,5.271,0,0,1,4.341-3.349h0a5.085,5.085,0,0,1,4.341,3.287,14.449,14.449,0,0,1,1.488,6.573c0,5.705-2.357,9.984-5.643,9.984Zm-2.729-9.86c0,4.093,1.674,6.759,2.729,6.759h0c1.054,0,2.6-2.729,2.543-6.821A11.782,11.782,0,0,0,45.324,25.8c-.5-.992-1.116-1.612-1.612-1.612h0c-.5,0-1.054.682-1.55,1.612A11.473,11.473,0,0,0,41.169,31.074Z" transform="translate(1008.662 2279.568)" fill="#1d1d1b"/>
    </g>
    <g id="그룹_1125" data-name="그룹 1125">
      <g id="그룹_459" data-name="그룹 459" transform="translate(0 -33)">
        <g id="Layer_2" data-name="Layer 2" transform="translate(699.265 2413.994)">
          <g id="Layer_1" data-name="Layer 1" transform="translate(-0.015 0.006)">
            <path id="패스_3250" data-name="패스 3250" d="M221.158,34.469S118.048-17.06,88.182,6.444a32.021,32.021,0,0,0-8.045,9.938h0v.263a32.806,32.806,0,0,0-1.893,4.417C74.3,30.263,66.834,41.673,62.68,88.1H87.34l1.683,3.575s2,26.29,21.979,26.553,21.716-15.616,21.716-15.616,39.961,20.612,60.626-4c10.937-12.987-1.735-17.825-4.259-24.66C199.6,88.68,233.83,109.029,248.343,98.671,268.218,84.526,221.158,34.469,221.158,34.469Z" transform="translate(266.975 1.255)" fill="#fff"/>
            <path id="패스_3251" data-name="패스 3251" d="M112.171,120.438h0c-19.876,0-22.978-24.66-23.241-27.5l-1.262-2.629H62.43V88.89c3.628-40.067,9.675-53.948,13.513-63.2l1.63-3.891a31.548,31.548,0,0,1,1.945-4.469l1.577-3.1h0a32.18,32.18,0,0,1,7.046-7.782c30.444-23.819,130.4,25.975,134.659,28.078l.368.315c1.42,1.472,34.283,36.807,32.337,56.735a12.62,12.62,0,0,1-5.258,9.517c-11.831,8.466-35.755-2.314-50.846-14.565,1.472,3.681,1.157,8.255-3.944,14.3-18.771,22.242-53,8.413-60.573,4.943C133.782,109.975,128.892,120.438,112.171,120.438ZM89.246,87.68l.315.736L91.3,91.992v.473c0,1.052,2.156,25.291,20.664,25.344h0c18.456,0,20.349-13.513,20.454-14.092v-1.84l1.683.841c.368,0,39.12,19.823,58.89-3.575,7.151-8.518,3.418-12.882-.526-17.509a20.663,20.663,0,0,1-4-5.836l-3.418-9.1,5.731,7.887c10.043,13.829,43.642,34.23,57.418,24.345a10.043,10.043,0,0,0,4.312-7.624c1.735-18.14-29.025-51.845-31.548-54.526C215.7,34.206,117.8-13.748,89.509,8.757a30.812,30.812,0,0,0-7.887,9.517l-.368.631c-.631,1.315-1.1,2.524-1.63,3.838s-1.052,2.576-1.683,4c-3.891,8.939-9.727,22.452-13.3,61.151Z" transform="translate(265.91 -0.006)" fill="#1d1d1b"/>
            <path id="패스_3252" data-name="패스 3252" d="M82.23,3.81l78.345,53.212s11.042-21.558-.421-27.92S82.23,3.81,82.23,3.81Z" transform="translate(350.22 16.193)" fill="#1d1d1b"/>
            <path id="패스_3253" data-name="패스 3253" d="M167.19,61.725,80.8,3.15l7.887,2.208c2.682.789,66.778,19.087,78.188,25.4,12.409,6.888,1.472,28.709,1,29.656ZM95.891,10.2l70.09,47.691c2.1-4.68,8.15-20.033-.578-24.818S113.873,15.454,95.891,10.2Z" transform="translate(344.131 13.383)" fill="#1d1d1b"/>
            <path id="패스_3254" data-name="패스 3254" d="M163.9,59.373l-.631-.578L81.51,3.48l3.944,1.1c2.734.789,66.672,19.034,78.082,25.344s1.157,27.868.684,28.762ZM89.345,7l74.3,50.425c1.735-3.628,9.2-21.032-.473-26.29S103.541,11.472,89.345,7Z" transform="translate(347.155 14.788)" fill="#1d1d1b"/>
            <path id="패스_3255" data-name="패스 3255" d="M170.466,64.172,80.08,2.81,91.911,6.175c6.836,1.945,67.04,19.245,78.345,25.449,12.987,7.2,1.735,29.6,1.262,30.549Zm-67.671-50.74,66.252,44.9c2.208-5.258,7.2-18.929-.631-23.241S122.618,19.268,102.795,13.431Z" transform="translate(341.065 11.935)" fill="#1d1d1b"/>
            <path id="패스_3256" data-name="패스 3256" d="M32.329,34.469S135.65-17.27,165.306,6.5a32.021,32.021,0,0,1,8.2,9.938h0A35.28,35.28,0,0,1,175.4,20.8C178.977,30,186.5,41.463,190.65,87.734l-24.608-.368L164.307,91.1s-2,26.29-21.979,26.553S120.507,102.4,120.507,102.4s-39.7,20.875-60.363-3.575C49.208,85.841,61.879,81,64.4,74.168,53.782,88.785,19.657,109.344,5.145,98.828-14.731,84.579,32.329,34.469,32.329,34.469Z" transform="translate(1.138 1.045)" fill="#fff"/>
            <path id="패스_3257" data-name="패스 3257" d="M143.5,120.106c-16.721,0-21.453-10.516-22.662-14.67-7.572,3.47-41.8,17.3-60.573-4.943-5.258-6.1-5.258-10.516-3.944-14.3-15.091,12.2-38.962,23.03-51,14.565A12.619,12.619,0,0,1,.064,91.239C-1.829,71.258,31.086,35.977,32.506,34.452h.368c4.259-2.1,104.162-51.9,134.344-27.868a32.6,32.6,0,0,1,6.888,7.309V13.63l1.735,3.365a37.278,37.278,0,0,1,2,4.522c.473,1.209,1,2.471,1.577,3.838,4.049,9.2,10.1,23.136,13.724,63.36v1.472l-24.818-.368c-.473,1-1.1,2.261-1.315,2.787,0,2.787-3.365,27.447-23.241,27.5ZM122.84,101.492v1.893c0,.578,2,14.092,20.4,14.092h0c18.561,0,20.612-25.081,20.664-25.344V91.66s1.209-2.471,1.788-3.733l.315-.789,23.977.368c-3.575-38.7-9.412-52.16-13.3-61.1-.631-1.42-1.209-2.734-1.683-3.944q-.611-2.006-1.42-3.944v-.578a30.444,30.444,0,0,0-7.887-9.57C137.4-14.08,39.5,33.873,34.241,36.607,31.612,39.131,1.01,72.836,2.745,90.976A10.516,10.516,0,0,0,7,98.6c13.829,9.885,47.323-10.516,57.471-24.4l5.679-7.887-3.418,9.149A20.454,20.454,0,0,1,62.793,81.3c-3.944,4.627-7.677,8.991-.526,17.509,19.77,23.4,58.522,3.786,58.89,3.575Z" transform="translate(0.015 0.169)" fill="#1d1d1b"/>
            <path id="패스_3258" data-name="패스 3258" d="M84.431,3.78,5.875,56.992S-5.167,35.381,6.3,29.071,84.431,3.78,84.431,3.78Z" transform="translate(4.72 16.065)" fill="#1d1d1b"/>
            <path id="패스_3259" data-name="패스 3259" d="M6.464,61.738,5.781,60.37c-.473-.894-11.41-22.715,1-29.6C18.242,24.405,82.286,6.16,84.967,5.371L92.855,3.11Zm71.3-51.529C59.781,15.466,16.928,28.191,8.042,33.081S5.413,53.219,7.516,57.847Z" transform="translate(3.815 13.213)" fill="#1d1d1b"/>
            <path id="패스_3260" data-name="패스 3260" d="M6.263,59.343l-.421-.421c-.421-.894-11.147-22.189.736-28.762S81.927,5.343,84.661,4.554L88.6,3.45ZM81.086,6.763C66.574,11.127,16.78,25.692,7.21,31.055S5,53.77,6.737,57.345Z" transform="translate(4.331 14.66)" fill="#1d1d1b"/>
            <path id="패스_3261" data-name="패스 3261" d="M6.78,64.089,5.728,62.144C5.255,61.2-6,38.8,6.99,31.594c11.3-6.2,71.51-23.5,78.345-25.449L97.166,2.78ZM74.451,13.4C54.628,19.238,17.033,30.543,8.936,35.065S6.1,53.152,8.3,58.305Z" transform="translate(3.289 11.807)" fill="#1d1d1b"/>
          </g>
        </g>
      </g>
      <circle id="타원_103" data-name="타원 103" cx="70.95" cy="70.95" r="70.95" transform="translate(889.05 2260.636)" fill="#fff"/>
      <g id="그룹_1126" data-name="그룹 1126">
        <circle id="타원_104" data-name="타원 104" cx="5.694" cy="5.694" r="5.694" transform="translate(928.321 2312.933)" fill="#1d1d1b"/>
        <circle id="타원_105" data-name="타원 105" cx="5.694" cy="5.694" r="5.694" transform="translate(976.821 2312.933)" fill="#1d1d1b"/>
      </g>
      <g id="그룹_1127" data-name="그룹 1127">
        <path id="패스_4798" data-name="패스 4798" d="M72.587,145.173a72.587,72.587,0,1,1,72.587-72.587A72.587,72.587,0,0,1,72.587,145.173Zm0-141.9A69.314,69.314,0,1,0,141.9,72.587,69.314,69.314,0,0,0,72.587,3.273Z" transform="translate(887.413 2259)" fill="#1d1d1b"/>
        <path id="패스_4799" data-name="패스 4799" d="M37.114,37.853C68.27,37.853,68.27,1.2,68.27,1.2L6.09,2.64S5.894,37.657,37.114,37.853Z" transform="translate(921.184 2265.654)" fill="#eb7b54"/>
        <path id="패스_4800" data-name="패스 4800" d="M139.424,17.733a230.848,230.848,0,0,1-24.283,10.8A17.738,17.738,0,0,1,97.6,22.969l-.589-.589A38.355,38.355,0,0,0,69.325,11.842,38.159,38.159,0,0,0,41.638,22.314l-.393.327a19.243,19.243,0,0,1-20.094,4.713A197.41,197.41,0,0,1,.862,17.733c-2.487,0,7,37.373,35.671,53.605l-3.207,75.139h73.307L103.36,68.851a68.4,68.4,0,0,0,36.064-51.118Z" transform="translate(890.086 2324.523)"/>
        <path id="패스_4801" data-name="패스 4801" d="M24.671,13.4l16.1,12.567-16.1,12.567L8.57,25.967Z" transform="translate(934.936 2333.306)" fill="#d9c9c1"/>
      </g>
    </g>
  </g>
</svg>
