<svg xmlns="http://www.w3.org/2000/svg" width="114.143" height="46.813" viewBox="0 0 114.143 46.813">
  <g id="Layer_1" data-name="Layer 1" transform="translate(0.143)">
    <path id="패스_1035" data-name="패스 1035" d="M.02,11.772l9.395-.612,9.429,1.673L28.762,17.5" transform="translate(-0.02 -3.545)" fill="none"/>
    <path id="패스_1036" data-name="패스 1036" d="M22.084,60.557h9.653c.469-.306-1.442-7.483-1.442-7.483L20.92,45.36l-8.163.435L3.73,58.442Z" transform="translate(-1.206 -14.48)" fill="#b4d3d2" stroke="#231f20" stroke-miterlimit="10" stroke-width="0.5"/>
    <path id="패스_1037" data-name="패스 1037" d="M22.241,43.7l-3.014,2.32L18.5,43.259s.68-6.966,1.721-7.347S24.888,41.5,22.241,43.7Z" transform="translate(-5.929 -11.454)" fill="#fff"/>
    <path id="패스_1038" data-name="패스 1038" d="M23.424,26.06s-.946,9.027-.306,10.558L21.5,38.659s-1.735-3.4-2.8-3.19-1,2.864-1,2.864l-.946-.939s0-5.5-2.163-7.673S23.424,26.06,23.424,26.06Z" transform="translate(-4.588 -8.309)" fill="#231f20"/>
    <circle id="타원_73" data-name="타원 73" cx="6.49" cy="6.49" r="6.49" transform="translate(6.17 9.274)" fill="#fff" stroke="#231f20" stroke-miterlimit="10" stroke-width="0.5"/>
    <path id="패스_1039" data-name="패스 1039" d="M12.156,14.223s.082,3.286,2.653,2.939,2.925-3.442,2.925-3.442l-5.864-.3Z" transform="translate(-3.809 -4.268)" fill="#ec7e5a"/>
    <circle id="타원_74" data-name="타원 74" cx="0.531" cy="0.531" r="0.531" transform="translate(8.014 14.186)" fill="#231f20"/>
    <path id="패스_1040" data-name="패스 1040" d="M6.03,13.42s-1.81,17.259,9.531,16.721S24,17.311,24,17.311" transform="translate(-1.908 -4.268)" fill="none" stroke="#231f20" stroke-miterlimit="10" stroke-width="0.5"/>
    <path id="패스_1041" data-name="패스 1041" d="M29.288,13.88a.374.374,0,0,0-.163-.252c-1.313-1.565-8.639-4.122-9.741-4.5l.605-6.218A1.776,1.776,0,0,0,18.54.867L13.567-.011a1.769,1.769,0,0,0-1.9,1.027,1.782,1.782,0,0,0-.15.456L9.649,7.4C.4,7.166.22,7.778.125,8.01A.272.272,0,0,0,.213,8.3C.975,9.568,13.9,12.159,14.5,12.275a107.246,107.246,0,0,0,13.225,2c.34.034.612.048.816.048.476,0,.68-.075.721-.19A.272.272,0,0,0,29.288,13.88Z" transform="translate(-0.05 0.033)" fill="#231f20"/>
    <circle id="타원_75" data-name="타원 75" cx="0.531" cy="0.531" r="0.531" transform="translate(11.952 14.186)" fill="#231f20"/>
    <path id="패스_1042" data-name="패스 1042" d="M9.11,24.748s.871-1.163,3.4-1.122c1.816.034,2.721,1.177,3.4,1.361s4.395.456,6.19-1.816a10.221,10.221,0,0,1-1.361,3.816,4.878,4.878,0,0,1-4.592,2.19,16.49,16.49,0,0,1-4.878-1.163A5.735,5.735,0,0,1,9.11,24.748Z" transform="translate(-2.926 -7.385)" fill="#231f20"/>
    <path id="패스_1043" data-name="패스 1043" d="M1.416,28.163l8.714-.456c.048,0,0,.048,0,0l-.565-2.946a.075.075,0,0,0-.1-.054L1.382,28.013a.077.077,0,0,0,.034.15Z" transform="translate(-0.436 -7.875)" fill="#d0bfb7" stroke="#231f20" stroke-miterlimit="10" stroke-width="0.5"/>
    <ellipse id="타원_76" data-name="타원 76" cx="0.415" cy="0.83" rx="0.415" ry="0.83" transform="translate(21.939 13.82) rotate(-2.43)" fill="#00a651" stroke="#231f20" stroke-miterlimit="10" stroke-width="0.5"/>
    <ellipse id="타원_77" data-name="타원 77" cx="0.83" cy="0.415" rx="0.83" ry="0.415" transform="matrix(0.054, -0.999, 0.999, 0.054, 22.007, 17.265)" fill="#006838" stroke="#231f20" stroke-miterlimit="10" stroke-width="0.5"/>
    <ellipse id="타원_78" data-name="타원 78" cx="0.415" cy="0.83" rx="0.415" ry="0.83" transform="matrix(1, -0.025, 0.025, 1, 3.556, 9.935)" fill="#00a651" stroke="#231f20" stroke-miterlimit="10" stroke-width="0.5"/>
    <ellipse id="타원_79" data-name="타원 79" cx="0.415" cy="0.83" rx="0.415" ry="0.83" transform="matrix(1, -0.025, 0.025, 1, 3.602, 11.764)" fill="#006838" stroke="#231f20" stroke-miterlimit="10" stroke-width="0.5"/>
    <path id="패스_1044" data-name="패스 1044" d="M24.88,49.43l1.687.639,7.259,9.068,1.361.395" transform="translate(-7.968 -15.781)" fill="none" stroke="#231f20" stroke-miterlimit="10" stroke-width="0.5"/>
    <path id="패스_1045" data-name="패스 1045" d="M10.264,48.8c-.782-.565-2.932-.68-3.571.293C6.162,49.913.4,61.518.4,61.518l4.381.041,4.871-11.4a5.442,5.442,0,0,0,.238.762l1.361-1.238a3.993,3.993,0,0,0-.986-.884Z" transform="translate(-0.141 -15.441)" fill="#fff" stroke="#231f20" stroke-miterlimit="10" stroke-width="0.5"/>
    <path id="패스_1046" data-name="패스 1046" d="M20.565,45.861s-3.054-3.871-3.177-3.578S17,44.806,17,44.806l1.3,1.626S20.15,45.67,20.565,45.861Z" transform="translate(-5.449 -13.491)" fill="#b4d3d2" stroke="#231f20" stroke-miterlimit="10" stroke-width="0.5"/>
    <path id="패스_1047" data-name="패스 1047" d="M8.88,49.43h6.2s0,3.456-3.1,3.449S8.88,49.43,8.88,49.43Z" transform="translate(-2.853 -15.781)" fill="#dcf0f2" stroke="#231f20" stroke-miterlimit="10" stroke-width="0.5"/>
    <path id="패스_1048" data-name="패스 1048" d="M21,45.417c-.156,0,4.014-4.673,4.014-4.673V39.92l1.361,3.517L23.651,46.4Z" transform="translate(-6.726 -12.741)" fill="#b4d3d2" stroke="#231f20" stroke-miterlimit="10" stroke-width="0.5"/>
    <path id="패스_1049" data-name="패스 1049" d="M19.256,56.588l-.633-6.4s-2.49-3.4-5.51-1.741S3.759,58.2,3.759,58.2l-2.3,3.238H5.12a20.217,20.217,0,0,0,2.925-2.878c.986-1.313-2.2,2.639-1.864,3.041s15.1,0,15.1,0-.721-1.571-2.653-5.952" transform="translate(-0.48 -15.321)" fill="#fff" stroke="#231f20" stroke-miterlimit="10" stroke-width="0.5"/>
    <path id="패스_1050" data-name="패스 1050" d="M23.11,66.9a4.857,4.857,0,0,0,0-2.619" transform="translate(-7.403 -20.529)" fill="#fff" stroke="#231f20" stroke-miterlimit="10" stroke-width="0.5"/>
    <path id="패스_1051" data-name="패스 1051" d="M9.82,51.181a3.728,3.728,0,0,0,1.83,1.735l2.238-2.136a6.85,6.85,0,0,1-2.041.844C11.3,51.61,10.147,50.685,9.82,51.181Z" transform="translate(-3.153 -16.213)" fill="#7cc577" stroke="#231f20" stroke-miterlimit="10" stroke-width="0.25"/>
    <path id="패스_1052" data-name="패스 1052" d="M9.82,51.287a2.878,2.878,0,0,0,1.116.721,3.653,3.653,0,0,0,2.537-.9" transform="translate(-3.153 -16.319)" fill="none" stroke="#231f20" stroke-miterlimit="10" stroke-width="0.25"/>
    <path id="패스_1053" data-name="패스 1053" d="M59.06,62.381V58.34h.211v1.81h2.252V58.34h.218v4.041h-.211V60.34H59.271v2.041Z" transform="translate(-18.897 -18.63)" fill="#231f20"/>
    <path id="패스_1054" data-name="패스 1054" d="M65.907,58.672a.2.2,0,0,1-.143-.061.265.265,0,0,1-.054-.17.211.211,0,0,1,.054-.15.2.2,0,0,1,.143-.061.177.177,0,0,1,.143.061.19.19,0,0,1,.061.15.238.238,0,0,1-.061.17A.177.177,0,0,1,65.907,58.672Zm-.1,3.673V59.434H66v2.932Z" transform="translate(-21.023 -18.595)" fill="#231f20"/>
    <path id="패스_1055" data-name="패스 1055" d="M69.861,64.319a1.816,1.816,0,0,1-.68-.1.9.9,0,0,1-.415-.286.68.68,0,0,1,0-.816,1.191,1.191,0,0,1,.327-.34h0a.592.592,0,0,1-.184-.184.5.5,0,0,1-.075-.286.524.524,0,0,1,.109-.34,1.879,1.879,0,0,1,.211-.2h0a1.232,1.232,0,0,1-.258-.333.966.966,0,0,1-.116-.476,1.061,1.061,0,0,1,.136-.531.952.952,0,0,1,.367-.367.986.986,0,0,1,.51-.136,1.149,1.149,0,0,1,.224,0,.681.681,0,0,1,.156.054h.98v.184h-.68a.877.877,0,0,1,.252.327,1.082,1.082,0,0,1,.1.449,1.048,1.048,0,0,1-.5.9.966.966,0,0,1-.51.143.932.932,0,0,1-.265-.041.714.714,0,0,1-.231-.1,1.17,1.17,0,0,0-.184.184.476.476,0,0,0-.075.259.415.415,0,0,0,.116.293.68.68,0,0,0,.456.116h.68a1.231,1.231,0,0,1,.68.163.565.565,0,0,1,.231.5.83.83,0,0,1-.17.476,1.184,1.184,0,0,1-.469.367A1.673,1.673,0,0,1,69.861,64.319Zm0-.177a1.476,1.476,0,0,0,.605-.116,1.143,1.143,0,0,0,.395-.3A.633.633,0,0,0,71,63.353a.4.4,0,0,0-.177-.367,1.027,1.027,0,0,0-.531-.109h-.81l-.224-.041a.925.925,0,0,0-.313.32.68.68,0,0,0-.1.34.571.571,0,0,0,.258.476,1.286,1.286,0,0,0,.762.17Zm-.068-2.367a.8.8,0,0,0,.395-.109.844.844,0,0,0,.293-.306.884.884,0,0,0,.116-.449.932.932,0,0,0-.109-.449.775.775,0,0,0-.293-.3.816.816,0,0,0-.4-.1.782.782,0,0,0-.68.395.959.959,0,0,0-.109.456.884.884,0,0,0,.116.449.843.843,0,0,0,.293.306.8.8,0,0,0,.388.109Z" transform="translate(-21.957 -19.133)" fill="#231f20"/>
    <path id="패스_1056" data-name="패스 1056" d="M74.53,62.2V57.78h.2v1.966a2.762,2.762,0,0,1,.476-.395.98.98,0,0,1,.544-.156.809.809,0,0,1,.68.279,1.36,1.36,0,0,1,.218.844V62.2h-.2V60.345a1.313,1.313,0,0,0-.163-.728.619.619,0,0,0-.544-.238.9.9,0,0,0-.5.143,3.286,3.286,0,0,0-.5.435V62.2Z" transform="translate(-23.843 -18.451)" fill="#231f20"/>
    <path id="패스_1057" data-name="패스 1057" d="M84.632,62.42a1.476,1.476,0,0,1-.85-.265,1.782,1.782,0,0,1-.578-.741,2.646,2.646,0,0,1-.2-1.1,2.612,2.612,0,0,1,.211-1.1,1.714,1.714,0,0,1,.578-.721,1.528,1.528,0,0,1,1.7,0,1.68,1.68,0,0,1,.585.721,2.612,2.612,0,0,1,.211,1.1,2.646,2.646,0,0,1-.211,1.109,1.742,1.742,0,0,1-.592.735,1.463,1.463,0,0,1-.85.265Zm0-.184A1.265,1.265,0,0,0,85.387,62a1.646,1.646,0,0,0,.5-.68,2.721,2.721,0,0,0,.177-1.014,2.626,2.626,0,0,0-.177-1,1.5,1.5,0,0,0-.5-.68,1.258,1.258,0,0,0-.755-.231,1.218,1.218,0,0,0-.741.231,1.408,1.408,0,0,0-.5.68,2.5,2.5,0,0,0-.177,1,2.572,2.572,0,0,0,.177,1.014,1.544,1.544,0,0,0,.5.68A1.225,1.225,0,0,0,84.632,62.237Zm1.17,1.048a1.415,1.415,0,0,1-.605-.122,1.224,1.224,0,0,1-.442-.34,1.442,1.442,0,0,1-.272-.476h.238a1.082,1.082,0,0,0,.231.395,1.014,1.014,0,0,0,.374.252,1.435,1.435,0,0,0,.5.088h.231a.892.892,0,0,0,.17-.041l.048.19-.2.048A1.77,1.77,0,0,1,85.8,63.284Z" transform="translate(-26.55 -18.595)" fill="#231f20"/>
    <path id="패스_1058" data-name="패스 1058" d="M91.136,62.986a.8.8,0,0,1-.68-.272,1.361,1.361,0,0,1-.218-.85V60h.2v1.864a1.272,1.272,0,0,0,.163.721.605.605,0,0,0,.537.238.816.816,0,0,0,.5-.156,2.619,2.619,0,0,0,.5-.476V60h.2v2.932h-.156v-.5h0a2.571,2.571,0,0,1-.463.415A1.007,1.007,0,0,1,91.136,62.986Z" transform="translate(-28.864 -19.161)" fill="#231f20"/>
    <path id="패스_1059" data-name="패스 1059" d="M96.74,62.954a1.061,1.061,0,0,1-.422-.082.721.721,0,0,1-.313-.259.857.857,0,0,1-.116-.456.8.8,0,0,1,.463-.741,4.129,4.129,0,0,1,1.456-.367,1.8,1.8,0,0,0-.041-.469.762.762,0,0,0-.211-.374.633.633,0,0,0-.463-.15,1.272,1.272,0,0,0-.565.122,3.048,3.048,0,0,0-.395.231l-.1-.156.259-.156a1.53,1.53,0,0,1,.354-.129,1.361,1.361,0,0,1,.449-.068.857.857,0,0,1,.537.156.735.735,0,0,1,.279.4,1.769,1.769,0,0,1,.082.551v1.9h-.163v-.388h0a3.068,3.068,0,0,1-.49.327A1.3,1.3,0,0,1,96.74,62.954Zm0-.184a1.129,1.129,0,0,0,.51-.122,3.136,3.136,0,0,0,.544-.374V61.219a4.851,4.851,0,0,0-1.014.2,1.2,1.2,0,0,0-.537.306.6.6,0,0,0-.163.429.565.565,0,0,0,.2.483.81.81,0,0,0,.476.136Z" transform="translate(-30.672 -19.128)" fill="#231f20"/>
    <path id="패스_1060" data-name="패스 1060" d="M102.061,62.283a.326.326,0,0,1-.163-.041.333.333,0,0,1-.1-.129.721.721,0,0,1,0-.231V57.8h.136v4.129a.252.252,0,0,0,0,.136.1.1,0,0,0,.088.048h.109l.041.177h-.075Z" transform="translate(-32.558 -18.458)" fill="#231f20"/>
    <path id="패스_1061" data-name="패스 1061" d="M105.037,58.672a.177.177,0,0,1-.143-.061.231.231,0,0,1-.054-.17.184.184,0,0,1,.054-.15.177.177,0,0,1,.143-.061.2.2,0,0,1,.143.061.19.19,0,0,1,.061.15.238.238,0,0,1-.061.17.2.2,0,0,1-.143.061Zm-.1,3.673V59.434h.2v2.932Z" transform="translate(-33.533 -18.595)" fill="#231f20"/>
    <path id="패스_1062" data-name="패스 1062" d="M108.7,62.58a.68.68,0,0,1-.422-.109.544.544,0,0,1-.211-.293,1.762,1.762,0,0,1-.054-.449V59.757h-.469v-.163h.469V58.73h.17v.864h.871v.184h-.871v2a1.014,1.014,0,0,0,.1.463.449.449,0,0,0,.422.177.68.68,0,0,0,.19,0,1.15,1.15,0,0,0,.184-.068l.068.17-.259.075a.9.9,0,0,1-.184-.014Z" transform="translate(-34.397 -18.755)" fill="#231f20"/>
    <path id="패스_1063" data-name="패스 1063" d="M111.6,64.272h-.15l-.136-.048.054-.184.109.041h.136a.571.571,0,0,0,.463-.238,1.871,1.871,0,0,0,.313-.592l.088-.272L111.26,60h.224l.742,1.912.156.415c.054.143.116.286.17.415h0c.048-.129.1-.272.143-.415s.1-.286.136-.415l.68-1.912h.2l-1.17,3.347a2.579,2.579,0,0,1-.2.449,1.313,1.313,0,0,1-.313.354.68.68,0,0,1-.435.122Z" transform="translate(-35.587 -19.161)" fill="#231f20"/>
    <path id="패스_1064" data-name="패스 1064" d="M119.17,62.381l1.449-4.041h.184l1.449,4.041h-.224l-.844-2.422-.238-.68c-.075-.218-.15-.456-.224-.68h0c-.075.252-.15.49-.224.68s-.156.456-.245.68l-.85,2.422Zm.626-1.435v-.177h1.81v.177Z" transform="translate(-38.116 -18.63)" fill="#231f20"/>
    <path id="패스_1065" data-name="패스 1065" d="M126.578,62.941a1.483,1.483,0,0,1-.605-.122,1.817,1.817,0,0,1-.463-.279l.129-.163a1.816,1.816,0,0,0,.4.272,1.224,1.224,0,0,0,.551.109.748.748,0,0,0,.551-.184.6.6,0,0,0,.19-.435.463.463,0,0,0-.116-.32.993.993,0,0,0-.279-.218l-.347-.143-.429-.177a1.041,1.041,0,0,1-.354-.252.571.571,0,0,1-.143-.408.748.748,0,0,1,.109-.381.776.776,0,0,1,.313-.272,1.041,1.041,0,0,1,.5-.109,1.238,1.238,0,0,1,.442.082,1.259,1.259,0,0,1,.374.218l-.116.15a1.83,1.83,0,0,0-.313-.19.993.993,0,0,0-.395-.075.728.728,0,0,0-.537.177.537.537,0,0,0-.17.395.435.435,0,0,0,.1.286.85.85,0,0,0,.258.19l.327.143.354.136a1.245,1.245,0,0,1,.313.163.68.68,0,0,1,.225.238.633.633,0,0,1,.088.354.772.772,0,0,1-.435.707,1.109,1.109,0,0,1-.524.109Z" transform="translate(-40.143 -19.116)" fill="#231f20"/>
    <path id="패스_1066" data-name="패스 1066" d="M130.9,58.672a.177.177,0,0,1-.143-.061.238.238,0,0,1-.061-.17.19.19,0,0,1,.061-.15.177.177,0,0,1,.143-.061.2.2,0,0,1,.143.061.211.211,0,0,1,.054.15.265.265,0,0,1-.054.17.2.2,0,0,1-.143.061Zm-.109,3.673V59.434h.2v2.932Z" transform="translate(-41.802 -18.595)" fill="#231f20"/>
    <path id="패스_1067" data-name="패스 1067" d="M134.5,62.941a1.082,1.082,0,0,1-.422-.082.748.748,0,0,1-.306-.258.857.857,0,0,1-.116-.456.789.789,0,0,1,.463-.742,4.082,4.082,0,0,1,1.456-.367,1.551,1.551,0,0,0-.048-.469.748.748,0,0,0-.2-.374.64.64,0,0,0-.463-.15,1.272,1.272,0,0,0-.565.122,2.638,2.638,0,0,0-.395.231l-.1-.156a2.9,2.9,0,0,1,.252-.156,1.81,1.81,0,0,1,.367-.156,1.408,1.408,0,0,1,.449-.068.864.864,0,0,1,.544.156.769.769,0,0,1,.279.4,1.769,1.769,0,0,1,.082.551v1.9h-.163l-.034-.388h0a3.068,3.068,0,0,1-.49.327A1.306,1.306,0,0,1,134.5,62.941Zm0-.184a1.15,1.15,0,0,0,.51-.122,3.137,3.137,0,0,0,.544-.374V61.206a4.762,4.762,0,0,0-1.014.2,1.2,1.2,0,0,0-.537.306.6.6,0,0,0-.163.429.565.565,0,0,0,.2.483.809.809,0,0,0,.483.136Z" transform="translate(-42.748 -19.116)" fill="#231f20"/>
    <path id="패스_1068" data-name="패스 1068" d="M139.52,62.875V59.963h.163l.034.463h0a2.917,2.917,0,0,1,.463-.381,1.02,1.02,0,0,1,.551-.156.8.8,0,0,1,.68.279,1.36,1.36,0,0,1,.218.844V62.9h-.2V61.018a1.306,1.306,0,0,0-.17-.728.612.612,0,0,0-.544-.238.918.918,0,0,0-.5.143,3.285,3.285,0,0,0-.5.435v2.245Z" transform="translate(-44.622 -19.124)" fill="#231f20"/>
    <path id="패스_1069" data-name="패스 1069" d="M149.076,62.381V58.524H147.77V58.34h2.83v.184h-1.313v3.857Z" transform="translate(-47.26 -18.63)" fill="#231f20"/>
    <path id="패스_1070" data-name="패스 1070" d="M154.643,62.926a1.286,1.286,0,0,1-.68-.184,1.361,1.361,0,0,1-.49-.524,1.728,1.728,0,0,1-.184-.823,1.9,1.9,0,0,1,.1-.68,1.578,1.578,0,0,1,.286-.49,1.238,1.238,0,0,1,.408-.306,1.034,1.034,0,0,1,.469-.109,1.116,1.116,0,0,1,.592.156,1,1,0,0,1,.381.463,1.687,1.687,0,0,1,.136.735V61.3a.675.675,0,0,1,0,.109h-2.156a1.613,1.613,0,0,0,.143.68,1.149,1.149,0,0,0,.4.476,1.034,1.034,0,0,0,.6.177,1.292,1.292,0,0,0,.483-.082,1.409,1.409,0,0,0,.361-.19l.088.17a2.723,2.723,0,0,1-.374.19A1.306,1.306,0,0,1,154.643,62.926Zm-1.136-1.707h1.973a1.361,1.361,0,0,0-.252-.9.85.85,0,0,0-.68-.293.932.932,0,0,0-.49.143,1.163,1.163,0,0,0-.381.408,1.728,1.728,0,0,0-.17.639Z" transform="translate(-49.024 -19.1)" fill="#231f20"/>
    <path id="패스_1071" data-name="패스 1071" d="M159.523,62.941a1.082,1.082,0,0,1-.422-.082.68.68,0,0,1-.306-.258.864.864,0,0,1,.347-1.2,4.082,4.082,0,0,1,1.456-.367,1.551,1.551,0,0,0-.048-.469.748.748,0,0,0-.2-.374.639.639,0,0,0-.463-.15,1.272,1.272,0,0,0-.565.122,2.638,2.638,0,0,0-.395.231l-.1-.156a2.9,2.9,0,0,1,.252-.156,1.81,1.81,0,0,1,.367-.156,1.408,1.408,0,0,1,.449-.068.864.864,0,0,1,.544.156.769.769,0,0,1,.279.4,1.769,1.769,0,0,1,.082.551v1.9h-.17v-.388h0a2.851,2.851,0,0,1-.5.327A1.259,1.259,0,0,1,159.523,62.941Zm0-.184a1.17,1.17,0,0,0,.51-.122,3.136,3.136,0,0,0,.544-.374V61.206a4.762,4.762,0,0,0-1.014.2,1.2,1.2,0,0,0-.537.306.6.6,0,0,0-.163.429.565.565,0,0,0,.2.483.789.789,0,0,0,.517.136Z" transform="translate(-50.748 -19.116)" fill="#231f20"/>
    <path id="패스_1072" data-name="패스 1072" d="M79.28,25.349H74.892V37.771H72.6V29.934a17.136,17.136,0,0,1-4.143,1.537A19.728,19.728,0,0,1,63.879,32H59.8a3.633,3.633,0,0,1-2.293-.646,2.81,2.81,0,0,1-.823-2.327V15.9H68.457v1.884H58.933v10.98a1.782,1.782,0,0,0,.238,1.014c.156.231.51.34,1.054.34h3.653a19.218,19.218,0,0,0,4.388-.531,13.048,13.048,0,0,0,4.3-1.884V14.9h2.293v8.51h4.388Z" transform="translate(-18.13 -4.741)" fill="#231f20"/>
    <path id="패스_1073" data-name="패스 1073" d="M94.75,24.838h8.1q2.041,0,4.156-.143a19.163,19.163,0,0,0,4.327-.857l.354,1.8a19.177,19.177,0,0,1-4.4.871q-2.2.15-4.082.156v3.891h-2.3V26.661H94.75Zm13.367-4.476a4.64,4.64,0,0,1-1.265,1.5,5.327,5.327,0,0,1-1.871.973,8.333,8.333,0,0,1-4.619,0,5.789,5.789,0,0,1-1.871-.959,4.517,4.517,0,0,1-1.252-1.5,4.616,4.616,0,0,1,0-4,4.517,4.517,0,0,1,1.252-1.5,6.374,6.374,0,0,1,1.9-.952,7.483,7.483,0,0,1,2.313-.34,7.279,7.279,0,0,1,2.252.34,5.986,5.986,0,0,1,1.871.952,4.946,4.946,0,0,1,1.293,1.531,4.435,4.435,0,0,1,0,3.973ZM105.4,16.28a4.823,4.823,0,0,0-5.49,0,2.871,2.871,0,0,0,0,4.2,4.918,4.918,0,0,0,5.49,0,2.844,2.844,0,0,0,0-4.2ZM101.94,38.947a2.66,2.66,0,0,1-1.857-.558A2.116,2.116,0,0,1,99.5,36.77V31.818h2.293v4.5a.68.68,0,0,0,.857.8h7.8a21.769,21.769,0,0,0,2.884-.177,13.966,13.966,0,0,0,2.721-.68l.5,1.769a19.048,19.048,0,0,1-5.986.918ZM115.546,32.5h-2.258V29.777h-5.211V28.049h5.211V14.185h2.3Z" transform="translate(-30.308 -4.319)" fill="#231f20"/>
    <path id="패스_1074" data-name="패스 1074" d="M153.623,20.915V14.5h-2.293V26.861a4.817,4.817,0,0,1-.367,1.844,5.66,5.66,0,0,1-.932,1.544H137.46v1.8h12.864a.639.639,0,0,1,.592.238,1.115,1.115,0,0,1,.15.585v6.68h2.041l.265-7.177a2.721,2.721,0,0,0-.306-1.4,1.544,1.544,0,0,0-1.109-.68,6.735,6.735,0,0,0,1.136-1.361,4.143,4.143,0,0,0,.544-2.259V22.711h4.327v-1.8Z" transform="translate(-43.963 -4.613)"/>
    <path id="패스_1075" data-name="패스 1075" d="M145.732,22.616a3.6,3.6,0,0,0-1.129-.837,3.8,3.8,0,0,0-1.667-.34,3.857,3.857,0,0,0-1.694.34,3.517,3.517,0,0,0-1.129.837,3.15,3.15,0,0,0-.633,1.177,4.43,4.43,0,0,0-.19,1.265,4.082,4.082,0,0,0,.837,2.476,3.278,3.278,0,0,0,2.809,1.115,4.245,4.245,0,0,0,1.667-.293,2.966,2.966,0,0,0,1.129-.823,3.293,3.293,0,0,0,.619-1.15,4.361,4.361,0,0,0,.2-1.327,4.231,4.231,0,0,0-.2-1.265A3.687,3.687,0,0,0,145.732,22.616Z" transform="translate(-44.548 -6.832)" fill="none"/>
    <path id="패스_1076" data-name="패스 1076" d="M147.759,24.21a5.123,5.123,0,0,0-.429-2.088,5.327,5.327,0,0,0-1.19-1.707,6.033,6.033,0,0,0-1.871-1.163,6.449,6.449,0,0,0-2.4-.422,6.694,6.694,0,0,0-2.469.422,5.6,5.6,0,0,0-1.857,1.163,4.762,4.762,0,0,0-1.19,1.707,5.441,5.441,0,0,0-.4,2.088h0a5.5,5.5,0,0,0,.4,2.1,4.817,4.817,0,0,0,1.19,1.707,5.6,5.6,0,0,0,1.844,1.177,6.8,6.8,0,0,0,2.469.422,6.592,6.592,0,0,0,2.4-.422,6.034,6.034,0,0,0,1.871-1.163,5.4,5.4,0,0,0,1.19-1.707,5.156,5.156,0,0,0,.429-2.1h0Zm-9.524-.347V23.6a2.005,2.005,0,0,1,.068-.313,4.082,4.082,0,0,1,.483-1.177,3.475,3.475,0,0,1,.224-.327,3.517,3.517,0,0,1,1.129-.837l.313-.129a4.966,4.966,0,0,1,1.361-.2,4.306,4.306,0,0,1,1.429.231,1.449,1.449,0,0,1,.238.1,3.6,3.6,0,0,1,1.129.837,3.687,3.687,0,0,1,.619,1.177,3.98,3.98,0,0,1,0,2.517,3.646,3.646,0,0,1-.619,1.184,3.6,3.6,0,0,1-1.129.837l-.238.1a4.313,4.313,0,0,1-1.429.224,4.762,4.762,0,0,1-1.361-.2,2.491,2.491,0,0,1-.313-.122,3.517,3.517,0,0,1-1.129-.837,3.572,3.572,0,0,1-.224-.333,3.98,3.98,0,0,1-.483-1.17,2.575,2.575,0,0,0-.068-.313,1.724,1.724,0,0,1,0-.265,2.36,2.36,0,0,1,0-.714Z" transform="translate(-43.481 -5.997)"/>
    <path id="패스_1077" data-name="패스 1077" d="M147.62,15.46a.884.884,0,1,1,.007,1.769H134.613a.823.823,0,0,1-.823-.823v-.163a.789.789,0,0,1,.823-.782Z" transform="translate(-42.79 -4.92)"/>
    <path id="패스_1078" data-name="패스 1078" d="M145.085,12.275s-.048-.755-.68-.755h-1.034c-.626,0-.68.755-.68.755l-.361,2.041h3.1Z" transform="translate(-45.52 -3.661)"/>
  </g>
</svg>
