<svg xmlns="http://www.w3.org/2000/svg" xmlns:xlink="http://www.w3.org/1999/xlink" width="51" height="51" viewBox="0 0 51 51">
  <defs>
    <clipPath id="clip-path">
      <rect id="사각형_196" data-name="사각형 196" width="51" height="51" transform="translate(-0.071 -0.333)" fill="#fff" stroke="#707070" stroke-width="1"/>
    </clipPath>
  </defs>
  <g id="마스크_그룹_20" data-name="마스크 그룹 20" transform="translate(0.071 0.333)" clip-path="url(#clip-path)">
    <g id="Layer_2" data-name="Layer 2">
      <g id="Layer_3" data-name="Layer 3">
        <path id="패스_4785" data-name="패스 4785" d="M50.929,25.465A25.465,25.465,0,1,1,25.465,0,25.465,25.465,0,0,1,50.929,25.465Z" fill="#686868"/>
        <path id="패스_4786" data-name="패스 4786" d="M31.567,28.452a1.191,1.191,0,1,0,.85.349,1.2,1.2,0,0,0-.85-.349Z" transform="translate(-4.591 -4.301)" fill="#fff"/>
        <path id="패스_4787" data-name="패스 4787" d="M39.3,28.558a1.1,1.1,0,1,0,.787.322A1.109,1.109,0,0,0,39.3,28.558Z" transform="translate(-5.773 -4.317)" fill="#fff"/>
        <path id="패스_4788" data-name="패스 4788" d="M36.511,17.419H17.8a4.994,4.994,0,0,0-4.986,4.994v9.693A4.986,4.986,0,0,0,17.8,37.093h7.04l2.316,4.584,2.629-4.584h6.728a4.994,4.994,0,0,0,4.994-4.986V22.4a4.994,4.994,0,0,0-4.994-4.978Zm-17.5,13.242a2.776,2.776,0,0,1-1.4-.378v.345H15.745v-7.6H17.61v2.514a2.7,2.7,0,0,1,1.4-.386,2.752,2.752,0,0,1,0,5.5Zm5.832-5.027v5.06H23.048v-5.06c0-1.1-.7-1.1-.7-1.1v-1.5a2.243,2.243,0,0,1,2.39,1.832,2.941,2.941,0,0,1,.1.731Zm4.107,5.29a2.056,2.056,0,1,0-.033-.033Zm6.276,2.39v-1.5s1.643.189,1.643-.731v-.821a2.727,2.727,0,0,1-1.364.37,2.694,2.694,0,0,1,0-5.38,2.653,2.653,0,0,1,1.364.378v-.238H38.6v5.651s.3,2.243-3.409,2.243Z" transform="translate(-1.937 -2.634)" fill="#fff"/>
        <path id="패스_4789" data-name="패스 4789" d="M19.678,28.461A1.117,1.117,0,1,0,20.8,29.578,1.117,1.117,0,0,0,19.678,28.461Z" transform="translate(-2.806 -4.303)" fill="#fff"/>
      </g>
    </g>
  </g>
</svg>
