<svg xmlns="http://www.w3.org/2000/svg" width="210.58" height="86.092" viewBox="0 0 210.58 86.092">
  <g id="Layer_2" data-name="Layer 2" transform="translate(-0.02 0.033)">
    <g id="Layer_1" data-name="Layer 1" transform="translate(0.02 -0.033)">
      <path id="패스_5948" data-name="패스 5948" d="M.02,12.291,17.374,11.16,34.79,14.251l18.321,8.62" transform="translate(-0.02 2.906)" fill="none"/>
      <path id="패스_5949" data-name="패스 5949" d="M37.633,73.432H55.464C56.331,72.867,52.8,59.61,52.8,59.61L35.484,45.36l-15.079.8L3.73,69.524Z" transform="translate(0.932 11.681)" fill="#c1d9d9" stroke="#1d1d1b" stroke-miterlimit="10" stroke-width="0.5"/>
      <path id="패스_5950" data-name="패스 5950" d="M25.411,50.315,19.845,54.6,18.5,49.5s1.257-12.868,3.179-13.571S30.3,46.256,25.411,50.315Z" transform="translate(4.722 9.252)" fill="#fff"/>
      <path id="패스_5951" data-name="패스 5951" d="M31.149,26.06s-1.747,16.675-.565,19.5l-2.991,3.77s-3.2-6.283-5.177-5.893-1.847,5.29-1.847,5.29l-1.747-1.734s0-10.153-4-14.174S31.149,26.06,31.149,26.06Z" transform="translate(3.646 6.729)" fill="#1d1d1b"/>
      <circle id="타원_206" data-name="타원 206" cx="11.988" cy="11.988" r="11.988" transform="translate(11.397 17.132)" fill="#fff" stroke="#1d1d1b" stroke-miterlimit="10" stroke-width="0.5"/>
      <path id="패스_5952" data-name="패스 5952" d="M12.4,14.9s.151,6.069,4.9,5.428,5.4-6.358,5.4-6.358L11.87,13.42Z" transform="translate(3.021 3.485)" fill="#eb7b54"/>
      <circle id="타원_207" data-name="타원 207" cx="0.98" cy="0.98" r="0.98" transform="translate(14.803 26.204)" fill="#1d1d1b"/>
      <path id="패스_5953" data-name="패스 5953" d="M6.12,13.42S2.777,45.3,23.725,44.307s15.594-23.7,15.594-23.7" transform="translate(1.495 3.485)" fill="none" stroke="#1d1d1b" stroke-miterlimit="10" stroke-width="0.5"/>
      <path id="패스_5954" data-name="패스 5954" d="M54,25.668a.691.691,0,0,0-.3-.465c-2.425-2.89-15.959-7.615-17.994-8.319L36.827,5.4A3.28,3.28,0,0,0,34.15,1.63L24.964.009a3.267,3.267,0,0,0-3.506,1.9,3.292,3.292,0,0,0-.276.842L17.726,13.693C.649,13.266.31,14.4.134,14.824a.5.5,0,0,0,.163.528C1.7,17.7,25.58,22.489,26.686,22.7A198.1,198.1,0,0,0,51.114,26.4c.628.063,1.131.088,1.508.088.88,0,1.257-.138,1.332-.352a.5.5,0,0,0,.05-.465Z" transform="translate(0.004 0.033)" fill="#1d1d1b"/>
      <circle id="타원_208" data-name="타원 208" cx="0.98" cy="0.98" r="0.98" transform="translate(22.078 26.204)" fill="#1d1d1b"/>
      <path id="패스_5955" data-name="패스 5955" d="M9.11,26.085s1.608-2.149,6.283-2.073c3.355.063,5.026,2.174,6.283,2.513s8.118.842,11.435-3.355c0,0-.666,4.587-2.513,7.049a9.01,9.01,0,0,1-8.482,4.046,30.46,30.46,0,0,1-9.01-2.149A10.593,10.593,0,0,1,9.11,26.085Z" transform="translate(2.312 5.987)" fill="#1d1d1b"/>
      <path id="패스_5956" data-name="패스 5956" d="M1.5,31.1l16.1-.842c.088,0,0,.088,0,0l-1.043-5.441a.138.138,0,0,0-.188-.1L1.433,30.819A.142.142,0,0,0,1.5,31.1Z" transform="translate(0.314 6.38)" fill="#d9c9c1" stroke="#1d1d1b" stroke-miterlimit="10" stroke-width="0.5"/>
      <ellipse id="타원_209" data-name="타원 209" cx="0.767" cy="1.533" rx="0.767" ry="1.533" transform="translate(40.525 25.527) rotate(-2.43)" fill="#009640" stroke="#1d1d1b" stroke-miterlimit="10" stroke-width="0.5"/>
      <ellipse id="타원_210" data-name="타원 210" cx="1.533" cy="0.767" rx="1.533" ry="0.767" transform="matrix(0.054, -0.999, 0.999, 0.054, 40.652, 31.891)" fill="#063" stroke="#1d1d1b" stroke-miterlimit="10" stroke-width="0.5"/>
      <ellipse id="타원_211" data-name="타원 211" cx="0.767" cy="1.533" rx="0.767" ry="1.533" transform="matrix(1, -0.025, 0.025, 1, 6.568, 18.353)" fill="#009640" stroke="#1d1d1b" stroke-miterlimit="10" stroke-width="0.5"/>
      <ellipse id="타원_212" data-name="타원 212" cx="0.767" cy="1.533" rx="0.767" ry="1.533" transform="matrix(1, -0.025, 0.025, 1, 6.653, 21.73)" fill="#063" stroke="#1d1d1b" stroke-miterlimit="10" stroke-width="0.5"/>
      <path id="패스_5957" data-name="패스 5957" d="M24.88,49.43,28,50.611,41.4,67.362l2.513.729" transform="translate(6.359 12.725)" fill="none" stroke="#1d1d1b" stroke-miterlimit="10" stroke-width="0.5"/>
      <path id="패스_5958" data-name="패스 5958" d="M18.621,49.163c-1.445-1.043-5.416-1.257-6.6.54C11.043,51.224.4,72.661.4,72.661l8.092.075,9-21.061a10.053,10.053,0,0,0,.44,1.407L20.443,50.8a7.376,7.376,0,0,0-1.822-1.634Z" transform="translate(0.078 12.452)" fill="#fff" stroke="#1d1d1b" stroke-miterlimit="10" stroke-width="0.5"/>
      <path id="패스_5959" data-name="패스 5959" d="M23.585,48.906s-5.642-7.15-5.868-6.61S17,46.958,17,46.958l2.4,3S22.818,48.554,23.585,48.906Z" transform="translate(4.337 10.887)" fill="#c1d9d9" stroke="#1d1d1b" stroke-miterlimit="10" stroke-width="0.5"/>
      <path id="패스_5960" data-name="패스 5960" d="M8.88,49.43H20.34s0,6.383-5.718,6.371S8.88,49.43,8.88,49.43Z" transform="translate(2.253 12.725)" fill="#e5f3f6" stroke="#1d1d1b" stroke-miterlimit="10" stroke-width="0.5"/>
      <path id="패스_5961" data-name="패스 5961" d="M21,50.073c-.289,0,7.414-8.633,7.414-8.633V39.92l2.513,6.5L25.9,51.883Z" transform="translate(5.362 10.285)" fill="#c1d9d9" stroke="#1d1d1b" stroke-miterlimit="10" stroke-width="0.5"/>
      <path id="패스_5962" data-name="패스 5962" d="M34.332,63.874,33.164,52.049s-4.6-6.283-10.178-3.217S5.707,66.852,5.707,66.852L1.46,72.833H8.22a37.346,37.346,0,0,0,5.4-5.315c1.822-2.425-4.071,4.876-3.443,5.617s27.884,0,27.884,0-1.332-2.9-4.9-11" transform="translate(0.349 12.356)" fill="#fff" stroke="#1d1d1b" stroke-miterlimit="10" stroke-width="0.5"/>
      <path id="패스_5963" data-name="패스 5963" d="M23.11,69.118a8.972,8.972,0,0,0,0-4.838" transform="translate(5.905 16.536)" fill="#fff" stroke="#1d1d1b" stroke-miterlimit="10" stroke-width="0.5"/>
      <path id="패스_5964" data-name="패스 5964" d="M9.82,51.521a6.886,6.886,0,0,0,3.38,3.2l4.134-3.946a12.654,12.654,0,0,1-3.77,1.558C12.559,52.313,10.423,50.6,9.82,51.521Z" transform="translate(2.495 13.072)" fill="#86c06a" stroke="#1d1d1b" stroke-miterlimit="10" stroke-width="0.25"/>
      <path id="패스_5965" data-name="패스 5965" d="M9.82,51.437a5.315,5.315,0,0,0,2.061,1.332,6.748,6.748,0,0,0,4.687-1.659" transform="translate(2.495 13.156)" fill="none" stroke="#1d1d1b" stroke-miterlimit="10" stroke-width="0.25"/>
      <path id="패스_5966" data-name="패스 5966" d="M59.06,65.8V58.34h.39v3.343h4.159V58.34h.4V65.8h-.39v-3.77H59.45V65.8Z" transform="translate(15.129 15.012)" fill="#1d1d1b"/>
      <path id="패스_5967" data-name="패스 5967" d="M66.074,59.047a.364.364,0,0,1-.264-.113.49.49,0,0,1-.1-.314.39.39,0,0,1,.1-.276.364.364,0,0,1,.264-.113.327.327,0,0,1,.264.113.352.352,0,0,1,.113.276.44.44,0,0,1-.113.314A.327.327,0,0,1,66.074,59.047Zm-.188,6.786V60.454h.364V65.87Z" transform="translate(16.836 14.983)" fill="#1d1d1b"/>
      <path id="패스_5968" data-name="패스 5968" d="M70.9,68.052a3.355,3.355,0,0,1-1.257-.188,1.671,1.671,0,0,1-.767-.528,1.257,1.257,0,0,1,0-1.508,2.2,2.2,0,0,1,.6-.628h0a1.093,1.093,0,0,1-.339-.339.917.917,0,0,1-.138-.528.968.968,0,0,1,.2-.628,3.469,3.469,0,0,1,.39-.377h0a2.275,2.275,0,0,1-.478-.616,1.784,1.784,0,0,1-.214-.88,1.96,1.96,0,0,1,.251-.98,1.759,1.759,0,0,1,.679-.679,1.822,1.822,0,0,1,.942-.251,2.124,2.124,0,0,1,.415,0,1.256,1.256,0,0,1,.289.1h1.81v.339H72.035a1.621,1.621,0,0,1,.465.6,2,2,0,0,1,.176.829,1.935,1.935,0,0,1-.917,1.671,1.784,1.784,0,0,1-.942.264,1.722,1.722,0,0,1-.49-.075,1.32,1.32,0,0,1-.427-.176,2.161,2.161,0,0,0-.339.339.88.88,0,0,0-.138.478.766.766,0,0,0,.214.54,1.257,1.257,0,0,0,.842.214h1.257a2.274,2.274,0,0,1,1.257.3,1.043,1.043,0,0,1,.427.917,1.533,1.533,0,0,1-.314.88,2.187,2.187,0,0,1-.867.679A3.091,3.091,0,0,1,70.9,68.052Zm0-.327a2.727,2.727,0,0,0,1.118-.214,2.111,2.111,0,0,0,.729-.553A1.169,1.169,0,0,0,73,66.268a.729.729,0,0,0-.327-.679,1.9,1.9,0,0,0-.98-.2H70.2l-.415-.075a1.709,1.709,0,0,0-.578.591,1.257,1.257,0,0,0-.176.628,1.055,1.055,0,0,0,.477.88,2.375,2.375,0,0,0,1.407.314Zm-.126-4.373a1.483,1.483,0,0,0,.729-.2,1.558,1.558,0,0,0,.54-.565,1.634,1.634,0,0,0,.214-.829,1.721,1.721,0,0,0-.2-.829,1.432,1.432,0,0,0-.54-.553,1.508,1.508,0,0,0-.741-.188,1.445,1.445,0,0,0-1.257.729,1.772,1.772,0,0,0-.2.842,1.634,1.634,0,0,0,.214.829,1.558,1.558,0,0,0,.54.565,1.483,1.483,0,0,0,.716.2Z" transform="translate(17.585 15.415)" fill="#1d1d1b"/>
      <path id="패스_5969" data-name="패스 5969" d="M74.53,65.948V57.78h.377v3.632a5.1,5.1,0,0,1,.88-.729,1.809,1.809,0,0,1,1.005-.289,1.5,1.5,0,0,1,1.257.515,2.513,2.513,0,0,1,.4,1.558v3.481h-.377V62.517a2.425,2.425,0,0,0-.3-1.345,1.143,1.143,0,0,0-1.005-.44,1.659,1.659,0,0,0-.917.264,6.07,6.07,0,0,0-.93.8v4.147Z" transform="translate(19.099 14.868)" fill="#1d1d1b"/>
      <path id="패스_5970" data-name="패스 5970" d="M86.016,65.971a2.727,2.727,0,0,1-1.571-.49,3.292,3.292,0,0,1-1.068-1.37A4.888,4.888,0,0,1,83,62.075a4.825,4.825,0,0,1,.39-2.036,3.167,3.167,0,0,1,1.068-1.332,2.822,2.822,0,0,1,3.141,0A3.1,3.1,0,0,1,88.68,60.04a4.825,4.825,0,0,1,.39,2.036,4.888,4.888,0,0,1-.39,2.048,3.217,3.217,0,0,1-1.093,1.357,2.7,2.7,0,0,1-1.571.49Zm0-.339a2.337,2.337,0,0,0,1.395-.44,3.041,3.041,0,0,0,.917-1.257,5.027,5.027,0,0,0,.327-1.872,4.851,4.851,0,0,0-.327-1.847,2.764,2.764,0,0,0-.917-1.257,2.325,2.325,0,0,0-1.395-.427,2.249,2.249,0,0,0-1.37.427,2.6,2.6,0,0,0-.93,1.257,4.624,4.624,0,0,0-.327,1.847,4.75,4.75,0,0,0,.327,1.872,2.852,2.852,0,0,0,.93,1.257A2.262,2.262,0,0,0,86.016,65.631Zm2.161,1.935a2.614,2.614,0,0,1-1.118-.226,2.262,2.262,0,0,1-.817-.628,2.664,2.664,0,0,1-.5-.88h.44a2,2,0,0,0,.427.729,1.872,1.872,0,0,0,.691.465,2.652,2.652,0,0,0,.917.163h.427a1.646,1.646,0,0,0,.314-.075l.088.352-.364.088A3.268,3.268,0,0,1,88.178,67.567Z" transform="translate(21.272 14.983)" fill="#1d1d1b"/>
      <path id="패스_5971" data-name="패스 5971" d="M91.9,65.516a1.47,1.47,0,0,1-1.257-.5,2.513,2.513,0,0,1-.4-1.571V60h.377v3.443a2.35,2.35,0,0,0,.3,1.332,1.118,1.118,0,0,0,.993.44,1.508,1.508,0,0,0,.917-.289,4.838,4.838,0,0,0,.93-.88V60h.364v5.416h-.289V64.5h0a4.75,4.75,0,0,1-.854.767A1.86,1.86,0,0,1,91.9,65.516Z" transform="translate(23.128 15.438)" fill="#1d1d1b"/>
      <path id="패스_5972" data-name="패스 5972" d="M97.461,65.542a1.96,1.96,0,0,1-.779-.151,1.332,1.332,0,0,1-.578-.478,1.584,1.584,0,0,1-.214-.842,1.483,1.483,0,0,1,.854-1.37,7.628,7.628,0,0,1,2.689-.679,3.331,3.331,0,0,0-.075-.867,1.407,1.407,0,0,0-.39-.691,1.169,1.169,0,0,0-.854-.276,2.35,2.35,0,0,0-1.043.226,5.631,5.631,0,0,0-.729.427l-.188-.289.478-.289a2.827,2.827,0,0,1,.653-.239,2.513,2.513,0,0,1,.829-.126,1.583,1.583,0,0,1,.993.289,1.357,1.357,0,0,1,.515.741,3.267,3.267,0,0,1,.151,1.018v3.506h-.3v-.716h0a5.668,5.668,0,0,1-.9.6A2.4,2.4,0,0,1,97.461,65.542Zm0-.339a2.086,2.086,0,0,0,.942-.226,5.793,5.793,0,0,0,1.005-.691V62.338a8.96,8.96,0,0,0-1.872.364,2.224,2.224,0,0,0-.993.565,1.106,1.106,0,0,0-.3.792,1.043,1.043,0,0,0,.364.892,1.5,1.5,0,0,0,.88.251Z" transform="translate(24.58 15.412)" fill="#1d1d1b"/>
      <path id="패스_5973" data-name="패스 5973" d="M102.294,66.081a.6.6,0,0,1-.3-.075.616.616,0,0,1-.188-.239,1.332,1.332,0,0,1,0-.427V57.8h.251v7.628a.465.465,0,0,0,0,.251.188.188,0,0,0,.163.088h.2l.075.327h-.138Z" transform="translate(26.093 14.873)" fill="#1d1d1b"/>
      <path id="패스_5974" data-name="패스 5974" d="M105.2,59.047a.327.327,0,0,1-.264-.113.427.427,0,0,1-.1-.314.339.339,0,0,1,.1-.276.327.327,0,0,1,.264-.113.364.364,0,0,1,.264.113.352.352,0,0,1,.113.276.44.44,0,0,1-.113.314.364.364,0,0,1-.264.113Zm-.188,6.786V60.454h.364V65.87Z" transform="translate(26.876 14.983)" fill="#1d1d1b"/>
      <path id="패스_5975" data-name="패스 5975" d="M109.676,65.842a1.257,1.257,0,0,1-.779-.2,1,1,0,0,1-.39-.54,3.255,3.255,0,0,1-.1-.829V60.627h-.867v-.3h.867v-1.6h.314v1.6h1.608v.339h-1.608V64.36a1.872,1.872,0,0,0,.176.854.829.829,0,0,0,.779.327,1.257,1.257,0,0,0,.352,0,2.125,2.125,0,0,0,.339-.126l.126.314-.477.138a1.671,1.671,0,0,1-.339-.025Z" transform="translate(27.569 15.112)" fill="#1d1d1b"/>
      <path id="패스_5976" data-name="패스 5976" d="M111.888,67.891h-.276l-.251-.088.1-.339.2.075h.251a1.056,1.056,0,0,0,.854-.44,3.455,3.455,0,0,0,.578-1.093l.163-.5L111.26,60h.415l1.37,3.531.289.767c.1.264.214.528.314.767h0c.088-.239.176-.5.264-.767s.176-.528.251-.767L115.419,60h.377l-2.161,6.182a4.764,4.764,0,0,1-.364.829,2.425,2.425,0,0,1-.578.653,1.257,1.257,0,0,1-.8.226Z" transform="translate(28.523 15.438)" fill="#1d1d1b"/>
      <path id="패스_5977" data-name="패스 5977" d="M119.17,65.8l2.677-7.464h.339l2.677,7.464h-.415l-1.558-4.473-.44-1.257c-.138-.4-.276-.842-.415-1.257h0c-.138.465-.276.9-.415,1.257s-.289.842-.452,1.257L119.6,65.8Zm1.156-2.651v-.327h3.343v.327Z" transform="translate(30.553 15.012)" fill="#1d1d1b"/>
      <path id="패스_5978" data-name="패스 5978" d="M127.483,65.553a2.74,2.74,0,0,1-1.118-.226,3.355,3.355,0,0,1-.854-.515l.239-.3a3.355,3.355,0,0,0,.741.5,2.262,2.262,0,0,0,1.018.2,1.382,1.382,0,0,0,1.018-.339,1.106,1.106,0,0,0,.352-.8.854.854,0,0,0-.214-.591,1.834,1.834,0,0,0-.515-.4l-.641-.264-.792-.327a1.923,1.923,0,0,1-.653-.465,1.056,1.056,0,0,1-.264-.754,1.382,1.382,0,0,1,.2-.7,1.432,1.432,0,0,1,.578-.5,1.923,1.923,0,0,1,.93-.2,2.287,2.287,0,0,1,.817.151,2.325,2.325,0,0,1,.691.4l-.214.276a3.38,3.38,0,0,0-.578-.352,1.834,1.834,0,0,0-.729-.138,1.345,1.345,0,0,0-.993.327.993.993,0,0,0-.314.729.8.8,0,0,0,.176.528,1.571,1.571,0,0,0,.478.352l.6.264.653.251a2.3,2.3,0,0,1,.578.3,1.256,1.256,0,0,1,.415.44,1.169,1.169,0,0,1,.163.653,1.426,1.426,0,0,1-.8,1.307,2.048,2.048,0,0,1-.968.2Z" transform="translate(32.18 15.401)" fill="#1d1d1b"/>
      <path id="패스_5979" data-name="패스 5979" d="M131.077,59.047a.327.327,0,0,1-.264-.113.44.44,0,0,1-.113-.314.352.352,0,0,1,.113-.276.327.327,0,0,1,.264-.113.364.364,0,0,1,.264.113.389.389,0,0,1,.1.276.49.49,0,0,1-.1.314.364.364,0,0,1-.264.113Zm-.2,6.786V60.454h.377V65.87Z" transform="translate(33.512 14.983)" fill="#1d1d1b"/>
      <path id="패스_5980" data-name="패스 5980" d="M135.218,65.553a2,2,0,0,1-.779-.151,1.382,1.382,0,0,1-.565-.477,1.583,1.583,0,0,1-.214-.842,1.458,1.458,0,0,1,.854-1.37,7.54,7.54,0,0,1,2.689-.679,2.865,2.865,0,0,0-.088-.867,1.382,1.382,0,0,0-.377-.691,1.181,1.181,0,0,0-.854-.276,2.35,2.35,0,0,0-1.043.226,4.877,4.877,0,0,0-.729.427l-.188-.289a5.356,5.356,0,0,1,.465-.289,3.343,3.343,0,0,1,.679-.289,2.6,2.6,0,0,1,.829-.126,1.6,1.6,0,0,1,1.005.289,1.42,1.42,0,0,1,.515.741,3.267,3.267,0,0,1,.151,1.018v3.506h-.3L137.2,64.7h0a5.666,5.666,0,0,1-.9.6,2.413,2.413,0,0,1-1.081.251Zm0-.339a2.124,2.124,0,0,0,.942-.226,5.793,5.793,0,0,0,1.005-.691V62.349a8.8,8.8,0,0,0-1.872.364,2.224,2.224,0,0,0-.993.565,1.106,1.106,0,0,0-.3.792,1.043,1.043,0,0,0,.364.892,1.5,1.5,0,0,0,.892.251Z" transform="translate(34.271 15.401)" fill="#1d1d1b"/>
      <path id="패스_5981" data-name="패스 5981" d="M139.52,65.408V60.029h.3l.063.854h0a5.39,5.39,0,0,1,.854-.7,1.885,1.885,0,0,1,1.018-.289,1.47,1.47,0,0,1,1.257.515,2.513,2.513,0,0,1,.4,1.558v3.481h-.364V61.977a2.412,2.412,0,0,0-.314-1.345,1.131,1.131,0,0,0-1.005-.44,1.7,1.7,0,0,0-.917.264,6.069,6.069,0,0,0-.93.8v4.147Z" transform="translate(35.775 15.408)" fill="#1d1d1b"/>
      <path id="패스_5982" data-name="패스 5982" d="M150.183,65.8V58.679H147.77V58.34H153v.339h-2.425V65.8Z" transform="translate(37.892 15.012)" fill="#1d1d1b"/>
      <path id="패스_5983" data-name="패스 5983" d="M155.791,65.565a2.375,2.375,0,0,1-1.257-.339,2.513,2.513,0,0,1-.9-.968,3.192,3.192,0,0,1-.339-1.52,3.506,3.506,0,0,1,.188-1.257,2.915,2.915,0,0,1,.528-.9,2.287,2.287,0,0,1,.754-.565,1.91,1.91,0,0,1,.867-.2,2.061,2.061,0,0,1,1.093.289,1.847,1.847,0,0,1,.7.854,3.117,3.117,0,0,1,.251,1.357v.251a1.256,1.256,0,0,1,0,.2h-3.983a2.978,2.978,0,0,0,.264,1.257,2.123,2.123,0,0,0,.741.88,1.91,1.91,0,0,0,1.106.327,2.388,2.388,0,0,0,.892-.151,2.6,2.6,0,0,0,.666-.352l.163.314a5.024,5.024,0,0,1-.691.352A2.413,2.413,0,0,1,155.791,65.565Zm-2.1-3.154h3.644a2.513,2.513,0,0,0-.465-1.659,1.571,1.571,0,0,0-1.257-.54,1.721,1.721,0,0,0-.9.264,2.149,2.149,0,0,0-.7.754,3.191,3.191,0,0,0-.314,1.181Z" transform="translate(39.308 15.389)" fill="#1d1d1b"/>
      <path id="패스_5984" data-name="패스 5984" d="M160.239,65.553a2,2,0,0,1-.779-.151,1.257,1.257,0,0,1-.565-.477,1.6,1.6,0,0,1,.641-2.212,7.54,7.54,0,0,1,2.689-.679,2.865,2.865,0,0,0-.088-.867,1.382,1.382,0,0,0-.377-.691,1.181,1.181,0,0,0-.854-.276,2.35,2.35,0,0,0-1.043.226,4.875,4.875,0,0,0-.729.427l-.188-.289a5.361,5.361,0,0,1,.465-.289,3.344,3.344,0,0,1,.679-.289,2.6,2.6,0,0,1,.829-.126,1.6,1.6,0,0,1,1.005.289,1.42,1.42,0,0,1,.515.741,3.267,3.267,0,0,1,.151,1.018v3.506h-.314V64.7h0a5.266,5.266,0,0,1-.917.6A2.325,2.325,0,0,1,160.239,65.553Zm0-.339a2.161,2.161,0,0,0,.942-.226,5.793,5.793,0,0,0,1.005-.691V62.349a8.8,8.8,0,0,0-1.872.364,2.224,2.224,0,0,0-.993.565,1.106,1.106,0,0,0-.3.792,1.043,1.043,0,0,0,.364.892,1.458,1.458,0,0,0,.955.251Z" transform="translate(40.691 15.401)" fill="#1d1d1b"/>
      <path id="패스_5985" data-name="패스 5985" d="M98.441,34.2H90.336V57.147H86.1V42.671a31.654,31.654,0,0,1-7.653,2.84,36.441,36.441,0,0,1-8.457.98h-7.54A6.71,6.71,0,0,1,58.217,45.3,5.19,5.19,0,0,1,56.7,41V16.747H78.449v3.481H60.856V40.509a3.292,3.292,0,0,0,.44,1.872c.289.427.942.628,1.948.628h6.748a35.5,35.5,0,0,0,8.105-.98,24.1,24.1,0,0,0,7.942-3.481V14.9h4.235V30.62h8.105Z" transform="translate(14.514 3.865)" fill="#1d1d1b"/>
      <path id="패스_5986" data-name="패스 5986" d="M94.75,34.377H109.7q3.77,0,7.678-.264a35.4,35.4,0,0,0,7.992-1.583l.653,3.317a35.424,35.424,0,0,1-8.13,1.608q-4.059.276-7.54.289v7.188H106.11V37.744H94.75Zm24.692-8.268a8.57,8.57,0,0,1-2.337,2.777,9.839,9.839,0,0,1-3.456,1.8,15.393,15.393,0,0,1-8.532,0,10.694,10.694,0,0,1-3.456-1.772,8.344,8.344,0,0,1-2.312-2.777,7.841,7.841,0,0,1-.842-3.694,7.879,7.879,0,0,1,.842-3.694,8.344,8.344,0,0,1,2.312-2.777,11.774,11.774,0,0,1,3.506-1.759,13.823,13.823,0,0,1,4.272-.628,13.446,13.446,0,0,1,4.159.628,11.058,11.058,0,0,1,3.456,1.759,9.135,9.135,0,0,1,2.388,2.827,8.193,8.193,0,0,1,0,7.339Zm-5.026-7.54a8.909,8.909,0,0,0-10.141,0,5.3,5.3,0,0,0,0,7.753,9.085,9.085,0,0,0,10.141,0,5.253,5.253,0,0,0,0-7.753Zm-6.383,41.87a4.913,4.913,0,0,1-3.431-1.03,3.908,3.908,0,0,1-1.081-2.991V47.269h4.235v8.306a1.257,1.257,0,0,0,1.583,1.47h14.4a40.211,40.211,0,0,0,5.328-.327,25.8,25.8,0,0,0,5.026-1.257l.93,3.267a35.185,35.185,0,0,1-11.058,1.7Zm25.132-11.913h-4.172V43.5h-9.626V40.308h9.626V14.7h4.247Z" transform="translate(24.287 3.526)" fill="#1d1d1b"/>
      <path id="패스_5987" data-name="패스 5987" d="M167.317,26.35V14.5h-4.235V37.332a8.9,8.9,0,0,1-.679,3.405,10.456,10.456,0,0,1-1.722,2.852H137.46v3.317h23.762a1.181,1.181,0,0,1,1.093.44,2.061,2.061,0,0,1,.276,1.081v12.34h3.77l.49-13.257a5.026,5.026,0,0,0-.565-2.589,2.852,2.852,0,0,0-2.048-1.257,12.44,12.44,0,0,0,2.1-2.513,7.653,7.653,0,0,0,1.005-4.172V29.667h7.992V26.35Z" transform="translate(35.246 3.763)" fill="#1d1d1d"/>
      <path id="패스_5988" data-name="패스 5988" d="M157.764,28.812a9.348,9.348,0,0,0-.792-3.77,9.877,9.877,0,0,0-2.2-3.129,11.083,11.083,0,0,0-3.456-2.124,11.913,11.913,0,0,0-4.436-.779,12.365,12.365,0,0,0-4.561.779,10.291,10.291,0,0,0-3.43,2.124,8.8,8.8,0,0,0-2.2,3.129,9.964,9.964,0,0,0-.741,3.77h0a9.964,9.964,0,0,0,.741,3.833,8.8,8.8,0,0,0,2.2,3.129,10.291,10.291,0,0,0,3.405,2.149,12.365,12.365,0,0,0,4.561.779,11.912,11.912,0,0,0,4.436-.779,11.083,11.083,0,0,0,3.456-2.124,9.877,9.877,0,0,0,2.2-3.129,9.349,9.349,0,0,0,.792-3.833h0Zm-17.592-.641v-.49a4.04,4.04,0,0,1,.126-.578,7.351,7.351,0,0,1,.892-2.136,5.115,5.115,0,0,1,.415-.6,6.5,6.5,0,0,1,2.149-1.6c.188-.088.377-.151.578-.226a9.173,9.173,0,0,1,2.513-.364,8.306,8.306,0,0,1,2.639.415l.44.176a5.7,5.7,0,0,1,3.267,3.77,7.276,7.276,0,0,1,0,4.624,5.7,5.7,0,0,1-3.229,3.694l-.44.176a8.318,8.318,0,0,1-2.639.4,9.2,9.2,0,0,1-2.513-.352c-.2-.075-.39-.138-.578-.226a6.5,6.5,0,0,1-2.086-1.546,5.117,5.117,0,0,1-.415-.6,7.351,7.351,0,0,1-.892-2.136,4.291,4.291,0,0,0-.126-.578,3.184,3.184,0,0,1,0-.49,4.272,4.272,0,0,1,0-1.257Z" transform="translate(34.859 4.919)" fill="#1d1d1d"/>
      <path id="패스_5989" data-name="패스 5989" d="M159.337,15.46a1.634,1.634,0,1,1,.013,3.267H135.31a1.52,1.52,0,0,1-1.521-1.52v-.3a1.458,1.458,0,0,1,1.52-1.445Z" transform="translate(34.305 4.009)" fill="#1d1d1d"/>
      <path id="패스_5990" data-name="패스 5990" d="M147.419,12.915s-.088-1.395-1.257-1.395h-1.91c-1.156,0-1.257,1.395-1.257,1.395l-.666,3.77h5.73Z" transform="translate(36.496 2.998)" fill="#1d1d1d"/>
    </g>
  </g>
</svg>
