<svg xmlns="http://www.w3.org/2000/svg" xmlns:xlink="http://www.w3.org/1999/xlink" width="51" height="51" viewBox="0 0 51 51">
  <defs>
    <clipPath id="clip-path">
      <rect id="사각형_195" data-name="사각형 195" width="51" height="51" transform="translate(0.414 -0.333)" fill="#fff" stroke="#707070" stroke-width="1"/>
    </clipPath>
  </defs>
  <g id="마스크_그룹_18" data-name="마스크 그룹 18" transform="translate(-0.414 0.333)" clip-path="url(#clip-path)">
    <g id="Layer_2" data-name="Layer 2">
      <g id="Layer_3" data-name="Layer 3">
        <path id="패스_4776" data-name="패스 4776" d="M50.929,25.465A25.465,25.465,0,1,1,25.465,0,25.465,25.465,0,0,1,50.929,25.465Z" fill="#686868"/>
        <path id="패스_4777" data-name="패스 4777" d="M26.071,29.887h.887l-.444-.961Z" transform="translate(-3.941 -4.373)" fill="#fff"/>
        <path id="패스_4778" data-name="패스 4778" d="M28,15.339c-7.993,0-14.449,5.118-14.449,11.434,0,3.746,2.292,7.081,5.824,9.167.739.435.09,1.52.09,1.52l-2.9,3.8a.4.4,0,0,0,.1.435.419.419,0,0,0,.3.123.394.394,0,0,0,.255-.1,19.378,19.378,0,0,0,4.28-1.577A34.179,34.179,0,0,0,25.41,38.01a18.161,18.161,0,0,0,2.6.189c7.993,0,14.474-5.109,14.474-11.426S35.99,15.339,28,15.339ZM20.678,30.051h0V30.1a1.019,1.019,0,1,1-2.037,0v-.049h0V25.229H17.278a.928.928,0,0,1,0-1.856H21.82a.928.928,0,0,1,0,1.856H20.678Zm17.891,1.019a1.035,1.035,0,0,1-.821-.4h0l-1.774-2.4-.37.37v1.438a1.019,1.019,0,0,1-1.98.353.863.863,0,0,1-.821.665H28.991a1.027,1.027,0,0,1-.821-.624l-.041.115a1.035,1.035,0,0,1-.9.534h-.3a.657.657,0,0,1-.23-.131h0a.748.748,0,0,1-.131-.09h0a1.519,1.519,0,0,1-.115-.115h0a1.06,1.06,0,0,1-.23-.435l-.329-.715h-2.53l-.329.715a1.019,1.019,0,0,1-2.013-.238,1.1,1.1,0,0,1,.074-.378h0a.96.96,0,0,1,.041-.09l2.464-5.421a1.019,1.019,0,0,1,1-.821h0a1.019,1.019,0,0,1,1,.821l2.464,5.315V24.6h0V24.49a1.019,1.019,0,0,1,2.037,0,.583.583,0,0,1,0,.115h0v4.764h2.694a.871.871,0,0,1,.772.493V24.5a1.027,1.027,0,0,1,2.045,0v1.29l1.955-1.963a1.043,1.043,0,0,1,.764-.345A1.027,1.027,0,0,1,39.35,24.5a1.01,1.01,0,0,1-.263.682h0l-.049.049-1.585,1.585,1.906,2.612h0a1.019,1.019,0,0,1-.821,1.643Z" transform="translate(-2.048 -2.319)" fill="#fff"/>
        <path id="패스_4779" data-name="패스 4779" d="M30.816,32.523v-.074h0v-.09h0v-.09h0a.96.96,0,0,0-.041-.09l-.049-.107v.238h.049a.994.994,0,0,0-.049.312,1.06,1.06,0,0,0,.082.394.936.936,0,0,0,.082-.37S30.816,32.556,30.816,32.523Z" transform="translate(-4.645 -4.849)" fill="#fff"/>
        <path id="패스_4780" data-name="패스 4780" d="M37.132,32.429v.23a1.282,1.282,0,0,0,.066.353,1.713,1.713,0,0,0-.066-.583Z" transform="translate(-5.614 -4.903)" fill="#fff"/>
      </g>
    </g>
  </g>
</svg>
