<svg xmlns="http://www.w3.org/2000/svg" width="48.473" height="19.618" viewBox="0 0 48.473 19.618">
  <g id="Layer_2" data-name="Layer 2" transform="translate(0 0.002)">
    <g id="Layer_1" data-name="Layer 1">
      <path id="패스_4808" data-name="패스 4808" d="M48.41,17a.68.68,0,0,0-.35-.35c-2.63-2-15.18-3.55-17.07-3.77L29.8,2.75A2.9,2.9,0,0,0,26.8,0L18.57.38A2.89,2.89,0,0,0,15.9,2.63a2.72,2.72,0,0,0-.08.78L14.9,13.49C.11,16.33,0,17.37,0,17.77a.46.46,0,0,0,.24.42C1.9,20,23.37,19.58,24.32,19.56c9.34-.17,17.88-.73,21.73-1.43a12.739,12.739,0,0,0,1.32-.21c.75-.16,1-.34,1.08-.55a.45.45,0,0,0-.04-.37Z"/>
    </g>
  </g>
</svg>
