<svg xmlns="http://www.w3.org/2000/svg" width="481.659" height="313.217" viewBox="0 0 481.659 313.217">
  <g id="그룹_1629" data-name="그룹 1629" transform="translate(-76.904 -63.201)">
    <g id="그룹_1630" data-name="그룹 1630">
      <g id="그룹_1627" data-name="그룹 1627" transform="translate(76.904 63.201)">
        <path id="패스_5660" data-name="패스 5660" d="M297.781,118.261c-2.591-7.789-15.817-6.109-21.771-4.418-3.623,1.029-5.9,2.425-9.911,1.584-1.576-.331-3.282-1.091-4.9-.367-1.7.758-2.659,2.383-1.635,4.006.134.211.531.209.582-.076.582-3.333,5.973-1.682,8.336-1.583,2.486.1,4.8-1.252,7.125-1.979,6.577-2.052,17-3.282,21.813,2.988.124.163.441.081.363-.154Z" transform="translate(-1.567 -42.854)" fill="#699f74"/>
        <path id="패스_5661" data-name="패스 5661" d="M259.939,123.478c-6.43-.5-13.984,3.576-12.629,11.039.653,3.594,2.56,3.863,4.832,5.917,2.824,2.553.533,3.883.321,6.578a5.811,5.811,0,0,0,1.409,4.075c2.194,2.669,5.933,3.166,9.133,3.656a89.074,89.074,0,0,0,18.827.862,90.8,90.8,0,0,0,15.293-2.236c2.729-.642,5.377-1.632,8.106-2.246,5.013-1.126,8.673.286,13.227,2.061a62.713,62.713,0,0,0,15.659,4.236c4.13.447,6.141-.389,9.172-2.861,1.727-1.408-1.313-1.518,3.115-1.5.451,0,.923.407,1.409.425,2.157.076,4.437-.459,6.557-.281,4.076.342,4.625,2.78,7.354,4.709a14.89,14.89,0,0,0,6.148,2.408c6.794,1.143,17.791-1.1,20.394-8.435,2.887-8.141-3.631-15.282-10.776-17.974-6.2-2.338-13.87-1.18-18.991-5.956-3.816-3.559-7-6.82-12.1-8.6-5.451-1.9-11.121-.177-16.308-2.471-4.565-2.02-7.663-3.2-12.561-.889-.789.373-.1,1.526.683,1.167a11.113,11.113,0,0,1,10.031.12c1.257.683,2.342,2.037,3.8,2.383,3.519.84,7.425-.449,11.129.4a24.18,24.18,0,0,1,12.114,6.967c2.281,2.383,4.071,4.4,7.251,5.542,8.177,2.929,20.066,1.43,23.71,11.635,4.342,12.16-12.68,17.516-21.686,13.768-3.02-1.257-4.594-4.568-7.6-5.582a9.8,9.8,0,0,0-3.884-.206c-.879.065-1.751.274-2.635.3-1.7.051-2.572-.777-4.468-.885-1.339-.075-1.377-.383-2.519.517-.78.613-1.016,1.843-1.721,2.523a8.362,8.362,0,0,1-5.077,1.722,30.349,30.349,0,0,1-7.884-1.217c-7.553-1.815-15.143-7.135-23.067-5.413-9.478,2.061-18.281,4.649-28.124,4.762a80.26,80.26,0,0,1-16.564-1.4c-4.572-.914-7.351-3.44-6.089-8.95.184-.808.831-1.463.691-2.369a2.361,2.361,0,0,0-.629-1.327c-1.658-1.959-4.43-1.338-5.926-4.277-3.755-7.371,4.961-11.858,10.873-12.565a.074.074,0,0,0,0-.147Z" transform="translate(-6.524 -41.897)" fill="#699f74"/>
        <path id="패스_5662" data-name="패스 5662" d="M272.546,112.955a16.187,16.187,0,0,1-13.709,9.1c-3.939.229-6.588-1.338-10.226-2.367-1.018-.288-1.826-.8-2.988-.466-1.483.424-2.242,2.147-3.283,3.1-2.748,2.509-6.482,3.221-10.069,3.321-4.2.116-9.62-1.767-13.523.273-3.692,1.926-6.153,6.244-9.761,8.558a36.243,36.243,0,0,1-14.363,5.158c-4.934.717-10.574.862-15.3-.944-6.961-2.66-9.5-10.718-5.018-16.709.233-.31-.3-.724-.54-.417-5.784,7.241-2.073,16.537,6.5,19.082,10.414,3.094,23.455.112,31.949-6.437,2.223-1.713,3.8-4.209,5.983-5.871,3.953-3.011,10.517-.862,14.991-1.091a18.774,18.774,0,0,0,6.719-1.429c3.415-1.517,5.115-4.943,9.375-4.069,5.345,1.1,9.376,2.832,14.886.666a14.973,14.973,0,0,0,8.924-9.224.3.3,0,0,0-.546-.23Z" transform="translate(-38.014 -42.692)" fill="#699f74"/>
        <path id="패스_5663" data-name="패스 5663" d="M220.174,96.181c-14.216-4.3-29.792-1.545-42.7,5.413-7.563,4.078-14.588,8.8-23.461,9.107-3.2.11-6.407-.215-9.589.208-3.8.506-6.9,2.8-10.622,3.295-3.893.52-7.928,0-11.864.451a48.546,48.546,0,0,0-9.364,1.987c-5.87,1.9-11.767,5.125-15.679,10.005-2.375,2.961-3.878,7.607.017,10.021,2,1.24,4.615,1.035,6.825.8,4.589-.482,7.248.857,11.28,2.558,14.472,6.11,31.257,4.571,44.8-3.135a.623.623,0,0,0-.629-1.076,47.862,47.862,0,0,1-25.19,6.8,49.118,49.118,0,0,1-13.015-1.948c-3.611-1.052-6.8-2.957-10.284-4.243-3.107-1.146-5.734-.189-8.914-.229a8.552,8.552,0,0,1-4.126-.807q-2.839-4.914.78-8.253a26.467,26.467,0,0,1,5.184-4.5c6.6-4.514,14.743-6.43,22.646-6.757,3.579-.148,7.247.5,10.684-.731,3.833-1.374,6.49-2.762,10.767-2.92,7.818-.288,14.01-.512,21.147-4.123,7.494-3.791,14.291-8.308,22.517-10.526,9.442-2.546,19.065-2.363,28.664-.954a.232.232,0,0,0,.123-.448Z" transform="translate(-69.62 -50.417)" fill="#699f74"/>
        <path id="패스_5664" data-name="패스 5664" d="M238.324,133.941c3.737.936,5.665,4.459,3.991,7.945-1.319,2.743-4.119,3.929-7.073,4.044-2.868.11-5.563-1.313-8.4-1.138-3.059.191-6.257,2.236-9.042,3.215a68.947,68.947,0,0,1-10.872,2.855c-6.841,1.208-13.413,1.755-20.186,3.415-8.835,2.165-17.564.155-26.19-1.994a.864.864,0,0,0-1.043.592,9.847,9.847,0,0,1-9.449,7.338c-2.455.12-3.606-.09-5.737,1.08-6.391,3.509-12.052,6.055-19.4,6.961a133.022,133.022,0,0,1-18.941.561c-7.126-.144-14.388-.442-21.21-2.7-3.1-1.028-4.459-1.032-5.159-4.14-.6-2.65.147-3.973,1.543-6.192a28.365,28.365,0,0,1,6.615-7.167,45.122,45.122,0,0,1,17.409-7.941c6.541-1.6,13.251-2.276,19.906-3.2,1.941-.27,4.165-.277,5.7-1.662,2.235-2.018,1.582-5.037,5.049-6.551.451-.2.129-.964-.338-.8a7.9,7.9,0,0,0-3.194,1.84c-1.485,1.522-2,4.376-3.979,5.348-2.411,1.186-6.6.929-9.261,1.272-2.287.3-4.575.589-6.852.947-9.056,1.423-18.133,3.84-25.485,9.564-3.733,2.9-12.917,11.8-8.781,17.109,2,2.575,7.309,3.625,10.2,4.3a75.634,75.634,0,0,0,14.6,1.607c9.95.329,20.323.611,30.024-1.98,4.441-1.186,7.891-3.24,11.884-5.4,3.87-2.095,8.179-.6,11.969-3.259,1.572-1.107,2.3-2.53,3.519-3.909.232-.261.325-1.183.62-1.35,1.105-.623,2.538.171,3.644.428,5.494,1.278,11.176,2.338,16.844,1.922,4.581-.335,8.844-2,13.334-2.791,5.68-1.006,11.395-1.086,17.03-2.456a70.54,70.54,0,0,0,9.07-2.873c.882-.348,1.724-.719,2.609-1.078,2.816-1.146,4.632-.851,7.526-.447,3.847.539,7.731.855,10.955-1.781,5.019-4.1,3.416-12-3.282-12.865-.77-.1-.914,1.156-.182,1.34Z" transform="translate(-76.904 -36.234)" fill="#699f74"/>
        <path id="패스_5665" data-name="패스 5665" d="M300.531,99.15c19.313-11.487,44.44-6.951,57.51,11.687,4.759,6.787,7.99,13.3,15.984,16.784s16.8,3.388,25.344,3.88c9.406.54,19.96.895,27.488,7.372,2.731,2.35,4.107,5.01,7.84,5.642,5.282.892,7.454,3.787,11.507,6.838,3.548,2.671,8.276,2.529,11.635,5.392,4.895,4.172,9.224,12.171,4.259,17.717-3.354,3.747-8.61,5.966-13.2,7.7-6.1,2.3-12.767,3.662-19.263,2.407-5.262-1.016-9.892-3.149-15.358-2.741-5.737.428-10.919-.39-16.6-1.043-12.251-1.411-29.759-.208-34.709-14.6-.335-.975-1.876-.571-1.559.43,2.978,9.433,12.547,13.573,21.641,14.942,6.454.972,12.995,1.1,19.458,2.061,6.4.957,12.866-.512,19.106.984,5.477,1.312,10.329,2.94,16.08,2.432a48.448,48.448,0,0,0,15.181-4.239c7.68-3.388,16.79-9.276,12.608-18.869-1.524-3.494-4.263-7.507-7.447-9.687a17.607,17.607,0,0,0-5.262-2.146c-3.857-1.175-6.1-3.17-9.08-5.753a17.6,17.6,0,0,0-4.191-2.958c-2.821-1.262-5.948-1.049-8.406-3.152-3.314-2.837-5.762-5.429-9.932-7.17-9.687-4.044-20.114-2.995-30.32-3.607-5.924-.355-12.08-1.145-17.467-3.8-6.372-3.145-9.447-8.612-13.22-14.315a44.355,44.355,0,0,0-60.3-13.347.677.677,0,0,0,.683,1.167Z" transform="translate(15.129 -51.554)" fill="#699f74"/>
        <path id="패스_5666" data-name="패스 5666" d="M171.294,108.057a39.871,39.871,0,0,1-12.69-5.173c-3.833-2.531-5.125-6-2.206-9.984a18.882,18.882,0,0,1,6.572-5.224A32.626,32.626,0,0,1,175.212,84c4.367-.41,8.37,1.037,12.619,1.074,2.37.021,3.257-.816,4.724-2.543a10.26,10.26,0,0,1,8.271-4.072,10.177,10.177,0,0,0,3.128-.284c1.885-.656,3.138-2.37,4.824-3.346,2.866-1.659,5.745-1.416,8.865-1,4.153.558,7.2-.738,11.125-2.047,17.656-5.888,36.85-8.893,55.333-5.577a79.061,79.061,0,0,1,24.449,8.541,65.878,65.878,0,0,1,9.984,6.763c2.329,1.925,4.278,4.366,7.368,4.96,3.48.669,6.837-1.186,10.285-.789,4.226.488,6.9,3.847,11.379,4.107,5.541.321,10.849-.572,16.3,1.1,6.117,1.871,11.166,6.773,10.989,13.481a.862.862,0,0,0,1.723,0c.192-7.47-5.412-13.043-12.257-15.132-4.642-1.416-9.492-1.281-14.284-1.177a15.1,15.1,0,0,1-8.8-2.189,10.724,10.724,0,0,0-4.408-1.8c-5.344-.65-9.422,2.554-14.362-1.313-3.679-2.879-7.071-5.842-11.109-8.261A79.317,79.317,0,0,0,285.3,64.766a98.64,98.64,0,0,0-30.268-.749,127.6,127.6,0,0,0-14.886,2.746c-5.7,1.4-11.105,3.707-16.75,5.22-4.712,1.264-9.224-1.2-13.9.742a24.1,24.1,0,0,0-3.456,2.172c-3.361,2.073-6.073,1.338-9.391,2.4-4.606,1.47-5.163,6.165-10.95,5.825-4.161-.245-7.905-1.114-12.165-.538-7.135.963-18.846,5.1-20.65,13.258-1.908,8.629,11.919,12.516,18.01,13.69.953.184,1.368-1.234.406-1.47Z" transform="translate(-45.571 -63.201)" fill="#699f74"/>
        <path id="패스_5667" data-name="패스 5667" d="M215.135,98.748c2.285-1.276,4.68-2.543,7.364-2.625,2.895-.089,4.88,1.379,7.528,2.082,2.63.7,4.766-.28,7.211-1.338,9.406-4.066,17.467-8.179,28.057-6.008,7.375,1.511,13.7,7.49,21.444,7.08,3.811-.2,7.353-1.726,11.056-2.479a26.849,26.849,0,0,1,16.67,1.925c.988.445,1.852-1.016.857-1.464-8.393-3.772-15.554-2.571-24.149-.414-6.776,1.7-11.221-.527-17.16-3.354a35.827,35.827,0,0,0-11.622-3.391c-9.695-1.042-17.222,2.766-25.751,6.685-3.46,1.59-4.8,1.69-8.565.472a15.616,15.616,0,0,0-4.206-.985,10.508,10.508,0,0,0-8.828,3.689c-.054.068.013.172.1.126Z" transform="translate(-19.807 -52.706)" fill="#699f74"/>
        <path id="패스_5668" data-name="패스 5668" d="M431.335,156.152c-35.8,33.769-89.368,9.584-130.214,29.612-8.288,4.064-15.807,10.2-19.348,18.942-3.959,9.781-2.557,20.589-3.671,30.845-1.292,11.908-7.422,20.477-15.984,28.433-6.523,6.061-13.634,11.669-18.928,18.91a43.513,43.513,0,0,0-7.868,31.216c1.272,9.641,5.81,20,15.293,23.916.874.36,1.525-1.165.649-1.538-10.578-4.495-14.475-17.725-14.414-28.335.062-11.1,4.581-21.092,12.038-29.167,11.935-12.923,27.759-22.075,30.48-40.922,1.47-10.189-.085-20.866,3.152-30.781,3.6-11.023,13.415-18.07,23.874-22.014,22.084-8.325,46.338-5.935,69.424-7.385,20.291-1.273,41.8-5.693,56.614-20.637a.776.776,0,0,0-1.1-1.1Z" transform="translate(-11.569 -24.865)" fill="#699f74"/>
        <path id="패스_5669" data-name="패스 5669" d="M122.171,154.6c5.573,6.071,13.357,8.545,21.286,9.88,10.032,1.688,20.183,2.551,30.219,4.287,10.114,1.751,21.313,2.912,30.946,6.55,9.47,3.577,13.06,14.3,20.516,20.5,14.216,11.836,34.1,13.644,48.152,25.715,8.459,7.266,11.809,17.282,11.666,28.254-.073,5.556-.83,11.132-3.953,15.863-3.264,4.94-8.1,8.769-12.451,12.694-6.856,6.179-14.044,13.433-15.265,23.054-.654,5.155.84,10.138,1.959,15.111,1.664,7.384,2.162,19.822-8.39,20.332-1.094.054-1.105,1.75,0,1.71,9.02-.321,12.09-9.521,11.205-17.246-.582-5.09-2.465-9.962-2.862-15.077-.539-6.933,2.37-13.125,6.692-18.371,6.572-7.979,16.479-13.381,21.659-22.494,4.691-8.25,4.353-20.1,1.787-28.971-5.515-19.06-25.477-25.192-41.772-32.192-10.821-4.647-19.065-10.4-26.029-19.974a35.266,35.266,0,0,0-7.023-7.835c-4.186-3.134-9.368-4.1-14.374-5.158-12.926-2.717-25.922-5.145-39.03-6.814-11.793-1.5-24.935-1.936-33.8-10.952-.728-.741-1.83.376-1.134,1.134Z" transform="translate(-58.283 -25.987)" fill="#699f74"/>
        <path id="패스_5670" data-name="패스 5670" d="M223.023,187.585c11.594,3.714,20.366,13.466,26.117,23.885,5.816,10.54,7.166,21.3,8.668,33.014.02.153.264.226.3.04,2.188-11.572-2.02-24.646-7.682-34.664-5.685-10.061-15.041-21.463-27.1-23.386a.577.577,0,0,0-.307,1.111Z" transform="translate(-16.668 -12.243)" fill="#699f74"/>
        <path id="패스_5671" data-name="패스 5671" d="M240.855,119.3c-3.1,6.53-3.026,14.7-2.072,21.721a56.262,56.262,0,0,0,3.324,12.838c2.059,5.29,4.578,10.017,2.964,15.881-4.514,16.4-23.3,27.184-22.647,45.281a.564.564,0,0,0,1.126,0c1.2-18.77,20.028-28.61,23.526-46.336,1.494-7.57-3.543-14.509-5.381-21.6-2.471-9.525-1.073-18.138-.57-27.715a.147.147,0,0,0-.271-.074Z" transform="translate(-16.753 -40.037)" fill="#699f74"/>
        <path id="패스_5672" data-name="패스 5672" d="M213.046,122.532c-6.808,7.844-8.543,22.54-3.9,31.751,2.509,4.982,6.63,8.92,11.009,12.266,5.582,4.264,14.643,7.888,17.119,14.893.3.842,1.621.5,1.354-.373-1.228-4.031-4.047-6.468-7.381-8.848-5.574-3.982-11.6-7.427-16.241-12.557a24.549,24.549,0,0,1-6.558-19.009c.516-6.39,3.9-11.854,4.736-18.066a.08.08,0,0,0-.136-.057Z" transform="translate(-23.311 -38.683)" fill="#699f74"/>
        <path id="패스_5673" data-name="패스 5673" d="M234.4,119.777c-6.51,8.363-3.217,18.462.15,27.41a27.748,27.748,0,0,1-7.7,30.634c-.36.312.155.8.514.516a27.273,27.273,0,0,0,10.671-22.6c-.167-5.128-2.291-9.474-3.908-14.246-2.437-7.191-2.63-14.451.734-21.365.134-.276-.242-.632-.458-.353Z" transform="translate(-14.968 -39.854)" fill="#699f74"/>
        <path id="패스_5674" data-name="패스 5674" d="M168.891,145.278c11.068,5.861,15.829,16.2,19.036,27.857a.716.716,0,0,0,1.379-.382c-2.719-10.7-8.338-24.776-20.345-27.645-.1-.024-.167.119-.071.17Z" transform="translate(-38.896 -29.341)" fill="#699f74"/>
        <path id="패스_5675" data-name="패스 5675" d="M173.494,143.878c6.574,4.253,12.186,8.848,16.061,15.779,3.822,6.838,4.958,14.595,9.717,20.962,8.48,11.347,22.028,18.713,35.588,22.019a.623.623,0,0,0,.331-1.2c-15.878-4.509-33.168-14.168-39.29-30.429-4.154-11.036-9.639-24.005-22.391-27.167a.019.019,0,0,0-.016.035Z" transform="translate(-36.978 -29.864)" fill="#699f74"/>
        <path id="패스_5676" data-name="패스 5676" d="M205.523,168.922c-3.818-3.7-10.133-4.431-15.138-5.337-6.837-1.238-13.765-1.881-20.682-2.452-7.676-.633-15.365-1.175-22.99-2.3-6.328-.933-13.378-1.856-17.556-7.248-.524-.677-1.721.233-1.2.923,6.633,8.709,21.132,8.551,31,9.449,15.114,1.375,32,1.023,45.864,7.87.564.278,1.191-.427.7-.906Z" transform="translate(-55.852 -26.76)" fill="#699f74"/>
        <path id="패스_5677" data-name="패스 5677" d="M210.853,121.836c-5.321,6.955-8.878,15.783-8.534,24.65.339,8.786,4.938,16.466,11.1,22.491a82.909,82.909,0,0,0,10.793,8.626c3.012,2.09,5.873,4.276,5.157,8.4-.482,2.782-2.133,5.524-3.331,8.034-3.545,7.429-5.615,14.6-1.126,22.132a.7.7,0,0,0,1.2-.7c-5.326-9.9.957-17.716,4.273-26.883.825-2.278,1.967-5.351.755-7.717-1.319-2.572-5.256-4.22-7.433-5.765-8.2-5.825-16.482-13.232-18.942-23.426-2.524-10.454,1.842-20.426,7.207-29.184.449-.734-.629-1.3-1.121-.656Z" transform="translate(-25.067 -39.077)" fill="#699f74"/>
        <path id="패스_5678" data-name="패스 5678" d="M271.507,143.659c1.559,4.3,4.663,7.451,7.189,11.173a26.445,26.445,0,0,1,4.578,15.229c-.107,12.282-7.68,20.148-15.505,28.578a38.535,38.535,0,0,0-7.3,10.384c-1.755,3.976-1.635,7.659-1.391,11.916.661,11.5-4.415,22.015-12.1,30.306a.676.676,0,0,0,.955.955,41.185,41.185,0,0,0,12.67-25.243c.653-6.192-1.066-11.966,1.5-17.932,2.493-5.8,7.217-10.2,11.532-14.668,6.824-7.063,11.591-14.87,11.45-25.023a28.051,28.051,0,0,0-3.292-12.936c-2.565-4.732-6.552-8.435-8.927-13.313-.363-.748-1.644-.222-1.355.572Z" transform="translate(-6.675 -30.325)" fill="#699f74"/>
        <path id="패스_5679" data-name="패스 5679" d="M284.583,141.668a19.346,19.346,0,0,0-.772,2.472,13.161,13.161,0,0,1-2.859,4.838,39.294,39.294,0,0,1-6.541,5.88c-.715.533-.1,1.685.715,1.225,3.685-2.075,13.207-9.344,9.47-14.415Z" transform="translate(4.615 -30.762)" fill="#699f74"/>
        <path id="패스_5680" data-name="패스 5680" d="M290.059,141.083c-1.077,5.533-2.752,9.156-7.215,12.78-2.7,2.191-4.465,4.144-4.834,7.719-.359,3.473.64,6.954.547,10.438a34.569,34.569,0,0,1-3.306,14.322c-.291.565.54,1.061.858.5a31.294,31.294,0,0,0,3.915-11.861c.547-4.358-.852-8.753-.228-13.026.831-5.685,6.172-7.406,9.17-11.775,1.873-2.729,3.053-6.086,1.5-9.152a.227.227,0,0,0-.411.054Z" transform="translate(5.067 -31.071)" fill="#699f74"/>
        <path id="패스_5681" data-name="패스 5681" d="M350.2,144.14c-2.517,3.394-3.955,7.57-6.23,11.155a46.19,46.19,0,0,1-7.669,9.314c-6.639,6.1-14.632,8.311-23.241,10.256-14.477,3.271-30.624,3.012-41.526,14.526a.5.5,0,0,0,.712.712c12.9-12.545,34.1-11.009,50.392-15.82a37.582,37.582,0,0,0,17.02-10.506c4.748-5.078,10.029-12.414,11-19.443a.253.253,0,0,0-.461-.194Z" transform="translate(3.496 -29.789)" fill="#699f74"/>
        <path id="패스_5682" data-name="패스 5682" d="M268.074,143.4c.01,2.189,2.237,4.353,3.644,5.854a22.014,22.014,0,0,0,6.52,5.1c.565.254,1.31-.481.731-.947a71.823,71.823,0,0,1-6.052-4.871c-1.553-1.548-2.873-4.151-4.823-5.148a.014.014,0,0,0-.02.013Z" transform="translate(2.126 -30.052)" fill="#699f74"/>
        <path id="패스_5683" data-name="패스 5683" d="M335.838,145.578c-.109,6.684-3.751,13.887-7.565,19.231a40.65,40.65,0,0,1-6.066,7.207c-2.728,2.349-6.15,3.529-9.328,5.087-.492.24-.148,1.049.372.883,7.083-2.249,12.186-6.333,16.49-12.319,3.7-5.141,8.552-13.636,6.982-20.209a.453.453,0,0,0-.885.12Z" transform="translate(20.55 -29.328)" fill="#699f74"/>
        <path id="패스_5684" data-name="패스 5684" d="M386.085,154.929c-19.431,13.539-44.385,16.565-67.411,14.186-.765-.079-.953,1.242-.184,1.354,11.693,1.679,24.034,1.767,35.619-.719a133.705,133.705,0,0,0,18.811-5.856c5.033-1.9,10.062-4.16,13.854-8.071.435-.447-.141-1.276-.69-.895Z" transform="translate(22.765 -25.321)" fill="#699f74"/>
        <path id="패스_5685" data-name="패스 5685" d="M234.778,126.82c3.706,4.958,12.978,4.168,17.919,1.806.592-.281.175-1.244-.444-1.053a28.53,28.53,0,0,1-8.659,1.419c-3.271-.033-5.638-1.136-8.482-2.507-.2-.095-.5.119-.335.335Z" transform="translate(-11.658 -37.049)" fill="#699f74"/>
      </g>
      <g id="그룹_1628" data-name="그룹 1628" transform="translate(82.277 87.127)">
        <path id="패스_5686" data-name="패스 5686" d="M232.158,279.066a.469.469,0,0,1-.431-.281,25.34,25.34,0,0,1,.927-21.827.471.471,0,1,1,.828.449,24.383,24.383,0,0,0-.893,21,.47.47,0,0,1-.431.66Z" transform="translate(-19.114 -7.13)" fill="#699f74"/>
        <path id="패스_5687" data-name="패스 5687" d="M233.982,280.016a.472.472,0,0,1-.454-.345l-1.179-4.24a.472.472,0,1,1,.909-.253l1.177,4.24a.471.471,0,0,1-.328.581A.49.49,0,0,1,233.982,280.016Z" transform="translate(-18.023 0.362)" fill="#699f74"/>
        <path id="패스_5688" data-name="패스 5688" d="M251.934,238.161a.47.47,0,0,1-.327-.808,49.848,49.848,0,0,0,13.528-23.464.471.471,0,0,1,.914.229,50.8,50.8,0,0,1-13.788,23.912A.47.47,0,0,1,251.934,238.161Z" transform="translate(-10.114 -24.98)" fill="#699f74"/>
        <path id="패스_5689" data-name="패스 5689" d="M245.313,237.983a.464.464,0,0,1-.308-.114.469.469,0,0,1-.048-.664l3.059-3.535a.471.471,0,0,1,.712.616l-3.059,3.535A.466.466,0,0,1,245.313,237.983Z" transform="translate(-12.852 -16.723)" fill="#699f74"/>
        <path id="패스_5690" data-name="패스 5690" d="M239.683,244.855a.463.463,0,0,1-.225-.058.47.47,0,0,1-.188-.639,89.03,89.03,0,0,1,5.69-9.091.471.471,0,0,1,.767.547,88.211,88.211,0,0,0-5.631,8.995A.47.47,0,0,1,239.683,244.855Z" transform="translate(-15.179 -16.159)" fill="#699f74"/>
        <path id="패스_5691" data-name="패스 5691" d="M265.564,195.733a.524.524,0,0,1-.1-.011.472.472,0,0,1-.358-.563,22.666,22.666,0,0,1,9.526-13.877.472.472,0,1,1,.522.786,21.709,21.709,0,0,0-9.128,13.295A.471.471,0,0,1,265.564,195.733Z" transform="translate(-4.48 -38.344)" fill="#699f74"/>
        <path id="패스_5692" data-name="패스 5692" d="M273.792,181.025a.471.471,0,0,1-.319-.817l2.813-2.606a.471.471,0,1,1,.64.691l-2.813,2.606A.465.465,0,0,1,273.792,181.025Z" transform="translate(-1.078 -39.885)" fill="#699f74"/>
        <path id="패스_5693" data-name="패스 5693" d="M240.161,209.267a.471.471,0,0,1-.423-.26,23.437,23.437,0,0,0-9.642-9.987.471.471,0,0,1,.451-.827,24.4,24.4,0,0,1,10.035,10.391.471.471,0,0,1-.421.683Z" transform="translate(-19.049 -31.345)" fill="#699f74"/>
        <path id="패스_5694" data-name="패스 5694" d="M240.384,212.545a.473.473,0,0,1-.441-.307l-1.413-3.768a.471.471,0,1,1,.882-.331l1.413,3.768a.469.469,0,0,1-.276.606A.452.452,0,0,1,240.384,212.545Z" transform="translate(-15.473 -27.335)" fill="#699f74"/>
        <path id="패스_5695" data-name="패스 5695" d="M223.574,180.628a.5.5,0,0,1-.12-.016.471.471,0,0,1-.336-.575,23.067,23.067,0,0,1,9.02-12.926.472.472,0,0,1,.538.775,22.1,22.1,0,0,0-8.647,12.39A.47.47,0,0,1,223.574,180.628Z" transform="translate(-21.839 -44.205)" fill="#699f74"/>
        <path id="패스_5696" data-name="패스 5696" d="M198.847,182.211a.459.459,0,0,1-.2-.048,13.157,13.157,0,0,1-5.737-5.449.471.471,0,0,1,.825-.455,12.21,12.21,0,0,0,5.323,5.057.471.471,0,0,1-.206.895Z" transform="translate(-34.346 -40.489)" fill="#699f74"/>
        <path id="패스_5697" data-name="패스 5697" d="M200.8,183.531h-.033a2.362,2.362,0,0,1-1.967-1.37.471.471,0,1,1,.859-.387,1.43,1.43,0,0,0,1.173.817.471.471,0,0,1-.032.941Z" transform="translate(-31.901 -38.224)" fill="#699f74"/>
        <path id="패스_5698" data-name="패스 5698" d="M129.072,157.152a.438.438,0,0,1-.12-.016,8.194,8.194,0,0,1-4.947-3.77.471.471,0,1,1,.814-.473,7.253,7.253,0,0,0,4.373,3.333.471.471,0,0,1-.12.926Z" transform="translate(-62.832 -50.145)" fill="#699f74"/>
        <path id="패스_5699" data-name="패스 5699" d="M128.093,154.965a.468.468,0,0,1-.245-.069,5.479,5.479,0,0,1-2.325-2.9.471.471,0,0,1,.892-.305,4.586,4.586,0,0,0,1.924,2.4.471.471,0,0,1-.246.873Z" transform="translate(-62.189 -50.675)" fill="#699f74"/>
        <path id="패스_5700" data-name="패스 5700" d="M177.756,149.7a.464.464,0,0,1-.3-.109l-5.69-4.728a.472.472,0,0,1,.6-.725l5.689,4.728a.471.471,0,0,1-.3.834Z" transform="translate(-43.131 -53.71)" fill="#699f74"/>
        <path id="패스_5701" data-name="패스 5701" d="M232.331,165.141a.472.472,0,0,1-.348-.79A14.009,14.009,0,0,0,235,159.1a.471.471,0,1,1,.9.281,14.959,14.959,0,0,1-3.218,5.606A.471.471,0,0,1,232.331,165.141Z" transform="translate(-18.218 -47.618)" fill="#699f74"/>
        <path id="패스_5702" data-name="패스 5702" d="M366.843,159.081a.471.471,0,0,1-.219-.888,3.944,3.944,0,0,0,1.921-2.348.471.471,0,0,1,.9.264,4.837,4.837,0,0,1-2.387,2.917A.469.469,0,0,1,366.843,159.081Z" transform="translate(37.389 -48.968)" fill="#699f74"/>
        <path id="패스_5703" data-name="패스 5703" d="M356.454,169.125a.47.47,0,0,1-.124-.924A43.9,43.9,0,0,0,376.7,155.945a.471.471,0,0,1,.687.646,44.868,44.868,0,0,1-20.81,12.519A.477.477,0,0,1,356.454,169.125Z" transform="translate(33.094 -48.847)" fill="#699f74"/>
        <path id="패스_5704" data-name="패스 5704" d="M314.092,167.361a.472.472,0,0,1-.155-.917,25.342,25.342,0,0,0,7.3-3.965.471.471,0,0,1,.58.743,26.307,26.307,0,0,1-7.567,4.112A.454.454,0,0,1,314.092,167.361Z" transform="translate(15.582 -46.126)" fill="#699f74"/>
        <path id="패스_5705" data-name="패스 5705" d="M81.252,153.1a.471.471,0,0,1-.462-.383,5,5,0,0,1,.934-3.925.471.471,0,1,1,.748.574,4.044,4.044,0,0,0-.756,3.174.471.471,0,0,1-.375.551A.478.478,0,0,1,81.252,153.1Z" transform="translate(-80.706 -51.818)" fill="#699f74"/>
        <path id="패스_5706" data-name="패스 5706" d="M83.913,158.329a.471.471,0,0,1-.447-.319,15.462,15.462,0,0,1,1.714-13.242.471.471,0,0,1,.786.52,14.506,14.506,0,0,0-1.608,12.42.468.468,0,0,1-.445.622Z" transform="translate(-79.886 -53.494)" fill="#699f74"/>
        <path id="패스_5707" data-name="패스 5707" d="M87.056,158.321a.47.47,0,0,1-.434-.29,16.245,16.245,0,0,1,1.528-15,.471.471,0,0,1,.779.529,15.29,15.29,0,0,0-1.437,14.107.471.471,0,0,1-.254.616A.479.479,0,0,1,87.056,158.321Z" transform="translate(-78.742 -54.209)" fill="#699f74"/>
        <path id="패스_5708" data-name="패스 5708" d="M89.028,154.628a.471.471,0,0,1-.447-.319,12.97,12.97,0,0,1-.481-6.414.472.472,0,0,1,.929.167,11.993,11.993,0,0,0,.445,5.945.469.469,0,0,1-.447.622Z" transform="translate(-77.731 -52.275)" fill="#699f74"/>
        <path id="패스_5709" data-name="패스 5709" d="M91.994,154.778a.465.465,0,0,1-.336-.144,5.767,5.767,0,0,1-1.621-3.907.473.473,0,0,1,.465-.478.485.485,0,0,1,.478.465,4.823,4.823,0,0,0,1.353,3.264.471.471,0,0,1-.338.8Z" transform="translate(-76.849 -51.141)" fill="#699f74"/>
        <path id="패스_5710" data-name="패스 5710" d="M94.4,154.329a.462.462,0,0,1-.25-.072,2.77,2.77,0,0,1-1.091-3.2.472.472,0,0,1,.885.326,1.82,1.82,0,0,0,.708,2.078.471.471,0,0,1-.252.869Z" transform="translate(-75.662 -50.935)" fill="#699f74"/>
        <path id="패스_5711" data-name="패스 5711" d="M96.874,157.493a.47.47,0,0,1-.448-.327,28.343,28.343,0,0,1-1.189-11.5.466.466,0,0,1,.517-.42.471.471,0,0,1,.42.517,27.411,27.411,0,0,0,1.149,11.115.472.472,0,0,1-.305.592A.5.5,0,0,1,96.874,157.493Z" transform="translate(-74.76 -53.21)" fill="#699f74"/>
        <path id="패스_5712" data-name="패스 5712" d="M98.641,154.235a.47.47,0,0,1-.39-.208,6.6,6.6,0,0,1-1.121-3.816.444.444,0,0,1,.482-.461.47.47,0,0,1,.459.482,5.666,5.666,0,0,0,.96,3.268.472.472,0,0,1-.39.735Z" transform="translate(-73.916 -51.348)" fill="#699f74"/>
        <path id="패스_5713" data-name="패스 5713" d="M103.348,156.5a.467.467,0,0,1-.252-.072,8.182,8.182,0,0,1-3.621-5.231.471.471,0,0,1,.923-.191,7.334,7.334,0,0,0,3.2,4.625.471.471,0,0,1-.252.869Z" transform="translate(-72.951 -50.983)" fill="#699f74"/>
        <path id="패스_5714" data-name="패스 5714" d="M99.886,149.468a.471.471,0,0,1-.41-.239,4.764,4.764,0,0,1-.588-2.941.465.465,0,0,1,.524-.408.47.47,0,0,1,.41.524,3.834,3.834,0,0,0,.472,2.359.472.472,0,0,1-.177.643A.461.461,0,0,1,99.886,149.468Z" transform="translate(-73.204 -52.95)" fill="#699f74"/>
        <path id="패스_5715" data-name="패스 5715" d="M106.014,156.56a.472.472,0,0,1-.336-.14,15.12,15.12,0,0,1-3.874-6.842.471.471,0,1,1,.913-.235,14.179,14.179,0,0,0,3.632,6.415.471.471,0,0,1,0,.666A.465.465,0,0,1,106.014,156.56Z" transform="translate(-71.99 -51.662)" fill="#699f74"/>
        <path id="패스_5716" data-name="패스 5716" d="M107.093,153.715a.475.475,0,0,1-.239-.065,3.633,3.633,0,0,1-1.556-1.907.471.471,0,1,1,.89-.308,2.671,2.671,0,0,0,1.145,1.4.471.471,0,0,1-.24.876Z" transform="translate(-70.55 -50.782)" fill="#699f74"/>
        <path id="패스_5717" data-name="패스 5717" d="M110.172,153.395h-.038a2.224,2.224,0,0,1-1.976-1.859.471.471,0,1,1,.931-.134,1.3,1.3,0,0,0,1.121,1.053.471.471,0,0,1-.038.941Z" transform="translate(-69.359 -50.832)" fill="#699f74"/>
        <path id="패스_5718" data-name="패스 5718" d="M136.511,146.032a.472.472,0,0,1-.459-.369,19.87,19.87,0,0,0-6.112-10.377.471.471,0,1,1,.628-.7,20.808,20.808,0,0,1,6.4,10.873.47.47,0,0,1-.356.563A.439.439,0,0,1,136.511,146.032Z" transform="translate(-60.417 -57.667)" fill="#699f74"/>
        <path id="패스_5719" data-name="패스 5719" d="M134,150.283h-.044a.471.471,0,0,1-.427-.512,14.324,14.324,0,0,0-3.5-10.647.471.471,0,1,1,.7-.626,15.276,15.276,0,0,1,3.733,11.36A.471.471,0,0,1,134,150.283Z" transform="translate(-60.362 -56.065)" fill="#699f74"/>
        <path id="패스_5720" data-name="패스 5720" d="M130.047,144.92a.472.472,0,0,1-.452-.339l-.989-3.377a.471.471,0,1,1,.9-.266l.989,3.378a.471.471,0,0,1-.319.585A.479.479,0,0,1,130.047,144.92Z" transform="translate(-60.912 -55.13)" fill="#699f74"/>
        <path id="패스_5721" data-name="패스 5721" d="M130.83,149.107a.511.511,0,0,1-.137-.02.47.47,0,0,1-.314-.588,3.366,3.366,0,0,0-.646-3.093.471.471,0,1,1,.717-.612,4.33,4.33,0,0,1,.831,3.977A.474.474,0,0,1,130.83,149.107Z" transform="translate(-60.485 -53.464)" fill="#699f74"/>
        <path id="패스_5722" data-name="패스 5722" d="M137.664,144.331h-.018a.469.469,0,0,1-.452-.488,10.25,10.25,0,0,0-2.11-6.569.471.471,0,0,1,.745-.578,11.212,11.212,0,0,1,2.307,7.183A.472.472,0,0,1,137.664,144.331Z" transform="translate(-58.267 -56.82)" fill="#699f74"/>
        <path id="패스_5723" data-name="패스 5723" d="M139.143,143.891a.472.472,0,0,1-.462-.383l-.536-2.827a.471.471,0,0,1,.926-.175l.536,2.825a.472.472,0,0,1-.464.56Z" transform="translate(-56.963 -55.327)" fill="#699f74"/>
        <path id="패스_5724" data-name="패스 5724" d="M142.708,148.574a.471.471,0,0,1-.471-.466,31.568,31.568,0,0,0-1.778-10.126.471.471,0,1,1,.889-.311,32.478,32.478,0,0,1,1.83,10.427.472.472,0,0,1-.466.476Z" transform="translate(-56.014 -56.472)" fill="#699f74"/>
        <path id="패스_5725" data-name="패스 5725" d="M143.824,145.175a.471.471,0,0,1-.468-.423L143,141.4a.471.471,0,0,1,.937-.1l.353,3.357a.473.473,0,0,1-.42.519Z" transform="translate(-54.953 -55.016)" fill="#699f74"/>
        <path id="패스_5726" data-name="패스 5726" d="M128.55,150.44a.459.459,0,0,1-.106-.011.472.472,0,0,1-.353-.565,6.9,6.9,0,0,0-.657-4.793.471.471,0,1,1,.827-.451,7.861,7.861,0,0,1,.749,5.456A.472.472,0,0,1,128.55,150.44Z" transform="translate(-61.412 -53.57)" fill="#699f74"/>
        <path id="패스_5727" data-name="패스 5727" d="M126.272,150.343a.47.47,0,0,1-.469-.441l-.177-2.65a.471.471,0,0,1,.94-.062l.177,2.65a.472.472,0,0,1-.44.5Z" transform="translate(-62.136 -52.587)" fill="#699f74"/>
        <path id="패스_5728" data-name="패스 5728" d="M146.075,145.7a.481.481,0,0,1-.078-.007.471.471,0,0,1-.389-.541,5.052,5.052,0,0,0-.322-2.745.471.471,0,0,1,.869-.365,6.009,6.009,0,0,1,.383,3.264A.471.471,0,0,1,146.075,145.7Z" transform="translate(-54.023 -54.654)" fill="#699f74"/>
        <path id="패스_5729" data-name="패스 5729" d="M174.2,126.879a.47.47,0,0,1-.454-.348,6.835,6.835,0,0,1,1.19-5.891.471.471,0,1,1,.742.579,5.878,5.878,0,0,0-1.023,5.064.471.471,0,0,1-.331.578A.479.479,0,0,1,174.2,126.879Z" transform="translate(-42.337 -63.457)" fill="#699f74"/>
        <path id="패스_5730" data-name="패스 5730" d="M178.832,135.239a.471.471,0,0,1-.349-.155c-2.227-2.469-3.139-6.3-2.438-10.258a31.07,31.07,0,0,1,4.062-9.788.471.471,0,1,1,.818.466,30.331,30.331,0,0,0-3.953,9.485c-.65,3.671.175,7.208,2.211,9.463a.471.471,0,0,1-.351.787Z" transform="translate(-41.388 -65.797)" fill="#699f74"/>
        <path id="패스_5731" data-name="패스 5731" d="M179.3,122.378h-.023a.471.471,0,0,1-.448-.493,8.25,8.25,0,0,1,1.248-4,.471.471,0,1,1,.8.5,7.312,7.312,0,0,0-1.105,3.541A.472.472,0,0,1,179.3,122.378Z" transform="translate(-40.139 -64.611)" fill="#699f74"/>
        <path id="패스_5732" data-name="패스 5732" d="M179.065,127.683a.471.471,0,0,1-.471-.469l-.02-4.24a.472.472,0,0,1,.469-.473h0a.472.472,0,0,1,.471.469l.021,4.24a.472.472,0,0,1-.469.474Z" transform="translate(-40.246 -62.613)" fill="#699f74"/>
        <path id="패스_5733" data-name="패스 5733" d="M183.551,134.14a.469.469,0,0,1-.394-.213,16.81,16.81,0,0,1-2.379-12.379.471.471,0,0,1,.924.185,15.857,15.857,0,0,0,2.243,11.679.471.471,0,0,1-.394.728Z" transform="translate(-39.467 -63.163)" fill="#699f74"/>
        <path id="패스_5734" data-name="패스 5734" d="M184.849,129.64a.469.469,0,0,1-.339-.144,8.642,8.642,0,0,1-2.294-4.626.471.471,0,1,1,.931-.144,7.7,7.7,0,0,0,2.041,4.117.471.471,0,0,1-.339.8Z" transform="translate(-38.744 -61.858)" fill="#699f74"/>
        <path id="패스_5735" data-name="패스 5735" d="M188.7,130.108a.473.473,0,0,1-.253-.074,7.95,7.95,0,0,1-3.265-4.254.471.471,0,1,1,.9-.283,6.99,6.99,0,0,0,2.872,3.741.471.471,0,0,1-.253.869Z" transform="translate(-37.522 -61.51)" fill="#699f74"/>
        <path id="패스_5736" data-name="패스 5736" d="M190.889,128.81a.43.43,0,0,1-.085-.008,3.044,3.044,0,0,1-2.416-2.623.471.471,0,1,1,.937-.092,2.075,2.075,0,0,0,1.647,1.788.472.472,0,0,1-.083.936Z" transform="translate(-36.19 -61.305)" fill="#699f74"/>
        <path id="패스_5737" data-name="패스 5737" d="M193.626,127.544a1.676,1.676,0,0,1-1.577-2.013.467.467,0,0,1,.571-.343.472.472,0,0,1,.343.571.674.674,0,0,0,.153.568.72.72,0,0,0,.52.274.468.468,0,0,1,.482.459.473.473,0,0,1-.459.483Z" transform="translate(-34.694 -61.508)" fill="#699f74"/>
        <path id="패스_5738" data-name="패스 5738" d="M244.178,112.7a.5.5,0,0,1-.134-.018.472.472,0,0,1-.318-.585,24.076,24.076,0,0,0,.625-10.872.471.471,0,1,1,.929-.161,25.03,25.03,0,0,1-.65,11.3A.47.47,0,0,1,244.178,112.7Z" transform="translate(-13.321 -71.638)" fill="#699f74"/>
        <path id="패스_5739" data-name="패스 5739" d="M239.08,118.59a.482.482,0,0,1-.222-.055.473.473,0,0,1-.194-.639,28.614,28.614,0,0,0,3.387-13.754.472.472,0,0,1,.466-.476h0a.473.473,0,0,1,.472.466,29.586,29.586,0,0,1-3.5,14.21A.47.47,0,0,1,239.08,118.59Z" transform="translate(-15.428 -70.399)" fill="#699f74"/>
        <path id="패스_5740" data-name="패스 5740" d="M237.471,113.987a.465.465,0,0,1-.155-.025.471.471,0,0,1-.288-.6l1.648-4.711a.471.471,0,1,1,.889.311l-1.648,4.711A.472.472,0,0,1,237.471,113.987Z" transform="translate(-16.093 -68.469)" fill="#699f74"/>
        <path id="패스_5741" data-name="패스 5741" d="M238.305,107.935a.471.471,0,0,1-.472-.471v-2.827a.471.471,0,0,1,.943,0v2.827A.471.471,0,0,1,238.305,107.935Z" transform="translate(-15.749 -70.192)" fill="#699f74"/>
        <path id="패스_5742" data-name="패스 5742" d="M232.165,120.325a.471.471,0,0,1-.352-.784,19.944,19.944,0,0,0,4.962-11.772.463.463,0,0,1,.5-.437.471.471,0,0,1,.437.5,20.889,20.889,0,0,1-5.2,12.332A.47.47,0,0,1,232.165,120.325Z" transform="translate(-18.287 -68.884)" fill="#699f74"/>
        <path id="패스_5743" data-name="패스 5743" d="M229.788,118.516a.472.472,0,0,1-.358-.78,20.1,20.1,0,0,0,3.724-6.417.471.471,0,0,1,.888.314,21.05,21.05,0,0,1-3.9,6.719A.468.468,0,0,1,229.788,118.516Z" transform="translate(-19.27 -67.365)" fill="#699f74"/>
        <path id="패스_5744" data-name="패스 5744" d="M227.82,116.493a.471.471,0,0,1-.37-.763,4.957,4.957,0,0,0,1.047-3.238.471.471,0,0,1,.941-.041,5.9,5.9,0,0,1-1.249,3.863A.469.469,0,0,1,227.82,116.493Z" transform="translate(-20.083 -66.953)" fill="#699f74"/>
        <path id="패스_5745" data-name="패스 5745" d="M251.234,130.933a.472.472,0,0,1-.377-.191,4.012,4.012,0,0,1,.2-4.886.471.471,0,1,1,.708.62,3.042,3.042,0,0,0-.15,3.7.472.472,0,0,1-.379.753Z" transform="translate(-10.669 -61.292)" fill="#699f74"/>
        <path id="패스_5746" data-name="패스 5746" d="M254.467,132.058a.472.472,0,0,1-.438-.294,9.118,9.118,0,0,1,.766-8.216.471.471,0,0,1,.793.509,8.154,8.154,0,0,0-.684,7.354.472.472,0,0,1-.26.613A.49.49,0,0,1,254.467,132.058Z" transform="translate(-9.318 -62.269)" fill="#699f74"/>
        <path id="패스_5747" data-name="패스 5747" d="M255.88,145.938a.472.472,0,0,1-.447-.321,16.6,16.6,0,0,1,5.56-18.011.471.471,0,1,1,.57.749,15.638,15.638,0,0,0-5.235,16.964.472.472,0,0,1-.3.6A.455.455,0,0,1,255.88,145.938Z" transform="translate(-8.796 -60.542)" fill="#699f74"/>
        <path id="패스_5748" data-name="패스 5748" d="M257.539,138.544a.472.472,0,0,1-.445-.315,4.846,4.846,0,0,1,.522-4.185.471.471,0,1,1,.786.52,3.886,3.886,0,0,0-.418,3.354.469.469,0,0,1-.288.6A.5.5,0,0,1,257.539,138.544Z" transform="translate(-7.892 -57.928)" fill="#699f74"/>
        <path id="패스_5749" data-name="패스 5749" d="M260.638,134.142a.438.438,0,0,1-.12-.016.47.47,0,0,1-.335-.575,9.207,9.207,0,0,1,1.986-3.724.471.471,0,0,1,.707.622,8.288,8.288,0,0,0-1.782,3.343A.471.471,0,0,1,260.638,134.142Z" transform="translate(-6.516 -59.65)" fill="#699f74"/>
        <path id="패스_5750" data-name="패스 5750" d="M260.5,142.181a.469.469,0,0,1-.38-.2,7.237,7.237,0,0,1-.5-7.573.471.471,0,0,1,.828.449,6.367,6.367,0,0,0,.431,6.571.472.472,0,0,1-.382.748Z" transform="translate(-7.089 -57.789)" fill="#699f74"/>
        <path id="패스_5751" data-name="패스 5751" d="M263.063,140.844a.469.469,0,0,1-.417-.253,8.305,8.305,0,0,1-.43-6.595.471.471,0,1,1,.885.324,7.352,7.352,0,0,0,.38,5.836.471.471,0,0,1-.2.635A.463.463,0,0,1,263.063,140.844Z" transform="translate(-5.87 -57.988)" fill="#699f74"/>
        <path id="패스_5752" data-name="패스 5752" d="M265.352,139.513a.468.468,0,0,1-.376-.189,4.345,4.345,0,0,1-.77-3.447.471.471,0,1,1,.923.191,3.393,3.393,0,0,0,.6,2.691.472.472,0,0,1-.377.755Z" transform="translate(-4.882 -57.238)" fill="#699f74"/>
        <path id="패스_5753" data-name="패스 5753" d="M269.363,140.894a.469.469,0,0,1-.393-.212,11.416,11.416,0,0,1-1.633-8.451.472.472,0,0,1,.924.187,10.459,10.459,0,0,0,1.5,7.747.472.472,0,0,1-.394.729Z" transform="translate(-3.642 -58.746)" fill="#699f74"/>
        <path id="패스_5754" data-name="패스 5754" d="M271.462,138.775a.476.476,0,0,1-.281-.093,3.8,3.8,0,0,1-1.44-3.616.471.471,0,0,1,.927.161,2.835,2.835,0,0,0,1.077,2.7.473.473,0,0,1,.095.66A.467.467,0,0,1,271.462,138.775Z" transform="translate(-2.58 -57.579)" fill="#699f74"/>
        <path id="패스_5755" data-name="패스 5755" d="M274.081,138.258a.471.471,0,0,1-.41-.237l-.943-1.649a.472.472,0,0,1,.82-.466l.941,1.648a.472.472,0,0,1-.175.643A.465.465,0,0,1,274.081,138.258Z" transform="translate(-1.349 -57.169)" fill="#699f74"/>
        <path id="패스_5756" data-name="패스 5756" d="M292.6,138.028a.472.472,0,0,1-.41-.239,4.617,4.617,0,0,1-.445-3.433.471.471,0,0,1,.91.24,3.673,3.673,0,0,0,.355,2.728.472.472,0,0,1-.41.7Z" transform="translate(6.475 -57.857)" fill="#699f74"/>
        <path id="패스_5757" data-name="패스 5757" d="M298.987,142.45a.476.476,0,0,1-.331-.134,20.043,20.043,0,0,1-5.827-11.765.472.472,0,0,1,.408-.526.48.48,0,0,1,.527.41,19.089,19.089,0,0,0,5.553,11.208.471.471,0,0,1-.331.807Z" transform="translate(6.985 -59.503)" fill="#699f74"/>
        <path id="패스_5758" data-name="패스 5758" d="M299.967,140.054a.472.472,0,0,1-.28-.093,7.682,7.682,0,0,1-3.019-5.272.47.47,0,0,1,.418-.519.481.481,0,0,1,.517.418,6.722,6.722,0,0,0,2.644,4.615.472.472,0,0,1-.281.851Z" transform="translate(8.572 -57.789)" fill="#699f74"/>
        <path id="패스_5759" data-name="패스 5759" d="M302.418,139.224a.481.481,0,0,1-.229-.059,3.667,3.667,0,0,1-1.818-3.582.471.471,0,1,1,.934.117,2.743,2.743,0,0,0,1.343,2.64.472.472,0,0,1-.23.883Z" transform="translate(10.094 -57.375)" fill="#699f74"/>
        <path id="패스_5760" data-name="패스 5760" d="M309.6,146.319a.469.469,0,0,1-.3-.107,20.817,20.817,0,0,1-7.248-12.5.471.471,0,0,1,.93-.154,19.875,19.875,0,0,0,6.914,11.931.471.471,0,0,1-.3.835Z" transform="translate(10.796 -58.206)" fill="#699f74"/>
        <path id="패스_5761" data-name="패스 5761" d="M311.477,143.174a.452.452,0,0,1-.13-.018,6.314,6.314,0,0,1-4.451-6.025.462.462,0,0,1,.481-.462.472.472,0,0,1,.462.481,5.347,5.347,0,0,0,3.767,5.1.47.47,0,0,1-.129.923Z" transform="translate(12.802 -56.756)" fill="#699f74"/>
        <path id="패스_5762" data-name="패스 5762" d="M312.3,141.076a.473.473,0,0,1-.249-.072,2.947,2.947,0,0,1-1.371-2.546.473.473,0,0,1,.472-.458h.013a.473.473,0,0,1,.458.485,2.013,2.013,0,0,0,.926,1.719.472.472,0,0,1-.249.872Z" transform="translate(14.367 -56.205)" fill="#699f74"/>
        <path id="패스_5763" data-name="패스 5763" d="M327.955,142.35a.471.471,0,0,1-.288-.844,3.156,3.156,0,0,0,1.059-3.244.471.471,0,1,1,.906-.259,4.077,4.077,0,0,1-1.388,4.246A.459.459,0,0,1,327.955,142.35Z" transform="translate(21.313 -56.345)" fill="#699f74"/>
        <path id="패스_5764" data-name="패스 5764" d="M329.439,146.462a.471.471,0,0,1-.329-.808,9.945,9.945,0,0,0,2.588-9.409.472.472,0,0,1,.912-.243,10.774,10.774,0,0,1-2.841,10.326A.472.472,0,0,1,329.439,146.462Z" transform="translate(21.926 -57.176)" fill="#699f74"/>
        <path id="패스_5765" data-name="패스 5765" d="M331.633,144.831a.472.472,0,0,1-.349-.789,5.285,5.285,0,0,0,1.313-2.8.476.476,0,0,1,.531-.4.471.471,0,0,1,.4.533,6.256,6.256,0,0,1-1.549,3.306A.469.469,0,0,1,331.633,144.831Z" transform="translate(22.833 -55.033)" fill="#699f74"/>
        <path id="패스_5766" data-name="패스 5766" d="M333.689,140.131h0a.473.473,0,0,1-.468-.475l.017-2.355a.47.47,0,0,1,.471-.468h0a.471.471,0,0,1,.468.474l-.017,2.356A.471.471,0,0,1,333.689,140.131Z" transform="translate(23.683 -56.687)" fill="#699f74"/>
        <path id="패스_5767" data-name="패스 5767" d="M333.676,148.681a.472.472,0,0,1-.365-.77,15.2,15.2,0,0,0,3.155-12.191.472.472,0,0,1,.929-.168,16.158,16.158,0,0,1-3.354,12.957A.473.473,0,0,1,333.676,148.681Z" transform="translate(23.678 -57.377)" fill="#699f74"/>
        <path id="패스_5768" data-name="패스 5768" d="M336.971,145a.467.467,0,0,1-.106-.011.472.472,0,0,1-.353-.565l.707-3.063a.471.471,0,1,1,.919.212l-.707,3.063A.471.471,0,0,1,336.971,145Z" transform="translate(25.04 -54.965)" fill="#699f74"/>
        <path id="패스_5769" data-name="패스 5769" d="M339.031,146.953a.471.471,0,0,1-.341-.8,8.693,8.693,0,0,0,1.184-10.08.471.471,0,0,1,.813-.476,9.661,9.661,0,0,1-1.317,11.208A.47.47,0,0,1,339.031,146.953Z" transform="translate(25.892 -57.294)" fill="#699f74"/>
        <path id="패스_5770" data-name="패스 5770" d="M342.971,142.309a.472.472,0,0,1-.454-.6,6.261,6.261,0,0,0,0-3.286.471.471,0,0,1,.909-.247,7.208,7.208,0,0,1,0,3.781A.472.472,0,0,1,342.971,142.309Z" transform="translate(27.521 -56.274)" fill="#699f74"/>
        <path id="패스_5771" data-name="패스 5771" d="M411.96,150.62a.471.471,0,0,1-.425-.671,8.883,8.883,0,0,0,.755-4.921.471.471,0,1,1,.933-.127,9.816,9.816,0,0,1-.835,5.45A.473.473,0,0,1,411.96,150.62Z" transform="translate(56.041 -53.521)" fill="#699f74"/>
        <path id="패스_5772" data-name="패스 5772" d="M405.28,160.237a.463.463,0,0,1-.257-.076.472.472,0,0,1-.136-.653,36.584,36.584,0,0,0,5.883-19.044.44.44,0,0,1,.479-.462.47.47,0,0,1,.462.481,37.53,37.53,0,0,1-6.037,19.542A.469.469,0,0,1,405.28,160.237Z" transform="translate(53.28 -55.378)" fill="#699f74"/>
        <path id="패스_5773" data-name="패스 5773" d="M404.138,152.917A.489.489,0,0,1,404,152.9a.472.472,0,0,1-.308-.591l1.413-4.476a.471.471,0,0,1,.9.284l-1.413,4.475A.47.47,0,0,1,404.138,152.917Z" transform="translate(52.807 -52.277)" fill="#699f74"/>
        <path id="패스_5774" data-name="패스 5774" d="M403.419,147.37a.483.483,0,0,1-.064,0,.471.471,0,0,1-.406-.527l.493-3.767a.472.472,0,0,1,.936.122l-.493,3.767A.473.473,0,0,1,403.419,147.37Z" transform="translate(52.509 -54.277)" fill="#699f74"/>
        <path id="패스_5775" data-name="패스 5775" d="M397.5,159.676a.471.471,0,0,1-.311-.824A22.836,22.836,0,0,0,404,148.043a.468.468,0,0,1,.581-.325.474.474,0,0,1,.327.582,23.79,23.79,0,0,1-7.1,11.261A.473.473,0,0,1,397.5,159.676Z" transform="translate(50.062 -52.195)" fill="#699f74"/>
        <path id="패스_5776" data-name="패스 5776" d="M395.921,157.17a.471.471,0,0,1-.335-.8,24.078,24.078,0,0,0,6.2-10.991.471.471,0,0,1,.913.232,25,25,0,0,1-6.442,11.42A.469.469,0,0,1,395.921,157.17Z" transform="translate(49.41 -53.302)" fill="#699f74"/>
        <path id="패스_5777" data-name="패스 5777" d="M393.3,154.073a.455.455,0,0,1-.186-.038.471.471,0,0,1-.247-.618l1.413-3.3a.471.471,0,0,1,.866.372l-1.413,3.3A.469.469,0,0,1,393.3,154.073Z" transform="translate(48.329 -51.313)" fill="#699f74"/>
        <path id="패스_5778" data-name="패스 5778" d="M385.946,158.109a.471.471,0,0,1-.293-.841,30.747,30.747,0,0,0,9.386-12.455.474.474,0,0,1,.615-.257.469.469,0,0,1,.257.613,31.689,31.689,0,0,1-9.675,12.838A.471.471,0,0,1,385.946,158.109Z" transform="translate(45.286 -53.509)" fill="#699f74"/>
        <path id="패스_5779" data-name="패스 5779" d="M383.117,155.67a.477.477,0,0,1-.339-.144.471.471,0,0,1,.013-.667,32.111,32.111,0,0,0,5.163-6.454.471.471,0,0,1,.806.489,32.965,32.965,0,0,1-5.316,6.643A.465.465,0,0,1,383.117,155.67Z" transform="translate(44.117 -51.997)" fill="#699f74"/>
        <path id="패스_5780" data-name="패스 5780" d="M380.471,153.6a.471.471,0,0,1-.346-.79l2.591-2.827a.471.471,0,1,1,.694.637l-2.591,2.827A.475.475,0,0,1,380.471,153.6Z" transform="translate(43.023 -51.313)" fill="#699f74"/>
        <path id="패스_5781" data-name="패스 5781" d="M373.315,157.683a.463.463,0,0,1-.31-.117.47.47,0,0,1-.045-.664,23.661,23.661,0,0,0,5.734-13.622.482.482,0,0,1,.506-.432.47.47,0,0,1,.433.506,24.606,24.606,0,0,1-5.963,14.169A.474.474,0,0,1,373.315,157.683Z" transform="translate(40.065 -54.202)" fill="#699f74"/>
        <path id="패스_5782" data-name="패스 5782" d="M371.177,153.41a.47.47,0,0,1-.409-.705l2.834-4.943a.471.471,0,0,1,.817.468l-2.834,4.943A.469.469,0,0,1,371.177,153.41Z" transform="translate(39.181 -52.267)" fill="#699f74"/>
        <path id="패스_5783" data-name="패스 5783" d="M361.223,155.534a.471.471,0,0,1-.324-.813,32.139,32.139,0,0,0,6.948-9.583.471.471,0,1,1,.852.4,33.057,33.057,0,0,1-7.153,9.864A.466.466,0,0,1,361.223,155.534Z" transform="translate(35.066 -53.366)" fill="#699f74"/>
        <path id="패스_5784" data-name="패스 5784" d="M360.3,151.976a.465.465,0,0,1-.261-.079.471.471,0,0,1-.131-.653l2.356-3.533a.471.471,0,1,1,.784.522l-2.356,3.534A.47.47,0,0,1,360.3,151.976Z" transform="translate(34.686 -52.278)" fill="#699f74"/>
        <path id="패스_5785" data-name="패스 5785" d="M356.305,151.573a.471.471,0,0,1-.384-.745l2.356-3.3a.471.471,0,1,1,.767.547l-2.356,3.3A.47.47,0,0,1,356.305,151.573Z" transform="translate(33.033 -52.347)" fill="#699f74"/>
        <path id="패스_5786" data-name="패스 5786" d="M226.553,98.769a.472.472,0,0,1-.464-.558,49.9,49.9,0,0,0,.2-17.532.471.471,0,1,1,.929-.155,50.8,50.8,0,0,1-.2,17.863A.47.47,0,0,1,226.553,98.769Z" transform="translate(-20.607 -80.129)" fill="#699f74"/>
        <path id="패스_5787" data-name="패스 5787" d="M228.854,92.382h-.025a.472.472,0,0,1-.445-.5l.2-3.771a.471.471,0,0,1,.941.051l-.2,3.771A.472.472,0,0,1,228.854,92.382Z" transform="translate(-19.656 -77.013)" fill="#699f74"/>
        <path id="패스_5788" data-name="패스 5788" d="M223.955,89.965a.5.5,0,0,1-.1-.011.472.472,0,0,1-.36-.561,18.125,18.125,0,0,0,.273-6.2.472.472,0,0,1,.936-.119,19.1,19.1,0,0,1-.287,6.519A.471.471,0,0,1,223.955,89.965Z" transform="translate(-21.681 -79.08)" fill="#699f74"/>
        <path id="패스_5789" data-name="패스 5789" d="M230.971,89.856a.471.471,0,0,1-.471-.472V87.971a.471.471,0,0,1,.943,0v1.413A.471.471,0,0,1,230.971,89.856Z" transform="translate(-18.78 -77.082)" fill="#699f74"/>
        <path id="패스_5790" data-name="패스 5790" d="M219.958,93.973a.481.481,0,0,1-.191-.04.473.473,0,0,1-.24-.622,14.811,14.811,0,0,0,1.2-7.3.469.469,0,0,1,.427-.512.475.475,0,0,1,.512.427,15.755,15.755,0,0,1-1.278,7.767A.471.471,0,0,1,219.958,93.973Z" transform="translate(-23.333 -77.91)" fill="#699f74"/>
        <path id="패스_5791" data-name="패스 5791" d="M216.805,93.2a.471.471,0,0,1-.472-.472V90.138a.471.471,0,0,1,.943,0v2.591A.471.471,0,0,1,216.805,93.2Z" transform="translate(-24.637 -76.186)" fill="#699f74"/>
        <path id="패스_5792" data-name="패스 5792" d="M233.668,87.087h-.025a.471.471,0,0,1-.447-.495l.233-4.476a.471.471,0,0,1,.941.049l-.233,4.475A.47.47,0,0,1,233.668,87.087Z" transform="translate(-17.666 -79.492)" fill="#699f74"/>
        <path id="패스_5793" data-name="패스 5793" d="M233.638,90.464l-.047,0a.47.47,0,0,1-.423-.516l.236-2.355a.471.471,0,1,1,.937.093l-.235,2.356A.472.472,0,0,1,233.638,90.464Z" transform="translate(-17.678 -77.219)" fill="#699f74"/>
        <path id="패스_5794" data-name="패스 5794" d="M236.472,89.339a.67.67,0,0,1-.073-.006.471.471,0,0,1-.393-.537l.471-3.063a.471.471,0,0,1,.931.143l-.471,3.063A.473.473,0,0,1,236.472,89.339Z" transform="translate(-16.507 -77.978)" fill="#699f74"/>
        <path id="패스_5795" data-name="패스 5795" d="M238.638,88.022a.47.47,0,0,1-.471-.471V86.138a.471.471,0,1,1,.941,0v1.413A.47.47,0,0,1,238.638,88.022Z" transform="translate(-15.611 -77.84)" fill="#699f74"/>
        <path id="패스_5796" data-name="패스 5796" d="M242.638,89.607a.47.47,0,0,1-.471-.471V82.305a.471.471,0,1,1,.941,0v6.831A.471.471,0,0,1,242.638,89.607Z" transform="translate(-13.957 -79.425)" fill="#699f74"/>
        <path id="패스_5797" data-name="패스 5797" d="M244.8,87.965a.451.451,0,0,1-.136-.02.472.472,0,0,1-.317-.587L245.059,85a.472.472,0,0,1,.9.271l-.707,2.355A.471.471,0,0,1,244.8,87.965Z" transform="translate(-13.062 -78.253)" fill="#699f74"/>
        <path id="패스_5798" data-name="패스 5798" d="M156.892,89.4h-.016a.471.471,0,0,1-.455-.486l.107-3.295a.5.5,0,0,1,.486-.455.471.471,0,0,1,.455.486l-.107,3.295A.47.47,0,0,1,156.892,89.4Z" transform="translate(-49.405 -78.046)" fill="#699f74"/>
        <path id="패스_5799" data-name="패스 5799" d="M160.434,94.955a.472.472,0,0,1-.464-.389,31.922,31.922,0,0,1,.1-11.706.472.472,0,0,1,.926.181,30.949,30.949,0,0,0-.1,11.361.471.471,0,0,1-.383.546A.537.537,0,0,1,160.434,94.955Z" transform="translate(-48.14 -79.157)" fill="#699f74"/>
        <path id="패스_5800" data-name="패스 5800" d="M162.535,87.157l-.052,0a.472.472,0,0,1-.417-.52l.338-3.052a.479.479,0,0,1,.52-.417.472.472,0,0,1,.417.52L163,86.737A.473.473,0,0,1,162.535,87.157Z" transform="translate(-47.072 -78.875)" fill="#699f74"/>
        <path id="패스_5801" data-name="패스 5801" d="M163,93.294a.472.472,0,0,1-.471-.451l-.22-5.184a.471.471,0,1,1,.941-.04l.22,5.183a.47.47,0,0,1-.449.49Z" transform="translate(-46.972 -77.219)" fill="#699f74"/>
        <path id="패스_5802" data-name="패스 5802" d="M166.333,95.264a.469.469,0,0,1-.468-.42l-.9-8.486a.471.471,0,0,1,.937-.1l.9,8.485a.471.471,0,0,1-.418.519Z" transform="translate(-45.876 -77.769)" fill="#699f74"/>
        <path id="패스_5803" data-name="패스 5803" d="M168.373,93.309a.471.471,0,0,1-.469-.44l-.236-3.534a.472.472,0,0,1,.44-.5.481.481,0,0,1,.5.44l.235,3.533a.47.47,0,0,1-.438.5Z" transform="translate(-44.756 -76.53)" fill="#699f74"/>
        <path id="패스_5804" data-name="패스 5804" d="M171.731,93.01a.471.471,0,0,1-.451-.334l-.94-3.063a.471.471,0,0,1,.9-.276l.938,3.063a.472.472,0,0,1-.312.589A.46.46,0,0,1,171.731,93.01Z" transform="translate(-43.659 -76.46)" fill="#699f74"/>
        <path id="패스_5805" data-name="패스 5805" d="M176.426,96.435a.47.47,0,0,1-.448-.325,34.2,34.2,0,0,1-1.695-11.484.458.458,0,0,1,.482-.461.473.473,0,0,1,.459.483,33.267,33.267,0,0,0,1.648,11.167.47.47,0,0,1-.3.6A.437.437,0,0,1,176.426,96.435Z" transform="translate(-42.025 -78.461)" fill="#699f74"/>
        <path id="패스_5806" data-name="패스 5806" d="M178.248,94.111a.472.472,0,0,1-.37-.18,5.9,5.9,0,0,1-.924-5.443.471.471,0,0,1,.89.307,4.937,4.937,0,0,0,.773,4.553.471.471,0,0,1-.078.661A.463.463,0,0,1,178.248,94.111Z" transform="translate(-41.04 -76.804)" fill="#699f74"/>
        <path id="패스_5807" data-name="패스 5807" d="M180.842,93.831a.463.463,0,0,1-.291-.1,2.585,2.585,0,0,1-.784-2.922.471.471,0,0,1,.876.348,1.645,1.645,0,0,0,.492,1.835.471.471,0,0,1-.293.841Z" transform="translate(-39.824 -75.837)" fill="#699f74"/>
        <path id="패스_5808" data-name="패스 5808" d="M122.991,133.094a.474.474,0,0,1-.414-.245,35.053,35.053,0,0,1-4.222-18.784.488.488,0,0,1,.5-.442.473.473,0,0,1,.442.5,34.1,34.1,0,0,0,4.106,18.272.473.473,0,0,1-.411.7Z" transform="translate(-65.167 -66.282)" fill="#699f74"/>
        <path id="패스_5809" data-name="패스 5809" d="M122.064,122.4a.472.472,0,0,1-.421-.259,11.706,11.706,0,0,1-1.254-5.163.471.471,0,0,1,.943-.008,10.751,10.751,0,0,0,1.152,4.746.472.472,0,0,1-.42.684Z" transform="translate(-64.301 -65.093)" fill="#699f74"/>
        <path id="패스_5810" data-name="패스 5810" d="M123.468,127.4a.47.47,0,0,1-.452-.343l-1.4-4.951a.471.471,0,1,1,.906-.256l1.4,4.951a.47.47,0,0,1-.325.581A.449.449,0,0,1,123.468,127.4Z" transform="translate(-63.8 -63.023)" fill="#699f74"/>
        <path id="패스_5811" data-name="패스 5811" d="M119.065,127.735a.469.469,0,0,1-.424-.269,27.336,27.336,0,0,1-2.618-10.093.472.472,0,1,1,.941-.057,26.369,26.369,0,0,0,2.526,9.743.472.472,0,0,1-.425.676Z" transform="translate(-66.106 -64.939)" fill="#699f74"/>
        <path id="패스_5812" data-name="패스 5812" d="M126.7,126.512a.476.476,0,0,1-.273-.086,6.052,6.052,0,0,1-2.5-4.561.471.471,0,0,1,.448-.492.479.479,0,0,1,.493.448,5.09,5.09,0,0,0,2.1,3.836.471.471,0,0,1-.273.855Z" transform="translate(-62.835 -63.079)" fill="#699f74"/>
        <path id="패스_5813" data-name="패스 5813" d="M128.435,125.386a.468.468,0,0,1-.307-.113,3.991,3.991,0,0,1-1.367-2.633.469.469,0,0,1,.424-.513.461.461,0,0,1,.513.424,3.044,3.044,0,0,0,1.043,2.007.471.471,0,0,1-.307.828Z" transform="translate(-61.667 -62.768)" fill="#699f74"/>
        <path id="패스_5814" data-name="패스 5814" d="M132.841,126.643a.47.47,0,0,1-.441-.305l-3.126-8.324a.471.471,0,0,1,.882-.332l3.126,8.325a.47.47,0,0,1-.276.606A.481.481,0,0,1,132.841,126.643Z" transform="translate(-60.64 -64.73)" fill="#699f74"/>
        <path id="패스_5815" data-name="패스 5815" d="M134.862,124.238a.469.469,0,0,1-.311-.117,4.61,4.61,0,0,1-1.536-2.979.471.471,0,1,1,.937-.093,3.657,3.657,0,0,0,1.22,2.363.471.471,0,0,1-.31.827Z" transform="translate(-59.082 -63.388)" fill="#699f74"/>
        <path id="패스_5816" data-name="패스 5816" d="M115.843,125.781a.473.473,0,0,1-.459-.366l-.848-3.719a.471.471,0,1,1,.919-.209l.848,3.719a.474.474,0,0,1-.459.575Z" transform="translate(-66.725 -63.184)" fill="#699f74"/>
        <path id="패스_5817" data-name="패스 5817" d="M112.251,124.519a.471.471,0,0,1-.462-.384l-.53-2.827a.471.471,0,1,1,.926-.174l.53,2.827a.473.473,0,0,1-.464.558Z" transform="translate(-68.079 -63.336)" fill="#699f74"/>
        <path id="패스_5818" data-name="패스 5818" d="M109.289,125.079a.472.472,0,0,1-.438-.3,20.544,20.544,0,0,1-1.388-9.09.466.466,0,0,1,.506-.435.472.472,0,0,1,.434.506,19.591,19.591,0,0,0,1.323,8.67.472.472,0,0,1-.437.646Z" transform="translate(-69.668 -65.608)" fill="#699f74"/>
        <path id="패스_5819" data-name="패스 5819" d="M106.3,122.778a.472.472,0,0,1-.462-.383l-.707-3.71a.471.471,0,0,1,.926-.177l.707,3.71a.473.473,0,0,1-.375.551A.488.488,0,0,1,106.3,122.778Z" transform="translate(-70.611 -64.421)" fill="#699f74"/>
        <path id="패스_5820" data-name="패스 5820" d="M137.627,122.738a.464.464,0,0,1-.24-.066,2.568,2.568,0,0,1-1.234-2.206.471.471,0,0,1,.471-.465h.007a.473.473,0,0,1,.465.478,1.628,1.628,0,0,0,.773,1.384.471.471,0,0,1-.242.876Z" transform="translate(-57.784 -63.646)" fill="#699f74"/>
        <path id="패스_5821" data-name="패스 5821" d="M140.921,122.632a.472.472,0,0,1-.269-.085,4.38,4.38,0,0,1-1.757-2.6.471.471,0,1,1,.917-.211,3.429,3.429,0,0,0,1.377,2.034.472.472,0,0,1-.269.859Z" transform="translate(-56.655 -63.905)" fill="#699f74"/>
        <path id="패스_5822" data-name="패스 5822" d="M299.829,96.115a.455.455,0,0,1-.187-.038.469.469,0,0,1-.246-.618,8.124,8.124,0,0,0-1.084-8.062.471.471,0,1,1,.736-.588,9.088,9.088,0,0,1,1.213,9.022A.47.47,0,0,1,299.829,96.115Z" transform="translate(9.211 -77.44)" fill="#699f74"/>
        <path id="패스_5823" data-name="패스 5823" d="M302.514,92.838a.472.472,0,0,1-.461-.377l-.633-3.077a.471.471,0,0,1,.366-.557.477.477,0,0,1,.557.366l.635,3.078a.474.474,0,0,1-.367.557A.555.555,0,0,1,302.514,92.838Z" transform="translate(10.534 -76.537)" fill="#699f74"/>
        <path id="패스_5824" data-name="패스 5824" d="M305.216,94.424h-.04a.47.47,0,0,1-.43-.509,15.793,15.793,0,0,0-1.076-7.156.471.471,0,0,1,.875-.351,16.741,16.741,0,0,1,1.139,7.586A.47.47,0,0,1,305.216,94.424Z" transform="translate(11.455 -77.656)" fill="#699f74"/>
        <path id="패스_5825" data-name="패스 5825" d="M296.825,96.865a.483.483,0,0,1-.107-.013.472.472,0,0,1-.351-.567,13.21,13.21,0,0,0,.154-5.228.471.471,0,0,1,.927-.161,14.127,14.127,0,0,1-.164,5.606A.472.472,0,0,1,296.825,96.865Z" transform="translate(8.444 -75.839)" fill="#699f74"/>
        <path id="패스_5826" data-name="패스 5826" d="M293.971,95.728a.471.471,0,0,1-.471-.471v-2.12a.471.471,0,0,1,.943,0v2.12A.471.471,0,0,1,293.971,95.728Z" transform="translate(7.264 -74.946)" fill="#699f74"/>
        <path id="패스_5827" data-name="패스 5827" d="M331.365,128.064a.478.478,0,0,1-.158-.027.473.473,0,0,1-.284-.6,48.666,48.666,0,0,0,2.213-24.243.471.471,0,0,1,.93-.154,49.6,49.6,0,0,1-2.257,24.715A.47.47,0,0,1,331.365,128.064Z" transform="translate(22.723 -70.822)" fill="#699f74"/>
        <path id="패스_5828" data-name="패스 5828" d="M335.525,114.133a.485.485,0,0,1-.147-.024.47.47,0,0,1-.3-.594,12.622,12.622,0,0,0-.034-7.9.471.471,0,1,1,.892-.3,13.569,13.569,0,0,1,.038,8.493A.47.47,0,0,1,335.525,114.133Z" transform="translate(24.428 -69.85)" fill="#699f74"/>
        <path id="패스_5829" data-name="패스 5829" d="M337.805,111.878a.471.471,0,0,1-.472-.471v-3.77a.471.471,0,0,1,.943,0v3.77A.471.471,0,0,1,337.805,111.878Z" transform="translate(25.385 -68.951)" fill="#699f74"/>
        <path id="패스_5830" data-name="패스 5830" d="M330.865,112.816h-.011a.471.471,0,0,1-.459-.483l.2-7.539a.5.5,0,0,1,.483-.459.473.473,0,0,1,.459.483l-.2,7.539A.471.471,0,0,1,330.865,112.816Z" transform="translate(22.516 -70.123)" fill="#699f74"/>
        <path id="패스_5831" data-name="패스 5831" d="M329.848,116.038h-.038a.471.471,0,0,1-.431-.509l.209-2.594a.471.471,0,1,1,.938.076l-.209,2.594A.472.472,0,0,1,329.848,116.038Z" transform="translate(22.096 -66.746)" fill="#699f74"/>
        <path id="패스_5832" data-name="패스 5832" d="M338.984,118.731a.538.538,0,0,1-.1-.011.47.47,0,0,1-.355-.564,46.56,46.56,0,0,0,1.121-8.866.472.472,0,0,1,.943.028,47.635,47.635,0,0,1-1.145,9.046A.472.472,0,0,1,338.984,118.731Z" transform="translate(25.872 -68.263)" fill="#699f74"/>
        <path id="패스_5833" data-name="패스 5833" d="M341.638,116.27a.472.472,0,0,1-.42-.686,4.3,4.3,0,0,0,.424-2.546.471.471,0,1,1,.933-.134,5.244,5.244,0,0,1-.517,3.108A.473.473,0,0,1,341.638,116.27Z" transform="translate(26.969 -66.747)" fill="#699f74"/>
        <path id="패스_5834" data-name="패스 5834" d="M326.739,113.176a.46.46,0,0,1-.137-.02.471.471,0,0,1-.314-.588,23.467,23.467,0,0,0,.106-13.138.471.471,0,1,1,.906-.259,24.416,24.416,0,0,1-.11,13.67A.471.471,0,0,1,326.739,113.176Z" transform="translate(20.81 -72.398)" fill="#699f74"/>
        <path id="패스_5835" data-name="패스 5835" d="M325.139,105.573H325.1a.471.471,0,0,1-.437-.5l.236-3.3a.485.485,0,0,1,.5-.437.471.471,0,0,1,.437.5l-.235,3.3A.472.472,0,0,1,325.139,105.573Z" transform="translate(20.148 -71.363)" fill="#699f74"/>
      </g>
    </g>
  </g>
</svg>
